<?xml version="1.0" encoding="UTF-8" standalone="no"?>
<!-- Created with Inkscape (http://www.inkscape.org/) -->

<svg
   width="56.061214mm"
   height="33.484123mm"
   viewBox="0 0 56.061212 33.484123"
   version="1.1"
   id="svg5"
   sodipodi:docname="hand-L.svg"
   inkscape:version="1.1.2 (b8e25be833, 2022-02-05)"
   xmlns:inkscape="http://www.inkscape.org/namespaces/inkscape"
   xmlns:sodipodi="http://sodipodi.sourceforge.net/DTD/sodipodi-0.dtd"
   xmlns="http://www.w3.org/2000/svg"
   xmlns:svg="http://www.w3.org/2000/svg">
  <sodipodi:namedview
     id="namedview7"
     pagecolor="#505050"
     bordercolor="#eeeeee"
     borderopacity="1"
     inkscape:pageshadow="0"
     inkscape:pageopacity="0"
     inkscape:pagecheckerboard="0"
     inkscape:document-units="mm"
     showgrid="false"
     inkscape:zoom="0.99597362"
     inkscape:cx="230.92981"
     inkscape:cy="18.072768"
     inkscape:window-width="1366"
     inkscape:window-height="745"
     inkscape:window-x="-8"
     inkscape:window-y="-8"
     inkscape:window-maximized="1"
     inkscape:current-layer="layer1" />
  <defs
     id="defs2">
    <clipPath
       clipPathUnits="userSpaceOnUse"
       id="clipPath876">
      <rect
         style="fill:#000000;stroke-width:0.264583"
         id="rect878"
         width="84.21199"
         height="63.225403"
         x="147.73204"
         y="-181.54382"
         transform="scale(1,-1)" />
    </clipPath>
  </defs>
  <g
     inkscape:label="Layer 1"
     inkscape:groupmode="layer"
     id="layer1"
     transform="translate(-166.85905,-128.67889)"
     style="display:inline">
    <path
       style="display:inline;fill:#000000;stroke-width:0.264583"
       d="m 188.32599,162.05278 c 0.40018,-0.0606 1.05503,-0.0606 1.45521,0 0.40018,0.0606 0.0728,0.11023 -0.72761,0.11023 -0.80036,0 -1.12778,-0.0496 -0.7276,-0.11023 z m -17.26406,-1.12003 c 0,-0.43743 0.21034,-0.4905 1.84404,-0.46533 1.31889,0.0203 1.88464,0.13422 1.98661,0.39993 0.0784,0.20433 0.29038,0.3161 0.47106,0.24838 0.18067,-0.0677 0.56662,-0.0315 0.85766,0.0804 0.30226,0.11627 -0.69046,0.20929 -2.3151,0.21695 -2.60465,0.0123 -2.84427,-0.0282 -2.84427,-0.48034 z m 18.69648,0.23431 c 0.19162,-0.19162 0.56749,-0.19924 1.1774,-0.0239 l 0.89591,0.25762 -1.1774,0.0239 c -0.83205,0.0169 -1.09483,-0.0587 -0.89591,-0.25762 z m 9.68008,0.0991 c 0.25466,-0.0666 0.67138,-0.0666 0.92604,0 0.25466,0.0665 0.0463,0.121 -0.46302,0.121 -0.50932,0 -0.71768,-0.0545 -0.46302,-0.121 z m -22.225,-0.95415 c -0.61846,-0.29786 -1.12448,-0.63175 -1.12448,-0.74198 0,-0.36733 4.24328,0.13346 5.22552,0.61671 1.03462,0.50902 0.65233,0.73368 -1.19062,0.69973 -1.20104,-0.0221 -2.15421,-0.21027 -2.91042,-0.57446 z m 29.56719,0.45963 c 1.00185,-0.21797 2.38125,-0.25489 2.38125,-0.0637 0,0.1163 -0.62508,0.19764 -1.38907,0.18076 -0.76398,-0.0169 -1.21046,-0.0695 -0.99218,-0.11704 z m -3.175,-0.35666 c 0,-0.1319 0.23812,-0.17755 0.52916,-0.10144 0.29105,0.0761 0.52917,0.18403 0.52917,0.23982 0,0.0558 -0.23812,0.10143 -0.52917,0.10143 -0.29104,0 -0.52916,-0.10792 -0.52916,-0.23981 z m 8.92968,0.0531 c 0.32743,-0.0631 0.86321,-0.0631 1.19063,0 0.32742,0.0631 0.0595,0.11466 -0.59531,0.11466 -0.65485,0 -0.92274,-0.0516 -0.59532,-0.11466 z m -18.98385,-0.32439 c 0,-0.1354 -0.26789,-0.29422 -0.59531,-0.35294 -0.32742,-0.0587 -0.0836,-0.11241 0.5419,-0.11933 0.62546,-0.007 1.20518,-0.0805 1.28827,-0.16363 0.15271,-0.15272 0.88181,0.45159 0.88181,0.73089 0,0.0831 -0.47625,0.15119 -1.05834,0.15119 -0.58208,0 -1.05833,-0.11078 -1.05833,-0.24618 z m 4.44831,0.0654 c 0.19099,-0.0764 0.4192,-0.067 0.50712,0.0209 0.0879,0.0879 -0.0684,0.15045 -0.34727,0.13896 -0.30823,-0.0127 -0.37092,-0.0754 -0.15985,-0.15985 z m -24.75508,-0.27057 c -1.05324,-0.20286 -0.67613,-0.68962 0.39688,-0.51227 0.5457,0.0902 1.14101,0.16531 1.32291,0.16691 0.1819,0.002 0.33073,0.12198 0.33073,0.2675 0,0.26284 -0.91059,0.29742 -2.05052,0.0779 z m 8.53281,-0.32995 c -0.87312,-0.10347 -1.4424,-0.20813 -1.26507,-0.2326 0.55721,-0.0769 0.0464,-0.83917 -0.54917,-0.81963 -0.55145,0.0181 -0.55249,0.0248 -0.0378,0.24599 0.39711,0.17064 0.23204,0.22545 -0.66146,0.21961 -0.95529,-0.006 -1.05988,-0.0477 -0.52916,-0.20957 0.57818,-0.17638 0.60214,-0.22699 0.19027,-0.40194 -0.25915,-0.11008 -0.83062,-0.12826 -1.26992,-0.0404 -0.4946,0.0989 -0.73742,0.0605 -0.63768,-0.10085 0.0886,-0.14333 -0.0175,-0.2606 -0.23582,-0.2606 -0.21828,0 -0.47046,0.11906 -0.5604,0.26458 -0.25102,0.40617 -0.92604,0.31387 -0.92604,-0.12662 0,-0.32001 -0.11894,-0.33701 -0.65362,-0.0934 -0.50021,0.22791 -0.74895,0.2187 -1.05977,-0.0393 -0.26815,-0.22255 -0.7877,-0.28087 -1.52919,-0.17166 -0.86135,0.12687 -1.01297,0.0996 -0.65068,-0.11708 0.27856,-0.16659 1.28245,-0.23066 2.44683,-0.15616 1.24257,0.0795 2.03886,0.0221 2.1482,-0.1548 0.10228,-0.16549 0.0481,-0.20347 -0.13172,-0.0923 -0.43118,0.26649 -0.37935,-0.17502 0.0921,-0.78406 0.39148,-0.50578 0.39491,-0.50555 0.22564,0.0156 -0.11989,0.36911 -0.0863,0.44913 0.11093,0.26458 0.15555,-0.14552 0.41019,-0.6813 0.56587,-1.19062 0.21006,-0.68725 0.25937,-0.74049 0.19122,-0.20645 -0.0522,0.40874 0.0169,0.6524 0.15989,0.56403 0.13844,-0.0856 0.18563,-0.70704 0.10486,-1.38105 -0.13791,-1.15085 -0.13028,-1.1706 0.12523,-0.3242 0.32727,1.0841 0.13978,1.97255 -0.56498,2.67731 -0.28734,0.28734 -0.41188,0.52243 -0.27675,0.52243 0.36924,0 1.01936,-0.72377 1.22112,-1.35944 0.14032,-0.44211 0.22814,-0.48426 0.41015,-0.19687 0.12739,0.20113 0.23161,0.48475 0.23161,0.63027 0,0.14552 -0.10067,0.10577 -0.22371,-0.0883 -0.18012,-0.28415 -0.25505,-0.27126 -0.38452,0.0661 -0.16048,0.41822 0.31051,0.5639 1.4916,0.46138 0.26311,-0.0228 0.40491,0.0774 0.31511,0.22266 -0.0898,0.14531 -0.0273,0.26419 0.13897,0.26419 0.16624,0 0.24795,-0.14883 0.18159,-0.33073 -0.0664,-0.1819 0.13207,-0.62838 0.44097,-0.99219 l 0.56163,-0.66145 -0.66145,0.55595 c -1.09651,0.92161 -1.50269,1.03219 -0.72761,0.19809 0.90857,-0.97774 0.96085,-1.46228 0.0672,-0.62273 -0.36323,0.34123 -0.73728,0.54356 -0.83123,0.44961 -0.094,-0.0939 0.0708,-0.38215 0.36604,-0.64046 0.50493,-0.4417 1.24671,-2.15651 1.02763,-2.37559 -0.0552,-0.0552 -0.28885,0.37069 -0.51922,0.94644 -0.23036,0.57574 -0.55276,1.12957 -0.71643,1.23072 -0.16367,0.10115 -0.0882,-0.21614 0.16768,-0.7051 0.29202,-0.558 0.51005,-1.71141 0.58555,-3.09771 0.0801,-1.47116 0.20248,-2.08961 0.3664,-1.85208 0.16038,0.23239 0.18458,0.0456 0.0695,-0.53639 -0.1231,-0.62238 -0.0879,-0.83814 0.11624,-0.71199 0.18027,0.11141 0.29288,1.13057 0.29288,2.65063 0,1.98181 0.0806,2.50056 0.40828,2.62629 0.31605,0.12128 0.34594,0.27318 0.1323,0.67237 -0.42866,0.80094 -0.32606,0.93552 0.20922,0.27447 0.43319,-0.53496 0.5038,-0.55082 0.65843,-0.14786 0.0956,0.24911 0.0642,0.38399 -0.0701,0.30101 -0.1338,-0.0827 -0.33012,5.3e-4 -0.43627,0.1847 -0.10614,0.18427 -0.0956,0.24678 0.0235,0.1389 0.11908,-0.10788 0.3763,-0.0635 0.57159,0.0985 0.26581,0.22061 0.35507,0.20894 0.35507,-0.0464 0,-0.18759 0.0731,-0.26797 0.16246,-0.17862 0.0893,0.0893 -0.0909,0.48456 -0.40058,0.87824 -0.67606,0.85946 -0.50334,1.22532 0.19716,0.41764 0.27036,-0.31172 0.57043,-0.48789 0.66684,-0.39149 0.0964,0.0964 -0.15381,0.53637 -0.55603,0.97769 -0.6866,0.75336 -0.66349,0.74639 0.378,-0.11394 0.77157,-0.63737 1.07879,-1.07747 1.00907,-1.44553 -0.0551,-0.29104 0.16006,-0.85046 0.4782,-1.24315 0.48426,-0.59776 0.56363,-0.97859 0.48755,-2.33949 -0.0809,-1.44744 -0.14614,-1.61106 -0.59532,-1.4936 -0.77183,0.20184 -0.60773,0.009 0.54165,-0.6372 0.57534,-0.32336 1.10738,-0.7477 1.18232,-0.94297 0.19984,-0.52078 -0.0171,-0.4456 -1.33943,0.46421 -0.65491,0.45059 -1.24973,0.76026 -1.32183,0.68816 -0.0721,-0.0721 0.35298,-0.40316 0.94463,-0.73568 0.86332,-0.48522 1.07573,-0.75291 1.07573,-1.35572 0,-0.74039 -0.009,-0.74494 -0.66146,-0.31773 -0.3638,0.23837 -0.66146,0.32077 -0.66146,0.1831 0,-0.13766 0.29766,-0.4096 0.66146,-0.6043 0.3638,-0.1947 0.66146,-0.45601 0.66146,-0.58067 0,-0.12467 -0.38695,-0.0266 -0.8599,0.21788 -0.79127,0.40908 -0.83092,0.40963 -0.49677,0.007 0.19972,-0.24077 0.27057,-0.43776 0.15743,-0.43776 -0.11313,0 0.0211,-0.25545 0.29834,-0.56767 0.50247,-0.56592 0.50212,-0.56667 -0.11395,-0.24315 -0.33989,0.17849 -0.69707,0.23905 -0.79375,0.13457 -0.0967,-0.10447 -0.0262,-0.24335 0.1566,-0.30862 0.47837,-0.17078 0.12753,-0.60263 -0.48959,-0.60263 -0.43495,0 -0.47681,0.086 -0.24897,0.51177 0.15064,0.28147 0.2689,0.66843 0.2628,0.8599 -0.006,0.19146 -0.23511,-0.0686 -0.50892,-0.57792 l -0.49784,-0.92604 0.0773,1.05833 c 0.0425,0.58208 0.0254,0.72427 -0.0381,0.31598 -0.0736,-0.47361 -0.41344,-0.92363 -0.93871,-1.24306 -0.90728,-0.55175 -1.32388,-0.47956 -1.06879,0.18521 0.11076,0.28864 0.0631,0.36837 -0.14385,0.24049 -0.17025,-0.10522 -0.30954,-0.42241 -0.30954,-0.70486 0,-0.63966 -0.44774,-0.67667 -0.61137,-0.0505 -0.0911,0.34843 -0.12859,0.31569 -0.15169,-0.13229 -0.0188,-0.36509 -0.20976,-0.60777 -0.49371,-0.62751 -2.13701,-0.14857 -2.04266,-0.19851 -2.07901,1.10057 -0.0185,0.66169 -0.28674,1.67123 -0.59752,2.24895 -0.49474,0.91967 -0.53963,0.95091 -0.36584,0.25455 0.10895,-0.43656 0.17858,-1.32953 0.15472,-1.98438 -0.029,-0.79594 0.0236,-1.01538 0.15877,-0.66197 0.17311,0.45269 0.2198,0.40843 0.32495,-0.308 0.12016,-0.81866 0.0968,-0.83981 -1.08482,-0.98403 -0.66418,-0.0811 -2.05692,-0.20997 -3.09496,-0.28644 -2.51082,-0.18498 -4.93119,-0.7527 -5.07726,-1.1909 -0.0944,-0.28318 0.19416,-0.31553 1.4389,-0.16133 0.85633,0.10608 2.44993,0.27728 3.54134,0.38043 1.09141,0.10315 2.26943,0.34569 2.61783,0.53899 0.36709,0.20366 1.04793,0.29585 1.61913,0.21924 1.07744,-0.14452 3.17111,0.31456 4.44948,0.97563 1.03937,0.53748 2.61435,0.53393 4.48583,-0.0101 1.44591,-0.42034 1.49008,-0.41742 1.93136,0.12754 l 0.45161,0.5577 1.52422,-0.5244 c 2.03626,-0.70058 2.70486,-0.68372 2.81203,0.0709 0.10959,0.77167 0.51714,0.75261 1.44846,-0.0677 1.76092,-1.55112 3.52056,-2.63967 4.69103,-2.90198 0.68911,-0.15443 2.04943,-0.67249 3.02295,-1.15125 0.97351,-0.47875 2.03792,-0.85009 2.36534,-0.82519 0.32742,0.0249 0.59531,0.01 0.59531,-0.0342 0,-0.12113 -3.61118,-5.28536 -5.22767,-7.47592 -1.34811,-1.82687 -1.40286,-1.96038 -0.9459,-2.30669 0.82193,-0.6229 0.88879,-0.5755 2.257,1.59997 0.45761,0.7276 1.13845,1.65748 1.51297,2.0664 0.37451,0.40891 1.15783,1.49727 1.74071,2.41856 2.78122,4.39605 2.86533,4.48874 4.53593,4.99911 0.853,0.26059 2.44389,0.9135 3.53529,1.4509 1.56628,0.77123 2.07705,1.1716 2.4242,1.90023 0.2419,0.50772 0.80745,1.684 1.25677,2.61394 0.44932,0.92995 0.81695,2.01236 0.81695,2.40535 0,0.65581 0.45372,2.38239 0.92255,3.51061 0.15531,0.37377 0.0555,0.46303 -0.51783,0.46303 h -0.71022 l 1.17711,1.38906 c 0.64742,0.76398 1.38459,1.80578 1.63817,2.3151 0.25358,0.50933 0.76814,1.25425 1.14347,1.65539 0.52868,0.56504 0.61129,0.80049 0.36667,1.04511 -0.24462,0.24462 -0.31575,0.23692 -0.31575,-0.0341 0,-0.28562 -0.0799,-0.28357 -0.43505,0.0111 -0.38406,0.31874 -0.41477,0.29722 -0.26212,-0.18376 0.18272,-0.57569 -0.57486,-1.48934 -1.71434,-2.06753 -0.31859,-0.16166 -0.71001,-0.52703 -0.86981,-0.81192 -0.56142,-1.00089 -1.02941,-1.32032 -1.81378,-1.23804 -0.92348,0.0969 -2.3117,-1.06096 -2.31582,-1.93149 -0.002,-0.33761 -0.24366,-0.0412 -0.63457,0.7771 -0.77712,1.62674 -1.87277,2.81367 -2.40777,2.60838 -0.21706,-0.0833 -0.39466,-0.28003 -0.39466,-0.43721 0,-0.15718 -0.32742,0.0248 -0.7276,0.40433 -1.62134,1.53779 -6.50465,2.4021 -7.20147,1.27461 -0.11762,-0.19031 -0.34622,-0.2642 -0.50802,-0.16421 -0.16179,0.1 -0.29416,0.0599 -0.29416,-0.0891 0,-0.14899 0.23813,-0.39833 0.52917,-0.55409 0.38751,-0.2074 0.52916,-0.20122 0.52916,0.0231 0,0.22173 0.10957,0.21536 0.39688,-0.0231 0.54157,-0.44947 0.50143,-0.0347 -0.062,0.64062 -0.25239,0.3025 -0.10356,0.23168 0.33073,-0.15738 0.97899,-0.87704 4.01749,-1.54074 4.41779,-0.96497 0.16382,0.23564 0.18821,0.15495 0.0749,-0.24777 -0.0959,-0.34091 0.0102,-0.9545 0.24725,-1.42972 0.22842,-0.45787 0.41531,-1.22866 0.41531,-1.71285 0,-0.71447 -0.1226,-0.91112 -0.65061,-1.04364 -0.35783,-0.0898 -0.77408,-0.31207 -0.92499,-0.49391 -0.21737,-0.26192 -0.56322,-0.23083 -1.6645,0.14962 -0.76456,0.26412 -1.70805,0.48411 -2.09664,0.48886 -0.3886,0.005 -1.57922,0.45205 -2.64584,0.99401 -1.76618,0.8974 -2.16957,0.99463 -4.51898,1.0891 -1.92032,0.0772 -2.57969,0.19383 -2.57969,0.45621 0,0.19386 -0.29683,0.67275 -0.65962,1.06421 -0.60794,0.65597 -0.77157,0.69857 -2.08873,0.54376 -1.16217,-0.13658 -1.45905,-0.09 -1.58934,0.24958 -0.2486,0.64783 -0.20283,0.67747 0.43508,0.28184 0.44535,-0.27621 0.82756,-0.30512 1.51724,-0.11476 l 0.92193,0.25447 -0.63878,0.34186 c -0.61262,0.32787 -0.58537,0.34892 0.66558,0.51425 0.71739,0.0948 2.07825,0.16785 3.02414,0.1623 1.55037,-0.009 2.42082,0.0394 4.49791,0.25077 1.00614,0.10238 -1.14687,0.50252 -2.77812,0.51632 -0.98874,0.008 -1.22266,-0.058 -0.92604,-0.26266 0.28523,-0.19681 -0.0497,-0.23684 -1.19063,-0.14228 -0.87312,0.0724 -2.12328,0.15063 -2.77812,0.17394 l -1.19063,0.0424 1.1483,0.25653 c 0.63156,0.14109 1.09056,0.31426 1.02,0.38482 -0.22754,0.22754 -3.35367,-0.22788 -3.20587,-0.46703 0.0785,-0.12705 -0.0499,-0.23099 -0.28534,-0.23099 -0.23546,0 -0.36237,0.10636 -0.28203,0.23636 0.0803,0.13 -0.14243,0.30877 -0.49505,0.39727 -0.35262,0.0885 -0.83131,0.35109 -1.06376,0.58354 -0.50857,0.50857 -1.8389,0.63653 -3.98,0.38282 z m 3.60751,-0.51731 0.62343,-0.50482 -0.97448,0.0276 c -0.53597,0.0152 -0.91536,0.1233 -0.84309,0.24024 0.0723,0.11693 -0.26258,0.22448 -0.74411,0.23898 -0.82314,0.0248 -0.83594,0.0391 -0.21405,0.23821 1.06813,0.34208 1.49155,0.29482 2.1523,-0.24023 z m -3.29883,-0.15664 c 0,-0.21828 -0.0865,-0.39688 -0.19217,-0.39688 -0.1057,0 -0.26072,0.1786 -0.34448,0.39688 -0.0873,0.22754 -0.005,0.39687 0.19218,0.39687 0.18946,0 0.34447,-0.17859 0.34447,-0.39687 z m 3.79236,-1.19063 c 0,-0.14552 -0.12608,-0.26458 -0.28019,-0.26458 -0.15411,0 -0.20662,0.11906 -0.11668,0.26458 0.0899,0.14552 0.21603,0.26459 0.2802,0.26459 0.0642,0 0.11667,-0.11907 0.11667,-0.26459 z m 2.35921,-0.69946 c 0.0606,-0.0519 -0.25977,-0.0943 -0.71199,-0.0943 -0.45223,0 -0.89471,0.11727 -0.98329,0.2606 -0.14601,0.23625 1.40218,0.0844 1.69528,-0.16631 z m 0.4298,-0.34127 c -0.0959,-0.1552 -0.29113,-0.28218 -0.4338,-0.28218 -0.14267,0 -0.10588,0.16658 0.0818,0.37019 0.37985,0.41217 0.62352,0.35126 0.35204,-0.088 z m -7.02234,-0.82066 c 0,-0.37588 -0.12665,-0.31825 -0.6866,0.31239 -0.50132,0.56463 -0.50083,0.56599 0.0913,0.25528 0.32742,-0.17182 0.59531,-0.42727 0.59531,-0.56767 z m 26.19375,-0.58465 c 0,-0.14759 -0.17549,-0.11894 -0.39687,0.0648 -0.21829,0.18116 -0.39688,0.44844 -0.39688,0.59396 0,0.1476 0.17549,0.11895 0.39688,-0.0648 0.21828,-0.18116 0.39687,-0.44844 0.39687,-0.59396 z m -22.41323,-1.59906 c 0.32181,-0.32181 0.6744,-0.55534 0.78354,-0.51896 0.10914,0.0364 0.19844,-0.47746 0.19844,-1.14187 0,-0.66441 0.10394,-1.40855 0.23097,-1.65365 0.12703,-0.24509 0.14193,-0.98141 0.0331,-1.63625 -0.20653,-1.24287 -0.21741,-1.20335 -0.43714,1.58739 -0.17378,2.20728 -0.34434,2.36746 -0.39923,0.37494 l -0.0431,-1.56545 -0.17833,1.4552 -0.17833,1.45521 -0.0431,-1.27238 c -0.0237,-0.69982 -0.1359,-1.21505 -0.24929,-1.14497 -0.11339,0.0701 -0.13943,0.92271 -0.0579,1.89473 0.12904,1.53773 0.0736,1.86862 -0.42708,2.54719 -0.36835,0.49928 -0.52039,0.98935 -0.42255,1.36203 0.13582,0.51739 0.17797,0.48535 0.37887,-0.28795 0.12433,-0.47856 0.48935,-1.13341 0.81115,-1.45521 z m 2.83406,1.38037 c 0,-0.40355 0.58792,-0.93844 1.26912,-1.15465 0.32063,-0.10176 0.58297,-0.36262 0.58297,-0.57968 0,-0.21707 0.11906,-0.32108 0.26458,-0.23114 0.14552,0.0899 0.26458,-0.0136 0.26458,-0.23007 0,-0.21648 0.15979,-0.55338 0.35509,-0.74868 0.80918,-0.80918 0.95362,-1.50895 0.84642,-4.10081 -0.11787,-2.84976 -0.4851,-4.04857 -1.24018,-4.04857 -0.26559,0 -1.03204,0.14687 -1.70321,0.32638 l -1.22031,0.32639 0.16571,1.2492 c 0.0911,0.68706 0.33707,1.73487 0.54651,2.32847 0.30413,0.862 0.32777,1.51686 0.11741,3.25306 -0.14485,1.19559 -0.37912,2.51898 -0.52061,2.94088 -0.31731,0.94621 -0.31726,0.9527 0.007,0.9527 0.14552,0 0.26458,-0.12756 0.26458,-0.28348 z m 1.75641,-5.66964 c 0.0838,-0.21828 0.19909,-0.39688 0.25628,-0.39688 0.0572,0 0.10398,0.1786 0.10398,0.39688 0,0.21828 -0.11533,0.39687 -0.25628,0.39687 -0.14095,0 -0.18775,-0.17859 -0.10398,-0.39687 z m 1.46037,-0.13229 c 0,-0.36381 0.06,-0.51263 0.13345,-0.33073 0.0734,0.1819 0.0734,0.47956 0,0.66146 -0.0734,0.1819 -0.13345,0.0331 -0.13345,-0.33073 z m -0.52917,-0.26459 c 0,-0.3638 0.0601,-0.51263 0.13346,-0.33073 0.0734,0.18191 0.0734,0.47956 0,0.66146 -0.0734,0.1819 -0.13346,0.0331 -0.13346,-0.33073 z m -2.24663,-2.02847 c -0.32048,-0.32048 -0.18328,-1.60518 0.20592,-1.92819 0.21027,-0.17451 0.6446,-0.27839 0.96517,-0.23083 1.45488,0.2158 1.23762,2.33541 -0.23938,2.33541 -0.41543,0 -0.8347,-0.0794 -0.93171,-0.17639 z m 1.51381,-0.3049 c 0.0737,-0.11919 -0.21697,-0.16521 -0.64584,-0.10226 -0.42888,0.0629 -0.77978,0.16046 -0.77978,0.21671 0,0.2016 1.29452,0.0977 1.42562,-0.11445 z m -0.48068,-0.84163 c 0,-0.29104 -0.0649,-0.52916 -0.14424,-0.52916 -0.0793,0 -0.29296,0.23812 -0.47471,0.52916 -0.28436,0.45534 -0.26424,0.52917 0.14424,0.52917 0.29832,0 0.47471,-0.19662 0.47471,-0.52917 z m -0.57637,9.10649 c 0.24843,-0.6474 0.19448,-0.7115 -0.23628,-0.28074 -0.4498,0.4498 -0.50709,0.69925 -0.1606,0.69925 0.12996,0 0.30855,-0.18833 0.39688,-0.41851 z m 21.20299,-0.58771 c -0.17779,-0.17778 -0.93406,0.48213 -0.93406,0.81504 0,0.15026 0.23886,0.057 0.53079,-0.20716 0.29193,-0.2642 0.4734,-0.53774 0.40327,-0.60788 z m -24.91546,0.34477 c 0.0838,-0.21829 0.037,-0.39688 -0.10399,-0.39688 -0.14095,0 -0.25628,0.17859 -0.25628,0.39688 0,0.21828 0.0468,0.39687 0.10399,0.39687 0.0572,0 0.17252,-0.17859 0.25628,-0.39687 z m 23.51208,-1.20952 c 0.49631,-1.27019 0.41849,-2.63092 -0.20594,-3.60101 -0.20434,-0.31746 -1.15817,-1.04831 -2.11962,-1.62411 -1.02984,-0.61677 -1.62536,-1.12277 -1.44939,-1.23152 0.16429,-0.10154 0.45327,-0.0563 0.64218,0.10046 0.18892,0.15678 0.41391,0.21464 0.49998,0.12857 0.0861,-0.0861 0.31324,-0.0586 0.50482,0.061 0.19158,0.11962 0.46739,0.24463 0.61292,0.2778 1.86642,0.42542 3.16545,1.50344 2.41128,2.00104 -0.17703,0.11681 -0.0834,0.19762 0.23455,0.20249 0.43893,0.007 0.46149,0.0518 0.13229,0.26459 -0.29759,0.19232 -0.30862,0.25749 -0.0441,0.26053 0.19403,0.002 0.29941,0.15288 0.23419,0.33478 -0.0652,0.1819 -0.0114,0.53909 0.11955,0.79375 0.17844,0.34693 0.13239,0.46302 -0.18365,0.46302 -0.25146,0 -0.34556,-0.12336 -0.23302,-0.30546 0.12479,-0.2019 0.0716,-0.23306 -0.15675,-0.0919 -0.27349,0.16902 -0.25346,0.2809 0.096,0.53643 0.48612,0.35546 0.30967,1.29126 -0.19067,1.01123 -0.19715,-0.11034 -0.19067,-0.0483 0.0185,0.17752 0.25454,0.2748 0.22699,0.41794 -0.13229,0.68712 -0.40189,0.3011 -0.37814,0.32251 0.20764,0.18709 0.3638,-0.0841 0.81029,-0.33906 0.99219,-0.56657 0.43907,-0.54919 0.43206,-4.72554 -0.009,-5.6042 -0.22485,-0.44751 -1.20651,-1.08935 -3.03501,-1.98437 -1.48647,-0.72761 -2.70438,-1.47175 -2.70647,-1.65365 -0.005,-0.44603 0.80304,-0.40406 1.43584,0.0746 0.28247,0.21365 0.78849,0.38846 1.12448,0.38846 0.33922,0 0.61089,0.16031 0.61089,0.36049 0,0.22733 0.24391,0.33372 0.66032,0.28801 0.36317,-0.0399 0.72739,0.036 0.80936,0.16867 0.082,0.13264 0.43968,0.24116 0.79489,0.24116 0.40856,0 0.64584,0.15155 0.64584,0.41249 0,0.24295 -0.13593,0.34364 -0.33073,0.24497 -0.1819,-0.0921 -0.0926,0.0283 0.19844,0.26764 0.29104,0.23934 0.4994,0.54583 0.46302,0.68108 -0.0364,0.13525 0.0461,0.24591 0.18325,0.24591 0.13716,0 0.20353,0.23812 0.14748,0.52916 -0.0561,0.29105 0.0249,0.52917 0.17988,0.52917 0.18608,0 0.17656,0.1268 -0.028,0.37332 -0.21545,0.2596 -0.224,0.42636 -0.0281,0.54745 0.15496,0.0958 0.20074,0.3052 0.10174,0.46539 -0.11693,0.1892 -0.0209,0.23021 0.27401,0.11704 0.3202,-0.12287 0.39367,-0.0776 0.24928,0.15348 -0.30221,0.4837 -0.33554,0.96804 -0.0776,1.12746 0.12496,0.0772 0.18204,-0.094 0.12686,-0.38056 -0.14781,-0.7675 0.57139,-0.40007 0.77061,0.39369 0.0887,0.35327 0.29075,0.64231 0.44906,0.64231 0.15832,0 0.22516,-0.16337 0.14854,-0.36304 -0.0766,-0.19968 -0.22052,-0.88429 -0.31977,-1.52136 -0.0993,-0.63707 -0.61485,-2.04456 -1.14577,-3.12776 l -0.9653,-1.96945 -3.01328,-1.5321 c -2.15388,-1.09515 -3.19145,-1.48739 -3.63802,-1.37531 -0.37515,0.0942 -0.62474,0.0396 -0.62474,-0.13646 0,-0.1613 0.17859,-0.29327 0.39687,-0.29327 0.21828,0 0.39688,-0.11906 0.39688,-0.26458 0,-0.14552 -0.1786,-0.26458 -0.39688,-0.26458 -0.21828,0 -0.39687,-0.11907 -0.39687,-0.26459 0,-0.40246 0.29848,-0.32247 1.45521,0.38998 0.58208,0.35851 1.27042,0.65556 1.52965,0.6601 0.25923,0.005 0.54369,0.19683 0.63214,0.42732 0.10641,0.27731 0.22202,0.32001 0.34177,0.12624 0.12851,-0.20792 0.46057,-0.176 1.14531,0.11011 0.53039,0.2216 1.21902,0.40292 1.53031,0.40292 0.4028,0 0.52055,0.11838 0.4084,0.41062 -0.0987,0.25733 -0.0494,0.34373 0.13233,0.23145 0.1956,-0.12089 0.23201,0.0253 0.11193,0.44928 -0.1183,0.41775 -0.0964,0.51101 0.0655,0.27816 0.19761,-0.28431 0.32591,-0.26783 0.68122,0.0875 0.24077,0.24077 0.3701,0.54722 0.28742,0.68101 -0.0827,0.13379 -0.0172,0.24325 0.14547,0.24325 0.1627,0 0.2291,0.10796 0.14755,0.23991 -0.0816,0.13195 0.11978,0.18329 0.4474,0.11409 0.55992,-0.11827 0.56525,-0.10659 0.0889,0.19463 -0.47611,0.30102 -0.47916,0.34068 -0.0503,0.65426 0.27433,0.2006 0.34922,0.40012 0.18765,0.49998 -0.14787,0.0914 -0.20205,0.34026 -0.1204,0.55304 0.0816,0.21279 0.23831,0.33135 0.34813,0.26348 0.10981,-0.0679 0.16735,0.17094 0.12786,0.53069 -0.0587,0.53478 0.0446,0.65409 0.56636,0.65409 0.46218,0 0.63816,-0.14621 0.63816,-0.53018 0,-0.64618 -2.21297,-5.35079 -2.71157,-5.76459 -0.19664,-0.1632 -1.44871,-0.71314 -2.78237,-1.22208 -1.33366,-0.50894 -2.69693,-1.09976 -3.02951,-1.31292 -1.10698,-0.70954 -4.35139,-1.45676 -4.02381,-0.92674 0.0935,0.1513 -0.0471,0.23059 -0.32462,0.18306 -0.29136,-0.0499 -0.4611,0.0551 -0.41924,0.25944 0.0387,0.18881 -0.0804,0.31345 -0.26459,0.27698 -0.1842,-0.0365 -0.6921,0.12034 -1.12866,0.34847 -0.43656,0.22813 -1.44859,0.62526 -2.24896,0.88251 -1.7647,0.56721 -2.12821,0.83077 -1.94369,1.40925 0.10947,0.34317 0.0835,0.36243 -0.11473,0.085 -0.21224,-0.29703 -0.37561,-0.28044 -0.95101,0.0966 -0.3821,0.25037 -0.69474,0.53152 -0.69474,0.62478 0,0.0933 -0.35718,0.32767 -0.79375,0.52091 -0.56599,0.25054 -0.79375,0.53479 -0.79375,0.99063 0,0.39186 -0.1536,0.63928 -0.39687,0.63928 -0.39763,0 -0.54414,0.55829 -0.22917,0.87327 0.28553,0.28552 0.0573,5.13098 -0.29073,6.17127 -0.0555,0.16593 0.18386,0.29765 0.54089,0.29765 0.35226,0 0.64047,-0.11806 0.64047,-0.26237 0,-0.1443 0.238,-0.20013 0.5289,-0.12406 0.2909,0.0761 0.58903,0.041 0.66251,-0.0779 0.0735,-0.1189 0.34149,-0.1821 0.59558,-0.14044 0.25408,0.0417 0.66282,-0.0997 0.90832,-0.31407 0.24549,-0.21439 0.57291,-0.31159 0.7276,-0.21598 0.15469,0.0956 0.28125,0.0477 0.28125,-0.10637 0,-0.15411 -0.14882,-0.28203 -0.33073,-0.28425 -0.21955,-0.003 -0.19734,-0.0884 0.0661,-0.2549 0.2867,-0.18123 0.44673,-0.12505 0.57671,0.20249 0.11566,0.29145 0.18655,0.32366 0.1985,0.0902 0.0151,-0.29511 0.0941,-0.30048 0.42153,-0.0287 0.33691,0.27961 0.37563,0.26324 0.23628,-0.0999 -0.0917,-0.23887 -0.2912,-0.4343 -0.44342,-0.4343 -0.15222,0 -0.0204,-0.22232 0.29289,-0.49406 0.31331,-0.27173 0.56965,-0.65989 0.56965,-0.86259 0,-0.51243 1.30331,-1.86869 1.67745,-1.7456 0.16881,0.0556 0.34751,0.37887 0.3971,0.7185 0.0496,0.33964 0.26876,0.79611 0.48703,1.01438 0.33933,0.33933 0.43115,0.3427 0.63338,0.0232 0.17669,-0.27912 0.23755,-0.21025 0.24058,0.27224 0.004,0.60684 0.0256,0.61639 0.36078,0.15802 0.19621,-0.26833 0.48564,-0.40821 0.64318,-0.31084 0.15754,0.0974 0.36563,0.0489 0.46241,-0.1077 0.11336,-0.18341 0.30518,-0.11433 0.53904,0.19412 0.32756,0.43203 0.36388,0.43531 0.37147,0.0335 0.006,-0.32369 0.22957,-0.43904 0.81805,-0.42231 0.5374,0.0153 0.69309,0.0969 0.46302,0.24284 -0.19064,0.1209 -0.22755,0.23537 -0.082,0.25439 0.63223,0.0826 0.83405,0.14779 1.53158,0.49464 0.4423,0.21994 0.68196,0.51248 0.59834,0.73038 -0.0767,0.19992 -0.0218,0.29075 0.12207,0.20184 0.14385,-0.0889 0.26155,-0.0356 0.26155,0.11855 0,0.15411 -0.14882,0.28202 -0.33073,0.28425 -0.22048,0.003 -0.19843,0.0896 0.0661,0.26053 0.22445,0.14506 0.26336,0.25825 0.0896,0.26054 -0.16903,0.002 -0.27403,0.21241 -0.23333,0.46707 0.0407,0.25466 -0.0889,0.78453 -0.288,1.17748 -0.48628,0.9598 -0.47231,0.98907 0.36507,0.76512 0.54055,-0.14456 0.84448,-0.495 1.18488,-1.36618 z m -15.64937,-1.45837 c 0.0127,-0.30822 0.0754,-0.37091 0.15985,-0.15985 0.0764,0.191 0.067,0.4192 -0.0209,0.50712 -0.0879,0.0879 -0.15045,-0.0683 -0.13896,-0.34727 z m 1.89484,-0.37123 c -0.50158,-0.80316 -0.39103,-0.95071 0.20093,-0.26818 0.57868,0.66722 0.631,0.79375 0.32823,0.79375 -0.11051,0 -0.34864,-0.2365 -0.52916,-0.52557 z m 0.20093,-0.92963 c 0,-0.21829 0.11533,-0.39688 0.25628,-0.39688 0.14096,0 0.18775,0.17859 0.10399,0.39688 -0.0838,0.21828 -0.19909,0.39687 -0.25628,0.39687 -0.0572,0 -0.10399,-0.17859 -0.10399,-0.39687 z m 16.80104,-1.19063 c -0.0899,-0.14552 -0.0445,-0.26458 0.10107,-0.26458 0.14552,0 0.33816,0.11906 0.4281,0.26458 0.0899,0.14552 0.0445,0.26458 -0.10106,0.26458 -0.14552,0 -0.33817,-0.11906 -0.42811,-0.26458 z m -10.71562,-0.71935 c 0,-0.35455 1.9238,-1.91339 2.17203,-1.75998 0.17277,0.10678 0.11489,0.26213 -0.15368,0.41242 -0.23697,0.13262 -0.43085,0.3877 -0.43085,0.56684 0,0.17915 -0.35719,0.46055 -0.79375,0.62533 -0.43656,0.16479 -0.79375,0.23471 -0.79375,0.15539 z m -1.32292,-2.84897 c 0,-0.0708 0.38696,-0.30566 0.8599,-0.52188 0.47294,-0.21623 1.17026,-0.64506 1.54961,-0.95296 0.4175,-0.33888 0.93961,-0.51676 1.32291,-0.45072 0.59472,0.10248 0.60104,0.12144 0.10404,0.31195 -1.17059,0.44869 -1.6952,0.77433 -1.57106,0.9752 0.18524,0.29972 -0.78144,0.76715 -1.58654,0.76715 -0.37337,0 -0.67886,-0.0579 -0.67886,-0.12874 z m -6.86239,-0.42557 c -0.009,-0.23211 0.22135,-0.63751 0.51239,-0.9009 0.30009,-0.27158 0.52917,-0.3466 0.52917,-0.1733 0,0.16807 -0.1229,0.30559 -0.27311,0.30559 -0.15021,0 -0.38079,0.26789 -0.51239,0.59531 -0.15574,0.38746 -0.24515,0.44796 -0.25606,0.1733 z m 6.59781,-2.89358 c 0,-0.15009 0.20836,-0.33737 0.46302,-0.41619 0.25466,-0.0788 0.85815,-0.31518 1.34109,-0.52525 1.37904,-0.59986 1.51553,-0.14359 0.17091,0.57135 -1.28902,0.68538 -1.97502,0.81393 -1.97502,0.37009 z m 2.64583,-1.86855 c 0,-0.1319 0.23813,-0.23981 0.52917,-0.23981 0.29104,0 0.52917,0.0456 0.52917,0.10143 0,0.0558 -0.23813,0.1637 -0.52917,0.23981 -0.29104,0.0761 -0.52917,0.0305 -0.52917,-0.10143 z m -22.01657,13.21777 c -0.066,-0.19816 -0.18598,-0.0782 -0.27954,0.27954 -0.11509,0.4401 -0.0806,0.5434 0.11568,0.34706 0.15375,-0.15375 0.22749,-0.43572 0.16386,-0.6266 z m 33.93677,-0.85318 c -0.27867,-0.73297 -0.61634,-0.98571 -0.40252,-0.30128 0.0682,0.21828 0.18632,0.59251 0.26251,0.83162 0.0762,0.23911 0.19858,0.37469 0.27199,0.30128 0.0734,-0.0734 0.014,-0.44763 -0.13198,-0.83162 z m -27.34987,0.046 c -0.0845,-0.21107 -0.14716,-0.14838 -0.15985,0.15985 -0.0115,0.27891 0.051,0.43519 0.13896,0.34727 0.0879,-0.0879 0.0973,-0.31613 0.0209,-0.50712 z m 4.23333,-0.52917 c -0.0845,-0.21106 -0.14716,-0.14837 -0.15985,0.15985 -0.0115,0.27892 0.051,0.43519 0.13896,0.34727 0.0879,-0.0879 0.0973,-0.31612 0.0209,-0.50712 z m -4.04932,-2.31484 c 0.23018,-1.22768 0.36134,-2.28932 0.29146,-2.3592 -0.0699,-0.0699 -0.14113,0.10116 -0.15835,0.38007 -0.0191,0.30952 -0.10937,0.19783 -0.23164,-0.28663 -0.16484,-0.65311 -0.2028,-0.53592 -0.21424,0.66146 -0.008,0.80036 -0.0949,2.05052 -0.19384,2.77813 -0.27904,2.05152 0.0409,1.3103 0.50661,-1.17383 z m 0.0751,1.50455 c -0.0734,-0.1819 -0.13345,-0.0331 -0.13345,0.33073 0,0.36381 0.06,0.51263 0.13345,0.33073 0.0734,-0.1819 0.0734,-0.47955 0,-0.66146 z m 28.47643,-0.46302 c -0.0761,-0.29104 -0.24774,-0.52916 -0.38141,-0.52916 -0.13427,0 -0.11629,0.23682 0.0402,0.52916 0.15576,0.29105 0.32739,0.52917 0.38141,0.52917 0.054,0 0.0359,-0.23812 -0.0402,-0.52917 z m -0.77911,-0.1437 c -0.0862,-0.22456 -0.21342,-0.35154 -0.28277,-0.28219 -0.0694,0.0694 -0.0476,0.25309 0.0483,0.40829 0.26089,0.42213 0.41338,0.34013 0.23447,-0.1261 z m -27.0788,-0.53337 c 0,-0.20969 -0.11906,-0.38126 -0.26458,-0.38126 -0.14552,0 -0.26459,0.24515 -0.26459,0.54478 0,0.29963 0.11907,0.4712 0.26459,0.38126 0.14552,-0.0899 0.26458,-0.33509 0.26458,-0.54478 z m 18.46973,-0.25597 c -0.0815,-0.0815 -0.2294,0.0654 -0.32876,0.32632 -0.14359,0.37708 -0.1132,0.40747 0.14811,0.14811 0.18082,-0.17947 0.26212,-0.39297 0.18065,-0.47443 z m -5.90202,0.13929 c 0.0899,-0.14552 0.0374,-0.26458 -0.11668,-0.26458 -0.15411,0 -0.2802,0.11906 -0.2802,0.26458 0,0.14552 0.0525,0.26459 0.11668,0.26459 0.0642,0 0.19026,-0.11907 0.2802,-0.26459 z m -0.7717,-0.79375 c 0.20615,0 0.37482,-0.12609 0.37482,-0.28019 0,-0.15411 -0.11906,-0.20662 -0.26458,-0.11668 -0.14552,0.0899 -0.26458,0.0176 -0.26458,-0.16078 0,-0.53354 -0.36124,-0.005 -0.43104,0.63062 -0.0356,0.32367 -0.003,0.43966 0.073,0.25776 0.0757,-0.1819 0.30626,-0.33073 0.51242,-0.33073 z m -13.12298,-2.71198 c -0.002,-0.1819 -0.10983,-0.4978 -0.23912,-0.70201 -0.16819,-0.26567 -0.22349,-0.17164 -0.19438,0.33054 0.0397,0.68432 0.44156,1.0287 0.4335,0.37147 z m 0.71396,-0.77721 c -0.0845,-0.21107 -0.14715,-0.14837 -0.15985,0.15985 -0.0115,0.27892 0.051,0.43519 0.13896,0.34727 0.0879,-0.0879 0.0973,-0.31612 0.0209,-0.50712 z m 17.21059,12.81707 c 0.0881,-0.22882 0.46163,-0.27817 1.22345,-0.16161 1.48928,0.22786 1.48256,0.28977 -0.0432,0.39817 -0.96269,0.0684 -1.27359,0.006 -1.18022,-0.23656 z m 4.50603,0.27458 c 0.32911,-0.0633 0.80536,-0.0609 1.05833,0.005 0.25296,0.0662 -0.0163,0.11801 -0.5984,0.11507 -0.58208,-0.003 -0.78905,-0.0571 -0.45993,-0.12041 z M 187.131,159.03409 c 0.17947,-0.18082 0.39296,-0.26212 0.47443,-0.18065 0.0815,0.0815 -0.0654,0.2294 -0.32632,0.32876 -0.37709,0.14359 -0.40748,0.1132 -0.14811,-0.14811 z m 11.44763,-0.23175 c 0,-0.14552 0.1786,-0.26459 0.39688,-0.26459 0.21828,0 0.39687,-0.11532 0.39687,-0.25628 0,-0.14095 0.17309,-0.18985 0.38465,-0.10867 0.21155,0.0812 1.37241,0.30192 2.57968,0.49053 l 2.19505,0.34292 -2.97656,0.0303 c -1.82821,0.0186 -2.97657,-0.0717 -2.97657,-0.23425 z m 15.08125,0.0572 c 0,-0.15135 -0.2643,-0.2041 -0.59531,-0.1188 -0.52758,0.13595 -0.5545,0.10363 -0.23657,-0.28407 0.19731,-0.24061 0.61403,-0.43658 0.92604,-0.43548 0.31202,0.001 1.13285,-0.0393 1.82407,-0.0898 1.041,-0.0761 1.25677,-0.0149 1.25677,0.35652 0,0.30097 -0.21584,0.44835 -0.65663,0.44835 -0.41868,0 -0.59018,-0.10787 -0.47325,-0.29765 0.10085,-0.16372 -0.13944,-0.0866 -0.534,0.17146 -0.44235,0.28928 -0.71737,0.35293 -0.71737,0.16604 0,-0.21603 -0.11399,-0.20848 -0.39687,0.0263 -0.23495,0.19499 -0.39688,0.21832 -0.39688,0.0572 z m 3.43959,-0.32179 c 0,-0.14552 0.12609,-0.26458 0.2802,-0.26458 0.1541,0 0.20661,0.11906 0.11667,0.26458 -0.0899,0.14552 -0.21603,0.26459 -0.2802,0.26459 -0.0642,0 -0.11667,-0.11907 -0.11667,-0.26459 z m -8.7809,-0.97389 c 0.19099,-0.0764 0.4192,-0.067 0.50712,0.0209 0.0879,0.0879 -0.0684,0.15045 -0.34727,0.13896 -0.30823,-0.0127 -0.37092,-0.0754 -0.15985,-0.15985 z m 13.41106,-0.61301 c 0.0899,-0.14552 0.40165,-0.26458 0.69269,-0.26458 0.29104,0 0.45558,0.11906 0.36565,0.26458 -0.0899,0.14552 -0.40165,0.26459 -0.69269,0.26459 -0.29104,0 -0.45558,-0.11907 -0.36565,-0.26459 z m -51.86367,-0.27323 c -0.10162,-0.16441 0.10846,-0.61668 0.46682,-1.00504 0.35837,-0.38836 0.72772,-0.92201 0.82079,-1.18589 0.0931,-0.26389 0.28822,-0.40623 0.43369,-0.31633 0.16373,0.10119 0.071,0.54267 -0.24338,1.15895 -0.63018,1.23525 -1.21695,1.77057 -1.47792,1.34831 z m 4.74457,0.11113 c -0.3179,-0.13031 0.11597,-2.28429 0.53768,-2.66935 0.12838,-0.11722 0.16062,-0.0135 0.0724,0.23298 -0.0874,0.24433 -0.23876,0.89917 -0.33632,1.45521 -0.16985,0.96798 -0.15881,0.98847 0.25965,0.48181 0.41999,-0.50854 0.43404,-0.50939 0.36031,-0.0219 -0.0803,0.53064 -0.40661,0.72098 -0.89375,0.52129 z m 16.95661,-0.37115 c -0.58459,-0.1457 -0.27666,-0.20609 1.16857,-0.22914 1.07928,-0.0172 1.91272,0.0117 1.85209,0.0642 -0.26965,0.23351 -2.30065,0.34444 -3.02066,0.16497 z m 4.22343,-0.24442 c 0.0954,-0.15433 0.53141,-0.28061 0.96895,-0.28061 0.43754,0 1.00248,-0.11075 1.25541,-0.24612 0.26676,-0.14277 0.61735,-0.14881 0.83484,-0.0144 0.54748,0.33836 0.3137,0.43442 -1.55347,0.63834 -1.15834,0.1265 -1.62537,0.0964 -1.50573,-0.0972 z m 16.74479,0.0733 c 0.1819,-0.0734 0.47956,-0.0734 0.66146,0 0.1819,0.0734 0.0331,0.13345 -0.33073,0.13345 -0.3638,0 -0.51263,-0.0601 -0.33073,-0.13345 z m 7.60677,-0.0929 c 0.72761,-0.11115 1.65034,-0.2878 2.05052,-0.39255 0.43616,-0.11416 0.72761,-0.0843 0.72761,0.0745 0,0.42606 -0.72473,0.58843 -2.46904,0.55315 l -1.632,-0.033 z m -47.91765,-1.18708 c 0.36514,-1.16659 0.73951,-1.22912 0.40648,-0.0679 -0.13536,0.47198 -0.24611,0.8887 -0.24611,0.92604 0,0.0373 -0.1013,0.0679 -0.22511,0.0679 -0.12381,0 -0.0947,-0.41672 0.0647,-0.92604 z m 4.02825,0.12402 c 0.26111,-1.38008 0.69547,-1.93978 0.52464,-0.67602 -0.077,0.56952 -0.2656,1.16111 -0.41913,1.31464 -0.19581,0.19582 -0.22731,0.005 -0.10551,-0.63862 z m 6.98003,0.56867 c 0,-0.14552 0.11906,-0.33817 0.26459,-0.42811 0.14552,-0.0899 0.26458,-0.0445 0.26458,0.10107 0,0.14552 -0.11906,0.33816 -0.26458,0.4281 -0.14553,0.0899 -0.26459,0.0445 -0.26459,-0.10106 z m 10.40671,0.072 c 0.27371,-0.29267 4.14543,-0.57441 4.1454,-0.30165 -2e-5,0.10914 -0.32745,0.19947 -0.72763,0.20074 -0.40018,0.001 -1.38245,0.0775 -2.18281,0.16936 -0.84665,0.0972 -1.3631,0.0686 -1.23496,-0.0685 z m -18.00245,-0.88686 c 0.16269,-0.43101 0.34524,-0.73421 0.40567,-0.67379 0.18881,0.18882 -0.21586,1.45744 -0.4649,1.45744 -0.13011,0 -0.10345,-0.35265 0.0592,-0.78365 z m 24.34769,0.40124 c 0.10338,-0.31071 2.77891,-0.81242 3.02424,-0.5671 0.30565,0.30566 -0.23673,0.52912 -1.66616,0.68646 -0.9652,0.10624 -1.41985,0.0663 -1.35808,-0.11936 z m -16.75096,-0.55087 c -5.5e-4,-0.14952 0.15546,-0.50671 0.34667,-0.79375 0.19121,-0.28704 0.36451,-0.81955 0.38511,-1.18335 0.0206,-0.3638 0.10612,-0.93559 0.19003,-1.27064 0.14107,-0.56323 0.10703,-0.58491 -0.45126,-0.28741 -0.54832,0.29219 -0.57045,0.2813 -0.2407,-0.11842 0.70901,-0.85949 1.10283,-0.53651 0.99705,0.8177 -0.0817,1.04612 -1.22381,3.68597 -1.2269,2.83587 z m -0.3773,-0.91877 c 0.55083,-1.14985 0.6409,-1.25313 0.6409,-0.73486 0,0.22641 -0.24402,0.69274 -0.54226,1.03628 l -0.54225,0.62463 z m -5.11321,-0.39684 c 0.003,-0.58208 0.0571,-0.78905 0.1204,-0.45994 0.0633,0.32912 0.0609,0.80537 -0.005,1.05834 -0.0662,0.25296 -0.118,-0.0163 -0.11506,-0.5984 z m 1.16296,-0.52917 c 0.0923,-0.7276 0.21053,-1.37252 0.26279,-1.43316 0.22655,-0.26285 0.0617,2.00106 -0.17182,2.3592 -0.17664,0.27095 -0.20551,-0.0229 -0.091,-0.92604 z m -1.05531,-3.57184 c 0.25789,-0.43657 0.57038,-0.79375 0.69443,-0.79375 0.12406,0 -0.0288,0.35718 -0.33964,0.79375 -0.31086,0.43656 -0.62336,0.79375 -0.69443,0.79375 -0.0711,0 0.0818,-0.35719 0.33964,-0.79375 z m -0.61266,-0.92366 c 0.1683,-0.36284 0.39948,-0.66064 0.51374,-0.66178 0.24338,-0.002 -0.23234,0.95848 -0.58131,1.17415 -0.13113,0.081 -0.10072,-0.14952 0.0676,-0.51237 z m 6.6515,-0.12701 c 0.0707,-0.11439 0.36868,-0.27077 0.66219,-0.34753 0.29351,-0.0768 0.47582,-0.046 0.40512,0.0684 -0.0707,0.11438 -0.36868,0.27077 -0.66219,0.34752 -0.29351,0.0768 -0.47581,0.046 -0.40512,-0.0684 z m -9.37145,-1.07883 c 0.0158,-0.8577 0.0322,-0.87416 0.27265,-0.27265 0.16944,0.4239 0.16377,0.73227 -0.0168,0.91281 -0.18714,0.18715 -0.26739,-0.0136 -0.25588,-0.64016 z m 6.23755,-2.23572 c -0.0838,-0.21828 -0.037,-0.39687 0.10399,-0.39687 0.14095,0 0.25628,0.17859 0.25628,0.39687 0,0.21828 -0.0468,0.39688 -0.10399,0.39688 -0.0572,0 -0.17252,-0.1786 -0.25628,-0.39688 z m -6.61851,-0.27481 c -0.25531,-0.66535 -0.18,-0.83702 0.13191,-0.30066 0.15443,0.26558 0.22505,0.53861 0.15693,0.60673 -0.0681,0.0681 -0.1981,-0.0696 -0.28884,-0.30607 z m 3.84555,-0.38665 c 0,-0.3638 0.0601,-0.51263 0.13345,-0.33073 0.0734,0.18191 0.0734,0.47956 0,0.66146 -0.0734,0.1819 -0.13345,0.0331 -0.13345,-0.33073 z"
       id="path305"
       clip-path="url(#clipPath876)"
       sodipodi:nodetypes="csscccccccccscccsccsccsscccscccscssscsscscccsssccscccscsccccccccscsscsscccscccsccccssssscsccccscccsccccssscccccsccccccccsccsccccccccccscscsssccscsccsccsccccscscccccssccccccsccsccccscsssssssscsssssssccsssscsssccssscscscscsssccsssscccscccssccccscscccsscscssccccccccccsscsssscsscsscccsccccccccscsssccsscccccccccccscccsscssssccccccscccssscscssscsscscscccscsscsssssscscccsssccscscsccscccccsccsssssccsccssccsscscscsccssccccsccscccsssssscsccsccccscscscssccsssssccsccsccssscssccsscccccsccssccscsccsccsccsccccscsscccscsccccccccsscsscsscscscsscscsscccccsscsssccscsssssscscccccsssccccccccccccscscccsscssscsscsccssscssssscsssccscsccccccccccccccsscccccccsscscsscsccccsssccssccsssssscssscssscscsccccscccscccccccccccssscssscsscsssscscsssccccccscscscsccccccsccscsscsscsccccsccccscccccccccscsccccccccccccccccccssscscssscss" />
  </g>
</svg>
