<?xml version="1.0" encoding="UTF-8" standalone="no"?>
<!-- Created with Inkscape (http://www.inkscape.org/) -->

<svg
   width="57.6749mm"
   height="32.913712mm"
   viewBox="0 0 57.674897 32.913711"
   version="1.1"
   id="svg5"
   inkscape:version="1.1.2 (b8e25be833, 2022-02-05)"
   sodipodi:docname="hand-R.svg"
   xmlns:inkscape="http://www.inkscape.org/namespaces/inkscape"
   xmlns:sodipodi="http://sodipodi.sourceforge.net/DTD/sodipodi-0.dtd"
   xmlns="http://www.w3.org/2000/svg"
   xmlns:svg="http://www.w3.org/2000/svg">
  <sodipodi:namedview
     id="namedview7"
     pagecolor="#505050"
     bordercolor="#eeeeee"
     borderopacity="1"
     inkscape:pageshadow="0"
     inkscape:pageopacity="0"
     inkscape:pagecheckerboard="0"
     inkscape:document-units="mm"
     showgrid="false"
     inkscape:zoom="2.8170388"
     inkscape:cx="37.983147"
     inkscape:cy="62.476953"
     inkscape:window-width="1366"
     inkscape:window-height="745"
     inkscape:window-x="-8"
     inkscape:window-y="-8"
     inkscape:window-maximized="1"
     inkscape:current-layer="layer1" />
  <defs
     id="defs2">
    <clipPath
       clipPathUnits="userSpaceOnUse"
       id="clipPath717">
      <rect
         style="fill:#000000;stroke-width:0.264583"
         id="rect719"
         width="79.164581"
         height="77.039352"
         x="235.39751"
         y="113.80232" />
    </clipPath>
  </defs>
  <g
     inkscape:label="Layer 1"
     inkscape:groupmode="layer"
     id="layer1"
     transform="translate(-242.11609,-129.01877)"
     style="display:inline">
    <path
       style="display:inline;fill:#000000;stroke-width:0.264583"
       d="m 269.61921,161.72587 -1.32291,-0.16871 0.92604,-0.18954 c 0.50932,-0.10424 1.28323,-0.14226 1.71979,-0.0845 0.43656,0.0578 1.47836,0.11863 2.3151,0.13522 0.83675,0.0166 1.52136,0.14923 1.52136,0.29475 0,0.28665 -2.95436,0.29395 -5.15938,0.0128 z m 10.24899,-1.11643 c -0.25267,-0.10013 0.4931,-0.1766 1.65726,-0.16994 2.20284,0.0126 2.23019,0.13098 0.0625,0.27072 -0.69321,0.0447 -1.46711,-7.9e-4 -1.71979,-0.10078 z m -14.7469,-0.20946 c 0.7012,-0.28833 0.19121,-0.48872 -1.5875,-0.62379 -1.05872,-0.0804 -0.97947,-0.0988 0.39687,-0.0922 1.65061,0.008 3.09867,0.42974 2.73246,0.79595 -0.0962,0.0961 -0.60146,0.16645 -1.12291,0.15622 -0.75723,-0.0148 -0.84157,-0.0624 -0.41892,-0.23618 z m 3.30729,-0.006 c -0.75137,-0.11563 0.46878,-0.20388 3.30729,-0.2392 5.98415,-0.0745 6.21771,-0.0873 6.21771,-0.34037 0,-0.12006 -2.2225,-0.21829 -4.93889,-0.21829 -2.71639,0 -4.88928,-0.0474 -4.82865,-0.1054 0.1143,-0.10927 8.99359,-0.19763 11.09046,-0.11037 0.65484,0.0273 2.81979,-0.0336 4.811,-0.1352 1.9912,-0.10162 3.68366,-0.0824 3.76102,0.0428 0.0774,0.12516 -1.54979,0.30825 -3.61586,0.40688 -4.51963,0.21576 -6.10229,0.42637 -5.34342,0.71109 0.65592,0.2461 -8.85445,0.23524 -10.46066,-0.012 z m -15.08121,-1.23252 c 0,-0.13767 0.56555,-0.26282 1.25677,-0.2781 0.69122,-0.0153 2.92365,-0.0897 4.96094,-0.16545 2.34487,-0.0871 3.26725,-0.0566 2.51354,0.0832 -1.94597,0.3609 -8.73125,0.64097 -8.73125,0.36039 z m -1.91514,-0.28162 c 0.32911,-0.0633 0.80536,-0.0609 1.05833,0.005 0.25296,0.0662 -0.0163,0.11801 -0.5984,0.11507 -0.58208,-0.003 -0.78905,-0.0571 -0.45993,-0.12041 z m 30.09326,-0.0775 c 0.0899,-0.14552 0.34212,-0.26459 0.5604,-0.26459 0.21828,0 0.32329,0.11907 0.23335,0.26459 -0.0899,0.14552 -0.34211,0.26458 -0.56039,0.26458 -0.21828,0 -0.32329,-0.11906 -0.23336,-0.26458 z m -17.90898,-0.18069 c 0.19099,-0.0764 0.4192,-0.067 0.50712,0.0209 0.0879,0.0879 -0.0684,0.15046 -0.34727,0.13897 -0.30822,-0.0127 -0.37092,-0.0754 -0.15985,-0.15985 z m 21.21627,0.007 c 1.20346,-0.40137 1.20734,-0.40504 0.66146,-0.62645 -0.40837,-0.16563 -0.31217,-0.21012 0.42145,-0.19487 0.52284,0.0109 1.08016,-0.0603 1.23849,-0.15817 0.15833,-0.0978 0.36266,-0.0569 0.45406,0.091 0.0914,0.14789 -0.0705,0.2689 -0.35969,0.2689 -0.28924,0 -0.70448,0.17859 -0.92276,0.39687 -0.21828,0.21828 -0.7328,0.38748 -1.14338,0.37599 -0.41057,-0.0115 -0.56791,-0.0805 -0.34963,-0.15326 z m 13.69487,0.0225 c -0.0834,-0.0834 -2.03803,-0.2105 -4.34358,-0.28241 -2.30555,-0.0719 -4.2752,-0.21202 -4.377,-0.31136 -0.1018,-0.0993 2.01156,-0.19266 4.69635,-0.20739 3.77961,-0.0207 4.88145,0.0489 4.88145,0.30868 0,0.18451 0.14883,0.39552 0.33073,0.46892 0.1819,0.0734 0.0231,0.14285 -0.35278,0.15434 -0.37593,0.0115 -0.75176,-0.0474 -0.83517,-0.13078 z m -29.10684,-0.29965 c 0.32742,-0.0631 0.8632,-0.0631 1.19062,0 0.32742,0.0631 0.0595,0.11466 -0.59531,0.11466 -0.65484,0 -0.92274,-0.0516 -0.59531,-0.11466 z m 2.18281,-0.0829 c 0,-0.16006 0.29566,-0.19869 0.7276,-0.0951 1.03875,0.2492 1.07367,0.36469 0.11025,0.36469 -0.46082,0 -0.83785,-0.12133 -0.83785,-0.26962 z m 8.33437,0.005 c -0.44092,-0.18947 -0.38317,-0.23049 0.34635,-0.24599 0.5202,-0.011 0.80915,0.0888 0.71199,0.24599 -0.19063,0.30845 -0.34055,0.30845 -1.05834,0 z m -34.793,-0.34244 c 1.6e-4,-0.11559 0.59948,-1.00166 1.33181,-1.96905 1.13879,-1.5043 1.26962,-1.79353 0.90391,-1.99819 -0.38016,-0.21275 -0.36132,-0.30987 0.16981,-0.87523 0.58582,-0.62356 0.58687,-0.63592 0.0545,-0.63592 -0.2986,0 -0.68763,-0.1744 -0.86453,-0.38755 -0.25764,-0.31043 -0.21892,-0.53419 0.19457,-1.12448 0.28391,-0.40531 1.14374,-1.92756 1.91072,-3.38276 2.05239,-3.89405 5.29364,-6.89245 7.97638,-7.37876 0.86953,-0.15762 1.17512,-0.48305 3.2014,-3.40921 3.56568,-5.1492 4.96544,-7.29106 4.96544,-7.59794 0,-0.19961 0.15282,-0.20405 0.50663,-0.0147 0.4655,0.24913 0.25918,0.64189 -2.54145,4.83796 -1.67644,2.51175 -3.24388,4.79536 -3.48319,5.0747 -0.41054,0.47919 -0.40522,0.49614 0.094,0.30012 1.67475,-0.65753 2.51866,-0.68384 3.64352,-0.11358 0.61544,0.31201 1.17851,0.64058 1.25127,0.73018 0.0728,0.0896 1.18564,0.69867 2.47306,1.35352 1.28742,0.65484 2.77188,1.56065 3.29879,2.01291 l 0.95802,0.82229 0.49073,-0.62385 c 0.35378,-0.44975 0.7575,-0.62385 1.44665,-0.62385 0.60085,0 1.17129,-0.20232 1.53569,-0.54465 0.46576,-0.43756 0.91129,-0.54097 2.26601,-0.52593 8.67485,0.0963 8.60142,0.0991 9.51603,-0.36387 1.93476,-0.97944 5.13759,-1.82604 7.11918,-1.8818 1.09141,-0.0307 2.49467,-0.20565 3.11836,-0.38876 1.20581,-0.35402 1.53659,-0.26083 1.29635,0.36522 -0.13289,0.34631 -1.42946,0.62609 -3.55481,0.76707 -0.32742,0.0217 -0.59531,0.12207 -0.59531,0.223 0,0.10093 -0.25168,0.11769 -0.55929,0.0373 -0.45463,-0.11888 -0.53074,-0.0524 -0.40671,0.3555 0.42953,1.41247 0.59661,2.68581 0.41381,3.15368 -0.15956,0.40839 -0.20933,0.32004 -0.22698,-0.40296 -0.0294,-1.20211 -0.64533,-3.25296 -1.01392,-3.37583 -0.42941,-0.14313 -2.78215,1.18014 -2.45631,1.38153 0.15436,0.0954 0.27259,0.43431 0.26274,0.75314 l -0.0179,0.5797 -0.2871,-0.59531 c -0.43808,-0.90835 -1.086,-0.77209 -0.94356,0.19843 0.0641,0.43657 0.018,0.79375 -0.10226,0.79375 -0.12032,0 -0.21876,-0.21967 -0.21876,-0.48816 0,-0.61565 -0.9372,-1.5094 -1.1766,-1.12204 -0.0939,0.15199 -0.0462,0.50911 0.10603,0.79359 0.34229,0.63958 0.36007,1.16388 0.0326,0.96149 -0.13432,-0.083 -0.32496,-0.51853 -0.42364,-0.96781 -0.13037,-0.59356 -0.25889,-0.73739 -0.47015,-0.52613 -0.1599,0.1599 -0.56458,0.29073 -0.89927,0.29073 -0.38495,0 -0.60855,0.15773 -0.60855,0.42927 0,0.31209 -0.0903,0.35503 -0.33072,0.15728 -0.18191,-0.1496 -0.74745,-0.28128 -1.25678,-0.29263 -0.50932,-0.0114 -1.10463,-0.0414 -1.32291,-0.0667 -0.21828,-0.0253 -0.96242,-0.0273 -1.65365,-0.004 -1.39223,0.0462 -1.61722,0.42722 -0.7276,1.23231 0.58234,0.52701 0.6769,0.37355 0.25527,-0.41427 -0.44885,-0.83868 -0.0268,-0.58017 0.56839,0.34812 0.46193,0.72048 0.52804,0.7572 0.40779,0.22647 -0.19015,-0.83926 0.20333,-0.42922 0.8693,0.90587 0.36387,0.72946 0.52722,0.88757 0.53454,0.51739 0.006,-0.2932 -0.24242,-1.00757 -0.55159,-1.5875 -0.55287,-1.03706 -0.55322,-1.04643 -0.0211,-0.56952 0.52323,0.46898 1.31642,2.97119 1.03201,3.2556 -0.15965,0.15965 -0.97114,-0.63605 -1.39343,-1.36632 -0.26504,-0.45834 -0.29458,-0.46022 -0.45999,-0.0292 -0.0972,0.25334 -0.0765,0.39863 0.0461,0.32288 0.27406,-0.16938 0.82941,0.99466 0.82941,1.73851 0,0.32751 0.13199,0.49423 0.33073,0.41775 0.24183,-0.0931 0.31712,0.23711 0.28011,1.22846 -0.0279,0.74566 0.014,1.1301 0.0929,0.85431 0.0966,-0.33724 0.20629,-0.39992 0.33515,-0.19142 0.13303,0.21525 0.41686,0.10122 0.92869,-0.37313 0.4054,-0.37572 0.78906,-0.63116 0.85258,-0.56764 0.22332,0.22332 0.66681,3.67263 0.53635,4.17153 -0.0726,0.27764 -0.0393,0.5048 0.074,0.5048 0.1133,0 0.29811,-0.50602 0.41068,-1.12448 0.20207,-1.11013 0.20697,-1.11435 0.38425,-0.33073 0.0988,0.43656 0.0814,0.90686 -0.0386,1.0451 -0.33176,0.38227 -0.27077,0.83315 0.067,0.49537 0.15683,-0.15683 0.39772,-0.74619 0.5353,-1.30969 0.2788,-1.14188 0.53216,-3.32745 0.3258,-2.81047 -0.0726,0.1819 -0.24421,0.33073 -0.38135,0.33073 -0.13713,0 -0.0677,-0.35127 0.15434,-0.78061 0.44949,-0.86921 0.50859,-1.16754 0.1926,-0.97225 -0.11609,0.0717 -0.3665,0.0344 -0.55648,-0.083 -0.26732,-0.16522 -0.27731,-0.34073 -0.0442,-0.7763 0.16566,-0.30954 0.20379,-0.56281 0.0847,-0.56281 -0.43614,0 -0.14211,-1.39189 0.35172,-1.66503 0.42899,-0.23727 0.45872,-0.2209 0.19201,0.1057 -0.50011,0.6124 -0.032,1.11654 0.59578,0.64168 0.28246,-0.21364 0.63263,-0.38958 0.77815,-0.39097 0.14552,-0.001 -0.0331,0.2303 -0.39688,0.51487 -0.38208,0.29887 -0.50808,0.51989 -0.29833,0.52328 0.29517,0.005 0.30055,0.0813 0.0287,0.40882 -0.28185,0.33961 -0.26131,0.37488 0.13068,0.22446 0.39789,-0.15268 0.42375,-0.10126 0.17902,0.35603 -0.37263,0.69627 -0.0681,0.99416 0.41047,0.40153 0.33619,-0.41631 0.35428,-0.3975 0.19486,0.20255 -0.0967,0.3638 -0.28141,0.77456 -0.41057,0.91281 -0.12917,0.13824 -0.2273,0.55496 -0.21808,0.92604 0.016,0.64413 0.0272,0.64896 0.24604,0.10645 0.25254,-0.62589 0.79552,-1.07202 0.79552,-0.65362 0,0.14552 -0.10147,0.3273 -0.22549,0.40395 -0.12402,0.0767 -0.29636,0.94688 -0.38298,1.93384 -0.0866,0.98697 -0.22444,2.2112 -0.30627,2.72053 -0.14833,0.92321 -0.14765,0.9228 0.22169,-0.13229 0.20376,-0.58209 0.49969,-1.47506 0.65762,-1.98438 0.27891,-0.89944 0.2841,-0.88804 0.1809,0.39688 -0.0584,0.7276 -0.18948,1.62057 -0.29121,1.98437 -0.18012,0.64411 -0.17391,0.64758 0.23655,0.13229 0.23185,-0.29104 0.42532,-0.79706 0.42995,-1.12448 0.005,-0.32742 0.0998,-0.59531 0.21143,-0.59531 0.11167,0 0.18346,0.41617 0.15953,0.92483 -0.0239,0.50865 0.0633,0.85881 0.19385,0.77813 0.13054,-0.0807 0.23735,-0.39443 0.23735,-0.69722 0,-0.30279 0.19284,-0.69153 0.42853,-0.86388 0.27093,-0.19811 0.45714,-0.79264 0.50633,-1.61666 0.0428,-0.71683 0.0881,-1.45215 0.10064,-1.63405 0.0126,-0.1819 0.12004,-0.33073 0.23886,-0.33073 0.35602,0 -0.12528,3.12938 -0.59051,3.83941 -0.2373,0.36218 -0.33942,0.65668 -0.22693,0.65445 0.50638,-0.01 0.83095,-0.47993 1.09372,-1.58345 0.2816,-1.18256 0.28254,-1.17988 0.13887,0.39688 -0.0796,0.87312 -0.31365,1.8512 -0.52021,2.1735 -0.52873,0.82503 -0.4665,1.03353 0.14366,0.48135 0.60954,-0.55163 1.03869,-1.73304 1.16326,-3.20233 0.10528,-1.24171 0.93492,-3.02488 0.95277,-2.04782 0.006,0.31883 -0.0884,0.6409 -0.20949,0.71571 -0.12105,0.0748 -0.37254,1.00458 -0.55887,2.06614 -0.18633,1.06156 -0.52246,2.13847 -0.74696,2.39314 -0.37489,0.42525 -0.35799,0.46302 0.2073,0.46302 0.33852,0 0.83322,-0.19705 1.09934,-0.43789 0.38549,-0.34886 0.48557,-0.36231 0.49227,-0.0661 0.006,0.25813 0.12713,0.21478 0.39688,-0.14186 0.21365,-0.28247 0.38846,-0.38635 0.38846,-0.23083 0,0.31742 -0.54481,0.83148 -0.88195,0.83217 -0.66346,0.001 -0.36208,0.29995 0.45804,0.45381 1.09294,0.20504 2.60088,-0.0255 3.62237,-0.55369 0.38676,-0.2 0.77782,-0.28901 0.86903,-0.1978 0.33061,0.33061 0.15575,1.13598 -0.24665,1.13598 -0.22687,0 -0.33913,-0.11871 -0.24946,-0.26379 0.1047,-0.1694 -0.096,-0.16529 -0.56099,0.0115 -0.85605,0.32547 -3.0936,0.37684 -5.12706,0.11772 -0.80036,-0.10199 -1.87193,-0.17168 -2.38125,-0.15486 -4.58772,0.15146 -6.38857,0.27825 -7.40833,0.52157 -0.65485,0.15625 -2.29195,0.28701 -3.63802,0.29056 -2.31448,0.006 -2.4474,-0.0238 -2.4474,-0.551 0,-0.4336 -0.10289,-0.51136 -0.46302,-0.34995 -0.25466,0.11414 -1.04358,0.25845 -1.75315,0.32068 -1.53521,0.13464 -1.74281,-0.0863 -1.74853,-1.86065 -0.004,-1.09026 -0.0761,-1.25678 -0.54773,-1.25678 -0.29903,0 -1.1027,0.26057 -1.78594,0.57903 -1.3397,0.62446 -5.57656,0.98106 -5.64095,0.47478 -0.0666,-0.52388 -0.11147,-0.66347 -0.31732,-0.98766 -0.31561,-0.49705 0.11064,-0.39791 0.48389,0.11255 0.21161,0.28938 0.74989,0.45923 1.55053,0.48925 1.27747,0.0479 1.5539,-0.18631 0.76337,-0.64675 -0.25466,-0.14833 -0.32877,-0.27331 -0.16469,-0.27773 0.16408,-0.004 0.44655,0.17054 0.62771,0.38883 0.18116,0.21828 0.44844,0.39687 0.59396,0.39687 0.14582,0 0.11448,-0.18086 -0.0698,-0.40293 -0.28269,-0.34062 -0.26053,-0.37458 0.1433,-0.21962 0.34715,0.13321 0.42063,0.091 0.26887,-0.15458 -0.20315,-0.32871 0.16061,-0.27833 1.4222,0.19694 0.23781,0.0896 0.30443,0.0282 0.18282,-0.1686 -0.10522,-0.17024 -0.0652,-0.30954 0.0889,-0.30954 0.15411,0 0.2802,0.11906 0.2802,0.26458 0,0.14552 0.12609,0.26459 0.28019,0.26459 0.15411,0 0.22366,-0.0915 0.15455,-0.20331 -0.0691,-0.11182 0.34489,-0.15843 0.92,-0.10359 0.5751,0.0548 1.02724,-0.002 1.00474,-0.12742 -0.12405,-0.68891 0.0385,-0.89825 0.5041,-0.64908 0.40004,0.21409 0.47904,0.15925 0.46302,-0.32142 -0.0193,-0.5791 0.0375,-0.58981 1.27883,-0.24104 0.34173,0.096 0.4425,0.0416 0.31245,-0.16886 -0.10557,-0.17082 -0.29456,-0.24716 -0.41997,-0.16966 -0.12541,0.0775 -0.3028,0.0199 -0.39421,-0.12797 -0.0914,-0.1479 -0.0331,-0.2689 0.12963,-0.2689 0.1627,0 0.22223,-0.11907 0.13229,-0.26459 -0.0899,-0.14552 -0.0304,-0.26458 0.13229,-0.26458 0.1627,0 0.22223,-0.11906 0.13229,-0.26458 -0.0899,-0.14552 -0.008,-0.26641 0.18283,-0.26864 0.25559,-0.003 0.24436,-0.0685 -0.0429,-0.25019 -0.21407,-0.13539 -0.3138,-0.32157 -0.22163,-0.41374 0.20097,-0.20096 -0.51481,-2.42545 -1.01718,-3.1612 -0.47204,-0.69132 -0.44086,-0.1879 0.0405,0.65418 0.20797,0.36381 0.37712,0.89959 0.37589,1.19063 -0.003,0.70185 -0.7932,-1.37122 -0.88312,-2.31677 -0.0696,-0.73242 -0.41881,-1.36137 -0.41881,-0.75442 0,0.17836 -0.11084,0.25579 -0.2463,0.17207 -0.40711,-0.2516 -0.59209,0.33695 -0.28579,0.90928 0.43395,0.81085 0.0809,0.64184 -0.83259,-0.39855 -0.57994,-0.66052 -0.96363,-0.88739 -1.31317,-0.77645 -0.38747,0.12298 -0.46038,0.0533 -0.33857,-0.32359 0.1091,-0.3375 -0.008,-0.28364 -0.39265,0.18114 -0.30135,0.3638 -0.55056,0.51965 -0.5538,0.34634 -0.003,-0.17331 0.11318,-0.3887 0.2587,-0.47863 0.14552,-0.0899 0.26459,-0.34212 0.26459,-0.5604 0,-0.21828 -0.11907,-0.32329 -0.26459,-0.23335 -0.14552,0.0899 -0.26458,0.0247 -0.26458,-0.14499 0,-0.17011 -0.1842,-0.23782 -0.41062,-0.15094 -0.22584,0.0867 -0.34621,0.0534 -0.26749,-0.074 0.18796,-0.30414 -0.15211,-0.55838 -2.34807,-1.75546 -1.00956,-0.55034 -2.24656,-1.27953 -2.7489,-1.62043 -1.00351,-0.681 -1.77803,-0.76034 -3.29908,-0.33795 -0.77957,0.21648 -1.27504,0.64548 -2.21376,1.91675 -0.66516,0.90082 -1.27608,1.81644 -1.35758,2.03472 -0.0815,0.21828 -0.27594,0.48435 -0.43208,0.59126 -0.18913,0.12951 -0.17073,0.19574 0.0551,0.19844 0.18647,0.002 0.40129,-0.15817 0.47737,-0.35644 0.0857,-0.22342 0.43472,-0.32599 0.91774,-0.26976 0.44064,0.0513 0.7794,-0.0343 0.7794,-0.19697 0,-0.15825 0.18478,-0.21682 0.41062,-0.13016 0.23546,0.0904 0.34166,0.046 0.24897,-0.10398 -0.0889,-0.14385 -0.0356,-0.27644 0.11855,-0.29463 0.53775,-0.0635 0.67944,-0.10882 1.0254,-0.3282 0.60407,-0.38304 0.60724,-0.0122 0.006,0.75159 -0.53734,0.68312 -0.54131,0.71568 -0.0556,0.45573 0.32497,-0.17393 0.668,-0.18827 0.9057,-0.0379 0.33038,0.20901 0.32843,0.24491 -0.0143,0.26289 -0.22202,0.0117 -0.12592,0.12945 0.21815,0.2674 0.39448,0.15816 0.7977,0.1488 1.12448,-0.0261 0.2802,-0.14996 0.51128,-0.17917 0.51351,-0.0649 0.002,0.11426 0.1064,0.0462 0.23151,-0.15123 0.15856,-0.25025 0.28228,-0.27028 0.40844,-0.0662 0.0996,0.16106 0.0479,0.29283 -0.11482,0.29283 -0.1627,0 -0.21086,0.13746 -0.10703,0.30547 0.10383,0.168 0.0754,0.23539 -0.0632,0.14975 -0.13858,-0.0856 -0.402,-0.063 -0.58539,0.0504 -0.49897,0.30838 -0.10164,1.50633 0.77357,2.33239 0.56394,0.53227 0.6803,0.7947 0.46656,1.05225 -0.15662,0.18871 -0.19401,0.34312 -0.0831,0.34312 0.11092,0 0.35983,-0.20836 0.55315,-0.46302 0.28368,-0.37371 0.35223,-0.38647 0.35533,-0.0661 0.008,0.78092 -1.18898,1.5875 -2.35503,1.5875 -0.60654,0 -1.04754,0.0893 -0.97999,0.19844 0.17239,0.27855 -4.02837,0.10285 -4.95971,-0.20745 -0.4219,-0.14056 -1.3744,-0.25195 -2.11666,-0.24753 -1.08864,0.006 -1.25534,0.0628 -0.86215,0.2914 0.38438,0.22344 0.45177,0.47346 0.31874,1.18258 -0.14717,0.78446 -0.0996,0.89923 0.37246,0.89923 0.29764,0 0.54116,-0.12609 0.54116,-0.2802 0,-0.15411 0.11906,-0.20662 0.26458,-0.11668 0.14552,0.0899 0.26458,0.0304 0.26458,-0.13229 0,-0.1627 0.11907,-0.22223 0.26459,-0.13229 0.14552,0.0899 0.26458,0.0304 0.26458,-0.13229 0,-0.1627 0.10889,-0.22852 0.24199,-0.14626 0.13309,0.0822 0.30362,-2e-5 0.37897,-0.18282 0.0753,-0.18281 0.0745,0.0351 -0.002,0.4842 -0.16282,0.9579 0.60302,2.01626 1.00276,1.38578 0.16598,-0.26179 0.2231,-0.22616 0.22613,0.14105 0.003,0.32727 0.13657,0.44048 0.40093,0.33903 0.21828,-0.0838 0.39687,-0.0507 0.39687,0.0734 0,0.12415 0.47625,0.21693 1.05834,0.20618 0.58208,-0.0107 1.05833,-0.13065 1.05833,-0.26643 0,-0.13578 0.17859,-0.0986 0.39687,0.0825 0.31997,0.26555 0.39767,0.25901 0.40093,-0.0337 0.003,-0.30666 0.04,-0.30643 0.235,0.002 0.13454,0.21241 0.37082,0.27818 0.566,0.15756 0.21053,-0.13012 0.26908,-0.10035 0.15756,0.0801 -0.0976,0.15795 -0.0565,0.36197 0.0914,0.45337 0.14789,0.0914 0.2689,0.0401 0.2689,-0.11401 0,-0.43041 0.36892,-0.33287 0.6915,0.18282 0.26598,0.42522 0.14697,0.45858 -1.45771,0.40859 -0.96103,-0.0299 -2.08068,-0.11744 -2.48809,-0.19445 -0.45099,-0.0853 -0.67776,-0.0381 -0.5797,0.12058 0.0886,0.14333 -0.0543,0.26421 -0.31757,0.26864 -0.44628,0.008 -0.44445,0.0279 0.027,0.3016 0.37262,0.21631 0.63369,0.2136 0.99219,-0.0103 0.55395,-0.34594 0.65162,-0.0499 0.15579,0.47226 -0.34348,0.36171 -0.13139,0.34983 2.05052,-0.11483 0.49906,-0.10628 0.66925,-0.0808 0.45841,0.0686 -0.20814,0.14748 0.36718,0.21218 1.51659,0.17056 1.12347,-0.0407 1.92212,0.0465 2.03036,0.22165 0.11666,0.18876 -0.0184,0.23723 -0.39011,0.14003 -0.3127,-0.0818 -1.13214,0.0209 -1.82099,0.22825 -0.68885,0.20731 -1.4103,0.31636 -1.60324,0.24232 -0.19294,-0.074 -0.27805,-0.0169 -0.18914,0.12694 0.0889,0.14378 -0.031,0.26148 -0.26642,0.26148 -0.23546,0 -0.36138,-0.10796 -0.27983,-0.23991 0.0815,-0.13195 -0.0887,-0.17795 -0.37829,-0.10221 -0.2896,0.0757 -0.44883,0.26345 -0.35383,0.41716 0.10469,0.1694 0.0126,0.21804 -0.23374,0.1235 -0.22354,-0.0858 -0.96457,-0.23967 -1.64671,-0.34196 -1.00754,-0.15109 -1.4483,-0.40751 -2.34893,-1.36651 -0.60977,-0.64929 -1.24489,-1.43285 -1.41139,-1.74124 -0.17237,-0.31929 -0.88106,-0.7573 -1.64594,-1.0173 l -1.34324,-0.45658 -1.22167,1.23805 c -0.67192,0.68092 -1.41552,1.56561 -1.65244,1.96598 -0.23693,0.40037 -0.61337,0.78675 -0.83655,0.85862 -0.22317,0.0719 -0.82249,0.50077 -1.33181,0.9531 -0.85826,0.76222 -0.87762,0.81166 -0.26459,0.67539 0.36381,-0.0809 1.16748,-0.22748 1.78594,-0.3258 0.61846,-0.0983 1.12448,-0.2785 1.12448,-0.40041 0,-0.12191 0.59531,-0.30063 1.32292,-0.39715 0.85897,-0.11394 1.32291,-0.30272 1.32291,-0.53828 0,-0.19953 0.1786,-0.36279 0.39688,-0.36279 0.21828,0 0.39687,0.11907 0.39687,0.26459 0,0.14552 -0.14882,0.2664 -0.33073,0.26863 -0.22048,0.003 -0.19843,0.0896 0.0662,0.26053 0.33204,0.21459 0.31404,0.25715 -0.11024,0.26054 -0.27892,0.002 -0.43341,0.0778 -0.34333,0.16784 0.2564,0.2564 -0.51086,0.89454 -1.07555,0.89454 -0.27972,0 -0.85377,0.11957 -1.27567,0.2657 -0.94469,0.32722 -4.60425,0.47476 -4.60384,0.18561 z m 5.35811,-1.1557 c -0.1819,-0.0734 -0.47956,-0.0734 -0.66146,0 -0.1819,0.0734 -0.0331,0.13345 0.33073,0.13345 0.3638,0 0.51263,-0.0601 0.33073,-0.13345 z m 23.43986,-1.34613 c -0.0113,-0.40018 0.0599,-0.96895 0.15837,-1.26393 0.14639,-0.43863 0.0557,-0.54653 -0.4979,-0.59235 -0.60502,-0.0501 -0.67689,0.04 -0.67689,0.84816 0,0.4973 0.18709,1.09128 0.41577,1.31995 0.56326,0.56326 0.62453,0.53144 0.60065,-0.31183 z m -0.58294,-0.99219 c -0.0918,-0.23933 -10e-4,-0.39687 0.22797,-0.39687 0.22932,0 0.31981,0.15754 0.22798,0.39687 -0.0838,0.21828 -0.18635,0.39688 -0.22798,0.39688 -0.0416,0 -0.1442,-0.1786 -0.22797,-0.39688 z m 3.79985,1.01647 c 0.65484,-0.0627 1.44683,-0.1385 1.75997,-0.16838 0.71503,-0.0682 0.92474,-1.15775 0.90415,-4.69728 -0.0164,-2.81991 -0.41383,-3.98756 -2.03914,-5.99108 -0.72028,-0.8879 -1.12287,-1.14236 -2.01909,-1.27618 -0.61569,-0.0919 -1.44556,-0.0428 -1.84416,0.1092 l -0.72473,0.27634 1.05808,1.51046 c 1.33871,1.91107 1.6683,3.09023 1.66827,5.9686 -2e-5,1.96236 -0.10163,2.50023 -0.68459,3.62386 l -0.68457,1.31947 0.70759,-0.28048 c 0.38918,-0.15426 1.24337,-0.3318 1.89822,-0.39453 z m 0.43618,-2.0748 c 0.34788,-1.54382 0.62817,-2.18336 0.46383,-1.05833 -0.085,0.58208 -0.26442,1.23692 -0.39864,1.4552 -0.16334,0.26561 -0.1849,0.13435 -0.0652,-0.39687 z m -0.52943,-1.5875 c 0.0886,-0.72761 0.20533,-1.37253 0.25944,-1.43316 0.2071,-0.23205 0.0493,1.72385 -0.17965,2.22691 -0.16213,0.35621 -0.18821,0.0968 -0.0798,-0.79375 z m 0.64506,-3.96875 c -0.008,-0.29104 0.10087,-0.70776 0.24194,-0.92604 0.22798,-0.35278 0.25486,-0.35278 0.24193,0 -0.008,0.21828 -0.11687,0.635 -0.24193,0.92604 l -0.22739,0.52917 -0.0145,-0.52917 z m -0.61657,-1.32292 c 0.0695,-0.3638 0.1721,-0.66146 0.2279,-0.66146 0.0558,0 0.10144,0.29766 0.10144,0.66146 0,0.3638 -0.10255,0.66146 -0.22789,0.66146 -0.12534,0 -0.17099,-0.29766 -0.10145,-0.66146 z m -0.9518,-0.13229 c 0,-0.3638 0.0601,-0.51263 0.13345,-0.33073 0.0734,0.1819 0.0734,0.47956 0,0.66146 -0.0734,0.1819 -0.13345,0.0331 -0.13345,-0.33073 z m -0.74422,-0.40829 c -0.0862,-0.22455 -0.0976,-0.4674 -0.0253,-0.53966 0.0723,-0.0722 0.19489,0.11148 0.2725,0.40829 0.16488,0.63048 -0.0183,0.72784 -0.2472,0.13137 z m -16.23089,9.53642 c 0,-0.21829 -0.11532,-0.39688 -0.25628,-0.39688 -0.14095,0 -0.18774,0.17859 -0.10398,0.39688 0.0838,0.21828 0.19909,0.39687 0.25628,0.39687 0.0572,0 0.10398,-0.17859 0.10398,-0.39687 z m -1.5875,-0.1323 c 0,-0.14552 -0.12609,-0.26458 -0.2802,-0.26458 -0.1541,0 -0.20661,0.11906 -0.11667,0.26458 0.0899,0.14552 0.21603,0.26459 0.2802,0.26459 0.0642,0 0.11667,-0.11907 0.11667,-0.26459 z m 26.06146,-0.52916 c 0.0899,-0.14552 0.0374,-0.26459 -0.11668,-0.26459 -0.15411,0 -0.2802,0.11907 -0.2802,0.26459 0,0.14552 0.0525,0.26458 0.11668,0.26458 0.0642,0 0.19026,-0.11906 0.2802,-0.26458 z m 2.24896,-0.14791 c 0,-0.22687 -0.12101,-0.3377 -0.2689,-0.2463 -0.14789,0.0914 -0.2004,0.27702 -0.11668,0.41249 0.22681,0.36699 0.38558,0.29856 0.38558,-0.16619 z m -28.31042,-0.11668 c 0,-0.14552 -0.20836,-0.26276 -0.46302,-0.26053 -0.3957,0.003 -0.40531,0.0413 -0.0661,0.26053 0.49932,0.32269 0.52916,0.32269 0.52916,0 z m 33.60208,-0.32528 c 0,-0.15487 -0.16811,-0.12915 -0.39687,0.0607 -0.21828,0.18116 -0.39688,0.37059 -0.39688,0.42097 0,0.0504 0.1786,0.0231 0.39688,-0.0607 0.21828,-0.0838 0.39687,-0.2732 0.39687,-0.42097 z m -3.44514,-1.87851 c 0.17401,-0.84829 0.26555,-1.59316 0.20344,-1.65528 -0.0621,-0.0621 -0.25959,0.57241 -0.43883,1.41005 -0.17923,0.83764 -0.38262,1.76111 -0.45197,2.05215 -0.0986,0.41373 -0.0719,0.44259 0.12245,0.13229 0.13669,-0.21828 0.39091,-1.09093 0.56491,-1.93921 z m -26.98194,1.18956 c 0,-0.12127 -0.17859,-0.22049 -0.39687,-0.22049 -0.21828,0 -0.39688,0.0992 -0.39688,0.22049 0,0.12127 0.1786,0.22048 0.39688,0.22048 0.21828,0 0.39687,-0.0992 0.39687,-0.22048 z m 1.05834,0.10381 c 0,-0.0642 -0.11907,-0.19026 -0.26459,-0.2802 -0.14552,-0.0899 -0.26458,-0.0374 -0.26458,0.11667 0,0.15411 0.11906,0.2802 0.26458,0.2802 0.14552,0 0.26459,-0.0525 0.26459,-0.11667 z m -5.82084,-0.38163 c 0,-0.12855 -0.24493,-0.29778 -0.54428,-0.37606 -0.44661,-0.11679 -0.48828,-0.0748 -0.23219,0.23372 0.34932,0.42091 0.77647,0.49921 0.77647,0.14234 z m 31.4523,-3.0378 c -0.0309,-0.77345 -0.047,-0.75799 -0.23896,0.22881 -0.11321,0.58209 -0.28344,1.35599 -0.37827,1.71979 -0.10995,0.4218 -0.0234,0.3389 0.23896,-0.22881 0.22626,-0.48965 0.39649,-1.26356 0.37827,-1.71979 z m -2.99997,-0.0776 c -0.17297,-0.92197 -0.30824,-1.02236 -0.88486,-0.65667 -0.22495,0.14267 -0.28436,0.46536 -0.16975,0.92199 0.21339,0.85022 0.65301,0.9509 0.4681,0.1072 -0.10482,-0.47828 -0.0747,-0.51729 0.15301,-0.19844 0.15592,0.21828 0.30315,0.81359 0.32718,1.32292 0.0409,0.86615 0.0511,0.87628 0.15795,0.15665 0.0628,-0.42317 0.0396,-1.16731 -0.0516,-1.65365 z m -0.49034,1.44739 c -0.0845,-0.21107 -0.14716,-0.14838 -0.15985,0.15985 -0.0115,0.27891 0.0511,0.43519 0.13896,0.34727 0.0879,-0.0879 0.0973,-0.31613 0.0209,-0.50712 z m -35.90829,-1.10418 c -0.005,-0.16578 -0.24297,-0.0203 -0.52917,0.3232 -0.2862,0.34355 -0.5164,0.76027 -0.51156,0.92604 0.005,0.16578 0.24297,0.0203 0.52917,-0.3232 0.2862,-0.34355 0.5164,-0.76027 0.51156,-0.92604 z m 5.2488,0.0592 c 0.068,-0.58465 -0.0376,-0.71054 -0.67434,-0.80399 -0.64721,-0.095 -0.76272,-0.017 -0.80938,0.54683 -0.10118,1.2225 1.34235,1.4727 1.48372,0.25716 z m -4.18166,0.30084 c 0.24169,-0.1562 0.27294,-0.25807 0.0799,-0.26054 -0.23424,-0.003 -0.24765,-0.20289 -0.0514,-0.76594 0.14607,-0.41903 0.40777,-0.75747 0.58155,-0.75206 0.17377,0.005 0.6136,-0.0173 0.97741,-0.0505 0.61317,-0.0559 0.62283,-0.0769 0.13229,-0.28767 -0.36596,-0.15726 -0.40438,-0.23313 -0.12456,-0.24599 0.22254,-0.0102 0.57165,-0.25034 0.7758,-0.53359 0.20416,-0.28325 0.49833,-0.43898 0.65372,-0.34608 0.1554,0.0929 0.1312,-0.018 -0.0538,-0.24644 -0.28229,-0.34864 -0.25046,-0.4378 0.19818,-0.55512 0.29396,-0.0769 0.60115,-0.0319 0.68265,0.1 0.20383,0.3298 0.6461,0.30211 0.6461,-0.0405 0,-0.15411 -0.0893,-0.23252 -0.19843,-0.17426 -0.10914,0.0583 -0.4068,-0.1133 -0.66146,-0.38126 -0.25466,-0.26796 -0.33693,-0.4872 -0.18282,-0.4872 0.15411,0 0.19524,-0.13746 0.0914,-0.30546 -0.12133,-0.19631 -0.0721,-0.23334 0.13782,-0.10361 0.19942,0.12325 0.48332,-0.0219 0.72904,-0.37269 0.22133,-0.31601 0.66293,-0.6736 0.98133,-0.79465 0.55946,-0.21271 2.95198,-3.39417 2.72395,-3.62219 -0.0618,-0.0618 -0.75301,0.13744 -1.53592,0.44287 -1.80399,0.70378 -4.72605,3.51657 -5.76506,5.54948 -0.40906,0.80037 -0.98138,1.84548 -1.27183,2.32246 -0.30916,0.50772 -0.47625,1.13842 -0.40304,1.52136 0.13698,0.7166 0.26262,0.77369 0.8571,0.38952 z m 32.43411,-2.91694 -0.39882,-0.91952 -0.0103,0.84428 c -0.006,0.46435 0.1087,0.91787 0.25422,1.0078 0.14552,0.0899 0.28539,0.60298 0.31081,1.1401 l 0.0462,0.97657 0.0984,-1.06485 c 0.0542,-0.58671 -0.0807,-1.47774 -0.30045,-1.98438 z m 1.34871,2.33816 c -0.0845,-0.21107 -0.14716,-0.14837 -0.15985,0.15985 -0.0115,0.27892 0.051,0.43519 0.13896,0.34727 0.0879,-0.0879 0.0973,-0.31612 0.0209,-0.50712 z m -1.74026,-0.17877 c 0.17882,0.28226 0.22938,0.26001 0.23255,-0.10235 0.002,-0.25466 -0.092,-0.46302 -0.20946,-0.46302 -0.11743,0 -0.33204,-0.26789 -0.47691,-0.59531 -0.14487,-0.32742 -0.22739,-0.43675 -0.18337,-0.24295 0.044,0.19381 0.0894,0.67006 0.10093,1.05834 0.0115,0.38828 0.0854,0.54366 0.16432,0.34529 0.12109,-0.3045 0.17902,-0.3045 0.37194,0 z m -22.64285,-1.30802 c -0.0815,-0.0815 -0.29496,-1.7e-4 -0.47444,0.18065 -0.25936,0.26131 -0.22897,0.2917 0.14812,0.14811 0.26093,-0.0993 0.40778,-0.2473 0.32632,-0.32876 z m 1.03381,-0.0795 c -0.12289,-0.19883 0.0208,-0.23693 0.44741,-0.11859 0.54497,0.15118 0.57265,0.12859 0.20843,-0.17009 -0.42909,-0.35188 -0.58307,-1.27047 -0.21296,-1.27047 0.36372,0 0.5143,0.48053 0.18498,0.5903 -0.18799,0.0627 -0.11048,0.18635 0.18872,0.30117 0.27925,0.10716 0.42391,0.11101 0.32146,0.009 -0.10244,-0.10244 0.0202,-0.35569 0.27265,-0.56277 0.2524,-0.20708 0.32455,-0.31006 0.16032,-0.22885 -0.31206,0.15433 -1.52457,-0.36392 -2.87641,-1.22942 -0.73307,-0.46935 -0.72296,-0.44322 0.13229,0.3418 0.58558,0.5375 0.7315,0.77584 0.39688,0.64828 -1.67464,-0.63836 -2.41083,-0.26087 -0.99219,0.50875 0.40018,0.21711 0.57459,0.3995 0.38757,0.40533 -0.18702,0.006 -0.63351,-0.1817 -0.99219,-0.41671 -0.359,-0.23523 -0.65215,-0.30271 -0.65215,-0.15013 0,0.15246 0.2471,0.35561 0.54911,0.45147 0.302,0.0958 0.48431,0.23906 0.40513,0.31825 -0.0792,0.0792 -0.44116,-0.0507 -0.80438,-0.28874 -0.73343,-0.48056 -1.05078,-0.55559 -0.82845,-0.19586 0.0805,0.13028 -0.0514,0.31277 -0.29321,0.40555 -0.30962,0.11881 -0.35669,0.25161 -0.15918,0.44911 0.1975,0.19751 0.4469,0.19133 0.84346,-0.0209 0.30967,-0.16573 0.66596,-0.23772 0.79176,-0.15997 0.1258,0.0777 0.60861,0.009 1.07291,-0.15293 0.65081,-0.22687 0.91536,-0.21722 1.15487,0.0421 0.24581,0.26615 0.20019,0.30051 -0.21848,0.16452 -0.52112,-0.16927 -0.52136,-0.16584 -0.0156,0.22564 0.60998,0.47213 0.77455,0.50478 0.52722,0.10459 z m -1.55441,-1.43527 c -0.65012,-0.49174 -0.44782,-0.49231 0.68166,-0.002 0.61635,0.26759 0.72746,0.38711 0.3611,0.38846 -0.29104,0.001 -0.76028,-0.17287 -1.04276,-0.38652 z m -3.32286,0.0525 c 0,-0.19403 -0.17671,-0.35278 -0.39268,-0.35278 -0.29723,0 -0.32151,0.0858 -0.0999,0.35278 0.16103,0.19403 0.33773,0.35278 0.39267,0.35278 0.0549,0 0.0999,-0.15875 0.0999,-0.35278 z m 0.97014,-0.51657 c 0,-0.1871 -0.21169,-0.34018 -0.47042,-0.34018 -0.3533,0 -0.40012,0.0847 -0.18809,0.34018 0.15528,0.1871 0.36697,0.34018 0.47042,0.34018 0.10345,0 0.18809,-0.15308 0.18809,-0.34018 z m 4.20481,-0.59428 c -0.28248,-0.21365 -0.63966,-0.38467 -0.79375,-0.38004 -0.15409,0.005 -0.0491,0.18322 0.23343,0.39687 0.28247,0.21366 0.63966,0.38468 0.79375,0.38005 0.15409,-0.005 0.049,-0.18322 -0.23343,-0.39688 z m 0.94516,0.0502 c -0.16208,-0.19529 -0.23569,-0.41407 -0.16358,-0.48619 0.0721,-0.0721 -0.16704,-0.26696 -0.53146,-0.433 -0.88409,-0.40282 -0.84413,0.0363 0.065,0.71465 0.85291,0.63634 1.03833,0.69654 0.63001,0.20454 z m 1.44036,-0.82081 c -0.0113,-0.52094 -0.11922,-0.81258 -0.25183,-0.68083 -0.20028,0.19897 -0.0334,1.59213 0.19073,1.59213 0.0445,0 0.072,-0.41009 0.0611,-0.9113 z m -6.50214,0.48594 c 0,-0.21897 -0.51375,-0.3428 -0.63154,-0.15222 -0.0764,0.12364 0.0344,0.2248 0.2463,0.2248 0.21188,0 0.38524,-0.0327 0.38524,-0.0726 z m 2.71942,-0.40063 c -0.16325,-0.16325 -0.23385,-0.46091 -0.1569,-0.66146 0.17019,-0.44351 0.0383,-0.45335 -0.82198,-0.0614 -0.36609,0.1668 -0.59493,0.41764 -0.50854,0.55741 0.0906,0.14656 0.25102,0.10217 0.37901,-0.10483 0.18108,-0.2929 0.30719,-0.27375 0.68508,0.10404 0.25472,0.25466 0.52097,0.46302 0.59165,0.46302 0.0707,0 -0.005,-0.13357 -0.16832,-0.29682 z m -1.92567,-0.26 c 0,-0.11222 -0.22988,-0.18672 -0.51084,-0.16556 -0.28096,0.0212 -0.46479,0.11298 -0.40851,0.20404 0.14664,0.23727 0.91935,0.20492 0.91935,-0.0385 z m 23.80439,-0.6338 c 0,-0.14552 -0.11541,-0.086 -0.25647,0.13229 -0.14107,0.21828 -0.25648,0.51594 -0.25648,0.66146 0,0.14552 0.11541,0.086 0.25648,-0.13229 0.14106,-0.21828 0.25647,-0.51594 0.25647,-0.66146 z m -0.87935,-0.36867 c -0.20441,-0.23379 -0.56687,-0.81051 -0.80547,-1.2816 -0.33123,-0.65395 -0.58907,-0.84366 -1.09024,-0.80218 -0.68283,0.0565 -0.85025,0.31705 -0.38752,0.60303 0.1479,0.0914 0.18903,0.29542 0.0914,0.45337 -0.099,0.16025 -0.0557,0.21193 0.098,0.11693 0.15152,-0.0936 0.42153,0.006 0.60003,0.22079 0.1785,0.21507 0.42414,0.32949 0.54587,0.25425 0.32038,-0.198 0.83745,0.88746 0.6062,1.27257 -0.12292,0.20469 -0.0269,0.1886 0.25902,-0.0434 0.39304,-0.31892 0.4042,-0.42602 0.0827,-0.79375 z m -1.63696,-1.10414 c -0.28477,-0.46076 0.0396,-0.55834 0.40244,-0.12109 0.20869,0.25146 0.22877,0.40327 0.0533,0.40327 -0.15475,0 -0.35984,-0.12698 -0.45576,-0.28218 z m -22.8044,14.9155 c 0.25743,-0.0671 0.61462,-0.0627 0.79375,0.01 0.17913,0.0725 -0.0315,0.12737 -0.46805,0.12197 -0.43657,-0.005 -0.58313,-0.0647 -0.3257,-0.13177 z m 21.42621,-0.009 c 0.54571,-0.0571 1.43868,-0.0571 1.98438,0 0.5457,0.0571 0.0992,0.10379 -0.99219,0.10379 -1.0914,0 -1.53789,-0.0467 -0.99219,-0.10379 z m 6.68073,-0.0718 c 0.0899,-0.14552 0.42439,-0.25622 0.74322,-0.24599 0.5589,0.0179 0.56071,0.0268 0.0505,0.24599 -0.72826,0.31294 -0.98716,0.31294 -0.79375,0 z m -40.98215,-0.31073 c -0.0744,0.12034 0.16513,-0.26721 0,0 z m 0.89774,0.046 c -0.33917,-0.21918 -0.32955,-0.25707 0.0661,-0.26053 0.25466,-0.002 0.46302,0.11501 0.46302,0.26053 0,0.32269 -0.0298,0.32269 -0.52917,0 z m 21.54209,0.0661 c 0.10947,-0.10914 0.60553,-0.19844 1.10235,-0.19844 0.49683,0 0.90335,0.0893 0.9034,0.19844 4e-5,0.10914 -0.49602,0.19844 -1.10236,0.19844 -0.60633,0 -1.01286,-0.0893 -0.90339,-0.19844 z m 2.53499,-0.0661 c -0.34202,-0.22103 -0.33504,-0.25704 0.0505,-0.26053 0.24608,-0.002 0.52099,0.11501 0.61093,0.26053 0.20695,0.33486 -0.14331,0.33486 -0.66146,0 z m 7.01146,-0.26534 c -0.60641,-0.15372 -0.36182,-0.2086 1.03629,-0.23252 1.00651,-0.0172 1.78042,0.0124 1.71979,0.0659 -0.27439,0.2419 -2.03843,0.34856 -2.75608,0.16663 z m -2.17778,-0.18259 c 0.25743,-0.0671 0.61462,-0.0627 0.79375,0.01 0.17913,0.0725 -0.0315,0.12736 -0.46805,0.12197 -0.43657,-0.005 -0.58313,-0.0647 -0.3257,-0.13178 z m 5.55625,0 c 0.25743,-0.0671 0.61462,-0.0627 0.79375,0.01 0.17913,0.0725 -0.0315,0.12736 -0.46805,0.12197 -0.43657,-0.005 -0.58313,-0.0647 -0.3257,-0.13178 z m 11.17361,-0.0812 c 0.0899,-0.14552 0.28259,-0.26459 0.42811,-0.26459 0.14552,0 0.191,0.11907 0.10106,0.26459 -0.0899,0.14552 -0.28258,0.26458 -0.4281,0.26458 -0.14553,0 -0.191,-0.11906 -0.10107,-0.26458 z m 2.18755,0.0728 c 0.47555,-0.0589 1.18993,-0.0577 1.5875,0.003 0.39758,0.0604 0.009,0.10855 -0.86463,0.10706 -0.87313,-0.002 -1.19842,-0.0509 -0.72287,-0.10976 z m 3.43959,0 c 0.47555,-0.0589 1.18992,-0.0577 1.5875,0.003 0.39757,0.0604 0.008,0.10855 -0.86464,0.10706 -0.87312,-0.002 -1.19841,-0.0509 -0.72286,-0.10976 z m 2.55743,-0.0445 c 0.0739,-0.11952 0.6701,-0.21732 1.32494,-0.21732 1.55357,0 1.31941,0.37888 -0.25367,0.41045 -0.66307,0.0133 -1.14514,-0.0736 -1.07127,-0.19313 z m -42.11234,-0.21172 c 0.25743,-0.0671 0.61462,-0.0627 0.79375,0.01 0.17913,0.0725 -0.0315,0.12737 -0.46806,0.12197 -0.43656,-0.005 -0.58312,-0.0647 -0.32569,-0.13177 z m 29.56215,-0.0812 c 0,-0.14552 0.11906,-0.26458 0.26458,-0.26458 0.14552,0 0.26458,0.11906 0.26458,0.26458 0,0.14552 -0.11906,0.26459 -0.26458,0.26459 -0.14552,0 -0.26458,-0.11907 -0.26458,-0.26459 z m 1.08038,0.1703 c 0.2931,-0.25068 1.84129,-0.40256 1.69528,-0.16631 -0.0886,0.14333 -0.53106,0.2606 -0.98329,0.2606 -0.45223,0 -0.77262,-0.0424 -0.71199,-0.0943 z m -10.3408,-0.2717 c 0,-0.0558 0.23813,-0.1637 0.52917,-0.23981 0.29104,-0.0761 0.52917,-0.0305 0.52917,0.10143 0,0.1319 -0.23813,0.23981 -0.52917,0.23981 -0.29104,0 -0.52917,-0.0456 -0.52917,-0.10143 z m 15.6816,-0.0819 c 0.25743,-0.0671 0.61462,-0.0627 0.79375,0.01 0.17913,0.0725 -0.0315,0.12736 -0.46806,0.12197 -0.43656,-0.005 -0.58312,-0.0647 -0.32569,-0.13177 z m -0.66649,-0.52107 c 0.1819,-0.0734 0.47955,-0.0734 0.66145,0 0.1819,0.0734 0.0331,0.13345 -0.33073,0.13345 -0.3638,0 -0.51263,-0.0601 -0.33072,-0.13345 z m -19.51302,-0.30812 c 0,-0.12031 0.35718,-0.16633 0.79375,-0.10226 0.43656,0.0641 0.79375,0.16252 0.79375,0.21876 0,0.0562 -0.35719,0.10226 -0.79375,0.10226 -0.43657,0 -0.79375,-0.0984 -0.79375,-0.21876 z m 22.30332,-1.46498 c 0.32072,-0.48951 0.62409,-0.78335 0.67415,-0.65298 0.1183,0.30806 -0.69084,1.54299 -1.01098,1.54299 -0.13546,0 0.0161,-0.4005 0.33683,-0.89001 z m 3.98604,0.0963 c 0.089,-0.3638 0.16337,-0.81028 0.16536,-0.99218 0.002,-0.1819 0.12267,-0.33073 0.26819,-0.33073 0.40283,0 0.30009,0.86034 -0.17377,1.45521 -0.41117,0.51616 -0.41755,0.51291 -0.25978,-0.1323 z m -2.99793,-0.26455 c 0,-0.21828 0.11542,-0.57547 0.25648,-0.79375 0.22798,-0.35278 0.25648,-0.35278 0.25648,0 0,0.21828 -0.11541,0.57547 -0.25648,0.79375 -0.22798,0.35278 -0.25648,0.35278 -0.25648,0 z m 2.5913,-0.97213 c 0.1129,-0.55376 0.17943,-0.62029 0.25654,-0.25654 0.0573,0.27012 -0.0113,0.60657 -0.15244,0.74767 -0.16567,0.16566 -0.20254,-0.008 -0.1041,-0.49113 z m -31.12148,0.12546 c -0.44451,-0.4445 -0.39835,-0.87272 0.0536,-0.4976 0.22085,0.18328 0.40835,0.20453 0.46302,0.0524 0.0505,-0.14056 0.37296,-0.0265 0.7165,0.25354 0.34355,0.28001 0.4994,0.50911 0.34635,0.50911 -0.15306,0 -0.35187,-0.11906 -0.44181,-0.26458 -0.0899,-0.14552 -0.28258,-0.26458 -0.4281,-0.26458 -0.14552,0 -0.191,0.11906 -0.10106,0.26458 0.22896,0.37046 -0.2246,0.33103 -0.60854,-0.0529 z m 25.01136,-2.39448 c 0.0967,-0.81689 0.0812,-0.8342 -0.31041,-0.3463 -0.52818,0.65809 -0.52784,0.34521 8e-4,-0.67696 0.61894,-1.1969 0.30753,-1.53155 -0.384,-0.41264 -0.88895,1.43836 -0.97014,1.18105 -0.11036,-0.34976 0.40858,-0.72746 0.81286,-1.32277 0.89841,-1.32292 0.0856,-1.5e-4 0.17593,0.53877 0.20085,1.19759 0.0249,0.65882 0.0583,1.2839 0.0742,1.38906 0.086,0.56883 -0.0625,1.38183 -0.2525,1.38183 -0.12032,0 -0.17295,-0.38695 -0.11696,-0.8599 z m -47.06933,-0.68225 c 1.35789,-0.10437 2.5178,-0.11065 2.57756,-0.0139 0.16729,0.27068 -3.93546,0.1182 -2.57756,0.0139 z m 48.46338,0.25166 c 0,-0.1277 0.19809,-0.39559 0.44019,-0.59531 0.39915,-0.32927 0.41062,-0.30762 0.12299,0.23218 -0.32806,0.61568 -0.56318,0.76728 -0.56318,0.36313 z m -27.11979,-1.6199 c 0.26339,-0.29104 0.53842,-0.52916 0.61118,-0.52916 0.0728,0 -0.0832,0.23812 -0.3466,0.52916 -0.26339,0.29105 -0.53842,0.52917 -0.61118,0.52917 -0.0728,0 0.0832,-0.23812 0.3466,-0.52917 z m 0.83036,0.1323 c 0.0838,-0.21829 0.2732,-0.39688 0.42097,-0.39688 0.15486,0 0.12915,0.16812 -0.0607,0.39688 -0.18116,0.21828 -0.3706,0.39687 -0.42097,0.39687 -0.0504,0 -0.0231,-0.17859 0.0607,-0.39687 z m 3.70417,-0.79337 c 0.0838,-0.21829 0.25488,-0.39688 0.38026,-0.39688 0.12539,0 0.15945,0.17859 0.0757,0.39688 -0.0838,0.21828 -0.25488,0.39687 -0.38026,0.39687 -0.12539,0 -0.15944,-0.17859 -0.0757,-0.39687 z m 3.62656,-0.0114 c -0.0862,-0.22455 -0.0976,-0.4674 -0.0253,-0.53966 0.0723,-0.0722 0.19488,0.11148 0.2725,0.40829 0.16488,0.63048 -0.0183,0.72784 -0.2472,0.13137 z m 0.85364,-0.27207 c -0.0973,-0.38775 -0.11741,-0.76453 -0.0446,-0.83729 0.0728,-0.0728 0.21192,0.18496 0.30924,0.57271 0.0973,0.38775 0.11741,0.76453 0.0446,0.83729 -0.0728,0.0728 -0.21192,-0.18496 -0.30924,-0.57271 z m 9.43366,0.264 c 0.2512,-0.263 0.52928,-0.40562 0.61797,-0.31693 0.0887,0.0887 -0.11684,0.30387 -0.45672,0.47818 -0.59078,0.30298 -0.59787,0.29588 -0.16125,-0.16125 z m 2.85057,0.16739 c 0,-0.13693 0.11906,-0.32255 0.26458,-0.41249 0.14552,-0.0899 0.26458,0.0221 0.26458,0.24897 0,0.22687 -0.11906,0.41249 -0.26458,0.41249 -0.14552,0 -0.26458,-0.11204 -0.26458,-0.24897 z m 2.91041,-0.11551 c 0,-0.0549 0.20836,-0.2633 0.46303,-0.46302 0.41964,-0.32911 0.429,-0.31975 0.0999,0.0999 -0.34564,0.44073 -0.56292,0.58088 -0.56292,0.36312 z m -18.07985,-0.60566 c -0.097,-0.097 -0.17277,-0.3649 -0.16835,-0.59531 0.007,-0.34404 0.0582,-0.33261 0.28884,0.0639 0.28489,0.48993 0.2023,0.85417 -0.12049,0.53137 z m -7.30094,-1.04992 c -0.70501,-0.89627 -0.7101,-1.38332 -0.008,-0.74776 0.52716,0.47707 0.53606,0.47645 0.35931,-0.0251 -0.17708,-0.50253 -0.16975,-0.50298 0.31934,-0.0196 0.34034,0.33637 0.39947,0.53241 0.18472,0.61241 -0.17373,0.0647 -0.25028,0.28857 -0.17013,0.49745 0.22716,0.59197 -0.0832,0.44828 -0.68542,-0.31736 z m 27.49682,0.0357 c -0.0341,-0.14553 -0.0476,-0.35496 -0.0299,-0.46541 0.0177,-0.11046 -0.0744,-0.67508 -0.20467,-1.25472 -0.13024,-0.57964 -0.13521,-0.99111 -0.011,-0.91437 0.30185,0.18655 0.59164,1.79659 0.43371,2.40964 -0.0694,0.26919 -0.15401,0.37038 -0.18812,0.22486 z m -24.60561,-0.36565 c 0,-0.14552 0.11907,-0.33817 0.26459,-0.4281 0.14552,-0.0899 0.26458,-0.0445 0.26458,0.10106 0,0.14552 -0.11906,0.33817 -0.26458,0.4281 -0.14552,0.0899 -0.26459,0.0445 -0.26459,-0.10106 z m 23.56652,-0.75883 c 0.0149,-0.79592 0.0636,-0.88752 0.24598,-0.46302 0.31595,0.73524 0.31595,1.4552 0,1.4552 -0.14552,0 -0.25621,-0.44648 -0.24598,-0.99218 z m -24.62485,0.49541 c 0,-0.1277 0.19808,-0.39559 0.44019,-0.59531 0.39915,-0.32927 0.41062,-0.30762 0.12299,0.23219 -0.32806,0.61567 -0.56318,0.76727 -0.56318,0.36312 z m 19.84375,-0.29698 c 0,-0.14552 0.12609,-0.26458 0.2802,-0.26458 0.15411,0 0.20661,0.11906 0.11667,0.26458 -0.0899,0.14552 -0.21602,0.26459 -0.2802,0.26459 -0.0642,0 -0.11667,-0.11907 -0.11667,-0.26459 z m 6.15761,-1.60896 c -0.17857,-1.0796 -0.39726,-2.26057 -0.48597,-2.62437 -0.1229,-0.50399 -0.096,-0.56836 0.11299,-0.2704 0.34384,0.49021 0.92599,3.67823 0.79512,4.35425 -0.0536,0.27688 -0.24357,-0.37988 -0.42214,-1.45948 z m -26.9274,1.34438 c -0.0899,-0.14552 -0.0374,-0.26458 0.11667,-0.26458 0.15411,0 0.2802,0.11906 0.2802,0.26458 0,0.14552 -0.0525,0.26458 -0.11667,0.26458 -0.0642,0 -0.19027,-0.11906 -0.2802,-0.26458 z m 18.57736,-0.59531 c -0.0735,-0.47294 -0.21244,-1.15755 -0.30874,-1.52136 l -0.17508,-0.66145 0.37481,0.66145 c 0.46979,0.82909 0.77725,2.38125 0.47169,2.38125 -0.12596,0 -0.28917,-0.38695 -0.36268,-0.85989 z m 8.97758,-0.79375 c -0.0924,-0.76399 -0.22975,-1.74625 -0.30518,-2.18281 -0.12112,-0.70099 -0.0924,-0.67921 0.2453,0.1864 0.51658,1.32392 0.81224,3.38547 0.48554,3.38547 -0.14169,0 -0.33323,-0.62508 -0.42566,-1.38906 z m -7.51899,0.26449 c -0.45048,-1.24577 -0.38803,-1.58313 0.0894,-0.48288 0.21624,0.49835 0.3576,1.01278 0.31414,1.14318 -0.0435,0.13039 -0.22506,-0.16674 -0.40353,-0.6603 z m 1.10557,-0.52908 -0.50402,-0.59531 0.59531,0.50403 c 0.55944,0.47366 0.71576,0.6866 0.50403,0.6866 -0.0502,0 -0.3181,-0.26789 -0.59532,-0.59532 z m 0.73525,-0.32961 c -0.16604,-0.36441 -0.19926,-0.66257 -0.0738,-0.66257 0.21969,0 0.61552,1.08535 0.45454,1.24633 -0.0434,0.0434 -0.21467,-0.21934 -0.38071,-0.58376 z m 8.18946,-0.92716 c -0.0238,-0.3638 -0.10452,-0.95911 -0.17939,-1.32291 l -0.13615,-0.66146 0.28423,0.65127 c 0.15632,0.3582 0.23705,0.95351 0.17939,1.32292 l -0.10482,0.67164 z m 1.19737,-0.44912 c -0.17559,-1.08207 -0.0144,-1.46516 0.36444,-0.86613 0.31183,0.49308 0.32963,1.84442 0.0243,1.84442 -0.12648,0 -0.30141,-0.44023 -0.38872,-0.97829 z"
       id="path305"
       clip-path="url(#clipPath717)"
       sodipodi:nodetypes="ccccsscccsccccsccccccssccccssccscccssccccccscscccsccssccsssssscsccsssccsscccsccsccsccscssscscsssccsccscsssscssscsccsccsscscsscccssssccscsscsscscssccscccssssssccsssscccsssscccccsssccscsccssscsccsccssscsscsccssccscsscsscssssssscscssscsccscsscsscscccssscccssccscscsccssssccscscsccccscsccssscscccsscsccccccsccccssccscsccscccccsscscscccsccscscccccsssccccccssscsccccsccscssccccccsccsssssccccsccccssccccscccscscccsscccssscccccccccscccccssccccssscscssccccsscsssscsscssscsssscccccssssssssccssssssscssssscsccscccssscccccsccsscccccsccscsccccccccccscssccccssscccccccccccccsccssscsscccssccsccsscsccccsccccsccccccsccsscccccccccscsccssssscccccccscccccscccscccccccssccccsccscssscccsccccssccccscccccccsssscccccccccsccsscsscccccccccccccccccccccscsccccccccccccssccccccsssssccsccsssssccccccsscscssssssscssscsssssccccccccscsscccccssscsscccccsssssscssssssscscscccsccccccssssscsssscsssccccccccscccccscccccscscsccscsscssscssssssscssscsscssscscscsscssscssscsscccccsccccsscc" />
  </g>
</svg>
