<?xml version="1.0" encoding="UTF-8" standalone="no"?>
<!-- Created with Inkscape (http://www.inkscape.org/) -->

<svg
   width="132.93195mm"
   height="33.484123mm"
   viewBox="0 0 132.93194 33.484123"
   version="1.1"
   id="svg5"
   inkscape:version="1.1.2 (b8e25be833, 2022-02-05)"
   sodipodi:docname="hands.svg"
   xmlns:inkscape="http://www.inkscape.org/namespaces/inkscape"
   xmlns:sodipodi="http://sodipodi.sourceforge.net/DTD/sodipodi-0.dtd"
   xmlns="http://www.w3.org/2000/svg"
   xmlns:svg="http://www.w3.org/2000/svg">
  <sodipodi:namedview
     id="namedview7"
     pagecolor="#505050"
     bordercolor="#eeeeee"
     borderopacity="1"
     inkscape:pageshadow="0"
     inkscape:pageopacity="0"
     inkscape:pagecheckerboard="0"
     inkscape:document-units="mm"
     showgrid="false"
     inkscape:zoom="0.99597362"
     inkscape:cx="249.00258"
     inkscape:cy="18.072768"
     inkscape:window-width="1366"
     inkscape:window-height="745"
     inkscape:window-x="-8"
     inkscape:window-y="-8"
     inkscape:window-maximized="1"
     inkscape:current-layer="layer1" />
  <defs
     id="defs2" />
  <g
     inkscape:label="Layer 1"
     inkscape:groupmode="layer"
     id="layer1"
     transform="translate(-166.85905,-128.67889)"
     style="display:inline">
    <path
       style="display:inline;fill:#000000;stroke-width:0.264583"
       d="m 188.32599,162.05278 c 0.40018,-0.0606 1.05503,-0.0606 1.45521,0 0.40018,0.0606 0.0728,0.11023 -0.72761,0.11023 -0.80036,0 -1.12778,-0.0496 -0.7276,-0.11023 z m 81.29322,-0.32691 -1.32291,-0.16871 0.92604,-0.18954 c 0.50932,-0.10424 1.28323,-0.14226 1.71979,-0.0845 0.43656,0.0578 1.47836,0.11863 2.3151,0.13522 0.83675,0.0166 1.52136,0.14923 1.52136,0.29475 0,0.28665 -2.95436,0.29395 -5.15938,0.0128 z m -98.55728,-0.79312 c 0,-0.43743 0.21034,-0.4905 1.84404,-0.46533 1.31889,0.0203 1.88464,0.13422 1.98661,0.39993 0.0784,0.20433 0.29038,0.3161 0.47106,0.24838 0.18067,-0.0677 0.56662,-0.0315 0.85766,0.0804 0.30226,0.11627 -0.69046,0.20929 -2.3151,0.21695 -2.60465,0.0123 -2.84427,-0.0282 -2.84427,-0.48034 z m 18.69648,0.23431 c 0.19162,-0.19162 0.56749,-0.19924 1.1774,-0.0239 l 0.89591,0.25762 -1.1774,0.0239 c -0.83205,0.0169 -1.09483,-0.0587 -0.89591,-0.25762 z m 9.68008,0.0991 c 0.25466,-0.0666 0.67138,-0.0666 0.92604,0 0.25466,0.0665 0.0463,0.121 -0.46302,0.121 -0.50932,0 -0.71768,-0.0545 -0.46302,-0.121 z m -22.225,-0.95415 c -0.61846,-0.29786 -1.12448,-0.63175 -1.12448,-0.74198 0,-0.36733 4.24328,0.13346 5.22552,0.61671 1.03462,0.50902 0.65233,0.73368 -1.19062,0.69973 -1.20104,-0.0221 -2.15421,-0.21027 -2.91042,-0.57446 z m 29.56719,0.45963 c 1.00185,-0.21797 2.38125,-0.25489 2.38125,-0.0637 0,0.1163 -0.62508,0.19764 -1.38907,0.18076 -0.76398,-0.0169 -1.21046,-0.0695 -0.99218,-0.11704 z m 73.08752,-0.1622 c -0.25267,-0.10013 0.4931,-0.1766 1.65726,-0.16994 2.20284,0.0126 2.23019,0.13098 0.0625,0.27072 -0.69321,0.0447 -1.46711,-7.9e-4 -1.71979,-0.10078 z m -76.26252,-0.19446 c 0,-0.1319 0.23812,-0.17755 0.52916,-0.10144 0.29105,0.0761 0.52917,0.18403 0.52917,0.23982 0,0.0558 -0.23812,0.10143 -0.52917,0.10143 -0.29104,0 -0.52916,-0.10792 -0.52916,-0.23981 z m 8.92968,0.0531 c 0.32743,-0.0631 0.86321,-0.0631 1.19063,0 0.32742,0.0631 0.0595,0.11466 -0.59531,0.11466 -0.65485,0 -0.92274,-0.0516 -0.59532,-0.11466 z m 52.58594,-0.0681 c 0.7012,-0.28833 0.19121,-0.48872 -1.5875,-0.62379 -1.05872,-0.0804 -0.97947,-0.0988 0.39687,-0.0922 1.65061,0.008 3.09867,0.42974 2.73246,0.79595 -0.0962,0.0961 -0.60146,0.16645 -1.12291,0.15622 -0.75723,-0.0148 -0.84157,-0.0624 -0.41892,-0.23618 z m 3.30729,-0.006 c -0.75137,-0.11563 0.46878,-0.20388 3.30729,-0.2392 5.98415,-0.0745 6.21771,-0.0873 6.21771,-0.34037 0,-0.12006 -2.2225,-0.21829 -4.93889,-0.21829 -2.71639,0 -4.88928,-0.0474 -4.82865,-0.1054 0.1143,-0.10927 8.99359,-0.19763 11.09046,-0.11037 0.65484,0.0273 2.81979,-0.0336 4.811,-0.1352 1.9912,-0.10162 3.68366,-0.0824 3.76102,0.0428 0.0774,0.12516 -1.54979,0.30825 -3.61586,0.40688 -4.51963,0.21576 -6.10229,0.42637 -5.34342,0.71109 0.65592,0.2461 -8.85445,0.23524 -10.46066,-0.012 z m -74.87708,-0.25029 c 0,-0.1354 -0.26789,-0.29422 -0.59531,-0.35294 -0.32742,-0.0587 -0.0836,-0.11241 0.5419,-0.11933 0.62546,-0.007 1.20518,-0.0805 1.28827,-0.16363 0.15271,-0.15272 0.88181,0.45159 0.88181,0.73089 0,0.0831 -0.47625,0.15119 -1.05834,0.15119 -0.58208,0 -1.05833,-0.11078 -1.05833,-0.24618 z m 4.44831,0.0654 c 0.19099,-0.0764 0.4192,-0.067 0.50712,0.0209 0.0879,0.0879 -0.0684,0.15045 -0.34727,0.13896 -0.30823,-0.0127 -0.37092,-0.0754 -0.15985,-0.15985 z m -24.75508,-0.27057 c -1.05324,-0.20286 -0.67613,-0.68962 0.39688,-0.51227 0.5457,0.0902 1.14101,0.16531 1.32291,0.16691 0.1819,0.002 0.33073,0.12198 0.33073,0.2675 0,0.26284 -0.91059,0.29742 -2.05052,0.0779 z m 8.53281,-0.32995 c -0.87312,-0.10347 -1.4424,-0.20813 -1.26507,-0.2326 0.55721,-0.0769 0.0464,-0.83917 -0.54917,-0.81963 -0.55145,0.0181 -0.55249,0.0248 -0.0378,0.24599 0.39711,0.17064 0.23204,0.22545 -0.66146,0.21961 -0.95529,-0.006 -1.05988,-0.0477 -0.52916,-0.20957 0.57818,-0.17638 0.60214,-0.22699 0.19027,-0.40194 -0.25915,-0.11008 -0.83062,-0.12826 -1.26992,-0.0404 -0.4946,0.0989 -0.73742,0.0605 -0.63768,-0.10085 0.0886,-0.14333 -0.0175,-0.2606 -0.23582,-0.2606 -0.21828,0 -0.47046,0.11906 -0.5604,0.26458 -0.25102,0.40617 -0.92604,0.31387 -0.92604,-0.12662 0,-0.32001 -0.11894,-0.33701 -0.65362,-0.0934 -0.50021,0.22791 -0.74895,0.2187 -1.05977,-0.0393 -0.26815,-0.22255 -0.7877,-0.28087 -1.52919,-0.17166 -0.86135,0.12687 -1.01297,0.0996 -0.65068,-0.11708 0.27856,-0.16659 1.28245,-0.23066 2.44683,-0.15616 1.24257,0.0795 2.03886,0.0221 2.1482,-0.1548 0.10228,-0.16549 0.0481,-0.20347 -0.13172,-0.0923 -0.43118,0.26649 -0.37935,-0.17502 0.0921,-0.78406 0.39148,-0.50578 0.39491,-0.50555 0.22564,0.0156 -0.11989,0.36911 -0.0863,0.44913 0.11093,0.26458 0.15555,-0.14552 0.41019,-0.6813 0.56587,-1.19062 0.21006,-0.68725 0.25937,-0.74049 0.19122,-0.20645 -0.0522,0.40874 0.0169,0.6524 0.15989,0.56403 0.13844,-0.0856 0.18563,-0.70704 0.10486,-1.38105 -0.13791,-1.15085 -0.13028,-1.1706 0.12523,-0.3242 0.32727,1.0841 0.13978,1.97255 -0.56498,2.67731 -0.28734,0.28734 -0.41188,0.52243 -0.27675,0.52243 0.36924,0 1.01936,-0.72377 1.22112,-1.35944 0.14032,-0.44211 0.22814,-0.48426 0.41015,-0.19687 0.12739,0.20113 0.23161,0.48475 0.23161,0.63027 0,0.14552 -0.10067,0.10577 -0.22371,-0.0883 -0.18012,-0.28415 -0.25505,-0.27126 -0.38452,0.0661 -0.16048,0.41822 0.31051,0.5639 1.4916,0.46138 0.26311,-0.0228 0.40491,0.0774 0.31511,0.22266 -0.0898,0.14531 -0.0273,0.26419 0.13897,0.26419 0.16624,0 0.24795,-0.14883 0.18159,-0.33073 -0.0664,-0.1819 0.13207,-0.62838 0.44097,-0.99219 l 0.56163,-0.66145 -0.66145,0.55595 c -1.09651,0.92161 -1.50269,1.03219 -0.72761,0.19809 0.90857,-0.97774 0.96085,-1.46228 0.0672,-0.62273 -0.36323,0.34123 -0.73728,0.54356 -0.83123,0.44961 -0.094,-0.0939 0.0708,-0.38215 0.36604,-0.64046 0.50493,-0.4417 1.24671,-2.15651 1.02763,-2.37559 -0.0552,-0.0552 -0.28885,0.37069 -0.51922,0.94644 -0.23036,0.57574 -0.55276,1.12957 -0.71643,1.23072 -0.16367,0.10115 -0.0882,-0.21614 0.16768,-0.7051 0.29202,-0.558 0.51005,-1.71141 0.58555,-3.09771 0.0801,-1.47116 0.20248,-2.08961 0.3664,-1.85208 0.16038,0.23239 0.18458,0.0456 0.0695,-0.53639 -0.1231,-0.62238 -0.0879,-0.83814 0.11624,-0.71199 0.18027,0.11141 0.29288,1.13057 0.29288,2.65063 0,1.98181 0.0806,2.50056 0.40828,2.62629 0.31605,0.12128 0.34594,0.27318 0.1323,0.67237 -0.42866,0.80094 -0.32606,0.93552 0.20922,0.27447 0.43319,-0.53496 0.5038,-0.55082 0.65843,-0.14786 0.0956,0.24911 0.0642,0.38399 -0.0701,0.30101 -0.1338,-0.0827 -0.33012,5.3e-4 -0.43627,0.1847 -0.10614,0.18427 -0.0956,0.24678 0.0235,0.1389 0.11908,-0.10788 0.3763,-0.0635 0.57159,0.0985 0.26581,0.22061 0.35507,0.20894 0.35507,-0.0464 0,-0.18759 0.0731,-0.26797 0.16246,-0.17862 0.0893,0.0893 -0.0909,0.48456 -0.40058,0.87824 -0.67606,0.85946 -0.50334,1.22532 0.19716,0.41764 0.27036,-0.31172 0.57043,-0.48789 0.66684,-0.39149 0.0964,0.0964 -0.15381,0.53637 -0.55603,0.97769 -0.6866,0.75336 -0.66349,0.74639 0.378,-0.11394 0.77157,-0.63737 1.07879,-1.07747 1.00907,-1.44553 -0.0551,-0.29104 0.16006,-0.85046 0.4782,-1.24315 0.48426,-0.59776 0.56363,-0.97859 0.48755,-2.33949 -0.0809,-1.44744 -0.14614,-1.61106 -0.59532,-1.4936 -0.77183,0.20184 -0.60773,0.009 0.54165,-0.6372 0.57534,-0.32336 1.10738,-0.7477 1.18232,-0.94297 0.19984,-0.52078 -0.0171,-0.4456 -1.33943,0.46421 -0.65491,0.45059 -1.24973,0.76026 -1.32183,0.68816 -0.0721,-0.0721 0.35298,-0.40316 0.94463,-0.73568 0.86332,-0.48522 1.07573,-0.75291 1.07573,-1.35572 0,-0.74039 -0.009,-0.74494 -0.66146,-0.31773 -0.3638,0.23837 -0.66146,0.32077 -0.66146,0.1831 0,-0.13766 0.29766,-0.4096 0.66146,-0.6043 0.3638,-0.1947 0.66146,-0.45601 0.66146,-0.58067 0,-0.12467 -0.38695,-0.0266 -0.8599,0.21788 -0.79127,0.40908 -0.83092,0.40963 -0.49677,0.007 0.19972,-0.24077 0.27057,-0.43776 0.15743,-0.43776 -0.11313,0 0.0211,-0.25545 0.29834,-0.56767 0.50247,-0.56592 0.50212,-0.56667 -0.11395,-0.24315 -0.33989,0.17849 -0.69707,0.23905 -0.79375,0.13457 -0.0967,-0.10447 -0.0262,-0.24335 0.1566,-0.30862 0.47837,-0.17078 0.12753,-0.60263 -0.48959,-0.60263 -0.43495,0 -0.47681,0.086 -0.24897,0.51177 0.15064,0.28147 0.2689,0.66843 0.2628,0.8599 -0.006,0.19146 -0.23511,-0.0686 -0.50892,-0.57792 l -0.49784,-0.92604 0.0773,1.05833 c 0.0425,0.58208 0.0254,0.72427 -0.0381,0.31598 -0.0736,-0.47361 -0.41344,-0.92363 -0.93871,-1.24306 -0.90728,-0.55175 -1.32388,-0.47956 -1.06879,0.18521 0.11076,0.28864 0.0631,0.36837 -0.14385,0.24049 -0.17025,-0.10522 -0.30954,-0.42241 -0.30954,-0.70486 0,-0.63966 -0.44774,-0.67667 -0.61137,-0.0505 -0.0911,0.34843 -0.12859,0.31569 -0.15169,-0.13229 -0.0188,-0.36509 -0.20976,-0.60777 -0.49371,-0.62751 -2.13701,-0.14857 -2.04266,-0.19851 -2.07901,1.10057 -0.0185,0.66169 -0.28674,1.67123 -0.59752,2.24895 -0.49474,0.91967 -0.53963,0.95091 -0.36584,0.25455 0.10895,-0.43656 0.17858,-1.32953 0.15472,-1.98438 -0.029,-0.79594 0.0236,-1.01538 0.15877,-0.66197 0.17311,0.45269 0.2198,0.40843 0.32495,-0.308 0.12016,-0.81866 0.0968,-0.83981 -1.08482,-0.98403 -0.66418,-0.0811 -2.05692,-0.20997 -3.09496,-0.28644 -2.51082,-0.18498 -4.93119,-0.7527 -5.07726,-1.1909 -0.0944,-0.28318 0.19416,-0.31553 1.4389,-0.16133 0.85633,0.10608 2.44993,0.27728 3.54134,0.38043 1.09141,0.10315 2.26943,0.34569 2.61783,0.53899 0.36709,0.20366 1.04793,0.29585 1.61913,0.21924 1.07744,-0.14452 3.17111,0.31456 4.44948,0.97563 1.03937,0.53748 2.61435,0.53393 4.48583,-0.0101 1.44591,-0.42034 1.49008,-0.41742 1.93136,0.12754 l 0.45161,0.5577 1.52422,-0.5244 c 2.03626,-0.70058 2.70486,-0.68372 2.81203,0.0709 0.10959,0.77167 0.51714,0.75261 1.44846,-0.0677 1.76092,-1.55112 3.52056,-2.63967 4.69103,-2.90198 0.68911,-0.15443 2.04943,-0.67249 3.02295,-1.15125 0.97351,-0.47875 2.03792,-0.85009 2.36534,-0.82519 0.32742,0.0249 0.59531,0.01 0.59531,-0.0342 0,-0.12113 -3.61118,-5.28536 -5.22767,-7.47592 -1.34811,-1.82687 -1.40286,-1.96038 -0.9459,-2.30669 0.82193,-0.6229 0.88879,-0.5755 2.257,1.59997 0.45761,0.7276 1.13845,1.65748 1.51297,2.0664 0.37451,0.40891 1.15783,1.49727 1.74071,2.41856 2.78122,4.39605 2.86533,4.48874 4.53593,4.99911 0.853,0.26059 2.44389,0.9135 3.53529,1.4509 1.56628,0.77123 2.07705,1.1716 2.4242,1.90023 0.2419,0.50772 0.80745,1.684 1.25677,2.61394 0.44932,0.92995 0.81695,2.01236 0.81695,2.40535 0,0.65581 0.45372,2.38239 0.92255,3.51061 0.15531,0.37377 0.0555,0.46303 -0.51783,0.46303 h -0.71022 l 1.17711,1.38906 c 0.64742,0.76398 1.38459,1.80578 1.63817,2.3151 0.25358,0.50933 0.76814,1.25425 1.14347,1.65539 0.52868,0.56504 0.61129,0.80049 0.36667,1.04511 -0.24462,0.24462 -0.31575,0.23692 -0.31575,-0.0341 0,-0.28562 -0.0799,-0.28357 -0.43505,0.0111 -0.38406,0.31874 -0.41477,0.29722 -0.26212,-0.18376 0.18272,-0.57569 -0.57486,-1.48934 -1.71434,-2.06753 -0.31859,-0.16166 -0.71001,-0.52703 -0.86981,-0.81192 -0.56142,-1.00089 -1.02941,-1.32032 -1.81378,-1.23804 -0.92348,0.0969 -2.3117,-1.06096 -2.31582,-1.93149 -0.002,-0.33761 -0.24366,-0.0412 -0.63457,0.7771 -0.77712,1.62674 -1.87277,2.81367 -2.40777,2.60838 -0.21706,-0.0833 -0.39466,-0.28003 -0.39466,-0.43721 0,-0.15718 -0.32742,0.0248 -0.7276,0.40433 -1.62134,1.53779 -6.50465,2.4021 -7.20147,1.27461 -0.11762,-0.19031 -0.34622,-0.2642 -0.50802,-0.16421 -0.16179,0.1 -0.29416,0.0599 -0.29416,-0.0891 0,-0.14899 0.23813,-0.39833 0.52917,-0.55409 0.38751,-0.2074 0.52916,-0.20122 0.52916,0.0231 0,0.22173 0.10957,0.21536 0.39688,-0.0231 0.54157,-0.44947 0.50143,-0.0347 -0.062,0.64062 -0.25239,0.3025 -0.10356,0.23168 0.33073,-0.15738 0.97899,-0.87704 4.01749,-1.54074 4.41779,-0.96497 0.16382,0.23564 0.18821,0.15495 0.0749,-0.24777 -0.0959,-0.34091 0.0102,-0.9545 0.24725,-1.42972 0.22842,-0.45787 0.41531,-1.22866 0.41531,-1.71285 0,-0.71447 -0.1226,-0.91112 -0.65061,-1.04364 -0.35783,-0.0898 -0.77408,-0.31207 -0.92499,-0.49391 -0.21737,-0.26192 -0.56322,-0.23083 -1.6645,0.14962 -0.76456,0.26412 -1.70805,0.48411 -2.09664,0.48886 -0.3886,0.005 -1.57922,0.45205 -2.64584,0.99401 -1.76618,0.8974 -2.16957,0.99463 -4.51898,1.0891 -1.92032,0.0772 -2.57969,0.19383 -2.57969,0.45621 0,0.19386 -0.29683,0.67275 -0.65962,1.06421 -0.60794,0.65597 -0.77157,0.69857 -2.08873,0.54376 -1.16217,-0.13658 -1.45905,-0.09 -1.58934,0.24958 -0.2486,0.64783 -0.20283,0.67747 0.43508,0.28184 0.44535,-0.27621 0.82756,-0.30512 1.51724,-0.11476 l 0.92193,0.25447 -0.63878,0.34186 c -0.61262,0.32787 -0.58537,0.34892 0.66558,0.51425 0.71739,0.0948 2.07825,0.16785 3.02414,0.1623 1.55037,-0.009 2.42082,0.0394 4.49791,0.25077 1.00614,0.10238 -1.14687,0.50252 -2.77812,0.51632 -0.98874,0.008 -1.22266,-0.058 -0.92604,-0.26266 0.28523,-0.19681 -0.0497,-0.23684 -1.19063,-0.14228 -0.87312,0.0724 -2.12328,0.15063 -2.77812,0.17394 l -1.19063,0.0424 1.1483,0.25653 c 0.63156,0.14109 1.09056,0.31426 1.02,0.38482 -0.22754,0.22754 -3.35367,-0.22788 -3.20587,-0.46703 0.0785,-0.12705 -0.0499,-0.23099 -0.28534,-0.23099 -0.23546,0 -0.36237,0.10636 -0.28203,0.23636 0.0803,0.13 -0.14243,0.30877 -0.49505,0.39727 -0.35262,0.0885 -0.83131,0.35109 -1.06376,0.58354 -0.50857,0.50857 -1.8389,0.63653 -3.98,0.38282 z m 3.60751,-0.51731 0.62343,-0.50482 -0.97448,0.0276 c -0.53597,0.0152 -0.91536,0.1233 -0.84309,0.24024 0.0723,0.11693 -0.26258,0.22448 -0.74411,0.23898 -0.82314,0.0248 -0.83594,0.0391 -0.21405,0.23821 1.06813,0.34208 1.49155,0.29482 2.1523,-0.24023 z m -3.29883,-0.15664 c 0,-0.21828 -0.0865,-0.39688 -0.19217,-0.39688 -0.1057,0 -0.26072,0.1786 -0.34448,0.39688 -0.0873,0.22754 -0.005,0.39687 0.19218,0.39687 0.18946,0 0.34447,-0.17859 0.34447,-0.39687 z m 3.79236,-1.19063 c 0,-0.14552 -0.12608,-0.26458 -0.28019,-0.26458 -0.15411,0 -0.20662,0.11906 -0.11668,0.26458 0.0899,0.14552 0.21603,0.26459 0.2802,0.26459 0.0642,0 0.11667,-0.11907 0.11667,-0.26459 z m 2.35921,-0.69946 c 0.0606,-0.0519 -0.25977,-0.0943 -0.71199,-0.0943 -0.45223,0 -0.89471,0.11727 -0.98329,0.2606 -0.14601,0.23625 1.40218,0.0844 1.69528,-0.16631 z m 0.4298,-0.34127 c -0.0959,-0.1552 -0.29113,-0.28218 -0.4338,-0.28218 -0.14267,0 -0.10588,0.16658 0.0818,0.37019 0.37985,0.41217 0.62352,0.35126 0.35204,-0.088 z m -7.02234,-0.82066 c 0,-0.37588 -0.12665,-0.31825 -0.6866,0.31239 -0.50132,0.56463 -0.50083,0.56599 0.0913,0.25528 0.32742,-0.17182 0.59531,-0.42727 0.59531,-0.56767 z m 26.19375,-0.58465 c 0,-0.14759 -0.17549,-0.11894 -0.39687,0.0648 -0.21829,0.18116 -0.39688,0.44844 -0.39688,0.59396 0,0.1476 0.17549,0.11895 0.39688,-0.0648 0.21828,-0.18116 0.39687,-0.44844 0.39687,-0.59396 z m -22.41323,-1.59906 c 0.32181,-0.32181 0.6744,-0.55534 0.78354,-0.51896 0.10914,0.0364 0.19844,-0.47746 0.19844,-1.14187 0,-0.66441 0.10394,-1.40855 0.23097,-1.65365 0.12703,-0.24509 0.14193,-0.98141 0.0331,-1.63625 -0.20653,-1.24287 -0.21741,-1.20335 -0.43714,1.58739 -0.17378,2.20728 -0.34434,2.36746 -0.39923,0.37494 l -0.0431,-1.56545 -0.17833,1.4552 -0.17833,1.45521 -0.0431,-1.27238 c -0.0237,-0.69982 -0.1359,-1.21505 -0.24929,-1.14497 -0.11339,0.0701 -0.13943,0.92271 -0.0579,1.89473 0.12904,1.53773 0.0736,1.86862 -0.42708,2.54719 -0.36835,0.49928 -0.52039,0.98935 -0.42255,1.36203 0.13582,0.51739 0.17797,0.48535 0.37887,-0.28795 0.12433,-0.47856 0.48935,-1.13341 0.81115,-1.45521 z m 2.83406,1.38037 c 0,-0.40355 0.58792,-0.93844 1.26912,-1.15465 0.32063,-0.10176 0.58297,-0.36262 0.58297,-0.57968 0,-0.21707 0.11906,-0.32108 0.26458,-0.23114 0.14552,0.0899 0.26458,-0.0136 0.26458,-0.23007 0,-0.21648 0.15979,-0.55338 0.35509,-0.74868 0.80918,-0.80918 0.95362,-1.50895 0.84642,-4.10081 -0.11787,-2.84976 -0.4851,-4.04857 -1.24018,-4.04857 -0.26559,0 -1.03204,0.14687 -1.70321,0.32638 l -1.22031,0.32639 0.16571,1.2492 c 0.0911,0.68706 0.33707,1.73487 0.54651,2.32847 0.30413,0.862 0.32777,1.51686 0.11741,3.25306 -0.14485,1.19559 -0.37912,2.51898 -0.52061,2.94088 -0.31731,0.94621 -0.31726,0.9527 0.007,0.9527 0.14552,0 0.26458,-0.12756 0.26458,-0.28348 z m 1.75641,-5.66964 c 0.0838,-0.21828 0.19909,-0.39688 0.25628,-0.39688 0.0572,0 0.10398,0.1786 0.10398,0.39688 0,0.21828 -0.11533,0.39687 -0.25628,0.39687 -0.14095,0 -0.18775,-0.17859 -0.10398,-0.39687 z m 1.46037,-0.13229 c 0,-0.36381 0.06,-0.51263 0.13345,-0.33073 0.0734,0.1819 0.0734,0.47956 0,0.66146 -0.0734,0.1819 -0.13345,0.0331 -0.13345,-0.33073 z m -0.52917,-0.26459 c 0,-0.3638 0.0601,-0.51263 0.13346,-0.33073 0.0734,0.18191 0.0734,0.47956 0,0.66146 -0.0734,0.1819 -0.13346,0.0331 -0.13346,-0.33073 z m -2.24663,-2.02847 c -0.32048,-0.32048 -0.18328,-1.60518 0.20592,-1.92819 0.21027,-0.17451 0.6446,-0.27839 0.96517,-0.23083 1.45488,0.2158 1.23762,2.33541 -0.23938,2.33541 -0.41543,0 -0.8347,-0.0794 -0.93171,-0.17639 z m 1.51381,-0.3049 c 0.0737,-0.11919 -0.21697,-0.16521 -0.64584,-0.10226 -0.42888,0.0629 -0.77978,0.16046 -0.77978,0.21671 0,0.2016 1.29452,0.0977 1.42562,-0.11445 z m -0.48068,-0.84163 c 0,-0.29104 -0.0649,-0.52916 -0.14424,-0.52916 -0.0793,0 -0.29296,0.23812 -0.47471,0.52916 -0.28436,0.45534 -0.26424,0.52917 0.14424,0.52917 0.29832,0 0.47471,-0.19662 0.47471,-0.52917 z m -0.57637,9.10649 c 0.24843,-0.6474 0.19448,-0.7115 -0.23628,-0.28074 -0.4498,0.4498 -0.50709,0.69925 -0.1606,0.69925 0.12996,0 0.30855,-0.18833 0.39688,-0.41851 z m 21.20299,-0.58771 c -0.17779,-0.17778 -0.93406,0.48213 -0.93406,0.81504 0,0.15026 0.23886,0.057 0.53079,-0.20716 0.29193,-0.2642 0.4734,-0.53774 0.40327,-0.60788 z m -24.91546,0.34477 c 0.0838,-0.21829 0.037,-0.39688 -0.10399,-0.39688 -0.14095,0 -0.25628,0.17859 -0.25628,0.39688 0,0.21828 0.0468,0.39687 0.10399,0.39687 0.0572,0 0.17252,-0.17859 0.25628,-0.39687 z m 23.51208,-1.20952 c 0.49631,-1.27019 0.41849,-2.63092 -0.20594,-3.60101 -0.20434,-0.31746 -1.15817,-1.04831 -2.11962,-1.62411 -1.02984,-0.61677 -1.62536,-1.12277 -1.44939,-1.23152 0.16429,-0.10154 0.45327,-0.0563 0.64218,0.10046 0.18892,0.15678 0.41391,0.21464 0.49998,0.12857 0.0861,-0.0861 0.31324,-0.0586 0.50482,0.061 0.19158,0.11962 0.46739,0.24463 0.61292,0.2778 1.86642,0.42542 3.16545,1.50344 2.41128,2.00104 -0.17703,0.11681 -0.0834,0.19762 0.23455,0.20249 0.43893,0.007 0.46149,0.0518 0.13229,0.26459 -0.29759,0.19232 -0.30862,0.25749 -0.0441,0.26053 0.19403,0.002 0.29941,0.15288 0.23419,0.33478 -0.0652,0.1819 -0.0114,0.53909 0.11955,0.79375 0.17844,0.34693 0.13239,0.46302 -0.18365,0.46302 -0.25146,0 -0.34556,-0.12336 -0.23302,-0.30546 0.12479,-0.2019 0.0716,-0.23306 -0.15675,-0.0919 -0.27349,0.16902 -0.25346,0.2809 0.096,0.53643 0.48612,0.35546 0.30967,1.29126 -0.19067,1.01123 -0.19715,-0.11034 -0.19067,-0.0483 0.0185,0.17752 0.25454,0.2748 0.22699,0.41794 -0.13229,0.68712 -0.40189,0.3011 -0.37814,0.32251 0.20764,0.18709 0.3638,-0.0841 0.81029,-0.33906 0.99219,-0.56657 0.43907,-0.54919 0.43206,-4.72554 -0.009,-5.6042 -0.22485,-0.44751 -1.20651,-1.08935 -3.03501,-1.98437 -1.48647,-0.72761 -2.70438,-1.47175 -2.70647,-1.65365 -0.005,-0.44603 0.80304,-0.40406 1.43584,0.0746 0.28247,0.21365 0.78849,0.38846 1.12448,0.38846 0.33922,0 0.61089,0.16031 0.61089,0.36049 0,0.22733 0.24391,0.33372 0.66032,0.28801 0.36317,-0.0399 0.72739,0.036 0.80936,0.16867 0.082,0.13264 0.43968,0.24116 0.79489,0.24116 0.40856,0 0.64584,0.15155 0.64584,0.41249 0,0.24295 -0.13593,0.34364 -0.33073,0.24497 -0.1819,-0.0921 -0.0926,0.0283 0.19844,0.26764 0.29104,0.23934 0.4994,0.54583 0.46302,0.68108 -0.0364,0.13525 0.0461,0.24591 0.18325,0.24591 0.13716,0 0.20353,0.23812 0.14748,0.52916 -0.0561,0.29105 0.0249,0.52917 0.17988,0.52917 0.18608,0 0.17656,0.1268 -0.028,0.37332 -0.21545,0.2596 -0.224,0.42636 -0.0281,0.54745 0.15496,0.0958 0.20074,0.3052 0.10174,0.46539 -0.11693,0.1892 -0.0209,0.23021 0.27401,0.11704 0.3202,-0.12287 0.39367,-0.0776 0.24928,0.15348 -0.30221,0.4837 -0.33554,0.96804 -0.0776,1.12746 0.12496,0.0772 0.18204,-0.094 0.12686,-0.38056 -0.14781,-0.7675 0.57139,-0.40007 0.77061,0.39369 0.0887,0.35327 0.29075,0.64231 0.44906,0.64231 0.15832,0 0.22516,-0.16337 0.14854,-0.36304 -0.0766,-0.19968 -0.22052,-0.88429 -0.31977,-1.52136 -0.0993,-0.63707 -0.61485,-2.04456 -1.14577,-3.12776 l -0.9653,-1.96945 -3.01328,-1.5321 c -2.15388,-1.09515 -3.19145,-1.48739 -3.63802,-1.37531 -0.37515,0.0942 -0.62474,0.0396 -0.62474,-0.13646 0,-0.1613 0.17859,-0.29327 0.39687,-0.29327 0.21828,0 0.39688,-0.11906 0.39688,-0.26458 0,-0.14552 -0.1786,-0.26458 -0.39688,-0.26458 -0.21828,0 -0.39687,-0.11907 -0.39687,-0.26459 0,-0.40246 0.29848,-0.32247 1.45521,0.38998 0.58208,0.35851 1.27042,0.65556 1.52965,0.6601 0.25923,0.005 0.54369,0.19683 0.63214,0.42732 0.10641,0.27731 0.22202,0.32001 0.34177,0.12624 0.12851,-0.20792 0.46057,-0.176 1.14531,0.11011 0.53039,0.2216 1.21902,0.40292 1.53031,0.40292 0.4028,0 0.52055,0.11838 0.4084,0.41062 -0.0987,0.25733 -0.0494,0.34373 0.13233,0.23145 0.1956,-0.12089 0.23201,0.0253 0.11193,0.44928 -0.1183,0.41775 -0.0964,0.51101 0.0655,0.27816 0.19761,-0.28431 0.32591,-0.26783 0.68122,0.0875 0.24077,0.24077 0.3701,0.54722 0.28742,0.68101 -0.0827,0.13379 -0.0172,0.24325 0.14547,0.24325 0.1627,0 0.2291,0.10796 0.14755,0.23991 -0.0816,0.13195 0.11978,0.18329 0.4474,0.11409 0.55992,-0.11827 0.56525,-0.10659 0.0889,0.19463 -0.47611,0.30102 -0.47916,0.34068 -0.0503,0.65426 0.27433,0.2006 0.34922,0.40012 0.18765,0.49998 -0.14787,0.0914 -0.20205,0.34026 -0.1204,0.55304 0.0816,0.21279 0.23831,0.33135 0.34813,0.26348 0.10981,-0.0679 0.16735,0.17094 0.12786,0.53069 -0.0587,0.53478 0.0446,0.65409 0.56636,0.65409 0.46218,0 0.63816,-0.14621 0.63816,-0.53018 0,-0.64618 -2.21297,-5.35079 -2.71157,-5.76459 -0.19664,-0.1632 -1.44871,-0.71314 -2.78237,-1.22208 -1.33366,-0.50894 -2.69693,-1.09976 -3.02951,-1.31292 -1.10698,-0.70954 -4.35139,-1.45676 -4.02381,-0.92674 0.0935,0.1513 -0.0471,0.23059 -0.32462,0.18306 -0.29136,-0.0499 -0.4611,0.0551 -0.41924,0.25944 0.0387,0.18881 -0.0804,0.31345 -0.26459,0.27698 -0.1842,-0.0365 -0.6921,0.12034 -1.12866,0.34847 -0.43656,0.22813 -1.44859,0.62526 -2.24896,0.88251 -1.7647,0.56721 -2.12821,0.83077 -1.94369,1.40925 0.10947,0.34317 0.0835,0.36243 -0.11473,0.085 -0.21224,-0.29703 -0.37561,-0.28044 -0.95101,0.0966 -0.3821,0.25037 -0.69474,0.53152 -0.69474,0.62478 0,0.0933 -0.35718,0.32767 -0.79375,0.52091 -0.56599,0.25054 -0.79375,0.53479 -0.79375,0.99063 0,0.39186 -0.1536,0.63928 -0.39687,0.63928 -0.39763,0 -0.54414,0.55829 -0.22917,0.87327 0.28553,0.28552 0.0573,5.13098 -0.29073,6.17127 -0.0555,0.16593 0.18386,0.29765 0.54089,0.29765 0.35226,0 0.64047,-0.11806 0.64047,-0.26237 0,-0.1443 0.238,-0.20013 0.5289,-0.12406 0.2909,0.0761 0.58903,0.041 0.66251,-0.0779 0.0735,-0.1189 0.34149,-0.1821 0.59558,-0.14044 0.25408,0.0417 0.66282,-0.0997 0.90832,-0.31407 0.24549,-0.21439 0.57291,-0.31159 0.7276,-0.21598 0.15469,0.0956 0.28125,0.0477 0.28125,-0.10637 0,-0.15411 -0.14882,-0.28203 -0.33073,-0.28425 -0.21955,-0.003 -0.19734,-0.0884 0.0661,-0.2549 0.2867,-0.18123 0.44673,-0.12505 0.57671,0.20249 0.11566,0.29145 0.18655,0.32366 0.1985,0.0902 0.0151,-0.29511 0.0941,-0.30048 0.42153,-0.0287 0.33691,0.27961 0.37563,0.26324 0.23628,-0.0999 -0.0917,-0.23887 -0.2912,-0.4343 -0.44342,-0.4343 -0.15222,0 -0.0204,-0.22232 0.29289,-0.49406 0.31331,-0.27173 0.56965,-0.65989 0.56965,-0.86259 0,-0.51243 1.30331,-1.86869 1.67745,-1.7456 0.16881,0.0556 0.34751,0.37887 0.3971,0.7185 0.0496,0.33964 0.26876,0.79611 0.48703,1.01438 0.33933,0.33933 0.43115,0.3427 0.63338,0.0232 0.17669,-0.27912 0.23755,-0.21025 0.24058,0.27224 0.004,0.60684 0.0256,0.61639 0.36078,0.15802 0.19621,-0.26833 0.48564,-0.40821 0.64318,-0.31084 0.15754,0.0974 0.36563,0.0489 0.46241,-0.1077 0.11336,-0.18341 0.30518,-0.11433 0.53904,0.19412 0.32756,0.43203 0.36388,0.43531 0.37147,0.0335 0.006,-0.32369 0.22957,-0.43904 0.81805,-0.42231 0.5374,0.0153 0.69309,0.0969 0.46302,0.24284 -0.19064,0.1209 -0.22755,0.23537 -0.082,0.25439 0.63223,0.0826 0.83405,0.14779 1.53158,0.49464 0.4423,0.21994 0.68196,0.51248 0.59834,0.73038 -0.0767,0.19992 -0.0218,0.29075 0.12207,0.20184 0.14385,-0.0889 0.26155,-0.0356 0.26155,0.11855 0,0.15411 -0.14882,0.28202 -0.33073,0.28425 -0.22048,0.003 -0.19843,0.0896 0.0661,0.26053 0.22445,0.14506 0.26336,0.25825 0.0896,0.26054 -0.16903,0.002 -0.27403,0.21241 -0.23333,0.46707 0.0407,0.25466 -0.0889,0.78453 -0.288,1.17748 -0.48628,0.9598 -0.47231,0.98907 0.36507,0.76512 0.54055,-0.14456 0.84448,-0.495 1.18488,-1.36618 z m -15.64937,-1.45837 c 0.0127,-0.30822 0.0754,-0.37091 0.15985,-0.15985 0.0764,0.191 0.067,0.4192 -0.0209,0.50712 -0.0879,0.0879 -0.15045,-0.0683 -0.13896,-0.34727 z m 1.89484,-0.37123 c -0.50158,-0.80316 -0.39103,-0.95071 0.20093,-0.26818 0.57868,0.66722 0.631,0.79375 0.32823,0.79375 -0.11051,0 -0.34864,-0.2365 -0.52916,-0.52557 z m 0.20093,-0.92963 c 0,-0.21829 0.11533,-0.39688 0.25628,-0.39688 0.14096,0 0.18775,0.17859 0.10399,0.39688 -0.0838,0.21828 -0.19909,0.39687 -0.25628,0.39687 -0.0572,0 -0.10399,-0.17859 -0.10399,-0.39687 z m 16.80104,-1.19063 c -0.0899,-0.14552 -0.0445,-0.26458 0.10107,-0.26458 0.14552,0 0.33816,0.11906 0.4281,0.26458 0.0899,0.14552 0.0445,0.26458 -0.10106,0.26458 -0.14552,0 -0.33817,-0.11906 -0.42811,-0.26458 z m -10.71562,-0.71935 c 0,-0.35455 1.9238,-1.91339 2.17203,-1.75998 0.17277,0.10678 0.11489,0.26213 -0.15368,0.41242 -0.23697,0.13262 -0.43085,0.3877 -0.43085,0.56684 0,0.17915 -0.35719,0.46055 -0.79375,0.62533 -0.43656,0.16479 -0.79375,0.23471 -0.79375,0.15539 z m -1.32292,-2.84897 c 0,-0.0708 0.38696,-0.30566 0.8599,-0.52188 0.47294,-0.21623 1.17026,-0.64506 1.54961,-0.95296 0.4175,-0.33888 0.93961,-0.51676 1.32291,-0.45072 0.59472,0.10248 0.60104,0.12144 0.10404,0.31195 -1.17059,0.44869 -1.6952,0.77433 -1.57106,0.9752 0.18524,0.29972 -0.78144,0.76715 -1.58654,0.76715 -0.37337,0 -0.67886,-0.0579 -0.67886,-0.12874 z m -6.86239,-0.42557 c -0.009,-0.23211 0.22135,-0.63751 0.51239,-0.9009 0.30009,-0.27158 0.52917,-0.3466 0.52917,-0.1733 0,0.16807 -0.1229,0.30559 -0.27311,0.30559 -0.15021,0 -0.38079,0.26789 -0.51239,0.59531 -0.15574,0.38746 -0.24515,0.44796 -0.25606,0.1733 z m 6.59781,-2.89358 c 0,-0.15009 0.20836,-0.33737 0.46302,-0.41619 0.25466,-0.0788 0.85815,-0.31518 1.34109,-0.52525 1.37904,-0.59986 1.51553,-0.14359 0.17091,0.57135 -1.28902,0.68538 -1.97502,0.81393 -1.97502,0.37009 z m 2.64583,-1.86855 c 0,-0.1319 0.23813,-0.23981 0.52917,-0.23981 0.29104,0 0.52917,0.0456 0.52917,0.10143 0,0.0558 -0.23813,0.1637 -0.52917,0.23981 -0.29104,0.0761 -0.52917,0.0305 -0.52917,-0.10143 z m -22.01657,13.21777 c -0.066,-0.19816 -0.18598,-0.0782 -0.27954,0.27954 -0.11509,0.4401 -0.0806,0.5434 0.11568,0.34706 0.15375,-0.15375 0.22749,-0.43572 0.16386,-0.6266 z m 33.93677,-0.85318 c -0.27867,-0.73297 -0.61634,-0.98571 -0.40252,-0.30128 0.0682,0.21828 0.18632,0.59251 0.26251,0.83162 0.0762,0.23911 0.19858,0.37469 0.27199,0.30128 0.0734,-0.0734 0.014,-0.44763 -0.13198,-0.83162 z m -27.34987,0.046 c -0.0845,-0.21107 -0.14716,-0.14838 -0.15985,0.15985 -0.0115,0.27891 0.051,0.43519 0.13896,0.34727 0.0879,-0.0879 0.0973,-0.31613 0.0209,-0.50712 z m 4.23333,-0.52917 c -0.0845,-0.21106 -0.14716,-0.14837 -0.15985,0.15985 -0.0115,0.27892 0.051,0.43519 0.13896,0.34727 0.0879,-0.0879 0.0973,-0.31612 0.0209,-0.50712 z m -4.04932,-2.31484 c 0.23018,-1.22768 0.36134,-2.28932 0.29146,-2.3592 -0.0699,-0.0699 -0.14113,0.10116 -0.15835,0.38007 -0.0191,0.30952 -0.10937,0.19783 -0.23164,-0.28663 -0.16484,-0.65311 -0.2028,-0.53592 -0.21424,0.66146 -0.008,0.80036 -0.0949,2.05052 -0.19384,2.77813 -0.27904,2.05152 0.0409,1.3103 0.50661,-1.17383 z m 0.0751,1.50455 c -0.0734,-0.1819 -0.13345,-0.0331 -0.13345,0.33073 0,0.36381 0.06,0.51263 0.13345,0.33073 0.0734,-0.1819 0.0734,-0.47955 0,-0.66146 z m 28.47643,-0.46302 c -0.0761,-0.29104 -0.24774,-0.52916 -0.38141,-0.52916 -0.13427,0 -0.11629,0.23682 0.0402,0.52916 0.15576,0.29105 0.32739,0.52917 0.38141,0.52917 0.054,0 0.0359,-0.23812 -0.0402,-0.52917 z m -0.77911,-0.1437 c -0.0862,-0.22456 -0.21342,-0.35154 -0.28277,-0.28219 -0.0694,0.0694 -0.0476,0.25309 0.0483,0.40829 0.26089,0.42213 0.41338,0.34013 0.23447,-0.1261 z m -27.0788,-0.53337 c 0,-0.20969 -0.11906,-0.38126 -0.26458,-0.38126 -0.14552,0 -0.26459,0.24515 -0.26459,0.54478 0,0.29963 0.11907,0.4712 0.26459,0.38126 0.14552,-0.0899 0.26458,-0.33509 0.26458,-0.54478 z m 18.46973,-0.25597 c -0.0815,-0.0815 -0.2294,0.0654 -0.32876,0.32632 -0.14359,0.37708 -0.1132,0.40747 0.14811,0.14811 0.18082,-0.17947 0.26212,-0.39297 0.18065,-0.47443 z m -5.90202,0.13929 c 0.0899,-0.14552 0.0374,-0.26458 -0.11668,-0.26458 -0.15411,0 -0.2802,0.11906 -0.2802,0.26458 0,0.14552 0.0525,0.26459 0.11668,0.26459 0.0642,0 0.19026,-0.11907 0.2802,-0.26459 z m -0.7717,-0.79375 c 0.20615,0 0.37482,-0.12609 0.37482,-0.28019 0,-0.15411 -0.11906,-0.20662 -0.26458,-0.11668 -0.14552,0.0899 -0.26458,0.0176 -0.26458,-0.16078 0,-0.53354 -0.36124,-0.005 -0.43104,0.63062 -0.0356,0.32367 -0.003,0.43966 0.073,0.25776 0.0757,-0.1819 0.30626,-0.33073 0.51242,-0.33073 z m -13.12298,-2.71198 c -0.002,-0.1819 -0.10983,-0.4978 -0.23912,-0.70201 -0.16819,-0.26567 -0.22349,-0.17164 -0.19438,0.33054 0.0397,0.68432 0.44156,1.0287 0.4335,0.37147 z m 0.71396,-0.77721 c -0.0845,-0.21107 -0.14715,-0.14837 -0.15985,0.15985 -0.0115,0.27892 0.051,0.43519 0.13896,0.34727 0.0879,-0.0879 0.0973,-0.31612 0.0209,-0.50712 z m 17.21059,12.81707 c 0.0881,-0.22882 0.46163,-0.27817 1.22345,-0.16161 1.48928,0.22786 1.48256,0.28977 -0.0432,0.39817 -0.96269,0.0684 -1.27359,0.006 -1.18022,-0.23656 z m 4.50603,0.27458 c 0.32911,-0.0633 0.80536,-0.0609 1.05833,0.005 0.25296,0.0662 -0.0163,0.11801 -0.5984,0.11507 -0.58208,-0.003 -0.78905,-0.0571 -0.45993,-0.12041 z M 187.131,159.03409 c 0.17947,-0.18082 0.39296,-0.26212 0.47443,-0.18065 0.0815,0.0815 -0.0654,0.2294 -0.32632,0.32876 -0.37709,0.14359 -0.40748,0.1132 -0.14811,-0.14811 z m 66.21638,0.12737 c 0,-0.13767 0.56555,-0.26282 1.25677,-0.2781 0.69122,-0.0153 2.92365,-0.0897 4.96094,-0.16545 2.34487,-0.0871 3.26725,-0.0566 2.51354,0.0832 -1.94597,0.3609 -8.73125,0.64097 -8.73125,0.36039 z m -54.76875,-0.35912 c 0,-0.14552 0.1786,-0.26459 0.39688,-0.26459 0.21828,0 0.39687,-0.11532 0.39687,-0.25628 0,-0.14095 0.17309,-0.18985 0.38465,-0.10867 0.21155,0.0812 1.37241,0.30192 2.57968,0.49053 l 2.19505,0.34292 -2.97656,0.0303 c -1.82821,0.0186 -2.97657,-0.0717 -2.97657,-0.23425 z m 15.08125,0.0572 c 0,-0.15135 -0.2643,-0.2041 -0.59531,-0.1188 -0.52758,0.13595 -0.5545,0.10363 -0.23657,-0.28407 0.19731,-0.24061 0.61403,-0.43658 0.92604,-0.43548 0.31202,0.001 1.13285,-0.0393 1.82407,-0.0898 1.041,-0.0761 1.25677,-0.0149 1.25677,0.35652 0,0.30097 -0.21584,0.44835 -0.65663,0.44835 -0.41868,0 -0.59018,-0.10787 -0.47325,-0.29765 0.10085,-0.16372 -0.13944,-0.0866 -0.534,0.17146 -0.44235,0.28928 -0.71737,0.35293 -0.71737,0.16604 0,-0.21603 -0.11399,-0.20848 -0.39687,0.0263 -0.23495,0.19499 -0.39688,0.21832 -0.39688,0.0572 z m 37.77236,0.0203 c 0.32911,-0.0633 0.80536,-0.0609 1.05833,0.005 0.25296,0.0662 -0.0163,0.11801 -0.5984,0.11507 -0.58208,-0.003 -0.78905,-0.0571 -0.45993,-0.12041 z m 30.09326,-0.0775 c 0.0899,-0.14552 0.34212,-0.26459 0.5604,-0.26459 0.21828,0 0.32329,0.11907 0.23335,0.26459 -0.0899,0.14552 -0.34211,0.26458 -0.56039,0.26458 -0.21828,0 -0.32329,-0.11906 -0.23336,-0.26458 z m -64.42603,-0.26459 c 0,-0.14552 0.12609,-0.26458 0.2802,-0.26458 0.1541,0 0.20661,0.11906 0.11667,0.26458 -0.0899,0.14552 -0.21603,0.26459 -0.2802,0.26459 -0.0642,0 -0.11667,-0.11907 -0.11667,-0.26459 z m 46.51705,0.0839 c 0.19099,-0.0764 0.4192,-0.067 0.50712,0.0209 0.0879,0.0879 -0.0684,0.15046 -0.34727,0.13897 -0.30822,-0.0127 -0.37092,-0.0754 -0.15985,-0.15985 z m 21.21627,0.007 c 1.20346,-0.40137 1.20734,-0.40504 0.66146,-0.62645 -0.40837,-0.16563 -0.31217,-0.21012 0.42145,-0.19487 0.52284,0.0109 1.08016,-0.0603 1.23849,-0.15817 0.15833,-0.0978 0.36266,-0.0569 0.45406,0.091 0.0914,0.14789 -0.0705,0.2689 -0.35969,0.2689 -0.28924,0 -0.70448,0.17859 -0.92276,0.39687 -0.21828,0.21828 -0.7328,0.38748 -1.14338,0.37599 -0.41057,-0.0115 -0.56791,-0.0805 -0.34963,-0.15326 z m 13.69487,0.0225 c -0.0834,-0.0834 -2.03803,-0.2105 -4.34358,-0.28241 -2.30555,-0.0719 -4.2752,-0.21202 -4.377,-0.31136 -0.1018,-0.0993 2.01156,-0.19266 4.69635,-0.20739 3.77961,-0.0207 4.88145,0.0489 4.88145,0.30868 0,0.18451 0.14883,0.39552 0.33073,0.46892 0.1819,0.0734 0.0231,0.14285 -0.35278,0.15434 -0.37593,0.0115 -0.75176,-0.0474 -0.83517,-0.13078 z m -29.10684,-0.29965 c 0.32742,-0.0631 0.8632,-0.0631 1.19062,0 0.32742,0.0631 0.0595,0.11466 -0.59531,0.11466 -0.65484,0 -0.92274,-0.0516 -0.59531,-0.11466 z m 2.18281,-0.0829 c 0,-0.16006 0.29566,-0.19869 0.7276,-0.0951 1.03875,0.2492 1.07367,0.36469 0.11025,0.36469 -0.46082,0 -0.83785,-0.12133 -0.83785,-0.26962 z m 8.33437,0.005 c -0.44092,-0.18947 -0.38317,-0.23049 0.34635,-0.24599 0.5202,-0.011 0.80915,0.0888 0.71199,0.24599 -0.19063,0.30845 -0.34055,0.30845 -1.05834,0 z m -34.793,-0.34244 c 1.6e-4,-0.11559 0.59948,-1.00166 1.33181,-1.96905 1.13879,-1.5043 1.26962,-1.79353 0.90391,-1.99819 -0.38016,-0.21275 -0.36132,-0.30987 0.16981,-0.87523 0.58582,-0.62356 0.58687,-0.63592 0.0545,-0.63592 -0.2986,0 -0.68763,-0.1744 -0.86453,-0.38755 -0.25764,-0.31043 -0.21892,-0.53419 0.19457,-1.12448 0.28391,-0.40531 1.14374,-1.92756 1.91072,-3.38276 2.05239,-3.89405 5.29364,-6.89245 7.97638,-7.37876 0.86953,-0.15762 1.17512,-0.48305 3.2014,-3.40921 3.56568,-5.1492 4.96544,-7.29106 4.96544,-7.59794 0,-0.19961 0.15282,-0.20405 0.50663,-0.0147 0.4655,0.24913 0.25918,0.64189 -2.54145,4.83796 -1.67644,2.51175 -3.24388,4.79536 -3.48319,5.0747 -0.41054,0.47919 -0.40522,0.49614 0.094,0.30012 1.67475,-0.65753 2.51866,-0.68384 3.64352,-0.11358 0.61544,0.31201 1.17851,0.64058 1.25127,0.73018 0.0728,0.0896 1.18564,0.69867 2.47306,1.35352 1.28742,0.65484 2.77188,1.56065 3.29879,2.01291 l 0.95802,0.82229 0.49073,-0.62385 c 0.35378,-0.44975 0.7575,-0.62385 1.44665,-0.62385 0.60085,0 1.17129,-0.20232 1.53569,-0.54465 0.46576,-0.43756 0.91129,-0.54097 2.26601,-0.52593 8.67485,0.0963 8.60142,0.0991 9.51603,-0.36387 1.93476,-0.97944 5.13759,-1.82604 7.11918,-1.8818 1.09141,-0.0307 2.49467,-0.20565 3.11836,-0.38876 1.20581,-0.35402 1.53659,-0.26083 1.29635,0.36522 -0.13289,0.34631 -1.42946,0.62609 -3.55481,0.76707 -0.32742,0.0217 -0.59531,0.12207 -0.59531,0.223 0,0.10093 -0.25168,0.11769 -0.55929,0.0373 -0.45463,-0.11888 -0.53074,-0.0524 -0.40671,0.3555 0.42953,1.41247 0.59661,2.68581 0.41381,3.15368 -0.15956,0.40839 -0.20933,0.32004 -0.22698,-0.40296 -0.0294,-1.20211 -0.64533,-3.25296 -1.01392,-3.37583 -0.42941,-0.14313 -2.78215,1.18014 -2.45631,1.38153 0.15436,0.0954 0.27259,0.43431 0.26274,0.75314 l -0.0179,0.5797 -0.2871,-0.59531 c -0.43808,-0.90835 -1.086,-0.77209 -0.94356,0.19843 0.0641,0.43657 0.018,0.79375 -0.10226,0.79375 -0.12032,0 -0.21876,-0.21967 -0.21876,-0.48816 0,-0.61565 -0.9372,-1.5094 -1.1766,-1.12204 -0.0939,0.15199 -0.0462,0.50911 0.10603,0.79359 0.34229,0.63958 0.36007,1.16388 0.0326,0.96149 -0.13432,-0.083 -0.32496,-0.51853 -0.42364,-0.96781 -0.13037,-0.59356 -0.25889,-0.73739 -0.47015,-0.52613 -0.1599,0.1599 -0.56458,0.29073 -0.89927,0.29073 -0.38495,0 -0.60855,0.15773 -0.60855,0.42927 0,0.31209 -0.0903,0.35503 -0.33072,0.15728 -0.18191,-0.1496 -0.74745,-0.28128 -1.25678,-0.29263 -0.50932,-0.0114 -1.10463,-0.0414 -1.32291,-0.0667 -0.21828,-0.0253 -0.96242,-0.0273 -1.65365,-0.004 -1.39223,0.0462 -1.61722,0.42722 -0.7276,1.23231 0.58234,0.52701 0.6769,0.37355 0.25527,-0.41427 -0.44885,-0.83868 -0.0268,-0.58017 0.56839,0.34812 0.46193,0.72048 0.52804,0.7572 0.40779,0.22647 -0.19015,-0.83926 0.20333,-0.42922 0.8693,0.90587 0.36387,0.72946 0.52722,0.88757 0.53454,0.51739 0.006,-0.2932 -0.24242,-1.00757 -0.55159,-1.5875 -0.55287,-1.03706 -0.55322,-1.04643 -0.0211,-0.56952 0.52323,0.46898 1.31642,2.97119 1.03201,3.2556 -0.15965,0.15965 -0.97114,-0.63605 -1.39343,-1.36632 -0.26504,-0.45834 -0.29458,-0.46022 -0.45999,-0.0292 -0.0972,0.25334 -0.0765,0.39863 0.0461,0.32288 0.27406,-0.16938 0.82941,0.99466 0.82941,1.73851 0,0.32751 0.13199,0.49423 0.33073,0.41775 0.24183,-0.0931 0.31712,0.23711 0.28011,1.22846 -0.0279,0.74566 0.014,1.1301 0.0929,0.85431 0.0966,-0.33724 0.20629,-0.39992 0.33515,-0.19142 0.13303,0.21525 0.41686,0.10122 0.92869,-0.37313 0.4054,-0.37572 0.78906,-0.63116 0.85258,-0.56764 0.22332,0.22332 0.66681,3.67263 0.53635,4.17153 -0.0726,0.27764 -0.0393,0.5048 0.074,0.5048 0.1133,0 0.29811,-0.50602 0.41068,-1.12448 0.20207,-1.11013 0.20697,-1.11435 0.38425,-0.33073 0.0988,0.43656 0.0814,0.90686 -0.0386,1.0451 -0.33176,0.38227 -0.27077,0.83315 0.067,0.49537 0.15683,-0.15683 0.39772,-0.74619 0.5353,-1.30969 0.2788,-1.14188 0.53216,-3.32745 0.3258,-2.81047 -0.0726,0.1819 -0.24421,0.33073 -0.38135,0.33073 -0.13713,0 -0.0677,-0.35127 0.15434,-0.78061 0.44949,-0.86921 0.50859,-1.16754 0.1926,-0.97225 -0.11609,0.0717 -0.3665,0.0344 -0.55648,-0.083 -0.26732,-0.16522 -0.27731,-0.34073 -0.0442,-0.7763 0.16566,-0.30954 0.20379,-0.56281 0.0847,-0.56281 -0.43614,0 -0.14211,-1.39189 0.35172,-1.66503 0.42899,-0.23727 0.45872,-0.2209 0.19201,0.1057 -0.50011,0.6124 -0.032,1.11654 0.59578,0.64168 0.28246,-0.21364 0.63263,-0.38958 0.77815,-0.39097 0.14552,-0.001 -0.0331,0.2303 -0.39688,0.51487 -0.38208,0.29887 -0.50808,0.51989 -0.29833,0.52328 0.29517,0.005 0.30055,0.0813 0.0287,0.40882 -0.28185,0.33961 -0.26131,0.37488 0.13068,0.22446 0.39789,-0.15268 0.42375,-0.10126 0.17902,0.35603 -0.37263,0.69627 -0.0681,0.99416 0.41047,0.40153 0.33619,-0.41631 0.35428,-0.3975 0.19486,0.20255 -0.0967,0.3638 -0.28141,0.77456 -0.41057,0.91281 -0.12917,0.13824 -0.2273,0.55496 -0.21808,0.92604 0.016,0.64413 0.0272,0.64896 0.24604,0.10645 0.25254,-0.62589 0.79552,-1.07202 0.79552,-0.65362 0,0.14552 -0.10147,0.3273 -0.22549,0.40395 -0.12402,0.0767 -0.29636,0.94688 -0.38298,1.93384 -0.0866,0.98697 -0.22444,2.2112 -0.30627,2.72053 -0.14833,0.92321 -0.14765,0.9228 0.22169,-0.13229 0.20376,-0.58209 0.49969,-1.47506 0.65762,-1.98438 0.27891,-0.89944 0.2841,-0.88804 0.1809,0.39688 -0.0584,0.7276 -0.18948,1.62057 -0.29121,1.98437 -0.18012,0.64411 -0.17391,0.64758 0.23655,0.13229 0.23185,-0.29104 0.42532,-0.79706 0.42995,-1.12448 0.005,-0.32742 0.0998,-0.59531 0.21143,-0.59531 0.11167,0 0.18346,0.41617 0.15953,0.92483 -0.0239,0.50865 0.0633,0.85881 0.19385,0.77813 0.13054,-0.0807 0.23735,-0.39443 0.23735,-0.69722 0,-0.30279 0.19284,-0.69153 0.42853,-0.86388 0.27093,-0.19811 0.45714,-0.79264 0.50633,-1.61666 0.0428,-0.71683 0.0881,-1.45215 0.10064,-1.63405 0.0126,-0.1819 0.12004,-0.33073 0.23886,-0.33073 0.35602,0 -0.12528,3.12938 -0.59051,3.83941 -0.2373,0.36218 -0.33942,0.65668 -0.22693,0.65445 0.50638,-0.01 0.83095,-0.47993 1.09372,-1.58345 0.2816,-1.18256 0.28254,-1.17988 0.13887,0.39688 -0.0796,0.87312 -0.31365,1.8512 -0.52021,2.1735 -0.52873,0.82503 -0.4665,1.03353 0.14366,0.48135 0.60954,-0.55163 1.03869,-1.73304 1.16326,-3.20233 0.10528,-1.24171 0.93492,-3.02488 0.95277,-2.04782 0.006,0.31883 -0.0884,0.6409 -0.20949,0.71571 -0.12105,0.0748 -0.37254,1.00458 -0.55887,2.06614 -0.18633,1.06156 -0.52246,2.13847 -0.74696,2.39314 -0.37489,0.42525 -0.35799,0.46302 0.2073,0.46302 0.33852,0 0.83322,-0.19705 1.09934,-0.43789 0.38549,-0.34886 0.48557,-0.36231 0.49227,-0.0661 0.006,0.25813 0.12713,0.21478 0.39688,-0.14186 0.21365,-0.28247 0.38846,-0.38635 0.38846,-0.23083 0,0.31742 -0.54481,0.83148 -0.88195,0.83217 -0.66346,0.001 -0.36208,0.29995 0.45804,0.45381 1.09294,0.20504 2.60088,-0.0255 3.62237,-0.55369 0.38676,-0.2 0.77782,-0.28901 0.86903,-0.1978 0.33061,0.33061 0.15575,1.13598 -0.24665,1.13598 -0.22687,0 -0.33913,-0.11871 -0.24946,-0.26379 0.1047,-0.1694 -0.096,-0.16529 -0.56099,0.0115 -0.85605,0.32547 -3.0936,0.37684 -5.12706,0.11772 -0.80036,-0.10199 -1.87193,-0.17168 -2.38125,-0.15486 -4.58772,0.15146 -6.38857,0.27825 -7.40833,0.52157 -0.65485,0.15625 -2.29195,0.28701 -3.63802,0.29056 -2.31448,0.006 -2.4474,-0.0238 -2.4474,-0.551 0,-0.4336 -0.10289,-0.51136 -0.46302,-0.34995 -0.25466,0.11414 -1.04358,0.25845 -1.75315,0.32068 -1.53521,0.13464 -1.74281,-0.0863 -1.74853,-1.86065 -0.004,-1.09026 -0.0761,-1.25678 -0.54773,-1.25678 -0.29903,0 -1.1027,0.26057 -1.78594,0.57903 -1.3397,0.62446 -5.57656,0.98106 -5.64095,0.47478 -0.0666,-0.52388 -0.11147,-0.66347 -0.31732,-0.98766 -0.31561,-0.49705 0.11064,-0.39791 0.48389,0.11255 0.21161,0.28938 0.74989,0.45923 1.55053,0.48925 1.27747,0.0479 1.5539,-0.18631 0.76337,-0.64675 -0.25466,-0.14833 -0.32877,-0.27331 -0.16469,-0.27773 0.16408,-0.004 0.44655,0.17054 0.62771,0.38883 0.18116,0.21828 0.44844,0.39687 0.59396,0.39687 0.14582,0 0.11448,-0.18086 -0.0698,-0.40293 -0.28269,-0.34062 -0.26053,-0.37458 0.1433,-0.21962 0.34715,0.13321 0.42063,0.091 0.26887,-0.15458 -0.20315,-0.32871 0.16061,-0.27833 1.4222,0.19694 0.23781,0.0896 0.30443,0.0282 0.18282,-0.1686 -0.10522,-0.17024 -0.0652,-0.30954 0.0889,-0.30954 0.15411,0 0.2802,0.11906 0.2802,0.26458 0,0.14552 0.12609,0.26459 0.28019,0.26459 0.15411,0 0.22366,-0.0915 0.15455,-0.20331 -0.0691,-0.11182 0.34489,-0.15843 0.92,-0.10359 0.5751,0.0548 1.02724,-0.002 1.00474,-0.12742 -0.12405,-0.68891 0.0385,-0.89825 0.5041,-0.64908 0.40004,0.21409 0.47904,0.15925 0.46302,-0.32142 -0.0193,-0.5791 0.0375,-0.58981 1.27883,-0.24104 0.34173,0.096 0.4425,0.0416 0.31245,-0.16886 -0.10557,-0.17082 -0.29456,-0.24716 -0.41997,-0.16966 -0.12541,0.0775 -0.3028,0.0199 -0.39421,-0.12797 -0.0914,-0.1479 -0.0331,-0.2689 0.12963,-0.2689 0.1627,0 0.22223,-0.11907 0.13229,-0.26459 -0.0899,-0.14552 -0.0304,-0.26458 0.13229,-0.26458 0.1627,0 0.22223,-0.11906 0.13229,-0.26458 -0.0899,-0.14552 -0.008,-0.26641 0.18283,-0.26864 0.25559,-0.003 0.24436,-0.0685 -0.0429,-0.25019 -0.21407,-0.13539 -0.3138,-0.32157 -0.22163,-0.41374 0.20097,-0.20096 -0.51481,-2.42545 -1.01718,-3.1612 -0.47204,-0.69132 -0.44086,-0.1879 0.0405,0.65418 0.20797,0.36381 0.37712,0.89959 0.37589,1.19063 -0.003,0.70185 -0.7932,-1.37122 -0.88312,-2.31677 -0.0696,-0.73242 -0.41881,-1.36137 -0.41881,-0.75442 0,0.17836 -0.11084,0.25579 -0.2463,0.17207 -0.40711,-0.2516 -0.59209,0.33695 -0.28579,0.90928 0.43395,0.81085 0.0809,0.64184 -0.83259,-0.39855 -0.57994,-0.66052 -0.96363,-0.88739 -1.31317,-0.77645 -0.38747,0.12298 -0.46038,0.0533 -0.33857,-0.32359 0.1091,-0.3375 -0.008,-0.28364 -0.39265,0.18114 -0.30135,0.3638 -0.55056,0.51965 -0.5538,0.34634 -0.003,-0.17331 0.11318,-0.3887 0.2587,-0.47863 0.14552,-0.0899 0.26459,-0.34212 0.26459,-0.5604 0,-0.21828 -0.11907,-0.32329 -0.26459,-0.23335 -0.14552,0.0899 -0.26458,0.0247 -0.26458,-0.14499 0,-0.17011 -0.1842,-0.23782 -0.41062,-0.15094 -0.22584,0.0867 -0.34621,0.0534 -0.26749,-0.074 0.18796,-0.30414 -0.15211,-0.55838 -2.34807,-1.75546 -1.00956,-0.55034 -2.24656,-1.27953 -2.7489,-1.62043 -1.00351,-0.681 -1.77803,-0.76034 -3.29908,-0.33795 -0.77957,0.21648 -1.27504,0.64548 -2.21376,1.91675 -0.66516,0.90082 -1.27608,1.81644 -1.35758,2.03472 -0.0815,0.21828 -0.27594,0.48435 -0.43208,0.59126 -0.18913,0.12951 -0.17073,0.19574 0.0551,0.19844 0.18647,0.002 0.40129,-0.15817 0.47737,-0.35644 0.0857,-0.22342 0.43472,-0.32599 0.91774,-0.26976 0.44064,0.0513 0.7794,-0.0343 0.7794,-0.19697 0,-0.15825 0.18478,-0.21682 0.41062,-0.13016 0.23546,0.0904 0.34166,0.046 0.24897,-0.10398 -0.0889,-0.14385 -0.0356,-0.27644 0.11855,-0.29463 0.53775,-0.0635 0.67944,-0.10882 1.0254,-0.3282 0.60407,-0.38304 0.60724,-0.0122 0.006,0.75159 -0.53734,0.68312 -0.54131,0.71568 -0.0556,0.45573 0.32497,-0.17393 0.668,-0.18827 0.9057,-0.0379 0.33038,0.20901 0.32843,0.24491 -0.0143,0.26289 -0.22202,0.0117 -0.12592,0.12945 0.21815,0.2674 0.39448,0.15816 0.7977,0.1488 1.12448,-0.0261 0.2802,-0.14996 0.51128,-0.17917 0.51351,-0.0649 0.002,0.11426 0.1064,0.0462 0.23151,-0.15123 0.15856,-0.25025 0.28228,-0.27028 0.40844,-0.0662 0.0996,0.16106 0.0479,0.29283 -0.11482,0.29283 -0.1627,0 -0.21086,0.13746 -0.10703,0.30547 0.10383,0.168 0.0754,0.23539 -0.0632,0.14975 -0.13858,-0.0856 -0.402,-0.063 -0.58539,0.0504 -0.49897,0.30838 -0.10164,1.50633 0.77357,2.33239 0.56394,0.53227 0.6803,0.7947 0.46656,1.05225 -0.15662,0.18871 -0.19401,0.34312 -0.0831,0.34312 0.11092,0 0.35983,-0.20836 0.55315,-0.46302 0.28368,-0.37371 0.35223,-0.38647 0.35533,-0.0661 0.008,0.78092 -1.18898,1.5875 -2.35503,1.5875 -0.60654,0 -1.04754,0.0893 -0.97999,0.19844 0.17239,0.27855 -4.02837,0.10285 -4.95971,-0.20745 -0.4219,-0.14056 -1.3744,-0.25195 -2.11666,-0.24753 -1.08864,0.006 -1.25534,0.0628 -0.86215,0.2914 0.38438,0.22344 0.45177,0.47346 0.31874,1.18258 -0.14717,0.78446 -0.0996,0.89923 0.37246,0.89923 0.29764,0 0.54116,-0.12609 0.54116,-0.2802 0,-0.15411 0.11906,-0.20662 0.26458,-0.11668 0.14552,0.0899 0.26458,0.0304 0.26458,-0.13229 0,-0.1627 0.11907,-0.22223 0.26459,-0.13229 0.14552,0.0899 0.26458,0.0304 0.26458,-0.13229 0,-0.1627 0.10889,-0.22852 0.24199,-0.14626 0.13309,0.0822 0.30362,-2e-5 0.37897,-0.18282 0.0753,-0.18281 0.0745,0.0351 -0.002,0.4842 -0.16282,0.9579 0.60302,2.01626 1.00276,1.38578 0.16598,-0.26179 0.2231,-0.22616 0.22613,0.14105 0.003,0.32727 0.13657,0.44048 0.40093,0.33903 0.21828,-0.0838 0.39687,-0.0507 0.39687,0.0734 0,0.12415 0.47625,0.21693 1.05834,0.20618 0.58208,-0.0107 1.05833,-0.13065 1.05833,-0.26643 0,-0.13578 0.17859,-0.0986 0.39687,0.0825 0.31997,0.26555 0.39767,0.25901 0.40093,-0.0337 0.003,-0.30666 0.04,-0.30643 0.235,0.002 0.13454,0.21241 0.37082,0.27818 0.566,0.15756 0.21053,-0.13012 0.26908,-0.10035 0.15756,0.0801 -0.0976,0.15795 -0.0565,0.36197 0.0914,0.45337 0.14789,0.0914 0.2689,0.0401 0.2689,-0.11401 0,-0.43041 0.36892,-0.33287 0.6915,0.18282 0.26598,0.42522 0.14697,0.45858 -1.45771,0.40859 -0.96103,-0.0299 -2.08068,-0.11744 -2.48809,-0.19445 -0.45099,-0.0853 -0.67776,-0.0381 -0.5797,0.12058 0.0886,0.14333 -0.0543,0.26421 -0.31757,0.26864 -0.44628,0.008 -0.44445,0.0279 0.027,0.3016 0.37262,0.21631 0.63369,0.2136 0.99219,-0.0103 0.55395,-0.34594 0.65162,-0.0499 0.15579,0.47226 -0.34348,0.36171 -0.13139,0.34983 2.05052,-0.11483 0.49906,-0.10628 0.66925,-0.0808 0.45841,0.0686 -0.20814,0.14748 0.36718,0.21218 1.51659,0.17056 1.12347,-0.0407 1.92212,0.0465 2.03036,0.22165 0.11666,0.18876 -0.0184,0.23723 -0.39011,0.14003 -0.3127,-0.0818 -1.13214,0.0209 -1.82099,0.22825 -0.68885,0.20731 -1.4103,0.31636 -1.60324,0.24232 -0.19294,-0.074 -0.27805,-0.0169 -0.18914,0.12694 0.0889,0.14378 -0.031,0.26148 -0.26642,0.26148 -0.23546,0 -0.36138,-0.10796 -0.27983,-0.23991 0.0815,-0.13195 -0.0887,-0.17795 -0.37829,-0.10221 -0.2896,0.0757 -0.44883,0.26345 -0.35383,0.41716 0.10469,0.1694 0.0126,0.21804 -0.23374,0.1235 -0.22354,-0.0858 -0.96457,-0.23967 -1.64671,-0.34196 -1.00754,-0.15109 -1.4483,-0.40751 -2.34893,-1.36651 -0.60977,-0.64929 -1.24489,-1.43285 -1.41139,-1.74124 -0.17237,-0.31929 -0.88106,-0.7573 -1.64594,-1.0173 l -1.34324,-0.45658 -1.22167,1.23805 c -0.67192,0.68092 -1.41552,1.56561 -1.65244,1.96598 -0.23693,0.40037 -0.61337,0.78675 -0.83655,0.85862 -0.22317,0.0719 -0.82249,0.50077 -1.33181,0.9531 -0.85826,0.76222 -0.87762,0.81166 -0.26459,0.67539 0.36381,-0.0809 1.16748,-0.22748 1.78594,-0.3258 0.61846,-0.0983 1.12448,-0.2785 1.12448,-0.40041 0,-0.12191 0.59531,-0.30063 1.32292,-0.39715 0.85897,-0.11394 1.32291,-0.30272 1.32291,-0.53828 0,-0.19953 0.1786,-0.36279 0.39688,-0.36279 0.21828,0 0.39687,0.11907 0.39687,0.26459 0,0.14552 -0.14882,0.2664 -0.33073,0.26863 -0.22048,0.003 -0.19843,0.0896 0.0662,0.26053 0.33204,0.21459 0.31404,0.25715 -0.11024,0.26054 -0.27892,0.002 -0.43341,0.0778 -0.34333,0.16784 0.2564,0.2564 -0.51086,0.89454 -1.07555,0.89454 -0.27972,0 -0.85377,0.11957 -1.27567,0.2657 -0.94469,0.32722 -4.60425,0.47476 -4.60384,0.18561 z m 5.35811,-1.1557 c -0.1819,-0.0734 -0.47956,-0.0734 -0.66146,0 -0.1819,0.0734 -0.0331,0.13345 0.33073,0.13345 0.3638,0 0.51263,-0.0601 0.33073,-0.13345 z m 23.43986,-1.34613 c -0.0113,-0.40018 0.0599,-0.96895 0.15837,-1.26393 0.14639,-0.43863 0.0557,-0.54653 -0.4979,-0.59235 -0.60502,-0.0501 -0.67689,0.04 -0.67689,0.84816 0,0.4973 0.18709,1.09128 0.41577,1.31995 0.56326,0.56326 0.62453,0.53144 0.60065,-0.31183 z m -0.58294,-0.99219 c -0.0918,-0.23933 -10e-4,-0.39687 0.22797,-0.39687 0.22932,0 0.31981,0.15754 0.22798,0.39687 -0.0838,0.21828 -0.18635,0.39688 -0.22798,0.39688 -0.0416,0 -0.1442,-0.1786 -0.22797,-0.39688 z m 3.79985,1.01647 c 0.65484,-0.0627 1.44683,-0.1385 1.75997,-0.16838 0.71503,-0.0682 0.92474,-1.15775 0.90415,-4.69728 -0.0164,-2.81991 -0.41383,-3.98756 -2.03914,-5.99108 -0.72028,-0.8879 -1.12287,-1.14236 -2.01909,-1.27618 -0.61569,-0.0919 -1.44556,-0.0428 -1.84416,0.1092 l -0.72473,0.27634 1.05808,1.51046 c 1.33871,1.91107 1.6683,3.09023 1.66827,5.9686 -2e-5,1.96236 -0.10163,2.50023 -0.68459,3.62386 l -0.68457,1.31947 0.70759,-0.28048 c 0.38918,-0.15426 1.24337,-0.3318 1.89822,-0.39453 z m 0.43618,-2.0748 c 0.34788,-1.54382 0.62817,-2.18336 0.46383,-1.05833 -0.085,0.58208 -0.26442,1.23692 -0.39864,1.4552 -0.16334,0.26561 -0.1849,0.13435 -0.0652,-0.39687 z m -0.52943,-1.5875 c 0.0886,-0.72761 0.20533,-1.37253 0.25944,-1.43316 0.2071,-0.23205 0.0493,1.72385 -0.17965,2.22691 -0.16213,0.35621 -0.18821,0.0968 -0.0798,-0.79375 z m 0.64506,-3.96875 c -0.008,-0.29104 0.10087,-0.70776 0.24194,-0.92604 0.22798,-0.35278 0.25486,-0.35278 0.24193,0 -0.008,0.21828 -0.11687,0.635 -0.24193,0.92604 l -0.22739,0.52917 -0.0145,-0.52917 z m -0.61657,-1.32292 c 0.0695,-0.3638 0.1721,-0.66146 0.2279,-0.66146 0.0558,0 0.10144,0.29766 0.10144,0.66146 0,0.3638 -0.10255,0.66146 -0.22789,0.66146 -0.12534,0 -0.17099,-0.29766 -0.10145,-0.66146 z m -0.9518,-0.13229 c 0,-0.3638 0.0601,-0.51263 0.13345,-0.33073 0.0734,0.1819 0.0734,0.47956 0,0.66146 -0.0734,0.1819 -0.13345,0.0331 -0.13345,-0.33073 z m -0.74422,-0.40829 c -0.0862,-0.22455 -0.0976,-0.4674 -0.0253,-0.53966 0.0723,-0.0722 0.19489,0.11148 0.2725,0.40829 0.16488,0.63048 -0.0183,0.72784 -0.2472,0.13137 z m -16.23089,9.53642 c 0,-0.21829 -0.11532,-0.39688 -0.25628,-0.39688 -0.14095,0 -0.18774,0.17859 -0.10398,0.39688 0.0838,0.21828 0.19909,0.39687 0.25628,0.39687 0.0572,0 0.10398,-0.17859 0.10398,-0.39687 z m -1.5875,-0.1323 c 0,-0.14552 -0.12609,-0.26458 -0.2802,-0.26458 -0.1541,0 -0.20661,0.11906 -0.11667,0.26458 0.0899,0.14552 0.21603,0.26459 0.2802,0.26459 0.0642,0 0.11667,-0.11907 0.11667,-0.26459 z m 26.06146,-0.52916 c 0.0899,-0.14552 0.0374,-0.26459 -0.11668,-0.26459 -0.15411,0 -0.2802,0.11907 -0.2802,0.26459 0,0.14552 0.0525,0.26458 0.11668,0.26458 0.0642,0 0.19026,-0.11906 0.2802,-0.26458 z m 2.24896,-0.14791 c 0,-0.22687 -0.12101,-0.3377 -0.2689,-0.2463 -0.14789,0.0914 -0.2004,0.27702 -0.11668,0.41249 0.22681,0.36699 0.38558,0.29856 0.38558,-0.16619 z m -28.31042,-0.11668 c 0,-0.14552 -0.20836,-0.26276 -0.46302,-0.26053 -0.3957,0.003 -0.40531,0.0413 -0.0661,0.26053 0.49932,0.32269 0.52916,0.32269 0.52916,0 z m 33.60208,-0.32528 c 0,-0.15487 -0.16811,-0.12915 -0.39687,0.0607 -0.21828,0.18116 -0.39688,0.37059 -0.39688,0.42097 0,0.0504 0.1786,0.0231 0.39688,-0.0607 0.21828,-0.0838 0.39687,-0.2732 0.39687,-0.42097 z m -3.44514,-1.87851 c 0.17401,-0.84829 0.26555,-1.59316 0.20344,-1.65528 -0.0621,-0.0621 -0.25959,0.57241 -0.43883,1.41005 -0.17923,0.83764 -0.38262,1.76111 -0.45197,2.05215 -0.0986,0.41373 -0.0719,0.44259 0.12245,0.13229 0.13669,-0.21828 0.39091,-1.09093 0.56491,-1.93921 z m -26.98194,1.18956 c 0,-0.12127 -0.17859,-0.22049 -0.39687,-0.22049 -0.21828,0 -0.39688,0.0992 -0.39688,0.22049 0,0.12127 0.1786,0.22048 0.39688,0.22048 0.21828,0 0.39687,-0.0992 0.39687,-0.22048 z m 1.05834,0.10381 c 0,-0.0642 -0.11907,-0.19026 -0.26459,-0.2802 -0.14552,-0.0899 -0.26458,-0.0374 -0.26458,0.11667 0,0.15411 0.11906,0.2802 0.26458,0.2802 0.14552,0 0.26459,-0.0525 0.26459,-0.11667 z m -5.82084,-0.38163 c 0,-0.12855 -0.24493,-0.29778 -0.54428,-0.37606 -0.44661,-0.11679 -0.48828,-0.0748 -0.23219,0.23372 0.34932,0.42091 0.77647,0.49921 0.77647,0.14234 z m 31.4523,-3.0378 c -0.0309,-0.77345 -0.047,-0.75799 -0.23896,0.22881 -0.11321,0.58209 -0.28344,1.35599 -0.37827,1.71979 -0.10995,0.4218 -0.0234,0.3389 0.23896,-0.22881 0.22626,-0.48965 0.39649,-1.26356 0.37827,-1.71979 z m -2.99997,-0.0776 c -0.17297,-0.92197 -0.30824,-1.02236 -0.88486,-0.65667 -0.22495,0.14267 -0.28436,0.46536 -0.16975,0.92199 0.21339,0.85022 0.65301,0.9509 0.4681,0.1072 -0.10482,-0.47828 -0.0747,-0.51729 0.15301,-0.19844 0.15592,0.21828 0.30315,0.81359 0.32718,1.32292 0.0409,0.86615 0.0511,0.87628 0.15795,0.15665 0.0628,-0.42317 0.0396,-1.16731 -0.0516,-1.65365 z m -0.49034,1.44739 c -0.0845,-0.21107 -0.14716,-0.14838 -0.15985,0.15985 -0.0115,0.27891 0.0511,0.43519 0.13896,0.34727 0.0879,-0.0879 0.0973,-0.31613 0.0209,-0.50712 z m -35.90829,-1.10418 c -0.005,-0.16578 -0.24297,-0.0203 -0.52917,0.3232 -0.2862,0.34355 -0.5164,0.76027 -0.51156,0.92604 0.005,0.16578 0.24297,0.0203 0.52917,-0.3232 0.2862,-0.34355 0.5164,-0.76027 0.51156,-0.92604 z m 5.2488,0.0592 c 0.068,-0.58465 -0.0376,-0.71054 -0.67434,-0.80399 -0.64721,-0.095 -0.76272,-0.017 -0.80938,0.54683 -0.10118,1.2225 1.34235,1.4727 1.48372,0.25716 z m -4.18166,0.30084 c 0.24169,-0.1562 0.27294,-0.25807 0.0799,-0.26054 -0.23424,-0.003 -0.24765,-0.20289 -0.0514,-0.76594 0.14607,-0.41903 0.40777,-0.75747 0.58155,-0.75206 0.17377,0.005 0.6136,-0.0173 0.97741,-0.0505 0.61317,-0.0559 0.62283,-0.0769 0.13229,-0.28767 -0.36596,-0.15726 -0.40438,-0.23313 -0.12456,-0.24599 0.22254,-0.0102 0.57165,-0.25034 0.7758,-0.53359 0.20416,-0.28325 0.49833,-0.43898 0.65372,-0.34608 0.1554,0.0929 0.1312,-0.018 -0.0538,-0.24644 -0.28229,-0.34864 -0.25046,-0.4378 0.19818,-0.55512 0.29396,-0.0769 0.60115,-0.0319 0.68265,0.1 0.20383,0.3298 0.6461,0.30211 0.6461,-0.0405 0,-0.15411 -0.0893,-0.23252 -0.19843,-0.17426 -0.10914,0.0583 -0.4068,-0.1133 -0.66146,-0.38126 -0.25466,-0.26796 -0.33693,-0.4872 -0.18282,-0.4872 0.15411,0 0.19524,-0.13746 0.0914,-0.30546 -0.12133,-0.19631 -0.0721,-0.23334 0.13782,-0.10361 0.19942,0.12325 0.48332,-0.0219 0.72904,-0.37269 0.22133,-0.31601 0.66293,-0.6736 0.98133,-0.79465 0.55946,-0.21271 2.95198,-3.39417 2.72395,-3.62219 -0.0618,-0.0618 -0.75301,0.13744 -1.53592,0.44287 -1.80399,0.70378 -4.72605,3.51657 -5.76506,5.54948 -0.40906,0.80037 -0.98138,1.84548 -1.27183,2.32246 -0.30916,0.50772 -0.47625,1.13842 -0.40304,1.52136 0.13698,0.7166 0.26262,0.77369 0.8571,0.38952 z m 32.43411,-2.91694 -0.39882,-0.91952 -0.0103,0.84428 c -0.006,0.46435 0.1087,0.91787 0.25422,1.0078 0.14552,0.0899 0.28539,0.60298 0.31081,1.1401 l 0.0462,0.97657 0.0984,-1.06485 c 0.0542,-0.58671 -0.0807,-1.47774 -0.30045,-1.98438 z m 1.34871,2.33816 c -0.0845,-0.21107 -0.14716,-0.14837 -0.15985,0.15985 -0.0115,0.27892 0.051,0.43519 0.13896,0.34727 0.0879,-0.0879 0.0973,-0.31612 0.0209,-0.50712 z m -1.74026,-0.17877 c 0.17882,0.28226 0.22938,0.26001 0.23255,-0.10235 0.002,-0.25466 -0.092,-0.46302 -0.20946,-0.46302 -0.11743,0 -0.33204,-0.26789 -0.47691,-0.59531 -0.14487,-0.32742 -0.22739,-0.43675 -0.18337,-0.24295 0.044,0.19381 0.0894,0.67006 0.10093,1.05834 0.0115,0.38828 0.0854,0.54366 0.16432,0.34529 0.12109,-0.3045 0.17902,-0.3045 0.37194,0 z m -22.64285,-1.30802 c -0.0815,-0.0815 -0.29496,-1.7e-4 -0.47444,0.18065 -0.25936,0.26131 -0.22897,0.2917 0.14812,0.14811 0.26093,-0.0993 0.40778,-0.2473 0.32632,-0.32876 z m 1.03381,-0.0795 c -0.12289,-0.19883 0.0208,-0.23693 0.44741,-0.11859 0.54497,0.15118 0.57265,0.12859 0.20843,-0.17009 -0.42909,-0.35188 -0.58307,-1.27047 -0.21296,-1.27047 0.36372,0 0.5143,0.48053 0.18498,0.5903 -0.18799,0.0627 -0.11048,0.18635 0.18872,0.30117 0.27925,0.10716 0.42391,0.11101 0.32146,0.009 -0.10244,-0.10244 0.0202,-0.35569 0.27265,-0.56277 0.2524,-0.20708 0.32455,-0.31006 0.16032,-0.22885 -0.31206,0.15433 -1.52457,-0.36392 -2.87641,-1.22942 -0.73307,-0.46935 -0.72296,-0.44322 0.13229,0.3418 0.58558,0.5375 0.7315,0.77584 0.39688,0.64828 -1.67464,-0.63836 -2.41083,-0.26087 -0.99219,0.50875 0.40018,0.21711 0.57459,0.3995 0.38757,0.40533 -0.18702,0.006 -0.63351,-0.1817 -0.99219,-0.41671 -0.359,-0.23523 -0.65215,-0.30271 -0.65215,-0.15013 0,0.15246 0.2471,0.35561 0.54911,0.45147 0.302,0.0958 0.48431,0.23906 0.40513,0.31825 -0.0792,0.0792 -0.44116,-0.0507 -0.80438,-0.28874 -0.73343,-0.48056 -1.05078,-0.55559 -0.82845,-0.19586 0.0805,0.13028 -0.0514,0.31277 -0.29321,0.40555 -0.30962,0.11881 -0.35669,0.25161 -0.15918,0.44911 0.1975,0.19751 0.4469,0.19133 0.84346,-0.0209 0.30967,-0.16573 0.66596,-0.23772 0.79176,-0.15997 0.1258,0.0777 0.60861,0.009 1.07291,-0.15293 0.65081,-0.22687 0.91536,-0.21722 1.15487,0.0421 0.24581,0.26615 0.20019,0.30051 -0.21848,0.16452 -0.52112,-0.16927 -0.52136,-0.16584 -0.0156,0.22564 0.60998,0.47213 0.77455,0.50478 0.52722,0.10459 z m -1.55441,-1.43527 c -0.65012,-0.49174 -0.44782,-0.49231 0.68166,-0.002 0.61635,0.26759 0.72746,0.38711 0.3611,0.38846 -0.29104,0.001 -0.76028,-0.17287 -1.04276,-0.38652 z m -3.32286,0.0525 c 0,-0.19403 -0.17671,-0.35278 -0.39268,-0.35278 -0.29723,0 -0.32151,0.0858 -0.0999,0.35278 0.16103,0.19403 0.33773,0.35278 0.39267,0.35278 0.0549,0 0.0999,-0.15875 0.0999,-0.35278 z m 0.97014,-0.51657 c 0,-0.1871 -0.21169,-0.34018 -0.47042,-0.34018 -0.3533,0 -0.40012,0.0847 -0.18809,0.34018 0.15528,0.1871 0.36697,0.34018 0.47042,0.34018 0.10345,0 0.18809,-0.15308 0.18809,-0.34018 z m 4.20481,-0.59428 c -0.28248,-0.21365 -0.63966,-0.38467 -0.79375,-0.38004 -0.15409,0.005 -0.0491,0.18322 0.23343,0.39687 0.28247,0.21366 0.63966,0.38468 0.79375,0.38005 0.15409,-0.005 0.049,-0.18322 -0.23343,-0.39688 z m 0.94516,0.0502 c -0.16208,-0.19529 -0.23569,-0.41407 -0.16358,-0.48619 0.0721,-0.0721 -0.16704,-0.26696 -0.53146,-0.433 -0.88409,-0.40282 -0.84413,0.0363 0.065,0.71465 0.85291,0.63634 1.03833,0.69654 0.63001,0.20454 z m 1.44036,-0.82081 c -0.0113,-0.52094 -0.11922,-0.81258 -0.25183,-0.68083 -0.20028,0.19897 -0.0334,1.59213 0.19073,1.59213 0.0445,0 0.072,-0.41009 0.0611,-0.9113 z m -6.50214,0.48594 c 0,-0.21897 -0.51375,-0.3428 -0.63154,-0.15222 -0.0764,0.12364 0.0344,0.2248 0.2463,0.2248 0.21188,0 0.38524,-0.0327 0.38524,-0.0726 z m 2.71942,-0.40063 c -0.16325,-0.16325 -0.23385,-0.46091 -0.1569,-0.66146 0.17019,-0.44351 0.0383,-0.45335 -0.82198,-0.0614 -0.36609,0.1668 -0.59493,0.41764 -0.50854,0.55741 0.0906,0.14656 0.25102,0.10217 0.37901,-0.10483 0.18108,-0.2929 0.30719,-0.27375 0.68508,0.10404 0.25472,0.25466 0.52097,0.46302 0.59165,0.46302 0.0707,0 -0.005,-0.13357 -0.16832,-0.29682 z m -1.92567,-0.26 c 0,-0.11222 -0.22988,-0.18672 -0.51084,-0.16556 -0.28096,0.0212 -0.46479,0.11298 -0.40851,0.20404 0.14664,0.23727 0.91935,0.20492 0.91935,-0.0385 z m 23.80439,-0.6338 c 0,-0.14552 -0.11541,-0.086 -0.25647,0.13229 -0.14107,0.21828 -0.25648,0.51594 -0.25648,0.66146 0,0.14552 0.11541,0.086 0.25648,-0.13229 0.14106,-0.21828 0.25647,-0.51594 0.25647,-0.66146 z m -0.87935,-0.36867 c -0.20441,-0.23379 -0.56687,-0.81051 -0.80547,-1.2816 -0.33123,-0.65395 -0.58907,-0.84366 -1.09024,-0.80218 -0.68283,0.0565 -0.85025,0.31705 -0.38752,0.60303 0.1479,0.0914 0.18903,0.29542 0.0914,0.45337 -0.099,0.16025 -0.0557,0.21193 0.098,0.11693 0.15152,-0.0936 0.42153,0.006 0.60003,0.22079 0.1785,0.21507 0.42414,0.32949 0.54587,0.25425 0.32038,-0.198 0.83745,0.88746 0.6062,1.27257 -0.12292,0.20469 -0.0269,0.1886 0.25902,-0.0434 0.39304,-0.31892 0.4042,-0.42602 0.0827,-0.79375 z m -1.63696,-1.10414 c -0.28477,-0.46076 0.0396,-0.55834 0.40244,-0.12109 0.20869,0.25146 0.22877,0.40327 0.0533,0.40327 -0.15475,0 -0.35984,-0.12698 -0.45576,-0.28218 z m -22.8044,14.9155 c 0.25743,-0.0671 0.61462,-0.0627 0.79375,0.01 0.17913,0.0725 -0.0315,0.12737 -0.46805,0.12197 -0.43657,-0.005 -0.58313,-0.0647 -0.3257,-0.13177 z m 21.42621,-0.009 c 0.54571,-0.0571 1.43868,-0.0571 1.98438,0 0.5457,0.0571 0.0992,0.10379 -0.99219,0.10379 -1.0914,0 -1.53789,-0.0467 -0.99219,-0.10379 z m 6.68073,-0.0718 c 0.0899,-0.14552 0.42439,-0.25622 0.74322,-0.24599 0.5589,0.0179 0.56071,0.0268 0.0505,0.24599 -0.72826,0.31294 -0.98716,0.31294 -0.79375,0 z m -43.3917,-0.25673 c 1.087,-0.28786 2.57468,-0.32121 2.40955,-0.054 -0.0744,0.12034 -0.82554,0.22902 -1.66926,0.24151 -1.22074,0.0181 -1.37193,-0.0202 -0.74029,-0.18749 z m 3.30729,-0.008 c -0.33917,-0.21918 -0.32955,-0.25707 0.0661,-0.26053 0.25466,-0.002 0.46302,0.11501 0.46302,0.26053 0,0.32269 -0.0298,0.32269 -0.52917,0 z m 21.54209,0.0661 c 0.10947,-0.10914 0.60553,-0.19844 1.10235,-0.19844 0.49683,0 0.90335,0.0893 0.9034,0.19844 4e-5,0.10914 -0.49602,0.19844 -1.10236,0.19844 -0.60633,0 -1.01286,-0.0893 -0.90339,-0.19844 z m 2.53499,-0.0661 c -0.34202,-0.22103 -0.33504,-0.25704 0.0505,-0.26053 0.24608,-0.002 0.52099,0.11501 0.61093,0.26053 0.20695,0.33486 -0.14331,0.33486 -0.66146,0 z m -58.7871,-0.18074 c 0.19099,-0.0764 0.4192,-0.067 0.50712,0.0209 0.0879,0.0879 -0.0684,0.15045 -0.34727,0.13896 -0.30823,-0.0127 -0.37092,-0.0754 -0.15985,-0.15985 z m 65.79856,-0.0846 c -0.60641,-0.15372 -0.36182,-0.2086 1.03629,-0.23252 1.00651,-0.0172 1.78042,0.0124 1.71979,0.0659 -0.27439,0.2419 -2.03843,0.34856 -2.75608,0.16663 z m -2.17778,-0.18259 c 0.25743,-0.0671 0.61462,-0.0627 0.79375,0.01 0.17913,0.0725 -0.0315,0.12736 -0.46805,0.12197 -0.43657,-0.005 -0.58313,-0.0647 -0.3257,-0.13178 z m 5.55625,0 c 0.25743,-0.0671 0.61462,-0.0627 0.79375,0.01 0.17913,0.0725 -0.0315,0.12736 -0.46805,0.12197 -0.43657,-0.005 -0.58313,-0.0647 -0.3257,-0.13178 z m 11.17361,-0.0812 c 0.0899,-0.14552 0.28259,-0.26459 0.42811,-0.26459 0.14552,0 0.191,0.11907 0.10106,0.26459 -0.0899,0.14552 -0.28258,0.26458 -0.4281,0.26458 -0.14553,0 -0.191,-0.11906 -0.10107,-0.26458 z m 2.18755,0.0728 c 0.47555,-0.0589 1.18993,-0.0577 1.5875,0.003 0.39758,0.0604 0.009,0.10855 -0.86463,0.10706 -0.87313,-0.002 -1.19842,-0.0509 -0.72287,-0.10976 z m 3.43959,0 c 0.47555,-0.0589 1.18992,-0.0577 1.5875,0.003 0.39757,0.0604 0.008,0.10855 -0.86464,0.10706 -0.87312,-0.002 -1.19841,-0.0509 -0.72286,-0.10976 z m 2.55743,-0.0445 c 0.0739,-0.11952 0.6701,-0.21732 1.32494,-0.21732 1.55357,0 1.31941,0.37888 -0.25367,0.41045 -0.66307,0.0133 -1.14514,-0.0736 -1.07127,-0.19313 z m -75.12415,-0.29292 c 0.0899,-0.14552 0.40165,-0.26458 0.69269,-0.26458 0.29104,0 0.45558,0.11906 0.36565,0.26458 -0.0899,0.14552 -0.40165,0.26459 -0.69269,0.26459 -0.29104,0 -0.45558,-0.11907 -0.36565,-0.26459 z m 33.01181,0.0812 c 0.25743,-0.0671 0.61462,-0.0627 0.79375,0.01 0.17913,0.0725 -0.0315,0.12737 -0.46806,0.12197 -0.43656,-0.005 -0.58312,-0.0647 -0.32569,-0.13177 z m 29.56215,-0.0812 c 0,-0.14552 0.11906,-0.26458 0.26458,-0.26458 0.14552,0 0.26458,0.11906 0.26458,0.26458 0,0.14552 -0.11906,0.26459 -0.26458,0.26459 -0.14552,0 -0.26458,-0.11907 -0.26458,-0.26459 z m 1.08038,0.1703 c 0.2931,-0.25068 1.84129,-0.40256 1.69528,-0.16631 -0.0886,0.14333 -0.53106,0.2606 -0.98329,0.2606 -0.45223,0 -0.77262,-0.0424 -0.71199,-0.0943 z m -115.51801,-0.44353 c -0.10162,-0.16441 0.10846,-0.61668 0.46682,-1.00504 0.35837,-0.38836 0.72772,-0.92201 0.82079,-1.18589 0.0931,-0.26389 0.28822,-0.40623 0.43369,-0.31633 0.16373,0.10119 0.071,0.54267 -0.24338,1.15895 -0.63018,1.23525 -1.21695,1.77057 -1.47792,1.34831 z m 4.74457,0.11113 c -0.3179,-0.13031 0.11597,-2.28429 0.53768,-2.66935 0.12838,-0.11722 0.16062,-0.0135 0.0724,0.23298 -0.0874,0.24433 -0.23876,0.89917 -0.33632,1.45521 -0.16985,0.96798 -0.15881,0.98847 0.25965,0.48181 0.41999,-0.50854 0.43404,-0.50939 0.36031,-0.0219 -0.0803,0.53064 -0.40661,0.72098 -0.89375,0.52129 z m 100.43264,0.0607 c 0,-0.0558 0.23813,-0.1637 0.52917,-0.23981 0.29104,-0.0761 0.52917,-0.0305 0.52917,0.10143 0,0.1319 -0.23813,0.23981 -0.52917,0.23981 -0.29104,0 -0.52917,-0.0456 -0.52917,-0.10143 z m 15.6816,-0.0819 c 0.25743,-0.0671 0.61462,-0.0627 0.79375,0.01 0.17913,0.0725 -0.0315,0.12736 -0.46806,0.12197 -0.43656,-0.005 -0.58312,-0.0647 -0.32569,-0.13177 z m -99.15763,-0.34995 c -0.58459,-0.1457 -0.27666,-0.20609 1.16857,-0.22914 1.07928,-0.0172 1.91272,0.0117 1.85209,0.0642 -0.26965,0.23351 -2.30065,0.34444 -3.02066,0.16497 z m 4.22343,-0.24442 c 0.0954,-0.15433 0.53141,-0.28061 0.96895,-0.28061 0.43754,0 1.00248,-0.11075 1.25541,-0.24612 0.26676,-0.14277 0.61735,-0.14881 0.83484,-0.0144 0.54748,0.33836 0.3137,0.43442 -1.55347,0.63834 -1.15834,0.1265 -1.62537,0.0964 -1.50573,-0.0972 z m 16.74479,0.0733 c 0.1819,-0.0734 0.47956,-0.0734 0.66146,0 0.1819,0.0734 0.0331,0.13345 -0.33073,0.13345 -0.3638,0 -0.51263,-0.0601 -0.33073,-0.13345 z m 7.60677,-0.0929 c 0.72761,-0.11115 1.65034,-0.2878 2.05052,-0.39255 0.43616,-0.11416 0.72761,-0.0843 0.72761,0.0745 0,0.42606 -0.72473,0.58843 -2.46904,0.55315 l -1.632,-0.033 z m 69.91615,0.0929 c 0.1819,-0.0734 0.47955,-0.0734 0.66145,0 0.1819,0.0734 0.0331,0.13345 -0.33073,0.13345 -0.3638,0 -0.51263,-0.0601 -0.33072,-0.13345 z m -19.51302,-0.30812 c 0,-0.12031 0.35718,-0.16633 0.79375,-0.10226 0.43656,0.0641 0.79375,0.16252 0.79375,0.21876 0,0.0562 -0.35719,0.10226 -0.79375,0.10226 -0.43657,0 -0.79375,-0.0984 -0.79375,-0.21876 z m -98.32078,-0.97186 c 0.36514,-1.16659 0.73951,-1.22912 0.40648,-0.0679 -0.13536,0.47198 -0.24611,0.8887 -0.24611,0.92604 0,0.0373 -0.1013,0.0679 -0.22511,0.0679 -0.12381,0 -0.0947,-0.41672 0.0647,-0.92604 z m 4.02825,0.12402 c 0.26111,-1.38008 0.69547,-1.93978 0.52464,-0.67602 -0.077,0.56952 -0.2656,1.16111 -0.41913,1.31464 -0.19581,0.19582 -0.22731,0.005 -0.10551,-0.63862 z m 6.98003,0.56867 c 0,-0.14552 0.11906,-0.33817 0.26459,-0.42811 0.14552,-0.0899 0.26458,-0.0445 0.26458,0.10107 0,0.14552 -0.11906,0.33816 -0.26458,0.4281 -0.14553,0.0899 -0.26459,0.0445 -0.26459,-0.10106 z m 10.40671,0.072 c 0.27371,-0.29267 4.14543,-0.57441 4.1454,-0.30165 -2e-5,0.10914 -0.32745,0.19947 -0.72763,0.20074 -0.40018,0.001 -1.38245,0.0775 -2.18281,0.16936 -0.84665,0.0972 -1.3631,0.0686 -1.23496,-0.0685 z m -18.00245,-0.88686 c 0.16269,-0.43101 0.34524,-0.73421 0.40567,-0.67379 0.18881,0.18882 -0.21586,1.45744 -0.4649,1.45744 -0.13011,0 -0.10345,-0.35265 0.0592,-0.78365 z m 24.34769,0.40124 c 0.10338,-0.31071 2.77891,-0.81242 3.02424,-0.5671 0.30565,0.30566 -0.23673,0.52912 -1.66616,0.68646 -0.9652,0.10624 -1.41985,0.0663 -1.35808,-0.11936 z m 92.86387,-0.77219 c 0.32072,-0.48951 0.62409,-0.78335 0.67415,-0.65298 0.1183,0.30806 -0.69084,1.54299 -1.01098,1.54299 -0.13546,0 0.0161,-0.4005 0.33683,-0.89001 z m 3.98604,0.0963 c 0.089,-0.3638 0.16337,-0.81028 0.16536,-0.99218 0.002,-0.1819 0.12267,-0.33073 0.26819,-0.33073 0.40283,0 0.30009,0.86034 -0.17377,1.45521 -0.41117,0.51616 -0.41755,0.51291 -0.25978,-0.1323 z m -113.60087,0.12502 c -5.5e-4,-0.14952 0.15546,-0.50671 0.34667,-0.79375 0.19121,-0.28704 0.36451,-0.81955 0.38511,-1.18335 0.0206,-0.3638 0.10612,-0.93559 0.19003,-1.27064 0.14107,-0.56323 0.10703,-0.58491 -0.45126,-0.28741 -0.54832,0.29219 -0.57045,0.2813 -0.2407,-0.11842 0.70901,-0.85949 1.10283,-0.53651 0.99705,0.8177 -0.0817,1.04612 -1.22381,3.68597 -1.2269,2.83587 z m -0.3773,-0.91877 c 0.55083,-1.14985 0.6409,-1.25313 0.6409,-0.73486 0,0.22641 -0.24402,0.69274 -0.54226,1.03628 l -0.54225,0.62463 z m 55.74541,0.6104 c 0.25743,-0.0671 0.61461,-0.0627 0.79375,0.01 0.17913,0.0725 -0.0315,0.12736 -0.46806,0.12197 -0.43656,-0.005 -0.58313,-0.0647 -0.32569,-0.13177 z m 55.23483,-0.0812 c 0,-0.21828 0.11542,-0.57547 0.25648,-0.79375 0.22798,-0.35278 0.25648,-0.35278 0.25648,0 0,0.21828 -0.11541,0.57547 -0.25648,0.79375 -0.22798,0.35278 -0.25648,0.35278 -0.25648,0 z m -116.09345,-0.92604 c 0.003,-0.58208 0.0571,-0.78905 0.1204,-0.45994 0.0633,0.32912 0.0609,0.80537 -0.005,1.05834 -0.0662,0.25296 -0.118,-0.0163 -0.11506,-0.5984 z m 1.16296,-0.52917 c 0.0923,-0.7276 0.21053,-1.37252 0.26279,-1.43316 0.22655,-0.26285 0.0617,2.00106 -0.17182,2.3592 -0.17664,0.27095 -0.20551,-0.0229 -0.091,-0.92604 z m 117.52179,0.48308 c 0.1129,-0.55376 0.17943,-0.62029 0.25654,-0.25654 0.0573,0.27012 -0.0113,0.60657 -0.15244,0.74767 -0.16567,0.16566 -0.20254,-0.008 -0.1041,-0.49113 z m -31.12148,0.12546 c -0.44451,-0.4445 -0.39835,-0.87272 0.0536,-0.4976 0.22085,0.18328 0.40835,0.20453 0.46302,0.0524 0.0505,-0.14056 0.37296,-0.0265 0.7165,0.25354 0.34355,0.28001 0.4994,0.50911 0.34635,0.50911 -0.15306,0 -0.35187,-0.11906 -0.44181,-0.26458 -0.0899,-0.14552 -0.28258,-0.26458 -0.4281,-0.26458 -0.14552,0 -0.191,0.11906 -0.10106,0.26458 0.22896,0.37046 -0.2246,0.33103 -0.60854,-0.0529 z m -28.67753,-1.45074 c 0.191,-0.0764 0.4192,-0.067 0.50712,0.0209 0.0879,0.0879 -0.0684,0.15045 -0.34726,0.13896 -0.30823,-0.0127 -0.37092,-0.0754 -0.15986,-0.15985 z m 53.68889,-0.94374 c 0.0967,-0.81689 0.0812,-0.8342 -0.31041,-0.3463 -0.52818,0.65809 -0.52784,0.34521 8e-4,-0.67696 0.61894,-1.1969 0.30753,-1.53155 -0.384,-0.41264 -0.88895,1.43836 -0.97014,1.18105 -0.11036,-0.34976 0.40858,-0.72746 0.81286,-1.32277 0.89841,-1.32292 0.0856,-1.5e-4 0.17593,0.53877 0.20085,1.19759 0.0249,0.65882 0.0583,1.2839 0.0742,1.38906 0.086,0.56883 -0.0625,1.38183 -0.2525,1.38183 -0.12032,0 -0.17295,-0.38695 -0.11696,-0.8599 z m -53.64372,-0.48339 c 0.36136,-0.15004 1.43292,-0.21348 2.38125,-0.14096 0.94833,0.0725 2.83524,0.0464 4.19314,-0.0579 1.35789,-0.10437 2.5178,-0.11065 2.57756,-0.0139 0.16729,0.27068 -1.37407,0.38779 -5.77638,0.43887 -2.98122,0.0346 -3.86129,-0.0243 -3.37557,-0.22603 z m 55.03777,0.0528 c 0,-0.1277 0.19809,-0.39559 0.44019,-0.59531 0.39915,-0.32927 0.41062,-0.30762 0.12299,0.23218 -0.32806,0.61568 -0.56318,0.76728 -0.56318,0.36313 z m -113.86103,-1.35531 c 0.25789,-0.43657 0.57038,-0.79375 0.69443,-0.79375 0.12406,0 -0.0288,0.35718 -0.33964,0.79375 -0.31086,0.43656 -0.62336,0.79375 -0.69443,0.79375 -0.0711,0 0.0818,-0.35719 0.33964,-0.79375 z m 86.74124,-0.26459 c 0.26339,-0.29104 0.53842,-0.52916 0.61118,-0.52916 0.0728,0 -0.0832,0.23812 -0.3466,0.52916 -0.26339,0.29105 -0.53842,0.52917 -0.61118,0.52917 -0.0728,0 0.0832,-0.23812 0.3466,-0.52917 z m 0.83036,0.1323 c 0.0838,-0.21829 0.2732,-0.39688 0.42097,-0.39688 0.15486,0 0.12915,0.16812 -0.0607,0.39688 -0.18116,0.21828 -0.3706,0.39687 -0.42097,0.39687 -0.0504,0 -0.0231,-0.17859 0.0607,-0.39687 z m -88.18426,-0.79137 c 0.1683,-0.36284 0.39948,-0.66064 0.51374,-0.66178 0.24338,-0.002 -0.23234,0.95848 -0.58131,1.17415 -0.13113,0.081 -0.10072,-0.14952 0.0676,-0.51237 z m 91.88843,-0.002 c 0.0838,-0.21829 0.25488,-0.39688 0.38026,-0.39688 0.12539,0 0.15945,0.17859 0.0757,0.39688 -0.0838,0.21828 -0.25488,0.39687 -0.38026,0.39687 -0.12539,0 -0.15944,-0.17859 -0.0757,-0.39687 z m 3.62656,-0.0114 c -0.0862,-0.22455 -0.0976,-0.4674 -0.0253,-0.53966 0.0723,-0.0722 0.19488,0.11148 0.2725,0.40829 0.16488,0.63048 -0.0183,0.72784 -0.2472,0.13137 z m 0.85364,-0.27207 c -0.0973,-0.38775 -0.11741,-0.76453 -0.0446,-0.83729 0.0728,-0.0728 0.21192,0.18496 0.30924,0.57271 0.0973,0.38775 0.11741,0.76453 0.0446,0.83729 -0.0728,0.0728 -0.21192,-0.18496 -0.30924,-0.57271 z m 9.43366,0.264 c 0.2512,-0.263 0.52928,-0.40562 0.61797,-0.31693 0.0887,0.0887 -0.11684,0.30387 -0.45672,0.47818 -0.59078,0.30298 -0.59787,0.29588 -0.16125,-0.16125 z m 2.85057,0.16739 c 0,-0.13693 0.11906,-0.32255 0.26458,-0.41249 0.14552,-0.0899 0.26458,0.0221 0.26458,0.24897 0,0.22687 -0.11906,0.41249 -0.26458,0.41249 -0.14552,0 -0.26458,-0.11204 -0.26458,-0.24897 z m -102.00136,-0.27293 c 0.0707,-0.11439 0.36868,-0.27077 0.66219,-0.34753 0.29351,-0.0768 0.47582,-0.046 0.40512,0.0684 -0.0707,0.11438 -0.36868,0.27077 -0.66219,0.34752 -0.29351,0.0768 -0.47581,0.046 -0.40512,-0.0684 z m 104.91177,0.15742 c 0,-0.0549 0.20836,-0.2633 0.46303,-0.46302 0.41964,-0.32911 0.429,-0.31975 0.0999,0.0999 -0.34564,0.44073 -0.56292,0.58088 -0.56292,0.36312 z m -114.28322,-1.23625 c 0.0158,-0.8577 0.0322,-0.87416 0.27265,-0.27265 0.16944,0.4239 0.16377,0.73227 -0.0168,0.91281 -0.18714,0.18715 -0.26739,-0.0136 -0.25588,-0.64016 z m 96.20337,0.63059 c -0.097,-0.097 -0.17277,-0.3649 -0.16835,-0.59531 0.007,-0.34404 0.0582,-0.33261 0.28884,0.0639 0.28489,0.48993 0.2023,0.85417 -0.12049,0.53137 z m -7.30094,-1.04992 c -0.70501,-0.89627 -0.7101,-1.38332 -0.008,-0.74776 0.52716,0.47707 0.53606,0.47645 0.35931,-0.0251 -0.17708,-0.50253 -0.16975,-0.50298 0.31934,-0.0196 0.34034,0.33637 0.39947,0.53241 0.18472,0.61241 -0.17373,0.0647 -0.25028,0.28857 -0.17013,0.49745 0.22716,0.59197 -0.0832,0.44828 -0.68542,-0.31736 z m 27.49682,0.0357 c -0.0341,-0.14553 -0.0476,-0.35496 -0.0299,-0.46541 0.0177,-0.11046 -0.0744,-0.67508 -0.20467,-1.25472 -0.13024,-0.57964 -0.13521,-0.99111 -0.011,-0.91437 0.30185,0.18655 0.59164,1.79659 0.43371,2.40964 -0.0694,0.26919 -0.15401,0.37038 -0.18812,0.22486 z m -24.60561,-0.36565 c 0,-0.14552 0.11907,-0.33817 0.26459,-0.4281 0.14552,-0.0899 0.26458,-0.0445 0.26458,0.10106 0,0.14552 -0.11906,0.33817 -0.26458,0.4281 -0.14552,0.0899 -0.26459,0.0445 -0.26459,-0.10106 z m 23.56652,-0.75883 c 0.0149,-0.79592 0.0636,-0.88752 0.24598,-0.46302 0.31595,0.73524 0.31595,1.4552 0,1.4552 -0.14552,0 -0.25621,-0.44648 -0.24598,-0.99218 z m -24.62485,0.49541 c 0,-0.1277 0.19808,-0.39559 0.44019,-0.59531 0.39915,-0.32927 0.41062,-0.30762 0.12299,0.23219 -0.32806,0.61567 -0.56318,0.76727 -0.56318,0.36312 z m 19.84375,-0.29698 c 0,-0.14552 0.12609,-0.26458 0.2802,-0.26458 0.15411,0 0.20661,0.11906 0.11667,0.26458 -0.0899,0.14552 -0.21602,0.26459 -0.2802,0.26459 -0.0642,0 -0.11667,-0.11907 -0.11667,-0.26459 z m 6.15761,-1.60896 c -0.17857,-1.0796 -0.39726,-2.26057 -0.48597,-2.62437 -0.1229,-0.50399 -0.096,-0.56836 0.11299,-0.2704 0.34384,0.49021 0.92599,3.67823 0.79512,4.35425 -0.0536,0.27688 -0.24357,-0.37988 -0.42214,-1.45948 z m -26.9274,1.34438 c -0.0899,-0.14552 -0.0374,-0.26458 0.11667,-0.26458 0.15411,0 0.2802,0.11906 0.2802,0.26458 0,0.14552 -0.0525,0.26458 -0.11667,0.26458 -0.0642,0 -0.19027,-0.11906 -0.2802,-0.26458 z m 18.57736,-0.59531 c -0.0735,-0.47294 -0.21244,-1.15755 -0.30874,-1.52136 l -0.17508,-0.66145 0.37481,0.66145 c 0.46979,0.82909 0.77725,2.38125 0.47169,2.38125 -0.12596,0 -0.28917,-0.38695 -0.36268,-0.85989 z m 8.97758,-0.79375 c -0.0924,-0.76399 -0.22975,-1.74625 -0.30518,-2.18281 -0.12112,-0.70099 -0.0924,-0.67921 0.2453,0.1864 0.51658,1.32392 0.81224,3.38547 0.48554,3.38547 -0.14169,0 -0.33323,-0.62508 -0.42566,-1.38906 z m -111.12666,0.7276 c -0.0838,-0.21828 -0.037,-0.39687 0.10399,-0.39687 0.14095,0 0.25628,0.17859 0.25628,0.39687 0,0.21828 -0.0468,0.39688 -0.10399,0.39688 -0.0572,0 -0.17252,-0.1786 -0.25628,-0.39688 z m 103.60767,-0.46311 c -0.45048,-1.24577 -0.38803,-1.58313 0.0894,-0.48288 0.21624,0.49835 0.3576,1.01278 0.31414,1.14318 -0.0435,0.13039 -0.22506,-0.16674 -0.40353,-0.6603 z m -110.22618,0.1883 c -0.25531,-0.66535 -0.18,-0.83702 0.13191,-0.30066 0.15443,0.26558 0.22505,0.53861 0.15693,0.60673 -0.0681,0.0681 -0.1981,-0.0696 -0.28884,-0.30607 z m 3.84555,-0.38665 c 0,-0.3638 0.0601,-0.51263 0.13345,-0.33073 0.0734,0.18191 0.0734,0.47956 0,0.66146 -0.0734,0.1819 -0.13345,0.0331 -0.13345,-0.33073 z m 107.4862,-0.33073 -0.50402,-0.59531 0.59531,0.50403 c 0.55944,0.47366 0.71576,0.6866 0.50403,0.6866 -0.0502,0 -0.3181,-0.26789 -0.59532,-0.59532 z m 0.73525,-0.32961 c -0.16604,-0.36441 -0.19926,-0.66257 -0.0738,-0.66257 0.21969,0 0.61552,1.08535 0.45454,1.24633 -0.0434,0.0434 -0.21467,-0.21934 -0.38071,-0.58376 z m 8.18946,-0.92716 c -0.0238,-0.3638 -0.10452,-0.95911 -0.17939,-1.32291 l -0.13615,-0.66146 0.28423,0.65127 c 0.15632,0.3582 0.23705,0.95351 0.17939,1.32292 l -0.10482,0.67164 z m 1.19737,-0.44912 c -0.17559,-1.08207 -0.0144,-1.46516 0.36444,-0.86613 0.31183,0.49308 0.32963,1.84442 0.0243,1.84442 -0.12648,0 -0.30141,-0.44023 -0.38872,-0.97829 z"
       id="path305" />
  </g>
</svg>
