<?xml version="1.0" encoding="UTF-8" standalone="no"?>
<!-- Created with Inkscape (http://www.inkscape.org/) -->

<svg
   version="1.1"
   id="svg992"
   width="679.09723"
   height="517.32642"
   viewBox="0 0 679.09723 517.32642"
   sodipodi:docname="horse1.svg"
   inkscape:version="1.1.2 (b8e25be833, 2022-02-05)"
   xmlns:inkscape="http://www.inkscape.org/namespaces/inkscape"
   xmlns:sodipodi="http://sodipodi.sourceforge.net/DTD/sodipodi-0.dtd"
   xmlns="http://www.w3.org/2000/svg"
   xmlns:svg="http://www.w3.org/2000/svg">
  <defs
     id="defs996" />
  <sodipodi:namedview
     id="namedview994"
     pagecolor="#505050"
     bordercolor="#eeeeee"
     borderopacity="1"
     inkscape:pageshadow="0"
     inkscape:pageopacity="0"
     inkscape:pagecheckerboard="0"
     showgrid="false"
     inkscape:zoom="1.0053957"
     inkscape:cx="313.8068"
     inkscape:cy="305.35242"
     inkscape:window-width="1280"
     inkscape:window-height="1001"
     inkscape:window-x="-1288"
     inkscape:window-y="-449"
     inkscape:window-maximized="1"
     inkscape:current-layer="g998" />
  <g
     inkscape:groupmode="layer"
     inkscape:label="Image"
     id="g998"
     transform="translate(-836.47002,488.41547)">
    <path
       style="fill:#000000"
       d="m 918.97257,27.9385 c -7.95034,-0.45466 -15.76618,-1.28368 -17.36854,-1.84227 -1.60235,-0.55858 -3.94311,-0.75715 -5.20169,-0.44127 -2.99758,0.75234 -6.47461,-1.16585 -6.47461,-3.5719 0,-2.41656 -1.53014,-3.38616 -3.55527,-2.25284 -1.42435,0.79711 -1.42509,1.00042 -0.008,2.17657 0.85973,0.71353 1.56317,1.60172 1.56317,1.97374 0,1.33657 -20.84252,0.97338 -21.96804,-0.3828 -0.81499,-0.98199 -0.3581,-1.42327 1.952,-1.88529 3.69404,-0.73881 3.87448,-2.30496 0.44555,-3.86728 -1.84171,-0.83914 -3.35115,-0.87653 -5.32398,-0.13186 -2.05388,0.77525 -3.92762,0.6646 -7.37447,-0.43548 -2.54154,-0.81115 -5.20824,-1.17451 -5.92602,-0.80748 -0.71777,0.36703 -2.3826,1.28612 -3.69962,2.0424 -3.33731,1.91644 -6.51986,0.55322 -6.93729,-2.97152 -0.18254,-1.54125 -0.96335,-3.76602 -1.73515,-4.94394 -1.89696,-2.89512 -0.54614,-14.65054 2.00779,-17.4726 1.96284,-2.16891 9.15436,-4.49214 17.05923,-5.51099 5.00206,-0.64472 7.9384,-1.73506 16.64738,-6.18163 5.37987,-2.74682 7.70841,-2.94914 10.41149,-0.90463 3.45187,2.61086 7.02219,1.90702 9.21974,-1.81754 1.84321,-3.12401 2.43052,-3.3959 8.72963,-4.04126 7.85456,-0.80472 13.49176,-2.88368 13.49176,-4.97567 0,-1.25248 -3.67288,-3.07048 -10,-4.9498 -1.01814,-0.30241 -0.59567,-0.80507 1.3151,-1.56473 4.02987,-1.60215 14.89302,-1.41872 17.23114,0.29096 1.81029,1.32371 1.6994,1.45313 -1.80887,2.11129 -2.05555,0.38562 -3.73737,1.25579 -3.73737,1.9337 0,0.93731 3.29372,1.13217 13.75,0.81346 21.74366,-0.66275 25.44281,-0.92314 30.56505,-2.15152 2.64828,-0.6351 5.27413,-0.87099 5.83522,-0.52422 0.61996,0.38316 0.78099,2.84244 0.41048,6.26882 -0.6893,6.37446 -0.18425,7.55556 3.62981,8.48847 2.303,0.56331 3.40011,-0.0627 7.61639,-4.34603 2.7092,-2.75227 5.42045,-5.00413 6.02499,-5.00413 0.60455,0 1.39972,2.26566 1.76706,5.03479 1.1921,8.98648 6.96813,12.87356 11.17757,7.52212 2.7604,-3.50932 6.7491,-4.31165 8.1764,-1.6447 1.5639,2.92219 2.9719,2.60171 4.2132,-0.95898 1.0019,-2.87416 1.3531,-3.04359 6.198,-2.99061 2.8247,0.0309 6.0358,-0.0283 7.1358,-0.13151 6.0495,-0.56765 9.6957,0.27702 12.0195,2.7844 3.5607,3.84204 6.2551,2.67618 11.1651,-4.83115 2.2605,-3.4564 5.0561,-8.08436 6.2123,-10.28436 1.1562,-2.2 3.5455,-5.70525 5.3095,-7.78944 2.8423,-3.35826 3.2306,-4.55299 3.4126,-10.5 0.113,-3.69081 0.5365,-9.98939 0.9413,-13.99686 0.4943,-4.89387 0.3309,-8.66984 -0.4975,-11.5 -1.9293,-6.59079 -7.0444,-21.01752 -8.1756,-23.05847 -0.6335,-1.14294 -0.7619,-5.17571 -0.3376,-10.60022 0.5748,-7.34701 0.349,-9.86539 -1.4036,-15.65523 -1.1487,-3.79488 -3.0086,-10.04978 -4.1332,-13.89978 -3.6753,-12.58284 -6.0152,-17.49164 -8.3789,-17.57761 -4.1327,-0.15031 -24.2354,0.14368 -32.8706,0.48071 -8.23003,0.32121 -8.97204,0.53692 -12.79299,3.71895 -9.68301,8.06385 -9.64411,8.00791 -10.38611,14.93661 -0.82715,7.72381 0.0729,12.24969 4.55918,22.92672 2.39125,5.69096 3.86568,7.99227 5.12652,8.00157 0.97343,0.007 3.5192,1.11735 5.65727,2.46706 4.65663,2.93959 6.49883,7.52281 5.55453,13.81938 -0.5074,3.38358 -0.2853,4.64471 1.0068,5.71702 0.9117,0.75669 2.5173,3.06068 3.5679,5.11998 1.0505,2.05931 2.7902,4.02353 3.8659,4.36495 1.4095,0.44735 2.2728,2.14748 3.0904,6.08579 1.0664,5.13661 0.9298,6.05607 -2.2722,15.2999 -3.0006,8.66233 -7.1582,16.12609 -10.2348,18.37366 -2.0282,1.48166 -7.05507,0.65743 -9.50567,-1.55859 -1.375,-1.24338 -6.55,-6.69974 -11.5,-12.12524 -4.95,-5.42551 -10.45881,-11.45288 -12.24179,-13.39416 -1.78299,-1.94129 -3.53464,-4.4523 -3.89257,-5.58003 -0.35793,-1.12774 -1.68528,-3.63133 -2.94967,-5.56355 -1.85522,-2.83511 -2.48095,-5.73254 -3.24226,-15.01312 -0.98658,-12.0266 -2.31097,-16.89201 -7.75786,-28.5 -4.50332,-9.59714 -7.41585,-17.21722 -7.41585,-19.40216 0,-1.00547 -0.9,-2.97229 -2,-4.37071 -1.66616,-2.11817 -2,-4.05678 -2,-11.61386 0,-12.07798 2.85354,-21.2416 7.51095,-24.12004 1.77381,-1.09627 4.09417,-1.99323 5.15634,-1.99323 1.98937,0 16.1304,-8.92411 21.81755,-13.7686 1.76357,-1.50227 4.06345,-3.23059 5.11083,-3.84071 2.32469,-1.35418 2.38049,-8.58928 0.10052,-13.03475 -0.80561,-1.57077 -1.99578,-7.80594 -2.64483,-13.85594 -0.64905,-6.05 -1.79255,-13.025 -2.54112,-15.5 -4.9962,-16.51894 -3.55657,-33.42372 3.53419,-41.5 1.52183,-1.73334 1.78918,-4.5333 2.00514,-21 0.23321,-17.78167 -0.58257,-27.65221 -3.01668,-36.5 -0.52958,-1.925 -1.23879,-4.52772 -1.57601,-5.78383 -1.15545,-4.30392 -4.35338,-6.21617 -10.39544,-6.21614 -5.08177,3e-5 -5.7826,0.28034 -8.12558,3.25 -1.41028,1.78748 -3.74618,6.22575 -5.19089,9.86282 -2.55237,6.42563 -2.58464,6.77404 -1.13995,12.30639 l 1.48679,5.69354 -3.92643,4.69361 c -2.15954,2.58149 -4.09886,5.59361 -4.3096,6.69361 -0.21075,1.1 -0.83801,2 -1.39392,2 -0.55592,0 -2.34124,1.04656 -3.96739,2.32569 -2.42688,1.90899 -2.9382,3.02883 -2.85374,6.25 0.10281,3.92082 0.0992,3.92447 -4.01891,4.09934 -11.87757,0.50438 -16.873,-1.11614 -21.60954,-7.01012 -1.81408,-2.25739 -5.61242,-5.20234 -8.58677,-6.65755 -7.62734,-3.73171 -10.03103,-6.9994 -10.86293,-14.76756 -0.37705,-3.52091 -0.39915,-7.54278 -0.0491,-8.93751 0.57432,-2.28826 1.48107,-21.68032 1.67407,-35.80229 0.0917,-6.71013 -1.46439,-14.70088 -3.70754,-19.03866 -1.37718,-2.66316 -1.54708,-4.7966 -0.96634,-12.13403 0.68317,-8.63172 1.97252,-11.82731 4.77204,-11.82731 2.51972,0 -2.09123,-3.0704 -5.20221,-3.46412 -1.81412,-0.22959 -3.58032,-0.69937 -3.92491,-1.04396 -0.34459,-0.34458 -0.79077,-3.87917 -0.99152,-7.85464 -0.28886,-5.72023 -0.0314,-7.50495 1.23396,-8.55514 0.95139,-0.78958 1.59897,-2.86431 1.59897,-5.1228 0,-5.83577 0.74487,-6.80571 8.05264,-10.48585 3.73965,-1.88325 7.50766,-4.43534 8.37336,-5.6713 2.31416,-3.30392 2.01607,-9.97048 -0.5942,-13.2889 -1.74291,-2.21574 -1.93764,-3.07584 -0.99274,-4.38486 0.6465,-0.89563 1.69442,-2.64093 2.32871,-3.87843 0.76765,-1.49768 2.06107,-2.25 3.86831,-2.25 4.1076,0 13.11499,4.37917 16.22163,7.88655 6.34055,7.15845 10.13468,0.56671 6.19133,-10.75651 -1.37064,-3.93574 -1.36616,-4.60759 0.0451,-6.76139 2.04567,-3.12209 3.74174,-2.71036 19.00589,4.61378 18.00346,8.63852 25.41271,9.80648 32.57856,5.1355 4.96147,-3.23408 12.29032,-4.68858 16.17759,-3.21064 1.72817,0.65705 5.60309,0.59967 11.73009,-0.1737 8.0237,-1.01278 9.7419,-0.94441 13.9658,0.55577 2.649,0.94085 5.431,1.71233 6.1822,1.7144 0.7511,0.002 4.0657,1.35038 7.3657,2.99624 4.2353,2.11232 7.4707,2.99646 11,3.00601 5.4503,0.0147 13.7063,3.30691 18.5824,7.40986 1.5706,1.32153 5.0849,3.14325 7.8096,4.04826 6.3744,2.11721 8.2295,4.13323 4.9598,5.38984 -10.9139,4.19442 -19.3968,6.14603 -26.7143,6.14603 -6.1934,0 -8.4098,0.39995 -10.1858,1.83805 -2.4816,2.00949 -1.9518,4.16195 1.0244,4.16195 1.022,0 3.9496,-0.89649 6.5058,-1.99221 4.2267,-1.81178 4.9077,-1.85771 7.5195,-0.50711 1.5795,0.8168 3.1519,1.9383 3.4942,2.49221 1.1635,1.88248 7.298,1.01609 13.9556,-1.97098 5.2697,-2.36437 6.8547,-3.60083 7.691,-6 0.7334,-2.10361 1.7075,-3.02021 3.2057,-3.01633 5.5616,0.0144 19.6521,5.47616 19.6521,7.61756 0,1.54408 -0.3756,1.61129 -7.7634,1.38899 -5.9743,-0.17976 -11.3814,1.31384 -15.6771,4.33046 -3.3859,2.3777 -15.0194,3.91021 -28.5595,3.76221 -9.0603,-0.099 -11.6688,0.7099 -10.6713,3.30928 1.0083,2.62752 5.4549,3.81245 9.4093,2.50738 3.3332,-1.10004 14.4904,-0.78912 23.8584,0.66487 3.7559,0.58295 4.6243,0.2471 10.4501,-4.04159 5.8873,-4.334 6.6877,-4.63828 10.9036,-4.14488 2.5025,0.29287 8.6967,0.81924 13.7649,1.16971 l 9.215,0.63721 4.285,5.02309 c 5.0387,5.90661 5.8504,7.66078 4.6308,10.00783 -0.9485,1.82524 -5.634,2.22812 -21.2758,1.82937 -5.5745,-0.14211 -8.4106,0.40002 -14.5,2.77166 -4.1635,1.62159 -9.7746,3.22183 -12.4691,3.55611 -2.6945,0.33428 -5.5125,1.11689 -6.2623,1.73915 -2.0352,1.6891 0.2274,3.86366 4.0339,3.87683 1.7201,0.006 5.1762,0.63269 7.68,1.39273 5.0286,1.52643 8.5016,0.66556 13.6488,-3.38319 1.4126,-1.1112 3.338,-2.02036 4.2786,-2.02036 0.9406,0 2.5246,-0.9 3.5201,-2 1.8381,-2.03104 5.9444,-2.70798 6.9137,-1.13974 0.2924,0.47315 4.2861,1.1649 8.8748,1.53722 12.3183,0.99951 14.0057,1.62912 15.1987,5.67104 1.4998,5.08143 2.3172,5.93148 5.7038,5.93148 4.2637,0 8.5566,2.94608 13.6376,9.35912 2.3808,3.00485 5.6433,6.00789 7.25,6.67344 4.3323,1.79447 3.8854,4.73085 -0.8286,5.44463 -2.0625,0.3123 -6.8311,1.08811 -10.597,1.72402 -7.6211,1.28692 -17.4424,0.13971 -27.0231,-3.15654 -9.571,-3.29291 -13.0621,-3.46852 -18.1764,-0.91432 -5.661,2.82722 -6.1037,3.49363 -3.9225,5.90386 1.4603,1.61361 2.6141,1.81545 7.4739,1.30749 6.4831,-0.67761 13.6994,0.75308 21.7446,4.31105 7.0442,3.11528 18.9578,3.28852 25.3913,0.36921 5.4239,-2.46112 8.0926,-2.5266 10.1537,-0.24912 2.1931,2.42342 0.9612,3.88575 -3.7945,4.50393 -6.1271,0.79647 -12.5324,2.63256 -14.8523,4.25743 -2.9382,2.05801 -5.8718,1.83874 -13.8363,-1.0342 -4.0129,-1.44753 -9.1016,-2.5 -12.0875,-2.5 -2.8364,0 -7.0676,-0.72966 -9.4027,-1.62146 -2.3352,-0.8918 -4.9301,-1.35883 -5.7666,-1.03785 -2.2175,0.85094 -0.8393,3.37155 2.2678,4.14762 1.4727,0.36785 5.5215,1.98346 8.9974,3.59025 3.4759,1.60679 6.6539,2.92144 7.0622,2.92144 0.4083,0 2.6052,0.9 4.8819,2 5.0843,2.45645 15.032,2.62104 23.7361,0.39273 16.2497,-4.16 18.7199,-4.17902 19.9545,-0.15367 0.3813,1.24352 1.0466,5.78491 1.4783,10.09198 0.5915,5.90184 1.2992,8.34537 2.8727,9.91882 2.0167,2.01678 2.4552,2.04745 12.8911,0.90168 6.0631,-0.66567 13.673,-2.23476 17.3433,-3.57604 3.5969,-1.31446 8.7719,-2.69963 11.5,-3.07815 2.7281,-0.37852 7.5639,-1.3368 10.7462,-2.12951 3.1823,-0.79271 6.1144,-1.23834 6.5158,-0.9903 0.4013,0.24805 3.1976,-0.20726 6.2139,-1.01178 3.0163,-0.80453 9.4951,-1.89487 14.3973,-2.42298 4.9021,-0.5281 10.5488,-1.45028 12.548,-2.04927 2.9106,-0.87203 4.3972,-0.77064 7.4591,0.5087 2.1033,0.87878 6.4398,1.59779 9.6369,1.59779 3.197,0 6.9984,0.45078 8.4475,1.00174 1.4492,0.55096 5.8217,1.49621 9.7168,2.10056 3.8951,0.60434 8.9262,1.86846 11.1803,2.80916 3.176,1.32545 6.7988,1.67895 16.0983,1.57085 6.6,-0.0767 12.675,-0.39314 13.5,-0.70312 6.132,-2.30404 14.1434,-4.76354 17.4899,-5.36943 2.1945,-0.39729 5.7945,-1.54213 8,-2.54409 2.2056,-1.00196 4.9101,-1.8344 6.0101,-1.84987 1.1,-0.0155 3.1736,-0.64052 4.6081,-1.389 1.4344,-0.74848 5.2594,-1.69281 8.5,-2.09852 5.2282,-0.65455 7.1874,-0.31718 17.3919,2.9949 6.325,2.0529 13.1642,4.575 15.1982,5.60468 2.0339,1.02968 4.4682,1.87214 5.4095,1.87214 0.9413,0 4.2962,2.3625 7.4553,5.25 3.1591,2.8875 8.4286,7.40534 11.71,10.03964 5.9338,4.76366 13.0361,14.93577 17.9512,25.71036 1.129,2.475 3.3981,7.425 5.0423,11 6.4438,14.01092 7.565,20.72068 4.7624,28.5 -2.7154,7.53717 -1.2157,28.9758 2.463,35.2108 1.1045,1.87193 2.0081,3.95765 2.0081,4.63492 0,0.67727 0.9104,3.01405 2.023,5.19284 5.7373,11.23476 8.0295,23.07493 4.8479,25.04127 -0.479,0.29601 -0.8709,2.76775 -0.8709,5.49276 0,2.725 -0.5332,5.80839 -1.1849,6.85197 -0.926,1.48268 -0.8806,2.84582 0.2077,6.23643 0.766,2.38645 1.4529,7.03901 1.5266,10.33901 0.074,3.3 0.4946,8.83414 0.9355,12.29808 0.4999,3.92734 0.4177,7.12693 -0.2183,8.5 -0.561,1.21106 -1.5584,5.12692 -2.2164,8.70192 -0.658,3.575 -1.8341,7.48999 -2.6135,8.69997 -0.7795,1.20999 -2.6019,5.70999 -4.0499,10 -2.3606,6.99392 -2.5736,8.79062 -2.0616,17.38517 0.3141,5.27182 1.2629,11.57182 2.1084,14 2.3565,6.76747 1.9848,9.01111 -2.3016,13.89036 l -3.8679,4.40303 -2.8183,-4.43927 c -2.5261,-3.97888 -2.9069,-5.73558 -3.6718,-16.93926 -0.4694,-6.875 -0.5692,-15.79389 -0.2218,-19.81976 0.5205,-6.033 0.3389,-7.64309 -1.033,-9.15907 -1.5459,-1.70821 -1.5476,-2.06541 -0.024,-5.01129 1.0603,-2.05042 2.1468,-2.96653 3.0727,-2.59093 0.7878,0.31958 2.0229,0.82178 2.7447,1.11601 2.2022,0.89773 4.2276,-4.05469 2.8736,-7.02642 -1.2278,-2.69468 -3.1859,-3.3898 -3.1859,-1.13098 0,0.75765 -0.675,1.93775 -1.5,2.62244 -1.267,1.05151 -1.5,0.84668 -1.5,-1.31854 0,-1.40988 0.45,-2.84154 1,-3.18146 0.55,-0.33992 1,-1.40547 1,-2.36789 0,-0.96242 0.609,-2.58264 1.3532,-3.60049 1.2718,-1.73929 1.4958,-1.75079 3.7226,-0.19113 3.4065,2.38605 3.9242,2.10892 3.9242,-2.10071 0,-2.59494 -0.752,-4.57122 -2.4266,-6.37722 -1.5024,-1.62033 -2.8227,-4.75974 -3.4667,-8.2433 -0.572,-3.09446 -1.4447,-6.41221 -1.9394,-7.37278 -0.4946,-0.96056 -1.1905,-4.03669 -1.5464,-6.83583 -0.6517,-5.12542 -3.7329,-12.74384 -5.6278,-13.91492 -1.7119,-1.05806 -4.9931,-8.25752 -4.9931,-10.95589 0,-4.78946 2.3319,-2.99689 6.589,5.06512 1.4216,2.69227 3.3626,5.79504 4.3133,6.89504 2.6907,3.11338 4.7174,6.74021 5.4671,9.78401 0.8202,3.32949 5.2889,5.88688 6.5948,3.77402 0.47,-0.76054 0.2257,-2.75273 -0.5716,-4.66102 -0.7659,-1.83303 -1.3926,-4.63428 -1.3926,-6.22501 0,-1.88359 -1.1334,-4.10408 -3.25,-6.36708 -2.3941,-2.55974 -3.7222,-5.41942 -5.0431,-10.85882 -0.9863,-4.06119 -2.4434,-8.10249 -3.2381,-8.98066 -1.9963,-2.20581 -2.3903,-4.84593 -3.8412,-25.73613 -1.3726,-19.76337 -2.2494,-22.58965 -5.6985,-18.36853 -1.061,1.29844 -1.9291,3.45039 -1.9291,4.78212 0,1.33174 -0.694,4.08245 -1.5423,6.11269 -1.2661,3.03015 -1.3561,4.89173 -0.5026,10.39281 0.5719,3.68581 0.7647,7.41833 0.4285,8.29449 -0.3362,0.87617 -0.086,2.86222 0.5569,4.41345 1.2868,3.10664 1.9807,16.65323 0.9393,18.33824 -1.1544,1.86789 -2.6523,-0.0544 -4.2439,-5.44644 -3.6595,-12.3975 -4.7571,-17.17648 -4.3248,-18.82961 0.4236,-1.61985 -0.027,-4.55364 -2.3702,-15.41853 -0.7539,-3.49653 -0.4629,-4.75521 2.3125,-10 3.0659,-5.79359 3.1678,-6.37842 2.9639,-17 -0.4804,-25.02649 -4.3009,-36.58363 -15.9418,-48.22454 -11.1468,-11.14678 -15.7366,-12.84975 -15.1127,-5.60724 0.4054,4.70469 -1.3432,5.32803 -4.6443,1.65564 -5.772,-6.42112 -7.266,-7.64905 -12.5185,-10.28915 -6.1354,-3.0839 -19.2714,-5.02263 -20.5051,-3.02635 -0.4555,0.73703 -2.5301,0.88127 -6.1573,0.42808 -5.0903,-0.63599 -5.6754,-0.48699 -8.4225,2.14494 -1.6237,1.55562 -3.9564,2.84871 -5.1836,2.87351 -2.8649,0.0579 -2.938,2.02946 -0.078,2.0928 1.1845,0.0262 2.8751,0.64636 3.7567,1.37807 2.1866,1.81472 10.1389,-0.39235 12.9142,-3.58418 1.5347,-1.76505 2.3243,-2.04785 3.3473,-1.19883 0.812,0.67393 2.9331,0.85621 5.3904,0.46325 3.3718,-0.53916 4.9885,-0.13374 9.6345,2.41602 3.0706,1.68515 6.3798,4.07714 7.354,5.31555 0.9741,1.23841 3.3705,3.11295 5.3252,4.16564 1.9547,1.0527 4.0609,3.13759 4.6803,4.6331 0.6195,1.4955 1.9763,3.4883 3.0151,4.42843 3.2439,2.93564 7.9285,16.65061 7.9285,23.21187 0,7.56795 1.3733,9.46754 6.5399,9.04628 l 3.96,-0.32289 -0.1149,-5.5 c -0.1486,-7.11304 -5.6544,-23.609 -9.0752,-27.1903 -3.1905,-3.3403 -2.6289,-6.84702 0.7208,-4.50076 3.7242,2.60855 10.9663,14.57331 12.105,19.99897 0.5993,2.85565 1.7734,5.96822 2.6091,6.91682 2.7081,3.07392 1.8211,13.80378 -2.4123,29.18411 -3.1764,11.53987 -3.9652,23.43669 -1.9951,30.09116 1.4213,4.80052 4.6617,14.69432 6.878,21 0.5799,1.65 1.266,4.6875 1.5246,6.75 0.269,2.14625 1.0202,3.75 1.7565,3.75 0.7075,0 2.0426,1.88992 2.9668,4.19983 0.9243,2.3099 2.999,5.70151 4.6105,7.53691 5.8571,6.67097 8.0848,12.74111 9.0685,24.71088 0.8946,10.885 0.4683,18.05699 -1.1321,19.04611 -1.6388,1.01281 -7.8063,14.34038 -8.4791,18.32269 -0.4162,2.46284 -0.2132,5.42064 0.5089,7.4176 1.0503,2.90443 0.9353,3.75722 -0.9157,6.79367 -2.7736,4.54974 -2.6768,7.27312 0.3757,10.56681 2.8471,3.07206 2.8855,3.26157 1.4326,7.083 -1.406,3.698 0.4434,17.12557 3.7995,27.58577 2.9582,9.21991 2.3649,10.73673 -4.1995,10.73673 -5.1705,0 -7.4834,-2.21482 -8.2454,-7.89565 -0.3478,-2.59342 -1.1522,-4.24411 -2.2355,-4.58796 -1.5614,-0.49555 -4.2692,-6.1079 -6.9479,-14.40041 -0.7785,-2.40982 -0.8017,-7.59165 -0.081,-18 1.1691,-16.87687 2.2005,-21.52645 6.4587,-29.11598 4.3438,-7.74222 5.5228,-12.4951 5.4863,-22.11602 -0.034,-9.04763 -0.872,-11.08386 -5.561,-13.51654 -3.2535,-1.68793 -3.9485,-1.24753 -2.45,1.55244 0.6155,1.15015 1.3689,4.90119 1.6742,8.33565 0.4509,5.0725 0.049,7.82966 -2.1436,14.69062 -1.4843,4.64539 -3.4035,9.52179 -4.2649,10.83645 -1.5471,2.36114 -2.2867,5.5114 -4.2772,18.2174 -2.0093,12.82575 -2.1746,20.31173 -0.6148,27.83931 0.8364,4.03661 2.1857,8.08661 2.9984,9 2.0694,2.32586 3.5066,19.60597 1.5771,18.96282 -1.559,-0.51967 -2.6635,-3.8851 -2.8067,-8.55161 -0.055,-1.78721 -1.187,-5.38721 -2.516,-8 -6.2385,-12.26479 -6.9946,-15.48772 -8.2077,-34.98634 -0.7112,-11.43017 -1.5672,-13.04544 -5.8736,-11.08331 -4.5846,2.0889 -5.7396,-0.68758 -5.2752,-12.68087 0.333,-8.59786 0.7798,-10.73665 3.1869,-15.2538 l 2.7995,-5.25379 -1.6661,-7.24621 c -0.9164,-3.98541 -2.0894,-8.02759 -2.6068,-8.98263 -0.5174,-0.95504 -0.9407,-2.43547 -0.9407,-3.28984 0,-0.85437 -0.8391,-3.22298 -1.8648,-5.26357 -1.0256,-2.04059 -2.1797,-5.51016 -2.5646,-7.71016 -0.385,-2.2 -1.5034,-5.8 -2.4855,-8 -6.3604,-14.24769 -8.5353,-23.42495 -7.6505,-32.28117 0.3451,-3.45465 1.2789,-7.72965 2.0749,-9.5 1.9741,-4.39006 5.4905,-20.05929 5.4905,-24.46587 0,-1.97403 -0.4685,-6.55099 -1.0411,-10.17105 -0.5726,-3.62005 -1.2649,-8.02793 -1.5385,-9.79529 -0.2846,-1.83898 -2.4055,-5.44898 -4.9588,-8.44023 -2.4539,-2.87477 -4.4616,-5.63221 -4.4616,-6.12766 0,-0.49544 -1.5817,-2.74872 -3.515,-5.0073 -5.4895,-6.41327 -15.5416,-10.64574 -28.7271,-12.09564 -4.9334,-0.54248 -6.0264,-0.34727 -7.7595,1.38586 -1.9203,1.92032 -1.9401,2.19706 -0.4119,5.75782 0.883,2.05729 2.7666,7.11553 4.1857,11.24053 1.4191,4.125 3.1585,8.88126 3.8653,10.56946 1.417,3.38464 1.5364,7.4408 0.9991,33.93054 -0.3799,18.73281 -1.7377,31.9519 -3.6485,35.52226 -1.4042,2.6239 -0.2823,18.05103 1.4166,19.47774 0.6549,0.55 2.8581,4.00043 4.8959,7.66762 2.0379,3.6672 4.0679,6.8172 4.5112,7 0.4434,0.18281 2.246,2.80738 4.0059,5.83238 4.5062,7.74553 10.1553,13.60527 14.9755,15.53392 2.9785,1.19177 4.8433,2.8765 6.7104,6.06234 2.302,3.92813 2.4882,4.9475 1.6978,9.29618 -0.4883,2.68635 -0.6796,6.30226 -0.4253,8.03536 0.2963,2.01851 -0.1058,3.77904 -1.1186,4.89819 -3.4541,3.8168 -6.8065,24.19697 -7.0195,42.67401 -0.1111,9.63368 0.2068,12.68726 1.6118,15.48519 2.7848,5.54529 1.8615,14.73494 -1.9217,19.12702 -3.7396,4.34162 -3.8684,13.25172 -0.2053,14.20965 2.2965,0.60055 12.4568,-2.64543 14.8075,-4.73064 1.8677,-1.65677 8.0517,-3.45147 9.8197,-2.84987 2.5016,0.85117 1.2996,4.21111 -2,5.59033 -4.6478,1.9428 -6.161,4.03176 -4.7842,6.6044 1.9045,3.55847 4.7566,2.51251 7.4428,-2.72943 0.9282,-1.81135 2.9035,-3.81086 4.3895,-4.44337 1.4861,-0.6325 3.4217,-1.7464 4.3013,-2.47532 0.8797,-0.72893 4.0297,-1.42942 7,-1.55664 l 5.4006,-0.23132 0.3104,3.75 c 0.3628,4.38338 1.4957,4.65481 7.2263,1.73131 5.4518,-2.7813 12.1812,-3.62863 13.7553,-1.73198 1.0097,1.21662 0.2762,2.08624 -4.3515,5.15885 -4.336,2.87893 -5.4961,4.18132 -5.25,5.8937 0.242,1.6835 0.9005,2.13549 2.8128,1.93062 4.8022,-0.5145 12.7788,-3.23567 15.1277,-5.16071 2.0508,-1.68068 2.2011,-2.21717 1.119,-3.99309 -1.7955,-2.94699 -1.5439,-4.76858 0.7414,-5.3662 1.4513,-0.37952 2.3348,0.19908 3.2574,2.13337 1.8566,3.89237 5.7854,3.94754 12.8531,0.1805 5.334,-2.843 6.4079,-3.06801 11.7545,-2.46312 3.9197,0.44347 6.114,0.29365 6.5729,-0.44877 0.3788,-0.61296 1.7029,-1.11448 2.9424,-1.11448 1.7586,0 2.7609,1.15309 4.5635,5.25 4.3372,9.85716 4.3839,10.20843 2.5953,19.51788 -2.8457,14.81267 -5.2534,20.00323 -10.5485,22.74147 -2.5164,1.30127 -19.2397,3.21349 -23.982,2.7422 -1.375,-0.13665 -8.309,0.17544 -15.4088,0.69352 -10.6546,0.77747 -13.3964,0.68988 -15.7004,-0.50155 -3.8732,-2.00294 -8.4733,-1.80262 -11.6813,0.50867 -3.367,2.42593 -1.8605,2.36751 -62.7095,2.43182 -8.8,0.009 -16.9,-0.0354 -18,-0.0994 -6.0196,-0.34998 -26.6156,0.54359 -29.0996,1.26251 -1.5952,0.46171 -5.3754,0.91472 -8.4004,1.0067 -39.8965,1.21309 -61.2362,1.76301 -80,2.06159 -27.1277,0.43167 -41.6673,0.9021 -53,1.71484 -4.675,0.33527 -11.425,0.23468 -15,-0.22352 -3.5828,-0.45921 -5.0414,-0.89451 -3.25,-0.96993 3.1544,-0.13279 6.5396,-2.50538 7.4434,-5.21694 0.2631,-0.78936 2.6516,-1.55164 5.875,-1.875 4.6734,-0.46882 5.4762,-0.85897 5.7512,-2.79488 0.3321,-2.33877 -1.1941,-3.071 -2.385,-1.14417 -0.4579,0.74102 -3.0341,0.89455 -7.809,0.46539 -5.7818,-0.51965 -8.9172,-0.1782 -16.6256,1.81059 -5.225,1.34806 -10.6625,2.899 -12.0834,3.44654 -2.8758,1.10816 -4.0666,0.62049 -5.6854,-2.32835 -0.8473,-1.54347 -2.1974,-2.02378 -5.9145,-2.10417 -2.6492,-0.0573 -7.9486,-0.63134 -11.7766,-1.27566 -5.2005,-0.87535 -10.6206,-0.89816 -21.4411,-0.0902 -7.9647,0.59469 -16.1351,0.80185 -18.1564,0.46035 -3.238,-0.54705 -3.7459,-0.35018 -4.2703,1.65493 l -0.5951,2.27585 -2.2886,-2.13343 c -2.7865,-2.59766 -10.4867,-2.5787 -15.4889,0.0381 -1.7602,0.92085 -5.1926,1.67425 -7.6276,1.67425 -5.0898,0 -7.1912,1.79557 -6.2924,5.37671 0.7526,2.99827 2.4403,3.67692 6.749,2.71382 2.0347,-0.4548 4.485,-0.29539 6.1801,0.40205 l 2.8088,1.15562 -4.1845,1.25372 c -2.9379,0.88021 -16.1386,1.37801 -44.3088,1.67091 -22.06836,0.22946 -42.82427,0.63809 -46.12427,0.90807 -5.521,0.45168 -9.76884,-0.54539 -8.35347,-1.96077 1.201,-1.201 13.60895,-2.64645 21.35347,-2.48755 4.4,0.0903 13.625,-0.17203 20.49997,-0.5829 6.875,-0.41087 15.425,-0.59623 19,-0.41192 16.0279,0.82634 17.4703,0.67242 17.8347,-1.9031 0.1841,-1.30093 -0.1276,-2.82761 -0.6926,-3.39263 -0.5797,-0.57966 -7.9041,-1.20008 -16.8094,-1.42384 -18.1756,-0.45668 -21.5994,-1.54573 -22.1405,-7.04235 -0.16927,-1.71979 -0.93002,-3.64331 -1.69053,-4.27448 -0.76052,-0.63117 -1.15276,-1.74696 -0.87165,-2.47952 0.69878,-1.82097 -4.91803,-2.97324 -7.57134,-1.55323 -2.67583,1.43206 -2.84234,6.03139 -0.21836,6.03139 2.0439,0 7.39415,6.81164 6.49411,8.26794 -0.31418,0.50836 -1.98045,0.62384 -3.70282,0.2566 -1.72237,-0.36723 -4.70658,-0.74798 -6.63158,-0.84611 -2.80921,-0.14321 -3.44329,0.16136 -3.21269,1.54315 0.18967,1.13648 -0.58271,1.93995 -2.27259,2.36408 -3.13868,0.78776 -15.29457,-0.42044 -16.01872,-1.59213 -0.51931,-0.84027 0.40647,-1.22973 5.74814,-2.41817 1.50928,-0.33579 2.69349,-0.94011 2.63158,-1.34294 -0.34369,-2.23633 0.59573,-3.39496 5.1402,-6.33968 4.42142,-2.86498 8.77804,-8.43211 7.55542,-9.65474 -0.24054,-0.24053 -2.07182,0.1021 -4.06952,0.7614 -4.27918,1.41226 -10.08364,0.57026 -11.32188,-1.64235 -1.26658,-2.26325 -4.69549,-1.26593 -4.60951,1.3407 0.0635,1.92334 -0.63152,2.2042 -7,2.82895 -3.88873,0.38149 -8.4343,1.25487 -10.10124,1.94085 -1.66695,0.68598 -5.57182,1.56471 -8.6775,1.95274 -5.50702,0.68806 -5.74724,0.61467 -9.71191,-2.96718 -5.02029,-4.53552 -7.07978,-4.09467 -7.07978,1.51551 0,2.21726 -0.45,4.03138 -1,4.03138 -0.55,0 -1,0.88844 -1,1.97432 0,2.93879 4.62801,4.8427 9.5,3.90819 5.35501,-1.02716 14.69011,-1.04851 16.28387,-0.0372 0.70613,0.44805 1.00271,1.54732 0.65908,2.44282 -0.46177,1.20334 0.11648,1.79239 2.21613,2.25752 1.56251,0.34614 3.29092,0.76134 3.84092,0.92267 1.62625,0.47703 -4.38765,2.53173 -7.41011,2.53173 -1.52895,0 -3.5944,0.9 -4.58989,2 -1.77789,1.96455 -1.74663,2 1.76322,2 4.73147,0 6.73107,0.85129 6.06665,2.58276 -0.61749,1.60915 -6.35052,1.66528 -30.28503,0.29651 z m 352.45513,-9.87927 c -0.3399,-0.55 -1.2399,-1 -2,-1 -0.7601,0 -1.66,0.45 -2,1 -0.3519,0.5694 0.5093,1 2,1 1.4907,0 2.3519,-0.4306 2,-1 z m 52.662,-5.02913 c 13.3859,-0.0417 25.463,-0.0372 26.838,0.01 1.375,0.0472 5.1204,0.043 8.323,-0.009 3.2132,-0.0526 6.4734,0.44453 7.2742,1.10911 1.9726,1.63712 2.1683,1.24896 2.5613,-5.08063 l 0.3415,-5.5 -6.4684,-0.30339 c -4.414,-0.20703 -7.6247,0.21805 -10.1092,1.33838 -3.4776,1.5682 -3.8707,1.54281 -8.7741,-0.56653 -4.9285,-2.12023 -5.2388,-2.13915 -7.7794,-0.47447 -1.9676,1.28918 -3.957,1.60708 -7.7575,1.23961 -2.8113,-0.27181 -8.0364,-0.10188 -11.6114,0.37762 -7.3376,0.98418 -44.0809,3.06017 -57,3.2205 -4.675,0.058 -9.85,-0.24583 -11.5,-0.67521 -3.6785,-0.95727 -6.9436,1.02383 -5.9509,3.61073 1.0504,2.73725 7.2977,4.03511 16.061,3.3366 22.0608,-1.75842 29.0757,-1.83236 31.9306,-0.33654 2.4087,1.26206 3.2962,1.28099 6.0529,0.12916 2.3921,-0.99947 9.5462,-1.36942 27.5684,-1.42559 z m -425.62388,0.82982 c 2.17841,-0.99255 2.53637,-1.67839 2.07638,-3.97833 -0.40811,-2.04053 0.085,-3.51558 1.85564,-5.5507 l 2.41144,-2.77166 2.20447,2.17303 2.20448,2.17302 -2.86275,2.46244 c -2.46788,2.12278 -2.67793,2.68514 -1.52281,4.07697 1.85065,2.2299 7.88653,2.03906 11.84506,-0.3745 2.94228,-1.79394 3.25,-2.43744 3.25,-6.79626 0,-7.2416 -2.38354,-8.59657 -10.20818,-5.80302 -3.41188,1.2181 -4.11943,1.12037 -8.85484,-1.22316 -4.9762,-2.46269 -5.33054,-2.49972 -10.69821,-1.11779 -6.83943,1.76084 -8.3694,3.74526 -5.99135,7.77096 1.63356,2.76541 1.62194,2.96656 -0.27024,4.67896 -1.08745,0.98413 -1.97718,2.10081 -1.97718,2.48152 0,2.64002 11.86035,3.92984 16.53809,1.79852 z m -32.11988,-0.40768 c 0.86999,-0.33384 1.58179,-0.99847 1.58179,-1.47695 0,-1.50338 -4.64561,-3.98928 -6.28178,-3.36143 -1.79479,0.68873 -2.99027,3.19617 -2.16245,4.53561 0.64053,1.0364 4.50619,1.20695 6.86244,0.30277 z m 369.04346,-0.74131 c 2.3277,-1.70206 1.3275,-3.42401 -3.0516,-5.25373 -4.5031,-1.88152 -9.0038,-1.75948 -15.6211,0.42358 -3.5028,1.15558 -6.3062,1.53125 -7.6679,1.02753 -2.6848,-0.99318 -8.3193,0.0563 -7.8506,1.46229 0.8033,2.40991 3.6146,3.13198 7.1776,1.84355 3.0128,-1.08942 3.8672,-1.04748 5.7669,0.28308 2.9188,2.04439 18.5284,2.20139 21.2467,0.2137 z M 1388.864,11.0775 c 5.2577,-1.50788 6.4762,-4.18024 2.8137,-6.17072 -2.7769,-1.50918 -15.4951,-2.06897 -16.3296,-0.71874 -0.3347,0.54167 -0.3278,2.10377 0.015,3.47132 0.997,3.97236 6.6116,5.39388 13.5005,3.41814 z m 29.0637,-1.01491 c 0,-2.17232 -0.23,-2.24365 -12.8497,-3.98502 -4.5924,-0.63369 -8.6265,-0.87547 -8.9646,-0.53729 -1.1308,1.13075 1.4722,4.00777 4.5409,5.01895 1.6691,0.55 6.2385,1.10544 10.1541,1.23431 6.4902,0.2136 7.1193,0.0606 7.1193,-1.73095 z M 1059.3631,9.53298 c 9.8644,-0.24445 18.2978,-0.80688 18.7407,-1.24983 0.443,-0.44296 0.1467,-1.74583 -0.6584,-2.89527 -1.1151,-1.59199 -3.0023,-2.25465 -7.9216,-2.78146 -3.8508,-0.41238 -7.2209,-0.28314 -8.3482,0.32013 -2.7011,1.44564 -24.0426,2.11062 -28.428,0.8858 -3.1014,-0.8662 -4.3251,-0.6917 -7.7808,1.10951 -2.2554,1.17556 -4.7352,2.13737 -5.5108,2.13737 -1.8027,0 -2.8492,1.67163 -1.9538,3.12052 0.4859,0.78618 4.1587,0.92317 12.309,0.45911 6.3891,-0.36378 19.6874,-0.86142 29.5519,-1.10588 z m 25.9932,-2.04518 c 3.0476,-3.04756 1.3113,-3.35396 -2.4286,-0.42857 -1.9357,1.51415 -2.1211,1.96055 -0.8214,1.97776 0.9232,0.0122 2.3857,-0.6849 3.25,-1.54919 z M 846.32701,6.2222 c 0.86467,-1.39907 -2.38382,-5.16297 -4.45598,-5.16297 -1.36917,0 -1.9433,0.68936 -1.9433,2.33333 0,1.28334 0.3,2.63334 0.66667,3 0.94995,0.94995 5.11675,0.82612 5.73261,-0.17036 z m 21.95146,-0.27691 c 2.47007,-1.12544 4.4446,-6.536 2.91176,-7.97874 -0.75403,-0.7097 -9.54619,-1.37274 -14.13494,-1.06594 -1.90771,0.12755 -2.14608,0.43138 -1.21685,1.55103 0.63558,0.76583 2.4964,1.9478 4.13517,2.62659 1.72108,0.7129 3.23116,2.23664 3.57525,3.60759 0.67245,2.67927 1.26636,2.83743 4.72961,1.25947 z M 1006.4277,4.05923 c 0.3399,-0.55 3.762,-1 7.6045,-1 6.1497,0 7.2909,-0.30445 9.5285,-2.54207 2.1243,-2.12431 2.3321,-2.79507 1.2645,-4.08153 -2.15,-2.5906 -16.4468,-0.51643 -22.6143,3.28087 -3.01335,1.85532 -3.11046,2.08687 -1.5357,3.66165 1.8698,1.86976 4.8032,2.21707 5.7525,0.68108 z m -85.49997,-9 c 0,-0.55 -0.19844,-1 -0.44098,-1 -0.24254,0 -0.7191,0.45 -1.05902,1 -0.33992,0.55 -0.14148,1 0.44098,1 0.58246,0 1.05902,-0.45 1.05902,-1 z m 220.13777,-3.91725 c 3.4992,-1.60448 7.7663,-3.2024 9.4823,-3.55091 2.6712,-0.54251 3.2125,-0.30268 3.7628,1.66725 0.6377,2.28234 0.6669,2.27456 3.63,-0.96487 1.6429,-1.79617 2.9871,-4.08023 2.9871,-5.07568 0,-2.35102 3.7597,-5.82654 7.2363,-6.68937 2.372,-0.58869 2.9711,-0.24489 4.5,2.58248 2.3271,4.30339 5.1099,7.16144 6.273,6.4426 0.515,-0.31828 1.416,-2.35969 2.0021,-4.53647 0.9307,-3.45652 1.4333,-3.95778 3.9682,-3.95778 1.5963,0 3.1726,0.43719 3.5028,0.97153 1.0161,1.64407 9.7484,5.09253 11.4303,4.51394 0.8731,-0.30031 2.8762,-2.58208 4.4514,-5.0706 2.5233,-3.98608 3.2373,-4.48829 6,-4.21972 2.8575,0.27778 3.1853,0.67457 3.6917,4.46831 0.3056,2.2899 1.1847,4.92141 1.9536,5.8478 2.108,2.54004 7.4202,1.23679 12.0657,-2.9601 4.3009,-3.88564 6.0309,-4.33339 7.9249,-2.05116 0.6847,0.825 2.3063,1.5 3.6034,1.5 4.7953,0 3.9975,-8.21249 -1.8309,-18.84696 -6.3949,-11.66813 -6.0712,-9.98649 -5.3793,-27.94256 0.5961,-15.47177 0.816,-16.89727 3.263,-21.1502 3.1859,-5.53709 6.7557,-9.21444 11.1223,-11.4572 1.8032,-0.92614 5.6282,-4.18594 8.5,-7.244 2.8718,-3.05806 8.034,-8.35891 11.4715,-11.77966 5.5928,-5.56556 6.25,-6.64104 6.25,-10.22804 0,-6.1522 -4.4644,-12.02956 -13.4719,-17.73558 -4.15,-2.62896 -8.0049,-5.63834 -8.5664,-6.68751 -0.5615,-1.04917 -2.2783,-2.5578 -3.8151,-3.35251 -3.5607,-1.84127 -8.1466,-8.7234 -8.1466,-12.2256 0,-3.2923 -2.5803,-6.3391 -5.405,-6.38198 -1.1522,-0.0175 -2.8975,-0.64062 -3.8784,-1.38472 -1.5166,-1.15044 -2.6898,-1.07085 -7.8391,0.5318 -3.3306,1.0366 -8.8855,1.88472 -12.3441,1.88472 -4.3698,0 -6.6683,0.45766 -7.5334,1.5 -0.6847,0.825 -2.8773,1.50689 -4.8724,1.51531 -1.9952,0.008 -4.2357,0.40066 -4.9789,0.87164 -0.7868,0.49858 -3.0845,0.34373 -5.5,-0.37065 -4.5237,-1.33788 -6.1936,-1.08871 -8.9762,1.33933 -1.2396,1.08162 -4.1351,1.66875 -9,1.82495 -3.9449,0.12665 -12.7906,0.40412 -19.6572,0.61659 -6.8667,0.21247 -14.0667,-0.0398 -16,-0.56055 -1.9334,-0.52077 -6.8903,-0.88654 -11.0153,-0.81282 -4.125,0.0737 -10.65,-0.27282 -14.5,-0.77009 -7.7806,-1.00496 -10.1327,-0.2045 -8.479,2.88555 1.5065,2.81487 1.162,13.21256 -0.6515,19.66195 -0.8968,3.18933 -1.973,8.94879 -2.3915,12.79879 -0.4186,3.85 -1.4712,10.52922 -2.3391,14.84272 -1.2399,6.16237 -1.3492,8.90947 -0.5102,12.82156 1.1147,5.19793 0.851,9.34024 -1.0657,16.7353 -0.8563,3.30409 -0.8516,6.66558 0.019,13.5 0.6375,5.00523 1.3782,11.12542 1.646,13.60042 0.2677,2.475 0.8342,4.95 1.2588,5.5 0.4246,0.55 1.4853,3.48917 2.3571,6.53149 1.5514,5.41384 1.5334,5.63717 -0.848,10.5 -2.9808,6.08675 -3.0853,8.08262 -0.4957,9.46851 3.0194,1.61593 2.5295,5.70293 -1.0887,9.08282 -3.0251,2.82587 -3.4384,4.90814 -1.1272,5.67854 0.6375,0.2125 2.243,-0.69753 3.5678,-2.0223 3.0442,-3.04429 10.9958,-7.73906 13.1076,-7.73906 2.494,0 2.8923,2.59591 0.9125,5.94739 -1.6844,2.85152 -1.6929,3.16025 -0.1301,4.72305 1.5628,1.5628 1.9316,1.55509 5.6419,-0.11803 2.1834,-0.98457 5.2402,-3.12681 6.793,-4.76054 6.0042,-6.31731 12.1818,-7.46459 17.2465,-3.20298 3.4357,2.89097 3.9156,4.41111 1.3924,4.41111 -2.7365,0 -10.266,4.03865 -11.3678,6.09741 -1.1951,2.23301 0.3436,5.90259 2.475,5.90259 0.7439,0 4.2156,-1.31276 7.7148,-2.91725 z M 923.38973,-17.4011 c -1.71642,-4.49438 -6.29785,-8.37719 -8.37197,-7.09531 -2.17865,1.34648 -1.85003,6.05263 0.63026,9.02602 3.63923,4.36274 6.42458,5.75102 8.14878,4.06155 1.15791,-1.13459 1.09512,-2.05883 -0.40707,-5.99226 z m 563.53797,-0.58767 c 0,-1.24274 -3.2758,-2.07614 -4.2665,-1.08545 -0.5127,0.51267 -0.6217,1.91028 -0.2422,3.10581 0.6577,2.07234 0.7789,2.09312 2.5993,0.44568 1.0502,-0.95041 1.9094,-2.06013 1.9094,-2.46604 z m -554.33769,-1.202 c -0.27741,-0.6875 -0.50439,-0.125 -0.50439,1.25 0,1.375 0.22698,1.9375 0.50439,1.25 0.27741,-0.6875 0.27741,-1.8125 0,-2.5 z m 352.04719,-1.48936 c -0.288,-1.50664 -0.07,-3.58647 0.4838,-4.62183 0.7804,-1.45812 0.5403,-2.3497 -1.0651,-3.95509 -1.1399,-1.13993 -2.3743,-1.77089 -2.7431,-1.40211 -0.5366,0.53658 -0.8501,8.54342 -0.4686,11.96839 0.046,0.4125 1.036,0.75 2.2001,0.75 1.7678,0 2.0303,-0.45143 1.5929,-2.73936 z m -31.7248,-1.01064 c -0.012,-2.14294 -0.2293,-2.41887 -0.9847,-1.25 -1.2644,1.95653 -1.2644,4 0,4 0.55,0 0.9931,-1.2375 0.9847,-2.75 z m 248.7092,-0.89461 c 0.7189,-1.87357 -2.0646,-4.35539 -4.885,-4.35539 -2.2153,0 -6.1073,3.70809 -5.2863,5.03647 0.3275,0.52994 2.608,0.96353 5.0678,0.96353 3.2278,0 4.648,-0.45769 5.1035,-1.64461 z m -554.69387,-1.88677 c 0,-2.74433 -2.50183,-4.36679 -4.16655,-2.70207 -1.55358,1.55358 0.0172,5.23345 2.23394,5.23345 1.40117,0 1.93261,-0.69609 1.93261,-2.53138 z m 412.81957,-0.21862 c 0.2783,-1.95999 -0.1248,-2.25 -3.1276,-2.25 -3.6017,0 -6.3501,2.12604 -5.1852,4.01102 0.3735,0.60425 2.3247,0.96146 4.3361,0.79381 2.9177,-0.2432 3.7217,-0.75974 3.9767,-2.55483 z m -100.8196,-2.1117 c 0,-0.47393 2.5416,-0.82495 5.648,-0.78005 4.9108,0.071 5.8571,-0.23366 7.25,-2.33402 4.1893,-6.3169 4.297,-6.36979 13.9144,-6.8296 5.0017,-0.23914 10.69,-0.13536 12.6408,0.2306 3.0186,0.5663 3.5491,1.06821 3.5621,3.37008 0.01,1.48758 0.4242,3.35075 0.9238,4.14039 1.2803,2.02327 3.6427,-0.0944 4.4154,-3.95813 0.6894,-3.44713 1.8906,-3.63995 9.0831,-1.45812 6.8244,2.07014 17.1673,1.023 20.0169,-2.02655 1.1251,-1.20396 5.4774,-5.74489 9.6719,-10.09096 4.5786,-4.74401 9.4324,-11.11146 12.1455,-15.93297 4.2788,-7.60408 4.5833,-8.66734 5.7281,-20 1.4646,-14.49862 1.6147,-19.16736 0.7251,-22.55098 -1.7914,-6.8138 -23.5033,-32.91799 -27.3792,-32.91799 -1.0985,0 -3.0882,-1.16776 -4.4216,-2.59501 -1.3333,-1.42726 -3.7743,-3.29068 -5.4243,-4.14094 -1.65,-0.85026 -5.925,-4.42542 -9.5,-7.9448 -3.575,-3.51939 -7.8749,-7.73097 -9.5554,-9.35907 -1.8496,-1.79192 -4.1188,-2.96018 -5.75,-2.96018 -2.6299,0 -2.6946,0.14548 -2.6946,6.06574 0,6.70714 0.6858,8.48069 5.6595,14.63584 1.8673,2.31088 4.0716,6.11914 4.8985,8.46281 1.4186,4.02055 1.3862,4.41985 -0.573,7.06984 -1.1421,1.54474 -1.7767,3.29376 -1.4102,3.88671 1.3118,2.12249 -16.8103,17.18061 -24.8777,20.67154 -1.6266,0.70387 -3.2415,2.47082 -3.8478,4.21021 -0.5747,1.64852 -1.366,2.99731 -1.7585,2.99731 -0.3925,0 -1.6283,0.85216 -2.7463,1.89369 -1.1179,1.04152 -3.4169,2.60954 -5.1089,3.48448 -1.6919,0.87494 -4.7413,3.62278 -6.7764,6.10631 -3.8009,4.63859 -5.6487,5.29756 -9.6905,3.456 -2.8499,-1.29854 -7.7687,0.28451 -7.7687,2.50029 0,0.81965 -1.35,2.8713 -3,4.55923 -3.5506,3.63224 -4.0629,9.39194 -1.2578,14.14061 1.568,2.6544 2.185,2.91972 6.1733,2.65429 4.3521,-0.28964 4.4594,-0.38248 6.0079,-5.20235 1.6494,-5.13394 4.8958,-8.30675 5.8351,-5.70292 0.2757,0.7643 2.9847,4.31702 6.0199,7.89493 5.2902,6.23602 5.4711,6.63675 4.3701,9.68136 -0.6316,1.74684 -1.1485,4.31827 -1.1485,5.71429 0,1.54845 -1.6518,4.44534 -4.236,7.429 -5.2839,6.10045 -5.6462,6.35672 -9.014,6.37548 -3.2071,0.0179 -3.2866,0.26665 -1.135,3.55049 1.5485,2.36318 4.385,3.40021 4.385,1.60312 z m 121.5,-4.04301 c 0,-0.75752 -0.8003,-1.87636 -1.7784,-2.4863 -2.2592,-1.40872 -4.232,1.07107 -2.5063,3.15036 1.3677,1.648 4.2847,1.19592 4.2847,-0.66406 z m -294.5066,-2.09173 c 1.297,-0.69412 2.0646,-2.61919 2.5301,-6.34524 0.6035,-4.83034 0.3542,-5.90535 -2.572,-11.09038 -1.7822,-3.15787 -3.8265,-5.9665 -4.5429,-6.24141 -3.1896,-1.22396 -8.6439,5.60019 -10.0349,12.55518 -0.5247,2.62332 -0.01,3.66293 3.759,7.56331 4.4384,4.59548 7.2201,5.50693 10.8607,3.55854 z m 278.0066,-14.50356 c 0.6847,-0.825 2.0525,-1.5 3.0396,-1.5 0.987,0 3.8569,-0.88401 6.3775,-1.96446 3.7146,-1.59226 4.5829,-2.44271 4.5829,-4.48857 0,-1.38826 -0.775,-3.42925 -1.7222,-4.53554 -2.8991,-3.38593 -6.2391,-2.47284 -12.5278,3.42489 -5.2304,4.90526 -6.8743,8.10597 -5.0833,9.89701 1.1678,1.16779 4.0458,0.71811 5.3333,-0.83333 z m 21.0478,-10.12564 c 0.7608,-2.00103 0.5491,-3.82962 -0.8897,-7.68667 -1.7856,-4.78669 -1.9522,-4.94095 -3.0735,-2.84573 -0.6521,1.21841 -1.4453,4.40835 -1.7628,7.08875 -0.5863,4.95101 -0.3485,5.30924 3.953,5.95329 0.4261,0.0638 1.224,-1.06554 1.773,-2.50964 z m 73.0082,-2.02151 c 0.803,-2.11211 0.4676,-4.08276 -1.6593,-9.75 -3.1515,-8.39736 -3.5964,-8.99164 -6.1285,-8.18795 -1.7583,0.55805 -1.858,1.16348 -1.1023,6.68958 0.4764,3.48386 1.6849,7.16158 2.8325,8.62062 1.1009,1.39954 2.0016,3.15893 2.0016,3.90976 0,2.40938 3.0148,1.45646 4.056,-1.28201 z M 992.3548,-78.5107 c 2.76025,-2.76025 3.04021,-6.30377 0.69523,-8.79988 -1.16726,-1.2425 -2.1223,-3.5022 -2.1223,-5.02156 0,-1.73547 -1.11419,-3.87667 -2.99698,-5.75946 -5.08562,-5.08562 -8.82191,-2.20159 -5.57632,4.30435 2.13764,4.28501 1.99167,5.33483 -0.9267,6.66453 -5.45207,2.48413 -1.21614,10.18195 5.60289,10.18195 2.0781,0 4.45517,-0.70092 5.32418,-1.56993 z m 80.2665,-27.50518 c 3.2448,-9.31084 -0.074,-17.71306 -6.3395,-16.05008 -2.4215,0.64272 -2.9023,1.33582 -3.1723,4.57314 -0.175,2.09858 0.1625,4.29631 0.75,4.88383 0.5875,0.58752 1.0699,1.76572 1.072,2.61822 0.01,2.44451 3.9264,8.23908 5.2762,7.79825 0.671,-0.21916 1.7571,-1.93967 2.4136,-3.82336 z m 305.5495,-12.03512 c -0.7189,-6.68777 -2.617,-13.16166 -4.8035,-16.38365 -1.3418,-1.97721 -2.4396,-4.96628 -2.4396,-6.64237 0,-3.52896 -1.656,-5.81716 -12.25,-16.92639 -5.754,-6.03385 -7.75,-8.82365 -7.75,-10.83214 0,-3.46224 -1.6734,-5.10522 -5.2,-5.10522 -2.3,0 -2.8,-0.43477 -2.8,-2.4349 0,-1.3392 -0.4582,-3.64009 -1.0182,-5.11309 -1.0314,-2.71265 -2.59,-2.92743 -7.1878,-0.99049 -1.5063,0.63456 -1.5974,0.32761 -0.778,-2.6214 0.5767,-2.07555 3.0259,-5.23311 6.4691,-8.34012 6.3786,-5.75578 8.9765,-11.50376 5.1951,-11.49488 -1.1991,0.003 -3.9802,1.11378 -6.1802,2.46879 -8.7577,5.39403 -10.5438,1.981 -3.1232,-5.96807 8.948,-9.58534 12.7593,-14.56098 12.4366,-16.23636 -0.7674,-3.9848 -3.9299,-2.37294 -12.3448,6.29186 -7.5538,7.77816 -8.4686,8.43905 -8.4686,6.11829 0,-1.58811 1.7074,-4.698 4.3823,-7.98201 2.4102,-2.95912 4.6843,-6.33187 5.0534,-7.495 0.3692,-1.16313 2.0721,-3.29357 3.7844,-4.7343 5.2854,-4.44743 8.4779,-12.30086 5.6987,-14.01854 -0.5947,-0.36754 -2.366,0.5626 -3.9363,2.06697 -1.5702,1.50438 -3.8941,3.25333 -5.1643,3.88656 -1.2701,0.63323 -3.3575,3.05154 -4.6387,5.37401 -1.2811,2.32247 -2.9706,4.22268 -3.7544,4.22268 -2.6923,0 -1.4445,-4.71435 2.5884,-9.77941 2.2074,-2.77237 4.7133,-6.54365 5.5687,-8.38063 0.8554,-1.83698 2.6131,-5.13996 3.9059,-7.33996 2.4807,-4.22115 3.2659,-9.5 1.4131,-9.5 -1.2433,0 -6.9012,5.77034 -6.9012,7.03837 0,0.45477 -0.8317,1.09083 -1.8482,1.41346 -1.0165,0.32264 -2.3569,1.70296 -2.9786,3.06739 -1.197,2.62713 -4.1732,3.42277 -4.1732,1.11564 0,-0.75083 1.0125,-2.63539 2.25,-4.18792 3.076,-3.85897 6.3128,-9.13704 8.639,-14.08677 1.07,-2.27691 2.4327,-4.44097 3.0283,-4.80902 1.5646,-0.967 1.3302,-5.10089 -0.3693,-6.51132 -2.1838,-1.81243 -4.714,-0.54629 -10.9201,5.46468 -3.0953,2.99801 -5.6279,4.81251 -5.6279,4.03222 0,-0.78028 0.45,-1.69681 1,-2.03673 0.55,-0.33992 1,-1.39633 1,-2.34758 0,-0.95124 0.9338,-3.51219 2.0751,-5.69098 3.9681,-7.57532 5.5608,-15.46144 3.1227,-15.46144 -1.3004,0 -6.1981,5.47707 -6.2034,6.93709 0,0.8596 -0.4686,3.2303 -1.0346,5.26822 -0.7284,2.62264 -1.4573,3.54101 -2.4944,3.14301 -1.7561,-0.67385 -1.8556,-4.07143 -0.3405,-11.61593 1.2541,-6.24474 0.6667,-10.21466 -1.6426,-11.10081 -1.0611,-0.40718 -2.047,0.48492 -3.1938,2.8897 -1.7079,3.58158 -2.7065,4.22936 -3.7978,2.46363 -0.7399,-1.19713 1.4272,-11.94452 2.7606,-13.69111 0.5065,-0.6634 0.6306,-1.6759 0.2758,-2.25 -1.0698,-1.73104 -4.0383,-1.18607 -7.9319,1.4562 -2.0262,1.375 -4.2404,2.5 -4.9204,2.5 -0.68,0 -1.8976,-1.91142 -2.7056,-4.2476 -1.2514,-3.61799 -2.0621,-4.43141 -5.4692,-5.48768 -4.9235,-1.52638 -12.3192,-5.18051 -15,-7.41128 -1.6163,-1.34503 -5.0692,-1.76203 -18,-2.17381 -8.8,-0.28024 -18.025,-0.0951 -20.5,0.41142 -2.475,0.50652 -6.75,1.39571 -9.5,1.97598 -2.75,0.58026 -6.575,1.30589 -8.5,1.6125 -1.925,0.30661 -4.0424,0.9926 -4.7054,1.52442 -0.663,0.53182 -5.6689,1.35465 -11.1242,1.82851 -5.4554,0.47386 -12.788,1.84746 -16.2946,3.05243 -5.6641,1.94633 -8.3674,2.1841 -24.219,2.13025 -13.0061,-0.0442 -18.9364,0.32507 -21.8757,1.36212 -4.5485,1.6048 -11.7811,1.9057 -11.7811,0.49013 0,-1.40905 3.5029,-2.23026 6.4057,-1.50172 1.9268,0.48361 2.746,0.2027 3.2517,-1.1151 0.8232,-2.14526 -3.613,-5.95598 -12.1795,-10.46221 -4.5932,-2.41615 -6.9038,-3.02216 -10.8386,-2.84263 -3.9754,0.1814 -5.2201,-0.15273 -6.07,-1.62957 -0.5881,-1.02176 -2.5318,-3.52294 -4.3193,-5.55816 -1.7875,-2.03522 -3.25,-4.0804 -3.25,-4.54485 0,-0.46445 -2.0061,-2.88491 -4.458,-5.3788 -2.4519,-2.49389 -6.3894,-8.32189 -8.75,-12.9511 -7.3309,-14.3762 -7.6913,-14.94925 -10.8799,-17.29625 -1.7088,-1.25785 -3.7269,-3.48047 -4.4846,-4.93916 -1.668,-3.21115 -15.396,-16.73131 -19.2002,-18.90938 -7.7332,-4.42775 -10.1924,-6.25311 -10.7373,-7.97012 -0.7253,-2.28512 -6.5338,-6.98194 -11.99,-9.69524 -2.2,-1.09403 -5.35,-2.72527 -7,-3.62497 -3.678,-2.00551 -4.9187,-2.05346 -6.4171,-0.24801 -0.883,1.06396 -0.8792,2.52305 0.016,6.07728 1.23,4.88451 3.3449,6.5226 8.4211,6.5226 1.3142,0 3.6169,1.22745 5.1171,2.72767 3.4978,3.4978 5.8333,15.92478 3.8703,20.59342 l -1.209,2.87538 -2.133,-3.84824 c -1.1731,-2.11653 -2.8715,-5.55445 -3.7742,-7.63982 -2.0581,-4.75432 -3.9807,-4.27591 -3.6191,0.90054 0.3411,4.88307 -0.5269,8.66041 -1.8082,7.86854 -1.6034,-0.99096 -4.0981,-6.45428 -6.0267,-13.19832 -2.5892,-9.05404 -9.2216,-16.86362 -11.3697,-13.38785 -0.303,0.49022 0.3099,2.85272 1.362,5.25 2.5307,5.76673 3.5421,11.44936 2.1869,12.28695 -1.048,0.64768 -9.1161,-14.32741 -9.1161,-16.92021 0,-1.22886 -6.1417,-6.50806 -7.57134,-6.50806 -0.38765,0 -0.40514,2.925 -0.0389,6.5 0.36627,3.575 0.28442,6.5 -0.1819,6.5 -0.46632,0 -2.70243,-1.58745 -4.96914,-3.52766 -3.24331,-2.77616 -4.18704,-4.32065 -4.42999,-7.25 -0.26716,-3.2215 -0.64507,-3.72234 -2.8087,-3.72234 -2.83031,0 -2.83038,0.0116 -0.0446,7.48588 1.30053,3.48951 2.0446,7.89312 2.0446,12.10078 0,7.68339 1.42594,12.53574 4.10518,13.96963 2.10548,1.12682 2.44947,4.03883 0.83373,7.05786 -0.87391,1.63291 -0.5211,2.59768 2,5.46905 2.29493,2.61379 3.06109,4.46197 3.06109,7.38421 0,3.0305 0.44881,4.04026 2.01699,4.53798 1.10934,0.35209 2.67518,2.21533 3.47958,4.14052 0.8044,1.92519 2.4842,4.32807 3.733,5.33972 1.8473,1.49655 2.2704,2.83419 2.2704,7.17687 0,5.10355 0.1228,5.35159 2.8019,5.65893 3.8187,0.43807 4.9875,3.89541 4.4555,13.17857 -0.3185,5.55667 -1.1245,8.86033 -3.1105,12.75 -1.4743,2.8875 -3.0717,5.25 -3.5498,5.25 -0.478,0 -1.5872,1.51301 -2.4647,3.36224 -0.8775,1.84923 -2.2788,3.92933 -3.1139,4.62244 -0.8352,0.69312 -1.5185,1.72692 -1.5185,2.29735 0,0.57043 -2.45196,3.6078 -5.44883,6.7497 -2.99687,3.14191 -5.75731,7.0076 -6.13431,8.59042 -0.377,1.58282 -1.26312,3.55285 -1.96916,4.37785 -0.70604,0.825 -1.76283,4.96418 -2.34842,9.19819 -0.58559,4.234 -1.16416,8.059 -1.28572,8.5 -0.12156,0.44099 0.35582,3.12376 1.06085,5.9617 0.70503,2.83794 1.14052,5.99425 0.96776,7.01401 -0.17277,1.01977 0.57958,2.82806 1.67187,4.01844 1.0923,1.19037 2.55161,2.85591 3.24292,3.7012 2.22514,2.72074 5.66231,0.51718 6.24307,-4.00241 0.48676,-3.78811 0.60901,-3.89402 4.61767,-4.00033 5.3146,-0.14094 5.6275,-0.36996 10.5245,-7.70282 2.2728,-3.40339 5.0831,-6.99149 6.2451,-7.97356 3.6587,-3.09222 11.4391,-6.71829 13.0713,-6.09194 0.8618,0.3307 2.2165,0.0622 3.0104,-0.59669 0.7939,-0.65889 1.8905,-0.92163 2.4371,-0.58387 0.5465,0.33775 1.532,-0.41101 2.19,-1.66391 0.658,-1.25291 2.9214,-4.35445 5.0297,-6.89231 2.8725,-3.45783 4.9954,-4.93969 8.4702,-5.91257 2.5504,-0.71406 5.8944,-2.35628 7.4311,-3.64938 1.5368,-1.29311 4.4094,-3.02599 6.3835,-3.85085 2.5939,-1.08378 3.5927,-2.12007 3.6013,-3.73632 0.01,-1.23012 0.7106,-4.71158 1.5647,-7.73658 0.854,-3.025 1.9366,-9.325 2.4057,-14 0.4692,-4.675 1.3895,-12.44849 2.0452,-17.27443 1.3472,-9.9148 0.6996,-16.60608 -1.9203,-19.84158 -2.0628,-2.54746 -4.1072,-1.80746 -4.1072,1.48669 0,2.97136 -3.9059,17.89178 -4.9682,18.97852 -0.4566,0.46706 -0.988,-7.05476 -1.181,-16.71516 -0.295,-14.7723 -0.6166,-17.83007 -2.0232,-19.23594 -2.5022,-2.50086 -4.5408,-1.05983 -5.3509,3.78227 -0.3974,2.3758 -1.4833,6.26553 -2.4131,8.64384 l -1.6905,4.32422 -1.1865,-6.43951 c -0.6526,-3.54173 -1.1866,-9.79497 -1.1866,-13.89608 0,-4.21217 -0.6962,-9.49985 -1.6001,-12.15263 -1.871,-5.4912 -1.3018,-7.93331 1.7435,-7.48035 2.4099,0.35845 3.1031,1.42824 4.9358,7.61799 1.1151,3.76621 1.8765,4.55767 6.1549,6.39821 4.0806,1.75541 5.2986,2.93821 7.4164,7.20214 1.3937,2.80599 4.7668,7.1268 7.4959,9.6018 4.7927,4.34646 5.0279,4.81815 6.8916,13.82445 2.5331,12.24033 1.8678,25.67145 -1.5704,31.70785 -2.4392,4.28249 -5.4676,16.99983 -5.4676,22.96072 0,4.6203 -2.1565,7.81795 -7.3356,10.87703 -2.2904,1.35285 -5.7056,4.06314 -7.5892,6.02287 -3.382,3.51847 -3.4013,3.58925 -1.5398,5.64616 2.2085,2.44039 1.8835,2.78329 -6.0354,6.36809 -3.4817,1.57614 -6.2512,2.13349 -9.1204,1.83546 -2.6484,-0.27509 -5.2843,0.17386 -7.3782,1.25666 -1.7917,0.92655 -5.45,2.33569 -8.1295,3.13142 -3.4065,1.0116 -4.8719,1.96977 -4.8719,3.18552 0,2.57004 -2.8532,6.18377 -4.8824,6.18377 -2.5871,0 -5.7814,3.90702 -7.0239,8.5912 -0.5969,2.25015 -1.9871,4.9074 -3.0894,5.90498 -4.3587,3.94449 -1.4166,6.86996 3.0929,3.07549 1.681,-1.41442 3.4589,-2.57167 3.951,-2.57167 0.492,0 1.272,-1.4625 1.7333,-3.25 0.8095,-3.13704 2.8969,-4.73645 12.9048,-9.88763 2.5764,-1.32611 5.3137,-0.53373 5.3137,1.53815 0,2.01615 -6.625,6.63925 -15.6461,10.91831 -2.5425,1.20601 -3.2815,2.29341 -3.8516,5.66763 -0.4121,2.4394 -1.9353,5.57613 -3.6638,7.54469 -2.4661,2.80876 -2.9068,4.08481 -2.6484,7.66912 0.3763,5.22091 1.8431,5.67543 10.8604,3.36531 6.7988,-1.74176 15.9495,-2.08861 15.9495,-0.60454 0,2.08644 -4.4964,4.94779 -11.1239,7.07881 -3.8275,1.23072 -7.953,3.01332 -9.1676,3.96135 -1.2147,0.94802 -3.3335,2.05744 -4.7085,2.46536 -1.375,0.40793 -3.4,1.30076 -4.5,1.98406 -1.1,0.68331 -4.3933,2.03284 -7.3184,2.99897 -3.73165,1.23251 -5.65879,2.50369 -6.45935,4.26073 -1.04092,2.28456 -1.5391,2.45291 -5.68159,1.91997 -3.92975,-0.50557 -4.30519,-0.40426 -2.79063,0.75302 0.9625,0.73545 1.75,1.99087 1.75,2.78984 0,2.09778 5.62154,7.24822 6.44932,5.90885 0.36779,-0.5951 1.36594,-1.082 2.21811,-1.082 1.15596,0 1.38904,0.63887 0.91791,2.51598 -0.92467,3.68419 3.37022,5.20752 8.20873,2.91151 2.453,-1.16403 4.5296,-1.43058 7.0877,-0.90979 4.8975,0.99705 23.3843,0.54653 24.5682,-0.59873 0.5225,-0.50543 3.5536,-0.91897 6.7357,-0.91897 11.1239,0 31.0915,-6.0142 34.7989,-10.4814 1.6091,-1.93889 2.9757,-0.41822 3.0001,3.33839 0.011,1.73548 0.4324,2.19693 1.5971,1.75 0.87,-0.33385 1.995,-0.60699 2.5,-0.60699 0.505,0 0.9182,-0.60526 0.9182,-1.34501 0,-0.73976 0.8892,-2.14972 1.976,-3.13325 1.7362,-1.5712 1.9055,-2.65203 1.3951,-8.90499 -0.5255,-6.43817 -0.347,-7.4572 1.8721,-10.68732 2.4282,-3.53439 4.8183,-10.61619 8.338,-24.70486 1.9355,-7.74735 4.2555,-11.22457 7.4892,-11.22457 2.8313,0 3.4338,2.51637 1.6288,6.80378 -0.8558,2.03292 -1.7842,5.71154 -2.0631,8.17472 -0.2789,2.46317 -0.9861,4.63817 -1.5716,4.83333 -0.5854,0.19516 -1.076,2.00484 -1.0901,4.0215 -0.017,2.42645 -1.1778,5.47496 -3.4322,9.01282 -3.7039,5.81275 -3.6347,9.38167 0.1931,9.9572 2.4008,0.36099 8.7327,-6.53938 9.7532,-10.62883 0.367,-1.47099 1.2541,-3.34952 1.9712,-4.17452 0.7171,-0.825 1.6447,-2.61462 2.0615,-3.97694 1.0492,-3.43014 6.4365,-11.84817 6.4598,-10.09406 0.027,2.06183 -1.9481,7.74679 -4.8733,14.02422 -1.8082,3.88027 -2.5708,7.2675 -2.6436,11.74308 -0.079,4.8486 -0.573,6.807 -2.156,8.54678 -2.3972,2.63463 -1.9999,4.75692 0.8904,4.75692 2.7859,0 8.6438,-6.64226 9.3965,-10.65472 0.3393,-1.8082 1.9192,-5.34124 3.5109,-7.85119 1.5918,-2.50995 2.9084,-4.88542 2.9257,-5.27882 0.051,-1.154 4.7851,-6.21527 5.8135,-6.21527 1.7945,0 2.1927,3.29346 0.6776,5.60572 -0.8375,1.27815 -1.5227,3.43819 -1.5227,4.80008 0,1.36189 -0.435,2.74501 -0.9666,3.0736 -1.7317,1.07022 -6.0338,10.61566 -6.0181,13.35276 0.048,8.33573 4.8484,6.22949 12.5601,-5.51083 3.1869,-4.85173 6.4395,-10.73383 7.2281,-13.07133 1.3878,-4.11415 3.5535,-5.56331 4.4833,-3 0.2494,0.6875 -0.1631,2.76746 -0.9167,4.62212 -0.7535,1.85467 -1.3701,5.96222 -1.3701,9.12788 0,3.16566 -0.675,7.37125 -1.5,9.34576 -1.8275,4.37387 -1.8261,4.3151 -0.1143,4.97198 1.6859,0.64695 6.5082,-6.25892 13.1403,-18.81774 2.614,-4.95 5.1253,-9.41275 5.5806,-9.91722 1.77,-1.96101 2.0076,2.61995 0.4836,9.32072 -2.2641,9.95454 -2.1545,10.78668 1.4923,11.32192 3.6256,0.53212 4.2494,-0.27091 8.5233,-10.97215 3.6288,-9.08596 5.5751,-11.78159 7.8705,-10.90076 1.4125,0.54204 1.6188,1.44739 1.118,4.9061 -1.4665,10.12847 -1.7911,16.74139 -0.8215,16.74139 2.2797,0 4.9999,-3.85546 6.6802,-9.4681 0.9827,-3.28245 2.3609,-6.88245 3.0628,-8 0.7018,-1.11754 1.6011,-3.1569 1.9984,-4.5319 1.0531,-3.64455 3.4639,-6 6.1408,-6 2.8887,0 2.9498,1.28547 0.2671,5.62609 -1.9031,3.07928 -1.9872,3.94671 -1,10.30959 0.5929,3.82108 1.0779,7.38091 1.0779,7.91072 0,0.55263 -1.7719,0.72562 -4.1565,0.40578 -4.0234,-0.53965 -4.1322,-0.48054 -3.3958,1.84515 0.4185,1.32147 0.9914,3.89317 1.2733,5.71489 0.369,2.38569 0.9222,3.15495 1.9775,2.75 0.8058,-0.30922 1.8783,-0.56222 2.3833,-0.56222 0.505,0 0.9182,-0.57491 0.9182,-1.27757 0,-0.70267 1.3062,-3.79501 2.9025,-6.87188 1.5964,-3.07687 3.4455,-8.20976 4.1091,-11.40642 0.6637,-3.19666 2.7138,-9.11946 4.556,-13.16179 2.8027,-6.15026 3.9287,-7.59173 6.8993,-8.83294 1.9525,-0.8158 4.6544,-1.20608 6.0043,-0.86728 1.8882,0.47391 3.0033,-0.0222 4.834,-2.15052 1.6247,-1.88882 2.9285,-2.5559 4.1096,-2.10266 1.4936,0.57313 1.6248,1.45025 0.9603,6.41746 -0.4233,3.16448 -0.6922,8.0036 -0.5976,10.7536 0.095,2.75 -0.223,6.43608 -0.7059,8.19128 -1.1811,4.29339 0.9528,7.64818 3.3592,5.28109 0.8542,-0.84019 2.4688,-5.34019 3.588,-10 1.1192,-4.6598 2.4825,-10.13213 3.0297,-12.16073 0.5472,-2.0286 0.7444,-5.4036 0.4383,-7.5 -0.3061,-2.0964 -0.1251,-4.4577 0.4021,-5.24734 3.0268,-4.53288 6.5212,10.40272 3.7389,15.98012 -0.8727,1.74921 -1.0405,3.24326 -0.461,4.10321 0.5012,0.7438 0.7812,4.71798 0.6223,8.8315 -0.2398,6.2054 -0.017,7.5328 1.3101,7.79428 1.1604,0.22867 2.038,-1.13761 3.1984,-4.97913 0.8796,-2.91185 2.572,-8.44428 3.761,-12.29428 1.1889,-3.85 2.4982,-10.51957 2.9095,-14.82127 0.7985,-8.35117 3.0703,-12.9287 6.6864,-13.47261 1.5184,-0.22839 2.5603,1.0199 4.6754,5.60121 1.4968,3.24231 2.4448,6.61618 2.1067,7.4975 -0.3382,0.88133 0.1002,2.62341 0.9742,3.8713 0.8741,1.24788 1.5892,3.20375 1.5892,4.34638 0,1.14262 0.3943,2.50499 0.8763,3.02749 0.4819,0.5225 1.8987,4.1 3.1484,7.95 1.2498,3.85 2.543,7.225 2.8738,7.5 2.0608,1.71298 5.1015,7.30151 5.1015,9.37617 0,1.35144 0.3415,2.60716 0.7589,2.7905 0.6666,0.29278 1.9603,2.58002 7.8901,13.95042 2.1147,4.05479 9.2684,11.78884 12.4042,13.41043 3.4158,1.76638 12.6595,10.99198 13.4227,13.39634 0.3011,0.9489 2.0048,2.36671 3.7858,3.1507 2.3519,1.03523 3.3792,2.24669 3.7531,4.42544 0.3867,2.25412 1.0545,3 2.6859,3 1.2945,0 4.1219,2.01881 7.0026,5 2.6574,2.75 5.9898,5.90855 7.4053,7.019 1.4156,1.11045 3.1095,3.0199 3.7642,4.24323 0.8076,1.50909 2.5006,2.43374 5.2653,2.87584 4.0865,0.65345 8.0255,3.52489 16.0994,11.73594 4.0434,4.1121 6.4141,4.31569 6.0056,0.51576 z m -353.2431,-112.21121 c 0,-1.65387 2.0365,-3.67856 3.7,-3.67856 2.2416,0 1.4162,2.62604 -1.2,3.81805 -1.957,0.89169 -2.5,0.8614 -2.5,-0.13949 z m 11.3115,-9.69273 c 1.2841,-3.40213 2.6885,-3.93546 2.6885,-1.02101 0,1.08065 -0.8585,2.42427 -1.9078,2.98583 -1.7755,0.95022 -1.8296,0.81399 -0.7807,-1.96482 z m 85.6885,-0.43481 c 0,-0.38163 0.675,-1.36888 1.5,-2.19388 0.825,-0.825 1.5,-1.07295 1.5,-0.55101 0,0.52194 -0.675,1.50918 -1.5,2.19387 -0.825,0.68469 -1.5,0.93265 -1.5,0.55102 z m 18,-3.05102 c 0,-2.59622 2.4094,-3.52414 3.2457,-1.25 0.6884,1.87181 -0.2277,3.75 -1.829,3.75 -0.8444,0 -1.4167,-1.0098 -1.4167,-2.5 z m -101.4436,-1.40885 c -0.6489,-1.04995 4.9958,-6.09115 6.8204,-6.09115 3.2564,0 4.9424,5.27979 2.0414,6.39301 -2.405,0.92289 -8.2275,0.72455 -8.8618,-0.30186 z m 46.902,-56.40084 c -0.3188,-1.27033 0.2148,-4.30783 1.1858,-6.75 1.4432,-3.62983 1.7737,-7.63454 1.8106,-21.94031 0.025,-9.625 0.3827,-17.6125 0.7952,-17.75 2.0377,-0.67921 2.7593,0.0899 3.7532,4 0.5942,2.3375 1.5947,5.27579 2.2234,6.52954 1.111,2.21571 0.9478,4.72486 -1.851,28.4516 -0.8984,7.61618 -6.543,12.93427 -7.9172,7.45917 z m 18.5169,-10.25541 c -2.0625,-5.42478 -0.4127,-23.90748 2.2864,-25.61446 1.7099,-1.08138 3.9784,2.18768 3.2473,4.67956 -2.4545,8.36568 -1.639,15.02799 2.045,16.70653 3.4665,1.57946 3.0394,3.14676 -1.39,5.10102 -4.9363,2.1779 -5.0341,2.1641 -6.1887,-0.87265 z m 15.5676,-3.6849 c -0.3693,-1.17035 -0.8315,-3.58687 -2.1997,-11.5 -0.6907,-3.99468 0.4526,-4.1164 3.9894,-0.42472 2.9833,3.1139 4.9702,8.64547 4.0954,11.40179 -0.6489,2.04451 -5.2754,2.4556 -5.8851,0.52293 z m 170.2767,192.07833 c -0.3962,-2.69251 -2.3567,-3.47701 -3.1996,-1.28035 -0.7832,2.04102 0.038,3.45202 2.0086,3.45202 0.9818,0 1.3987,-0.7602 1.191,-2.17167 z m 144.7859,-5.42647 c 1.6331,-3.90848 1.5452,-6.51951 -0.2394,-7.11364 -2.1216,-0.70631 -4.3661,2.7808 -4.3661,6.78321 0,5.12768 2.5254,5.30887 4.6055,0.33043 z m -478.92236,-5.58936 c -0.31922,-0.79773 -0.55618,-0.56078 -0.60416,0.60417 -0.0434,1.05416 0.19292,1.64479 0.52522,1.3125 0.33229,-0.33229 0.36781,-1.1948 0.0789,-1.91667 z m 332.31686,-7.5532 c 0,-0.74714 -1.575,-2.98016 -3.5,-4.96227 -4.038,-4.15782 -3.8112,-3.51982 -2.373,-6.67624 1.1968,-2.62676 0.4037,-8.06679 -1.0455,-7.17114 -0.4729,0.2923 -1.1632,1.7732 -1.5339,3.2909 -0.3706,1.5177 -1.8102,4.41594 -3.199,6.44055 -3.0693,4.47455 -2.556,5.72755 4.2491,10.37096 4.4349,3.0261 5.0215,3.18872 6.1523,1.70538 0.6875,-0.90183 1.25,-2.251 1.25,-2.99814 z m -321.05528,-9.5093 c 2.06582,-2.20413 3.04754,-4.26955 3.05068,-6.41821 0.007,-4.98487 0.90516,-6.24995 6.37942,-8.98849 5.31571,-2.65922 9.62521,-6.04837 9.62521,-7.56963 0,-0.48274 -1.35,-1.34832 -3,-1.92351 -1.65,-0.5752 -3,-1.44023 -3,-1.9223 0,-0.48208 -1.34671,-1.57291 -2.9927,-2.42408 -1.64598,-0.85118 -2.88348,-2.07351 -2.75,-2.71629 0.13349,-0.64279 -0.51006,-1.33424 -1.43009,-1.53655 -1.12676,-0.24778 -1.7796,0.38567 -2,1.94061 -0.26554,1.8734 -1.03394,2.36694 -4.07721,2.61882 -2.0625,0.1707 -3.75,0.7332 -3.75,1.25 0,0.51679 0.46156,0.93963 1.02568,0.93963 0.58163,0 0.34673,1.31295 -0.54259,3.0327 -0.90727,1.75447 -2.03565,2.74383 -2.67717,2.34735 -0.73672,-0.45531 -0.49046,-1.13755 0.73372,-2.03269 1.71955,-1.25737 1.66973,-1.34736 -0.74586,-1.34736 -2.396,0 -2.67046,0.47082 -3.69113,6.33191 -0.60646,3.48256 -1.10265,7.30756 -1.10265,8.5 0,2.59945 -0.73455,2.7183 -3.17126,0.5131 -1.64977,-1.49302 -1.82874,-1.49879 -1.82874,-0.059 0,0.87778 0.45,1.87408 1,2.214 0.55,0.33992 1,1.43638 1,2.43657 0,1.0002 0.68516,2.38717 1.52258,3.08217 0.87897,0.72948 1.27319,2.04936 0.93261,3.12244 -0.51559,1.62448 -0.0205,1.85882 3.92674,1.85882 3.80426,0 4.99716,-0.51263 7.56276,-3.25 z m 470.50018,-12.41314 c -1.0509,-2.97333 -3.4449,-4.35302 -3.4449,-1.98529 0,0.83503 0.4668,2.7458 1.0372,4.24617 1.449,3.81122 3.7801,1.6223 2.4077,-2.26088 z m -311.1103,-14.41459 c 1.7296,-2.02008 1.6765,-2.20283 -1.9155,-6.58629 -3.7119,-4.52989 -5.3646,-4.55618 -5.4038,-0.086 -0.01,0.9625 -0.6903,1.75 -1.5153,1.75 -1.8145,0 -2.0252,4.07474 -0.3,5.8 1.9382,1.93814 7.1525,1.43709 9.1346,-0.87773 z m 300.5604,-17.27727 c -3.0478,-8.86162 -4.322,-13.96155 -3.8245,-15.30655 1.0394,-2.80968 -0.5318,-5.27709 -2.2599,-3.54899 -0.8859,0.8859 -1.2232,4.33713 -1.1098,11.3547 0.1368,8.46157 0.4769,10.4254 2.1162,12.2189 1.0742,1.17532 2.2778,3.26194 2.6746,4.63694 0.9225,3.19668 4.6475,6.25149 5.9912,4.91325 0.6431,-0.64052 -0.5968,-5.57141 -3.5878,-14.26825 z m -210.02,8.73 c 2.4934,-0.49866 3.125,-1.12699 3.125,-3.10841 0,-2.20888 -0.304,-2.40754 -2.75,-1.79709 -3.2417,0.80904 -6.4289,3.43202 -5.6674,4.66415 0.6383,1.03281 1.2058,1.05868 5.2924,0.24135 z m 230.125,-4.675 c 0,-1.265 -0.5048,-2.80483 -1.1218,-3.42186 -1.4663,-1.46625 -3.8767,-0.51762 -3.315,1.30462 0.2402,0.77948 0.6477,2.09224 0.9055,2.91724 0.7553,2.4178 3.5313,1.78891 3.5313,-0.8 z m -283,-1.7 c 0,-0.55 -0.45,-1 -1,-1 -0.55,0 -1,0.45 -1,1 0,0.55 0.45,1 1,1 0.55,0 1,-0.45 1,-1 z m 62.987,-28.94553 c 0.9651,-4.02298 0.9641,-5.4085 -0.01,-6.57569 -3.0881,-3.72088 -6.9428,-0.39444 -9.1632,7.90736 -1.1354,4.24505 -1.07,4.59024 1.2218,6.44603 2.4193,1.95896 2.4235,1.95862 4.5723,-0.36 1.183,-1.27643 2.7011,-4.61439 3.3736,-7.4177 z m 200.3466,-41.62758 c -0.3012,-0.78479 -0.9228,-1.42689 -1.3815,-1.42689 -1.3519,0 -2.1762,1.97363 -1.5288,3.66051 0.4735,1.23405 0.9023,1.31415 2.0291,0.379 0.7858,-0.65215 1.1824,-1.82784 0.8812,-2.61262 z m 39.2129,-27.61442 c -0.8502,-2.92186 -3.3456,-8.23747 -5.5455,-11.81247 -2.1999,-3.575 -4.0001,-7.05094 -4.0004,-7.72432 -3e-4,-0.67338 -1.36,-1.92729 -3.0214,-2.78647 -1.6615,-0.85918 -4.2509,-3.53826 -5.7541,-5.95352 -2.5346,-4.07216 -9.0117,-9.53569 -11.3047,-9.53569 -0.5449,0 -2.0801,-0.71379 -3.4116,-1.5862 -1.3314,-0.8724 -2.8856,-1.29894 -3.4537,-0.94785 -1.3577,0.83913 1.511,5.26154 3.9061,6.02173 2.9017,0.92095 11.6714,9.88504 15.0625,15.39643 1.7314,2.81374 3.5046,5.11589 3.9405,5.11589 0.4359,0 2.5932,2.3625 4.7939,5.25 3.8357,5.03277 4.869,7.38961 7.1247,16.25 2.6863,10.55152 2.5736,10.40349 2.9016,3.81247 0.177,-3.5585 -0.3489,-8.44475 -1.2379,-11.5 z m -112.3909,13.43753 c 0.2877,-3.23804 -0.2985,-6.71725 -1.3441,-7.97711 -2.5604,-3.08516 -3.8241,2.41052 -1.6509,7.18006 1.3424,2.9463 2.7702,3.32628 2.995,0.79705 z m -16.1556,-29.25 c 0,-1.1 -0.1882,-2 -0.4182,-2 -0.23,0 -1.13,-0.27314 -2,-0.60699 -1.1074,-0.42497 -1.5818,-0.0251 -1.5818,1.33333 0,2.27341 0.8148,3.27366 2.6667,3.27366 0.7333,0 1.3333,-0.9 1.3333,-2 z m -426.15158,-3.88514 c 2.05844,-1.30449 0.96305,-4.68233 -1.38464,-4.26979 -2.62214,0.46076 -2.754,0.66506 -1.98767,3.07957 0.72003,2.26862 1.3306,2.48411 3.37231,1.19022 z m 15.17636,-5.67996 c 0.53639,-1.4108 0.97525,-4.47595 0.97525,-6.81144 0,-3.93303 2.61034,-8.62346 4.79917,-8.62346 1.50897,0 6.11087,5.07342 5.67673,6.25838 -0.72498,1.97883 1.14644,4.10052 2.99213,3.39226 1.16931,-0.4487 1.46935,-1.27259 1.00092,-2.74847 -0.36792,-1.15922 -0.6671,-3.74894 -0.66483,-5.75492 0.002,-2.00599 -0.58056,-5.05182 -1.29518,-6.76851 -0.84528,-2.03057 -1.11356,-5.43523 -0.76775,-9.74328 l 0.53155,-6.62202 5.30228,-3.51945 c 2.91625,-1.9357 6.61383,-3.78176 8.21684,-4.10236 1.60302,-0.32061 5.50693,-3.01488 8.67536,-5.98727 3.16842,-2.9724 6.15948,-5.40436 6.64678,-5.40436 1.28116,0 1.09074,-6.39526 -0.22973,-7.71573 -0.82097,-0.82097 -0.68888,-1.72514 0.5,-3.42251 0.88865,-1.26872 1.61573,-3.35399 1.61573,-4.63393 0,-1.27993 0.71671,-3.71311 1.59268,-5.40705 1.65591,-3.20218 1.57296,-5.2497 -0.66124,-16.32078 -1.01067,-5.0082 -2.11707,-7.03312 -6.69325,-12.25 l -5.48243,-6.25 h -5.69974 c -8.3199,0 -14.65604,-2.41385 -15.93018,-6.06885 -1.54932,-4.44439 -5.00877,-3.91408 -10.23434,1.56885 -3.56817,3.74391 -4.90816,4.5 -7.97513,4.5 -4.36257,0 -6.31446,2.35195 -7.92832,9.55333 -1.3437,5.99586 -0.74068,7.71734 3.39403,9.68905 2.99795,1.42962 3.6733,1.44256 6.23986,0.11957 1.58293,-0.81596 4.22806,-2.7522 5.87806,-4.30276 4.28019,-4.02224 6.73975,-5.05919 12,-5.05919 4.75004,0 8.5,1.33312 8.5,3.02176 0,0.52327 -1.575,1.60948 -3.5,2.41379 -4.2711,1.78458 -4.35264,2.57208 -0.49368,4.76794 3.44741,1.96168 3.84467,4.62339 1.04749,7.01841 -1.51941,1.30096 -1.8176,2.45883 -1.35979,5.27997 0.50951,3.13975 0.14891,4.06497 -2.74998,7.05586 -3.03879,3.13524 -3.84803,3.44227 -9.07282,3.44227 -4.76559,0 -5.83891,0.32285 -6.3419,1.90762 -0.333,1.04919 -1.34717,2.19224 -2.25371,2.54011 -2.52545,0.96911 -10.05319,-3.49654 -11.40809,-6.76757 -1.41209,-3.40908 -4.63535,-4.84093 -8.5222,-3.78575 -2.49357,0.67693 -2.81533,1.1948 -2.60275,4.189 0.26192,3.68927 0.28051,5.68217 0.18112,19.41659 -0.11405,15.75819 0.0266,17.49447 1.61305,19.91572 0.93493,1.42689 1.31072,3.34386 0.94285,4.80959 -0.6693,2.66671 2.86318,9.24958 5.52041,10.2874 1.6271,0.63549 8,9.80586 8,11.51171 0,1.26814 3.05593,6.18987 4.4769,7.21027 2.09926,1.50747 4.59872,0.69662 5.54785,-1.79979 z m 28.97525,-58.71239 c 0,-0.70263 0.73892,-2.33246 1.64205,-3.62186 1.43424,-2.04765 1.75599,-2.14077 2.54228,-0.73576 0.55723,0.99573 0.48971,2.37566 -0.17724,3.62186 -1.19222,2.22769 -4.00709,2.74453 -4.00709,0.73576 z m 401.93567,52.33839 c 1.1899,-0.7529 1.2117,-1.17839 0.1276,-2.48468 -1.7733,-2.13663 -4.0633,-1.99172 -4.0633,0.25711 0,3.03734 1.402,3.83085 3.9357,2.22757 z m -360.73946,-7.68864 c 0.57241,-2.12974 1.04209,-4.99726 1.04374,-6.37226 0.003,-2.4617 -3.06283,-11.90177 -5.06789,-15.60494 -0.56433,-1.04228 -1.26979,-2.68256 -1.56768,-3.64506 -0.74513,-2.40759 -3.3263,-2.20151 -4.12968,0.32972 -0.65839,2.0744 0.82761,12.66791 2.59386,18.49128 0.51229,1.68905 0.93144,3.616 0.93144,4.28212 0,0.66611 0.68533,2.85134 1.52295,4.85605 1.77522,4.2487 3.07841,3.59703 4.67326,-2.33691 z m 422.61346,-7.12226 c -0.1854,-0.9625 -1.2247,-1.75 -2.3097,-1.75 -1.0849,0 -2.1242,0.7875 -2.3096,1.75 -0.2524,1.31075 0.3273,1.75 2.3096,1.75 1.9824,0 2.5621,-0.43925 2.3097,-1.75 z m -260.4377,-3.00236 c 0.7828,-1.5138 2.3693,-3.60854 3.5257,-4.65499 4.8151,-4.35767 0.8975,-8.56461 -6.2639,-6.72643 -6.6333,1.70264 -18.518,2.47474 -19.9391,1.29537 -2.7628,-2.29294 -6.4957,-3.10629 -7.6841,-1.67429 -2.0306,2.4467 3.4405,4.89592 13.4276,6.0111 8.8984,0.9936 9.0518,1.05634 9.5527,3.90632 0.4398,2.50195 2.4693,4.25678 5.2335,4.52499 0.3983,0.0387 1.3648,-1.16827 2.1476,-2.68207 z m -260.47165,-23.49764 c -0.0548,-0.6875 -0.45997,-2.375 -0.90032,-3.75 -0.71454,-2.23115 -0.81136,-2.09672 -0.90032,1.25 -0.0548,2.0625 0.35032,3.75 0.90032,3.75 0.55,0 0.95514,-0.5625 0.90032,-1.25 z m 246.73995,-22.64327 c 0.6529,-1.31629 0.9744,-2.9474 0.7145,-3.62468 -0.6674,-1.7392 -7.0465,-4.24748 -12.3197,-4.84416 -2.4557,-0.27788 -4.9803,-1.21008 -5.6102,-2.07156 -1.4472,-1.97917 -3.8133,-2.0081 -5.4249,-0.0663 -1.6111,1.94134 -9.9491,1.99094 -12.5588,0.0747 -1.8731,-1.3753 -1.8432,-1.46271 0.8529,-2.49201 1.5368,-0.5867 4.0118,-1.35437 5.5,-1.70595 4.0281,-0.95157 7.4601,-4.3656 6.071,-6.03932 -1.6275,-1.96102 -5.4464,-1.63527 -13.7109,1.16955 -4.0401,1.37114 -8.9,2.493 -10.7996,2.493 -3.6856,0 -9.3546,2.42563 -9.3546,4.00263 0,1.6058 4.2706,3.76817 8.9238,4.51853 l 4.4238,0.71335 -3.0241,1.27154 c -3.4383,1.4457 -5.0436,4.39224 -3.1073,5.70347 1.2387,0.83884 8.7597,0.57913 23.1445,-0.79922 7.1939,-0.68932 13.6164,0.65225 15.8172,3.30399 0.7241,0.87258 2.6519,1.27395 5.2123,1.08522 3.1209,-0.23006 4.3383,-0.85447 5.2501,-2.69278 z m 9.7779,2.28628 c 2.175,-0.83462 1.9809,-2.10905 -0.5255,-3.45047 -2.7805,-1.48806 -4.8061,0.25196 -2.9278,2.51508 1.4666,1.76723 1.3605,1.73849 3.4533,0.93539 z m -172.04846,-2.64301 c 1.50141,-5.60249 -0.4526,-11.05288 -3.32591,-9.27707 -1.13994,0.70452 -1.45518,9.78236 -0.37713,10.8604 1.35526,1.35527 3.11745,0.60179 3.70304,-1.58333 z m -82.28406,-35.06174 c 0.42773,-2.63144 1.89118,-4.85651 5.25362,-7.98776 3.33459,-3.10532 4.66073,-5.11179 4.66073,-7.05177 0,-3.84949 -2.19697,-4.20853 -6.86191,-1.12142 -7.10424,4.70137 -10.0519,11.34987 -7.61639,17.17888 1.79205,4.28897 3.77316,3.84711 4.56395,-1.01793 z m 193.38422,-0.0857 c 5.9916,-2.97997 8.4323,-3.59209 16.5214,-4.14351 5.2202,-0.35585 10.331,-1.09641 11.3574,-1.64569 3.81,-2.03906 -0.3601,-3.04648 -13.8387,-3.34316 -13.5017,-0.2972 -13.7096,-0.26827 -17.8354,2.48135 -2.296,1.53014 -5.8764,3.33163 -7.9565,4.00333 -3.4345,1.10906 -4.2367,0.98348 -8.7316,-1.36683 -5.0021,-2.61552 -12.1099,-3.42975 -14.8397,-1.69996 -2.5801,1.63492 0.4538,4.66055 6.54,6.52213 3.1973,0.97796 6.9382,2.16462 8.3132,2.63702 4.745,1.63018 13.0897,0.22593 20.4699,-3.44468 z m -78.8764,-4.75389 c 0.4152,-0.6718 -0.7055,-2.32653 -2.691,-3.9731 -3.7876,-3.14124 -4.9466,-3.43148 -6.7002,-1.67793 -0.9302,0.93026 -0.5982,1.82343 1.4871,4 2.7587,2.87944 6.6434,3.69089 7.9041,1.65103 z m -41.00424,-18.92277 c 2.35834,-1.95725 1.61114,-7.08753 -1.66256,-11.41512 -7.63376,-10.0913 -15.05388,-8.21042 -13.31647,3.3755 0.97182,6.48051 5.16572,10.574 10.02542,9.78538 1.94856,-0.31621 4.17769,-1.1018 4.95361,-1.74576 z m 54.87864,-0.9004 c 4.1217,-3.27551 5.0318,-3.48147 24.4092,-5.52377 4.3886,-0.46253 5.6144,-1.71487 4.2232,-4.31434 -1.6278,-3.04172 -6.9612,-4.4586 -12.2195,-3.24629 -2.4094,0.55548 -5.743,1.02096 -7.4079,1.0344 -3.0768,0.0249 -9.4729,4.77666 -9.4729,7.03763 0,1.64707 -4.123,0.76241 -5.3153,-1.14048 -0.7959,-1.27015 -0.1903,-2.63942 2.7591,-6.2388 4.0233,-4.90982 4.1667,-7.6339 0.4021,-7.6339 -2.5672,0 -6.8459,3.65349 -6.8459,5.84557 0,0.82332 -0.7759,2.35433 -1.7242,3.40223 -1.6426,1.81505 -1.612,1.98995 0.6458,3.69304 1.6425,1.23893 2.4607,2.98062 2.6652,5.67346 0.1624,2.13713 0.3217,3.9982 0.3542,4.1357 0.2851,1.2075 4.498,-0.31743 7.5269,-2.72445 z m -109.83963,-1.16216 c 3.47976,-0.87621 5.38749,-0.84829 8.32716,0.12189 5.23213,1.72676 9.43143,0.31638 9.86098,-3.31191 0.44445,-3.7543 -3.30527,-5.04631 -12.31638,-4.24375 -5.92113,0.52736 -7.44305,1.06537 -9.87462,3.49077 -1.58104,1.57702 -2.56698,3.36508 -2.19098,3.97346 0.83872,1.35708 0.68032,1.35786 6.19384,-0.0305 z m 85.04073,-8.31227 c 1.5571,-0.79689 3.6185,-1.68277 4.581,-1.96862 2.6708,-0.79318 2.0422,-10.5825 -0.6795,-10.5825 -1.9625,0 -10.57047,10.55347 -10.57047,12.95951 0,1.48936 3.36327,1.2834 6.66897,-0.40839 z m 50.331,-7.67357 c 0,-0.48265 -0.675,-0.87755 -1.5,-0.87755 -0.8621,0 -1.5,0.90249 -1.5,2.12245 0,1.77323 0.2468,1.91762 1.5,0.87755 0.825,-0.68469 1.5,-1.63979 1.5,-2.12245 z m 29.5,490.45531 c -3.85,-0.18784 -8.0312,-0.57785 -9.2916,-0.8667 -2.2711,-0.52047 -2.2645,-0.54807 0.7449,-3.08031 3.0025,-2.52643 3.0849,-2.5367 7.3317,-0.91483 3.5757,1.36559 5.3769,1.46455 10.755,0.59089 3.553,-0.57717 10.51,-0.77123 15.46,-0.43123 7.1057,0.48805 9.8151,0.27625 12.8721,-1.00626 4.7976,-2.01263 7.6741,-2.05674 10.1868,-0.15622 2.5683,1.94252 5.6041,1.89861 9.8853,-0.14298 3.2848,-1.56638 3.6319,-1.56638 5.3627,0 1.286,1.16379 3.6318,1.67478 7.6885,1.67478 3.2109,0 5.6048,0.23315 5.3199,0.51811 -0.285,0.28496 -6.21,0.58021 -13.1667,0.65611 -6.9567,0.0759 -12.6486,0.46151 -12.6486,0.8569 0,1.49638 -6.4536,1.91664 -13.2468,0.86264 -4.9587,-0.76937 -8.7186,-0.7866 -12.654,-0.058 -7.4944,1.38748 -16.1051,1.91153 -24.5992,1.49711 z M 843.36971,22.15311 c 0.30801,-0.49837 1.45956,-0.67088 2.55902,-0.38337 2.75155,0.71955 2.50403,1.28949 -0.56002,1.28949 -1.40746,0 -2.30701,-0.40775 -1.999,-0.90612 z m 112.5932,-3.02814 c -2.50748,-4.68528 0.90772,-6.93695 5.3842,-3.54984 1.85975,1.40717 1.8627,1.51493 0.095,3.4682 -2.29609,2.53715 -4.15027,2.56478 -5.47921,0.0816 z m 57.64129,-53.81574 c -0.5792,-0.98365 0.9113,-4.87718 2.1632,-5.65092 1.7128,-1.05856 4.0695,0.46396 3.4575,2.23368 -1.0172,2.94119 -4.6136,5.12771 -5.6207,3.41724 z m -114.40744,-0.94299 c 0.97297,-0.25354 2.32297,-0.23687 3,0.0371 0.67703,0.27393 -0.11903,0.48137 -1.76903,0.46099 -1.65,-0.0204 -2.20394,-0.2445 -1.23097,-0.49804 z m 519.80994,-6.89034 c 0.048,-1.16495 0.2849,-1.4019 0.6041,-0.60417 0.2889,0.72187 0.2534,1.58438 -0.079,1.91667 -0.3322,0.33229 -0.5686,-0.25834 -0.5252,-1.3125 z"
       id="path5359" />
  </g>
</svg>
