<?xml version="1.0" encoding="UTF-8" standalone="no"?>
<!-- Created with Inkscape (http://www.inkscape.org/) -->

<svg
   width="44.520363mm"
   height="5.2916799mm"
   viewBox="0 0 44.520363 5.2916799"
   version="1.1"
   id="svg5"
   inkscape:version="1.1.2 (b8e25be833, 2022-02-05)"
   sodipodi:docname="ornament-10.svg"
   xmlns:inkscape="http://www.inkscape.org/namespaces/inkscape"
   xmlns:sodipodi="http://sodipodi.sourceforge.net/DTD/sodipodi-0.dtd"
   xmlns="http://www.w3.org/2000/svg"
   xmlns:svg="http://www.w3.org/2000/svg">
  <sodipodi:namedview
     id="namedview7"
     pagecolor="#505050"
     bordercolor="#eeeeee"
     borderopacity="1"
     inkscape:pageshadow="0"
     inkscape:pageopacity="0"
     inkscape:pagecheckerboard="0"
     inkscape:document-units="mm"
     showgrid="false"
     inkscape:zoom="2"
     inkscape:cx="67.5"
     inkscape:cy="-15"
     inkscape:window-width="1366"
     inkscape:window-height="745"
     inkscape:window-x="-8"
     inkscape:window-y="-8"
     inkscape:window-maximized="1"
     inkscape:current-layer="layer1" />
  <defs
     id="defs2" />
  <g
     inkscape:label="Layer 1"
     inkscape:groupmode="layer"
     id="layer1"
     transform="translate(-6.3870142,-162.19128)">
    <path
       style="fill:#000000;stroke-width:0.264583"
       d="m 16.387394,167.25753 c 0,-0.12397 0.856679,-0.62028 1.903729,-1.1029 1.545882,-0.71254 1.806987,-0.91534 1.389063,-1.0789 -0.951923,-0.37255 -1.637795,-0.26071 -1.781954,0.29055 -0.160688,0.61447 -0.780257,0.69379 -1.225814,0.15692 -0.365491,-0.44039 -1.28908,-0.23825 -3.618538,0.79195 -1.109854,0.49083 -1.583871,0.58837 -1.798718,0.37015 -0.21319,-0.21654 -0.163581,-0.39096 0.184276,-0.64789 0.420062,-0.31025 0.284132,-0.37384 -1.156647,-0.54106 -1.2101577,-0.14046 -1.6868847,-0.10174 -1.8422349,0.14963 -0.1544598,0.24992 -0.4363122,0.27409 -1.0715818,0.0919 -1.0166081,-0.29156 -1.3170539,-0.87674 -0.5527576,-1.07661 0.2963068,-0.0775 0.6027703,-0.30774 0.6810299,-0.51168 0.182582,-0.47581 0.8539689,-0.48042 1.0355894,-0.007 0.076756,0.20002 0.7145723,0.4425 1.4173699,0.53883 0.7027971,0.0963 1.8230251,0.30717 2.4893931,0.46851 0.868927,0.21039 1.35531,0.21269 1.719792,0.008 0.497699,-0.27933 0.497265,-0.28859 -0.02095,-0.44792 -1.077554,-0.33128 -2.38125,-1.15206 -2.38125,-1.49918 0,-0.59975 2.964986,-0.29664 4.299479,0.43954 1.072874,0.59186 1.124479,0.5969 1.124479,0.10979 0,-0.54449 0.681982,-0.71356 0.849623,-0.21063 0.09221,0.27663 4.151385,1.7677 4.905065,1.80179 0.567111,0.0257 0.361632,-0.44884 -0.264584,-0.61097 -0.327422,-0.0848 -0.937293,-0.45147 -1.35527,-0.81488 -0.417977,-0.3634 -0.990078,-0.73377 -1.271335,-0.82304 -1.050973,-0.33356 -0.301683,-0.77913 1.220256,-0.72562 2.463562,0.0866 4.647495,1.64341 4.647495,3.31293 0,0.87814 -0.163518,0.91831 -0.7566,0.18588 l -0.444547,-0.54899 -0.709962,0.55846 c -1.152398,0.90648 -3.577959,1.58417 -5.695662,1.59135 -1.055026,0.004 -1.918229,-0.0949 -1.918229,-0.21891 z m 10.980932,-1.00684 c -1.179306,-1.21339 -1.190996,-1.24277 -0.763371,-1.91823 0.735112,-1.16116 1.764771,-2.14118 2.249643,-2.14118 0.254073,0 0.907336,0.54354 1.451695,1.20785 0.881265,1.07547 1.017979,1.15522 1.247359,0.72761 0.37786,-0.70441 0.398946,-0.71486 0.78909,-0.39107 0.439217,0.36452 1.952612,-0.0131 2.39675,-0.59802 0.20693,-0.27253 1.202568,-0.48648 3.185157,-0.68447 3.553269,-0.35484 4.108365,-0.0731 1.851229,0.93944 -0.858198,0.38501 -1.7325,0.72909 -1.942891,0.76464 -0.57381,0.0969 -0.661178,0.67931 -0.102537,0.68347 0.266787,0.002 0.750837,0.0748 1.075666,0.16192 0.466394,0.12501 0.645853,0.013 0.853348,-0.53278 0.298659,-0.78554 0.594336,-0.86687 1.069596,-0.29421 0.508974,0.61327 1.024575,0.50031 3.872153,-0.84832 1.049197,-0.49691 1.81627,-0.3608 1.816778,0.32238 2.64e-4,0.40302 0.261368,0.57879 1.132699,0.7626 0.972704,0.2052 1.18499,0.16806 1.50603,-0.26348 0.346196,-0.46536 0.428394,-0.47238 1.116256,-0.0953 0.8979,0.49218 0.998476,1.20726 0.157424,1.11926 -0.421277,-0.0441 -0.543004,0.0485 -0.434713,0.33073 0.170169,0.44346 -0.567158,0.5563 -0.832252,0.12737 -0.08994,-0.14552 -0.483918,-0.26638 -0.875512,-0.26857 -0.391594,-0.002 -1.188238,-0.17556 -1.770321,-0.38526 -1.128152,-0.40643 -3.042886,-0.53612 -3.042439,-0.20607 1.48e-4,0.10914 0.606306,0.53883 1.34702,0.95485 0.740715,0.41603 1.246609,0.84561 1.12421,0.95462 -0.389269,0.3467 -4.026818,-0.14468 -4.545425,-0.61402 -0.597393,-0.54063 -0.836491,-0.55169 -0.836491,-0.0387 0,0.56188 -0.698606,0.49202 -1.322917,-0.13229 -0.291041,-0.29104 -0.856588,-0.53439 -1.256771,-0.54078 -0.400182,-0.006 -1.203854,-0.19281 -1.785937,-0.41427 -1.689746,-0.64287 -1.984375,-0.70935 -1.984375,-0.44773 0,0.13554 0.386953,0.45208 0.859896,0.70343 1.860619,0.98882 3.108854,1.80874 3.108854,2.04209 0,0.65124 -4.748792,-0.31605 -5.291667,-1.07788 -0.07276,-0.1021 -0.413766,-0.33399 -0.757789,-0.5153 -0.570976,-0.30092 -0.721755,-0.23518 -1.729807,0.75414 -0.607369,0.59609 -1.246887,1.0838 -1.42115,1.0838 -0.174263,0 -0.855783,-0.55452 -1.514488,-1.23226 z"
       id="path359" />
  </g>
</svg>
