<?xml version="1.0" encoding="UTF-8" standalone="no"?>
<!-- Created with Inkscape (http://www.inkscape.org/) -->

<svg
   version="1.1"
   id="svg992"
   width="1244.9697"
   height="120.63532"
   viewBox="0 0 1244.9697 120.63532"
   sodipodi:docname="ornament-9.svg"
   inkscape:version="1.1.2 (b8e25be833, 2022-02-05)"
   xmlns:inkscape="http://www.inkscape.org/namespaces/inkscape"
   xmlns:sodipodi="http://sodipodi.sourceforge.net/DTD/sodipodi-0.dtd"
   xmlns="http://www.w3.org/2000/svg"
   xmlns:svg="http://www.w3.org/2000/svg">
  <defs
     id="defs996" />
  <sodipodi:namedview
     id="namedview994"
     pagecolor="#505050"
     bordercolor="#eeeeee"
     borderopacity="1"
     inkscape:pageshadow="0"
     inkscape:pageopacity="0"
     inkscape:pagecheckerboard="0"
     showgrid="false"
     inkscape:zoom="0.71092211"
     inkscape:cx="719.48811"
     inkscape:cy="146.28888"
     inkscape:window-width="1280"
     inkscape:window-height="1001"
     inkscape:window-x="-1288"
     inkscape:window-y="-449"
     inkscape:window-maximized="1"
     inkscape:current-layer="g998" />
  <g
     inkscape:groupmode="layer"
     inkscape:label="Image"
     id="g998"
     transform="translate(-973.87255,244.70604)">
    <path
       style="fill:#000000"
       d="m 1661.7754,-126.23532 c -6.1578,-4.14979 -7.5645,-13.50122 -2.845,-18.91274 2.0022,-2.29572 2.0126,-2.29674 0.9439,-0.0919 -0.5944,1.22621 -0.7791,3.43083 -0.4106,4.89915 0.4721,1.88116 0.3316,2.46051 -0.4758,1.96151 -1.6443,-1.01625 -1.433,1.92669 0.238,3.31344 1.1203,0.92984 1.5061,0.49654 2.0262,-2.2761 0.3534,-1.88352 1.5633,-4.59524 2.6888,-6.02603 2.5074,-3.18767 0.8057,-3.46159 -2.1833,-0.35145 l -2.1624,2.25 1.1312,-2.19872 c 0.6221,-1.20929 2.1401,-2.94812 3.3734,-3.86405 l 2.2422,-1.66535 -2.5,0.56224 -2.5,0.56224 2.3608,-1.94818 c 1.6359,-1.34997 3.8792,-1.94816 7.3058,-1.94816 h 4.945 l -2.7127,-2.33335 c -3.1412,-2.70197 -3.6205,-8.30019 -0.882,-10.30262 1.5146,-1.10753 1.5099,-1.39349 -0.062,-3.79262 -1.0928,-1.66781 -1.4954,-3.61855 -1.127,-5.46054 1.1286,-5.64315 -9.1108,-27.31879 -14.1891,-30.0366 -1.3402,-0.71727 -1.0648,0.40453 1.242,5.05862 3.4823,7.02569 4.3806,14.52487 2.6195,21.86611 -1.1561,4.81922 -1.1022,5.24128 0.8435,6.6041 2.4086,1.68707 4.2295,7.32495 3.4309,10.6227 -0.3029,1.25081 -1.5011,3.32831 -2.6627,4.61666 -1.7125,1.89945 -2.8211,2.24841 -5.8619,1.84516 -3.1072,-0.41206 -3.75,-0.19415 -3.75,1.27117 -10e-5,3.2999 -4.8955,7.04121 -9.2134,7.04121 -4.7657,0 -9.7867,-4.32138 -9.7867,-8.42308 0,-1.8703 -0.524,-2.57692 -1.9111,-2.57692 -2.5285,0 -7.0889,-5.51752 -7.0889,-8.57673 0,-2.85387 -1.134,-3.03676 -4.6293,-0.74657 -2.4029,1.57445 -2.7595,1.5687 -5.8472,-0.0941 -3.3471,-1.80256 -5.5235,-5.17251 -5.5235,-8.55273 0,-2.75284 5.6995,-8.02987 8.6727,-8.02987 4.1175,0 8.246,3.04963 8.9084,6.58039 l 0.592,3.15564 2.368,-2.36801 c 1.5749,-1.57489 3.5228,-2.36802 5.8157,-2.36802 2.9349,0 3.6038,-0.44805 4.498,-3.01319 0.5777,-1.65725 1.8592,-3.2651 2.8478,-3.573 0.9886,-0.30789 2.5701,-0.97148 3.5144,-1.47463 1.989,-1.05979 5.672,0.0926 8.1202,2.54083 6.1903,6.19029 2.3037,-14.69445 -4.0389,-21.70289 -2.5785,-2.84928 -3.6266,-2.04698 -1.4038,1.07465 2.4507,3.44171 4.3541,11.30983 3.5301,14.59276 -0.5888,2.34619 -0.6268,2.35327 -2.5112,0.46881 -1.1658,-1.16576 -1.9134,-3.30026 -1.9134,-5.463 0,-1.95231 -0.6588,-4.82371 -1.464,-6.38088 -2.0353,-3.93575 -7.2157,-8.06946 -10.1127,-8.06946 -3.072,0 -3.0548,0.71541 0.077,3.17866 1.375,1.08157 2.5,2.54132 2.5,3.24388 0,0.70256 1.35,3.141 3,5.41876 4.4391,6.12793 3.6326,10.1608 -2.5484,12.74336 -5.0002,2.08925 -7.2681,1.75269 -10.5928,-1.57204 -2.3201,-2.32008 -2.9172,-3.71615 -2.6731,-6.25 0.2672,-2.77359 1.0237,-3.61453 5.0471,-5.61044 4.0924,-2.0301 4.596,-2.60364 3.7212,-4.23819 -1.5969,-2.98377 -5.4198,-3.40724 -9.2712,-1.02698 -1.8584,1.14858 -7.9473,6.81905 -13.5309,12.60106 -5.5835,5.78201 -10.1519,9.93469 -10.1519,9.22818 0,-0.70651 2.475,-3.72883 5.5,-6.71625 3.025,-2.98742 5.5,-5.88168 5.5,-6.43168 0,-0.55 -2.475,1.44426 -5.5,4.43168 -3.025,2.98742 -5.5,4.78565 -5.5,3.99607 0,-0.78959 1.2741,-2.57422 2.8314,-3.96584 1.5572,-1.39163 5.0447,-4.98836 7.75,-7.99275 4.9108,-5.45382 4.9123,-5.45754 0.9186,-2.33822 -2.2,1.71837 -5.5338,4.72149 -7.4084,6.67361 -3.7184,3.87202 -5.0916,3.87115 -5.0916,-0.003 0,-3.4964 15.4881,-18.82087 21.8265,-21.59591 2.5705,-1.12538 7.2537,-4.67477 10.4071,-7.88754 4.4801,-4.56435 8.1967,-7.04524 17,-11.34792 17.5969,-8.60058 35.8586,-12.25273 55.2664,-11.05272 37.7272,2.33274 64.963,16.6695 86.4647,45.51443 10.2684,13.77535 11.6626,15 17.0765,15 5.0596,0 6.4838,-1.05576 9.3125,-6.90364 1.8475,-3.81944 2.102,-7.85091 0.6373,-10.09636 -0.8151,-1.24966 -1.3941,-0.97634 -3.4693,1.63773 -4.3628,5.49571 -10.9835,5.23743 -13.9738,-0.54511 -1.7355,-3.35626 -2.0812,-9.09262 -0.5479,-9.09262 0.55,0 1,-0.45 1,-1 0,-0.55 -0.6634,-1 -1.4743,-1 -0.8109,0 -2.1787,-1.3621 -3.0396,-3.02688 -4.0494,-7.83069 4.588,-16.89902 10.4821,-11.00498 1.6905,1.69053 2.0865,1.7566 2.8074,0.46838 1.1839,-2.11541 7.7979,-3.00277 10.721,-1.43837 1.3129,0.70268 3.0845,2.67805 3.9368,4.38972 1.4755,2.96315 1.5792,3.00601 2.1662,0.89525 0.7042,-2.53262 3.4574,-3.71722 6.4395,-2.77072 1.7816,0.56544 1.9581,0.32452 1.3979,-1.90744 -0.5028,-2.00326 0.012,-3.20754 2.384,-5.57979 3.8338,-3.83376 8.2466,-4.04853 11.7245,-0.57063 2.8896,2.88961 3.1059,5.62173 0.7319,9.24494 l -1.7227,2.6291 2.7438,-0.68864 c 2.1507,-0.53979 3.2796,-0.15284 5.2227,1.79026 1.3633,1.36339 2.4788,3.41518 2.4788,4.55953 0,2.29125 -2.5119,6.80868 -4.8711,8.76027 -2.1266,1.75911 -7.7834,1.59254 -8.4905,-0.25 -1.0843,-2.82558 -2.3666,-1.49924 -2.997,3.09979 -0.3467,2.52989 -2.0499,7.26292 -3.7847,10.51784 -3.7593,7.05305 -4.8576,7.39678 -1.3224,0.41384 1.3613,-2.6888 2.4277,-6.47426 2.3807,-8.45095 -0.079,-3.33705 -0.1712,-3.22513 -1.3515,1.64587 -1.7002,7.01658 -5.6742,12.74801 -11.363,16.38842 -4.2267,2.70473 -4.3981,2.95078 -1.7005,2.44126 l 3,-0.56665 -3.1697,1.4754 c -1.7433,0.81146 -6.0183,1.86765 -9.5,2.34709 l -6.3303,0.87171 4,1.78223 c 4.2562,1.89637 12.4093,2.27714 16.433,0.76746 1.9807,-0.74312 2.4455,-1.6317 2.5,-4.77902 0.054,-3.13022 0.5855,-4.1583 2.7908,-5.40072 2.4771,-1.39552 2.8761,-1.38233 4.4039,0.14556 0.9241,0.92405 1.641,3.05727 1.5931,4.74048 -0.048,1.68322 0.063,3.06039 0.2474,3.06039 0.8221,0 4.3987,-7.21174 7.4391,-15 4.5426,-11.63655 6.9263,-15.51863 13.8153,-22.5 7.1145,-7.20985 14.3248,-11.64332 26.6014,-16.35674 8.8291,-3.38981 9.6676,-3.52178 22.176,-3.49003 10.0892,0.0256 14.4555,0.48037 19.5,2.03094 8.7576,2.69186 8.6031,4.50082 -0.5009,5.86449 -6.7652,1.01335 -15.4203,4.18846 -15.4733,5.67634 -0.014,0.39875 1.4367,0.39875 3.2242,0 1.7875,-0.39875 10.4577,-0.725 19.267,-0.725 h 16.0169 l 10.7331,5.33565 c 5.9031,2.93461 10.733,5.69201 10.733,6.12756 0,1.6745 -2.7551,2.93541 -7.9071,3.61886 -4.3554,0.57776 -5.2713,0.44954 -4.898,-0.68571 0.2525,-0.768 1.887,-1.53737 3.6321,-1.70972 4.6067,-0.45495 3.8897,-1.83048 -1.577,-3.02552 -6.8239,-1.49172 -14.3047,-2.05868 -13.6728,-1.03624 0.2975,0.48132 2.8768,0.90675 5.7318,0.9454 5.3602,0.0726 11.5808,1.71021 7.0631,1.85943 -1.1703,0.0387 -3.6777,0.71788 -5.5721,1.50937 -3.0839,1.28854 -8.4669,2.1407 -25.55,4.04467 -3.1376,0.34971 -5.25,0.19358 -5.25,-0.38803 0,-0.53525 2.1375,-1.2376 4.75,-1.56078 2.6125,-0.32318 7,-1.00213 9.75,-1.50878 4.8841,-0.89982 4.8377,-0.91388 -2,-0.60623 -6.4976,0.29236 -6.7847,0.22102 -4,-0.99417 1.65,-0.72001 4.9125,-1.61146 7.25,-1.98098 2.3375,-0.36953 4.25,-1.11033 4.25,-1.64622 0,-1.56714 -7.9009,0.16361 -14.5,3.1763 -5.8742,2.68181 -14.4976,9.04708 -23.5192,17.36061 -20.0178,18.44661 -32.6223,26.85895 -48.0051,32.03907 -3.9279,1.32268 -6.7667,2.62017 -6.3086,2.8833 0.4581,0.26313 3.2433,1.04412 6.1893,1.73554 3.4744,0.81544 4.8983,1.54022 4.0527,2.06285 -0.7322,0.4525 -2.8051,0.1784 -4.7285,-0.62526 -3.8893,-1.62503 -6.4342,-1.88739 -4.1806,-0.43097 1.1942,0.77171 0.9903,0.98542 -1,1.04807 l -2.5,0.0787 2.4763,0.98808 c 3.0608,1.22136 26.6333,0.47324 33.5237,-1.06394 13.0084,-2.90203 24.2063,-7.8366 32.1268,-14.1574 2.6803,-2.13893 7.5175,-5.68156 10.7493,-7.87251 3.2318,-2.19095 6.3818,-4.60162 7,-5.35704 1.6336,-1.99633 16.0619,-12.56566 23.6239,-17.30543 13.8369,-8.67287 20.7884,-12.31966 27.0107,-14.16999 1.9191,-0.57069 6.6393,-1.98072 10.4893,-3.1334 11.3212,-3.38956 29.9522,-5.20074 41.3455,-4.01934 17.6773,1.83298 28.9025,6.10761 46.9622,17.88345 14.0007,9.1292 15.9744,9.81759 21.7852,7.59841 3.8871,-1.48449 4.3158,-1.92411 3.198,-3.27969 -1.1478,-1.39191 -1.032,-1.42745 1.0447,-0.32067 4.1723,2.22352 3.4627,0.31296 -0.7752,-2.08747 -6.8446,-3.87685 -6.4675,-9.59754 0.9653,-14.64339 4.2736,-2.90121 10.6657,-2.52762 12.8463,0.75082 0.7546,1.13451 2.1046,2.06507 3,2.06792 1.1986,0.004 1.6895,1.08041 1.8612,4.08216 0.4189,7.32455 -4.1458,12.91266 -10.548,12.91266 -1.8555,0 -4.5122,0.8987 -5.9123,2 -1.3985,1.10007 -4.0568,2 -5.9078,2 -1.8508,0 -3.3651,0.41968 -3.3651,0.93261 0,2.61957 12.7799,3.02184 18.6102,0.5858 3.492,-1.45906 9.302,-5.66465 14.3541,-10.39027 3.4878,-3.26242 12.2592,-9.12814 13.6499,-9.12814 0.6275,0 1.6612,-0.62691 2.2971,-1.39313 0.6359,-0.76622 5.042,-2.63044 9.7912,-4.1427 8.1546,-2.59659 9.3629,-2.71751 21.7163,-2.17322 12.6028,0.55527 19.5812,1.91197 19.5812,3.80687 0,0.4962 -0.7875,0.90292 -1.75,0.90383 -1.9938,0.002 -12.3978,6.94178 -12.9671,8.64957 -0.2479,0.74373 2.0998,1.25539 6.921,1.50838 9.8683,0.51782 20.7961,5.39833 20.7961,9.28786 0,1.65313 -0.5534,2.55254 -1.5704,2.55254 -1.6136,0 -14.7614,6.7924 -28.9531,14.95776 -11.651,6.70357 -20.8969,9.18419 -34.1897,9.17293 -5.9328,-0.005 -14.2548,-0.68608 -18.4934,-1.51344 -8.5632,-1.67149 -27.8761,-10.3235 -35.6039,-15.95025 -7.3733,-5.36863 -23.208,-15.93177 -28.5666,-19.05639 -6.4896,-3.78415 -18.6009,-7.514 -26.6229,-8.19889 l -6.5,-0.55495 9.1553,4.46775 c 5.0355,2.45726 11.5605,6.27082 14.5,8.47457 7.309,5.47941 14.386,9.51372 20.3447,11.59757 6.3015,2.20376 18.4623,7.91463 18.4838,8.68026 0.032,1.12595 -15.5424,5.94625 -19.1748,5.93476 -4.6011,-0.0146 -5.5038,1.27638 -2.5685,3.67323 1.2427,1.01479 3.8018,4.04795 5.6867,6.74036 l 3.4273,4.8953 -5.4273,-0.84739 c -2.9849,-0.46607 -8.6897,-0.7832 -12.6772,-0.70473 -3.9875,0.0785 -14.3375,0.27516 -23,0.43711 l -15.75,0.29444 -7.5,-3.68559 c -9.6402,-4.73732 -17.8031,-11.4093 -25.4655,-20.81441 -6.7013,-8.2253 -12.6383,-12.05177 -18.4964,-11.92105 l -3.5381,0.0789 3,1.04865 c 7.7035,2.69277 14.2735,11.17583 13.1205,16.94085 -0.4452,2.22594 -0.2036,2.8526 1.0998,2.8526 2.7378,0 7.2797,5.06549 7.2797,8.119 0,3.39846 -4.9512,7.34866 -7.9985,6.38146 -1.5215,-0.48289 -2.2279,-0.0352 -2.9529,1.8716 -2.6266,6.90855 -14.3482,5.94447 -16.9052,-1.39042 -0.819,-2.34962 -0.647,-3.34302 0.9252,-5.34175 2.2005,-2.79748 2.3681,-3.8032 0.8814,-5.28989 -0.7333,-0.73333 -2.0968,-0.003 -4.5208,2.42083 -2.9774,2.9774 -3.9255,3.37991 -6.6688,2.83125 -3.9332,-0.78665 -4.549,-1.37834 -5.7337,-5.5091 -0.8103,-2.82508 -0.6091,-3.60144 1.472,-5.68255 1.3257,-1.32574 3.3308,-2.41043 4.4558,-2.41043 2.6766,0 2.596,-1.16616 -0.2045,-2.96063 -5.2782,-3.3821 -10.914,-1.66706 -19.2012,5.84313 -6.8176,6.17837 -21.459,16.54746 -28.0488,19.8642 -30.7691,15.48662 -65.776,15.45262 -91.7234,-0.0891 -9.4633,-5.66825 -16.1996,-11.89281 -25.9157,-23.9471 -21.5223,-26.70169 -35.7133,-40.18685 -50.4182,-47.91035 -8.1304,-4.27036 -27.0039,-11.80015 -29.5771,-11.80015 -0.9611,0 -1.998,-0.40523 -2.3041,-0.90051 -0.7837,-1.26817 14.8269,2.28163 21.4385,4.87503 21.2422,8.33217 45.9305,29.25231 57.359,48.60428 7.2324,12.24673 21.9062,25.50828 36.1892,32.70628 11.4801,5.78547 32.6216,8.82689 47.4518,6.82644 26.6221,-3.59104 43.5109,-12.13495 71.2734,-36.05669 10.9997,-9.47798 29.2744,-19.80561 45.3302,-25.61756 14.9817,-5.42316 23.7017,-6.78718 39.353,-6.15581 22.803,0.91986 31.2759,4.02942 53.5434,19.65038 12.1751,8.54098 27.0231,16.87838 28.1147,15.78682 0.2661,-0.2661 -2.8345,-2.30504 -6.8903,-4.53096 -4.0557,-2.22592 -13.4154,-8.27603 -20.7992,-13.44468 -15.1941,-10.6358 -16.8787,-11.61388 -25.9634,-15.07445 -20.9775,-7.99085 -47.6279,-7.13641 -71.3515,2.28762 -18.4732,7.33835 -30.434,14.46579 -49.6103,29.56277 -15.3594,12.09213 -23.752,17.57837 -34.3421,22.44951 -15.2092,6.99582 -30.407,9.56657 -47.1764,7.98002 -14.9506,-1.41447 -24.2559,-4.68229 -36.659,-12.8739 -11.7422,-7.75513 -18.3703,-14.47473 -28.6451,-29.04074 -20.022,-28.3841 -47.5348,-46.59875 -76.5865,-50.70347 -13.1852,-1.86295 -33.918,-1.25257 -44.3585,1.30593 -16.7901,4.11446 -45.6762,21.53509 -54.1697,32.6687 l -2.4374,3.19499 2.9374,-2.48036 c 1.6155,-1.3642 4.4877,-3.8392 6.3825,-5.5 2.6476,-2.32057 2.3518,-1.77205 -1.2777,2.36932 -2.5976,2.96393 -4.4959,5.61589 -4.2186,5.89324 0.2774,0.27735 3.6434,-2.45701 7.4801,-6.07635 3.8367,-3.61934 10.4847,-8.96151 14.7734,-11.87149 7.4642,-5.06462 8.0542,-5.28152 13.7976,-5.07237 14.7366,0.53666 26.6379,6.06919 39.7304,18.46942 21.8378,20.68299 29.1507,27.24784 30.0508,26.97687 0.5331,-0.16045 1.8128,0.4718 2.844,1.40499 3.0893,2.79579 2.1232,0.39582 -1.737,-4.31509 -1.9865,-2.42428 -3.382,-4.63769 -3.101,-4.91867 0.281,-0.28098 1.7938,1.19609 3.3619,3.28237 3.125,4.15783 7.3945,8.25691 8.6518,8.30652 0.4405,0.0174 -0.2806,-1.4309 -1.6024,-3.2184 -4.37,-5.90933 -4.0209,-6.32785 0.7943,-0.95246 2.61,2.91364 4.9662,5.07688 5.2358,4.80721 0.2697,-0.26968 -0.9089,-2.56363 -2.6191,-5.09767 -1.7102,-2.53404 -3.1095,-5.32981 -3.1095,-6.21282 0,-2.10895 -3.8929,-7.21403 -11.9492,-15.67001 -12.8774,-13.51624 -23.117,-19.55004 -41.0508,-24.18969 -6.3225,-1.63571 -19.846,-2.15575 -24.2995,-0.93444 -2.1623,0.59298 -2.1662,0.5761 -0.2246,-0.97374 2.7623,-2.20494 19.2784,-7.35408 27.3183,-8.5169 7.4554,-1.07827 29.9474,-1.1646 24.2058,-0.0929 -3.4186,0.63812 -3.3257,0.70747 4,2.98424 11.3223,3.51885 24.5275,10.7845 31.6455,17.41169 7.1057,6.61563 10.8501,11.96752 18.3221,26.18749 8.5435,16.25906 8.7398,16.4852 14.314,16.49317 10.9668,0.0157 24.8949,7.47692 28.5373,15.28737 4.7643,10.21602 3.1667,12.76775 -3.4242,5.46946 l -3.8381,-4.25 -10.5283,0.0678 c -5.7905,0.0373 -15.9283,0.23421 -22.5283,0.4376 -10.6618,0.32858 -12.6488,0.11499 -17.819,-1.91546 -3.2004,-1.2569 -6.0285,-2.07573 -6.2846,-1.81962 -0.2561,0.25611 2.1374,2.8505 5.319,5.76532 7.1934,6.59031 16.6656,11.0422 24.7686,11.64109 12.0695,0.89206 13.2265,2.11716 6.266,6.63481 -9.3838,6.09049 -26.0384,9.18547 -41.5008,7.7122 -17.307,-1.64903 -29.8373,-6.94582 -41.4467,-17.52037 -4.1294,-3.76128 -4.5439,-3.90663 -10.3025,-3.61247 -3.3,0.16858 -6.1925,0.49212 -6.4278,0.71899 -0.2353,0.22687 0.5522,2.15622 1.75,4.28745 1.1978,2.13123 2.1778,5.10243 2.1778,6.60266 0,4.2668 -4.0451,10.4824 -8.2023,12.60321 -4.9104,2.50511 -8.7633,2.39456 -12.8643,-0.36911 z m 12.4318,-1.80668 c 1.4492,-1.13992 2.6348,-2.69446 2.6348,-3.45455 0,-0.88463 -0.8833,-0.49864 -2.4545,1.07258 -1.35,1.35 -2.8904,2.45455 -3.4231,2.45455 -0.5327,0 0.3469,-1.31538 1.9546,-2.92308 1.644,-1.64404 2.8923,-3.94126 2.8527,-5.25 -0.05,-1.65256 -0.2672,-1.89221 -0.75,-0.82692 -1.1851,2.61548 -3.6353,6 -4.3436,6 -0.3755,0 -0.019,-1.33014 0.7918,-2.95586 1.8502,-3.70884 2.1847,-10.63155 0.5907,-12.22553 -2.6861,-2.68619 -9.2186,7.18122 -9.2186,13.92496 0,1.10635 0.6701,2.56763 1.489,3.24729 0.819,0.67967 1.2424,1.63477 0.941,2.12245 -1.1265,1.82268 6.3763,0.8269 8.9352,-1.18589 z m 67.8794,-4.72196 c -1.2405,-0.938 -4.7821,-3.61796 -7.8703,-5.95546 -3.0882,-2.3375 -5.8771,-4.25 -6.1975,-4.25 -1.6478,0 7.8823,8.49822 11.3232,10.09724 4.9339,2.29279 5.6721,2.3219 2.7446,0.10822 z m -19.9059,-7.45664 c -3.8483,-3.98685 -8.4908,-10.06935 -10.3166,-13.51666 -1.8259,-3.4473 -3.4798,-6.10778 -3.6754,-5.91215 -0.7224,0.72238 2.0677,7.32802 5.1446,12.17999 3.2498,5.12458 14.3286,16.01352 15.3022,15.03992 0.2982,-0.29826 -2.6064,-3.80426 -6.4548,-7.7911 z m 7.7472,3.24296 c -3.3099,-2.75452 -7.4886,-7.25452 -9.2859,-10 -1.7973,-2.74548 -3.6392,-4.99178 -4.0929,-4.99178 -0.944,0 -0.6605,0.54072 4.1009,7.82037 1.9891,3.04104 5.6617,6.78969 8.5726,8.75 7.3438,4.94561 7.6694,4.21698 0.7053,-1.57859 z m 20.3641,4.15826 c -0.5225,-0.46749 -3.65,-2.30738 -6.95,-4.08866 l -6,-3.2387 3.5,3.1337 c 1.925,1.72353 4.4,3.5349 5.5,4.02527 2.623,1.16927 5.1911,1.27874 3.95,0.16839 z m 4.55,-1.65004 c -1.375,-0.78602 -2.95,-1.42913 -3.5,-1.42913 -0.55,0 0.125,0.64311 1.5,1.42913 1.375,0.78602 2.95,1.42913 3.5,1.42913 0.55,0 -0.125,-0.64311 -1.5,-1.42913 z m -37.7827,-5.66381 c -3.4907,-3.47244 -6.7086,-8.2218 -9.8243,-14.5 -2.5484,-5.1349 -4.7681,-9.33619 -4.9326,-9.33619 -0.784,0 2.0799,8.11869 4.6875,13.28832 3.0978,6.14155 11.5476,15.71168 13.8724,15.71168 0.7634,0 -0.9479,-2.32371 -3.803,-5.16381 z m 27.7827,-0.26364 c -13.7492,-4.81983 -21.1567,-9.77749 -33.9429,-22.71744 -5.013,-5.07318 -6.7162,-6.36935 -5.4898,-4.1778 5.9594,10.64917 22.0817,22.78977 36.4327,27.4349 8.0446,2.60387 10.6371,2.13752 3,-0.53966 z m -36.5429,-3.82255 c -1.8742,-2.8875 -4.0816,-6.15 -4.9053,-7.25 -1.3715,-1.83165 -1.4026,-1.70538 -0.3687,1.5 1.1914,3.69376 6.3944,11 7.8334,11 0.4665,0 -0.6851,-2.3625 -2.5594,-5.25 z m -6.1311,-1.72321 c -3.8072,-5.09952 -5.4285,-6.01958 -3.282,-1.86244 1.5098,2.92403 5.0289,6.83565 6.1498,6.83565 0.4647,0 -0.8258,-2.23795 -2.8678,-4.97321 z m -53.0704,-4.15662 c 1.3598,-1.82867 1.7324,-3.33266 1.2233,-4.93694 -0.7162,-2.25632 -0.7655,-2.26447 -2.2401,-0.37017 -1.2207,1.56814 -1.3953,1.60984 -0.917,0.21897 1.0058,-2.92451 -1.0851,-2.96012 -2.2462,-0.0383 l -1.0952,2.75623 0.4827,-3.23959 c 0.4322,-2.90045 0.2501,-3.20153 -1.7401,-2.87601 -1.5861,0.25943 -2.1547,0.97264 -1.9847,2.48959 0.1719,1.53502 -0.3145,2.12601 -1.75,2.12601 -2.303,0 -2.7861,3.80216 -0.7428,5.8455 2.1786,2.17859 8.8054,0.98968 11.0101,-1.97533 z m 157.2197,-5.58357 c -2.1936,-5.25017 -3.9693,-6.91217 -11.174,-10.45907 -5.856,-2.88287 -7.0931,-3.1155 -16.0728,-3.02227 -6.2485,0.0649 -11.6959,0.72732 -15.2285,1.85189 -3.025,0.96299 -8.425,1.75381 -12,1.7574 -5.6784,0.006 -7.4795,-0.50918 -14.25,-4.07377 -4.2625,-2.24416 -7.75,-3.8014 -7.7499,-3.46053 0,0.72804 6.3127,5.9244 9.9707,8.20745 1.3991,0.87324 5.6492,2.62109 9.4446,3.88412 7.2373,2.40842 11.2579,2.45598 36.1228,0.42726 6.9302,-0.56543 8.5844,-0.37585 12,1.37523 2.179,1.11708 5.0528,3.19985 6.3861,4.62837 3.4069,3.64993 4.3669,3.2299 2.551,-1.11608 z m 179.9533,2.14197 c 1.7323,-1.73236 2.1569,-3.90849 0.5714,-2.92857 -0.55,0.33992 -1,-0.0835 -1,-0.94098 0,-1.85996 -1.6721,-2.08627 -2.2832,-0.30902 -0.2363,0.6875 -0.3094,0.45458 -0.1623,-0.51759 0.4575,-3.02355 -2.2098,-4.84661 -5.1385,-3.51216 -2.0112,0.91633 -2.4553,1.75628 -2.2157,4.19011 0.4683,4.75701 6.9451,7.30142 10.2283,4.01821 z m -301.0103,-0.0356 c 0.8699,-0.3338 1.5817,-1.2889 1.5817,-2.1224 0,-1.23369 -0.2788,-1.284 -1.5,-0.27057 -1.2611,1.04666 -1.5035,0.86711 -1.5222,-1.12756 l -0.022,-2.37244 -2.0708,2.5 c -1.6988,2.05075 -1.951,2.1406 -1.4037,0.5 0.7768,-2.32875 0.7935,-2.4525 0.6374,-4.71862 -0.08,-1.15914 -0.6881,-1.53949 -1.8684,-1.16836 -1.6095,0.50606 -1.6047,0.43094 0.06,-0.93538 2.4965,-2.04929 0.8907,-2.68929 -3.3099,-1.31921 -4.7172,1.53858 -5.1318,4.66361 -1.1473,8.64809 2.946,2.94599 6.8245,3.82206 10.5655,2.38649 z m -8.4183,-4.21151 c 0,-1.20855 1.8972,-2.61759 2.5907,-1.9241 0.2517,0.2517 -0.2282,1.02686 -1.0665,1.72258 -0.9504,0.78875 -1.5242,0.86462 -1.5242,0.20152 z m 21.7775,3.26184 c 2.4485,-1.715 3.0116,-6.25425 1.0225,-8.2433 -0.66,-0.66 -3.0225,-1.18239 -5.25,-1.16086 l -4.05,0.0391 3.25,1.41259 c 1.7875,0.77692 3.25,1.90014 3.25,2.49604 0,0.76131 -0.5751,0.77566 -1.9342,0.0483 -3.239,-1.73343 -4.4326,-1.15624 -1.9265,0.93155 1.2984,1.0817 1.8248,1.9817 1.1698,2 -0.6551,0.0183 -1.4691,-0.41673 -1.8091,-0.96673 -1.2986,-2.1012 -2.2567,-0.88214 -1.1559,1.47078 0.9958,2.12848 1.9269,2.80702 4.6834,3.41322 0.2902,0.0638 1.5277,-0.58452 2.75,-1.4407 z m 154.7225,-0.4433 c -0.3399,-0.55 -1.0414,-1 -1.559,-1 -0.5175,0 -0.941,0.45 -0.941,1 0,0.55 0.7016,1 1.5591,1 0.8574,0 1.2809,-0.45 0.9409,-1 z m -191.75,-2.27768 c 2.0168,-1.56047 1.5358,-8.43657 -0.75,-10.72232 -2.0986,-2.09862 -3.7121,-2.43142 -6.5354,-1.34801 -1.402,0.53797 -1.1977,0.88601 1.1682,1.99009 1.577,0.73595 1.9672,1.12782 0.8672,0.87083 -1.1,-0.25699 -2.675,-0.0344 -3.5,0.49461 -1.3194,0.84609 -1.3123,0.9637 0.059,0.97717 0.8574,0.008 2.4324,0.71513 3.5,1.57048 1.8752,1.50228 1.8669,1.51928 -0.2431,0.5 -1.2013,-0.58035 -3.0013,-1.05349 -4,-1.05143 -1.254,0.003 -0.7753,0.63802 1.5471,2.05389 3.6179,2.20568 3.7353,3.86802 0.1372,1.94237 -3.3927,-1.81572 -3.4012,-0.51534 -0.015,2.33379 2.9992,2.5237 4.8838,2.618 7.7651,0.38853 z m -24.1911,-1.2741 c 1.868,-1.49326 1.8469,-1.52902 -0.5589,-0.94822 -2.2833,0.55126 -2.3483,0.4812 -0.75,-0.80846 2.0337,-1.64093 2.3094,-3.68469 0.5,-3.70685 -0.8333,-0.0102 -0.75,-0.33844 0.25,-0.98469 0.825,-0.53316 1.05,-0.98316 0.5,-1 -0.55,-0.0168 -0.325,-0.50799 0.5,-1.09144 1.2302,-0.86996 1.2548,-1.15887 0.1369,-1.60574 -1.1055,-0.44192 -1.1176,-0.69666 -0.064,-1.34766 1.0641,-0.65767 1.0625,-1.08756 -0.01,-2.37894 -2.8009,-3.37486 -8.1132,-1.2053 -10.147,4.14406 -1.4794,3.89105 -1.0748,6.21208 1.5383,8.82517 2.8288,2.82877 5.3445,3.10901 8.1043,0.90277 z m 417.5074,0.62551 c 2.9886,-0.50946 7.5478,-1.20853 10.1318,-1.55349 5.1521,-0.68783 5.6134,-2.37382 1.1998,-4.38479 -3.5915,-1.6364 -3.951,-1.41929 -1.8029,1.08891 1.5765,1.84079 1.2699,1.75458 -1.7783,-0.5 -4.577,-3.38539 -5.5205,-3.4475 -3.4087,-0.22436 2.2033,3.3626 0.836,3.14979 -3.6802,-0.5728 -4.0947,-3.37527 -4.8947,-2.68036 -1.6552,1.43794 3.1721,4.03271 1.0128,3.13505 -3.7847,-1.57335 -4.6793,-4.59237 -5.8559,-3.80876 -1.699,1.13148 4.1916,4.9815 0.9753,3.51674 -3.6743,-1.67327 l -4.2553,-4.75 2.685,4.90207 c 1.4767,2.69614 2.4902,5.09681 2.2521,5.33483 -0.238,0.23802 -2.1571,-1.82978 -4.2646,-4.59512 -4.818,-6.32186 -6.3098,-6.58563 -2.9173,-0.51583 1.422,2.54428 2.5855,4.86402 2.5855,5.15499 0,1.57435 -4.5527,-3.94458 -6.6249,-8.03094 -1.3248,-2.6125 -2.5948,-4.75 -2.8221,-4.75 -0.5837,0 1.01,5.31499 2.3372,7.79487 1.414,2.64213 1.4093,3.50824 -0.014,2.6283 -0.6184,-0.38217 -2.4449,-3.60725 -4.0589,-7.16684 -1.6139,-3.55958 -3.1317,-6.27477 -3.3727,-6.03373 -0.557,0.55696 2.5327,9.96071 3.6888,11.2274 1.2482,1.36759 1.0685,2.79248 -0.2495,1.97791 -0.6142,-0.37956 -2.6278,-4.00612 -4.4748,-8.05901 -1.847,-4.0529 -3.5473,-7.3689 -3.7785,-7.3689 -0.4606,0 3.0374,11.65298 3.9329,13.10198 0.3053,0.49391 0.2741,0.89802 -0.069,0.89802 -0.3433,0 -2.3882,-3.7125 -4.5441,-8.25 -3.6722,-7.72881 -4.2955,-7.07699 -1.4344,1.5 1.7615,5.28081 0.7586,4.66582 -1.6309,-1 -1.1017,-2.6125 -2.7198,-6.4375 -3.5956,-8.5 -2.9176,-6.87056 -3.1289,-3.86336 -0.2675,3.80671 1.5505,4.15619 2.3422,7.39774 1.7593,7.20345 -0.5829,-0.1943 -2.0416,-3.25732 -3.2416,-6.80671 -2.8682,-8.48389 -4.8211,-12.07296 -5.3084,-9.75586 -0.1963,0.93368 0.158,2.65972 0.7873,3.83565 0.6293,1.17593 0.9091,2.37315 0.6218,2.66049 -0.446,0.44599 -3.6396,-6.05436 -3.6396,-7.40813 0,-0.25858 -0.9,-1.61431 -2,-3.01273 -2.5943,-3.29811 -2.5222,-2.70255 0.5,4.13121 2.7397,6.19498 2.9454,6.98923 1.5938,6.15386 -0.4985,-0.30805 -2.2748,-3.48461 -3.9475,-7.05901 -2.981,-6.37017 -4.9524,-8.70022 -3.5949,-4.24893 0.6368,2.0883 0.4678,2.04446 -2.3523,-0.61012 -4.8795,-4.59317 -5.1296,-2.57955 -0.2931,2.36012 2.4233,2.475 4.116,3.68913 3.7615,2.69806 -0.3982,-1.11321 -0.2512,-1.55881 0.3846,-1.16584 0.5661,0.34985 0.7763,1.43304 0.4672,2.40708 -0.3925,1.23647 1.404,3.89458 5.9522,8.80704 10.2248,11.04376 18.9358,15.80498 31.5285,17.23274 9.6856,1.09815 12.1053,1.11083 18.0663,0.0947 z m -45.4428,-16.61239 c -0.9649,-2.51469 -0.6803,-3.16355 0.4986,-1.13634 0.5837,1.00375 0.8506,2.03566 0.5931,2.29313 -0.2575,0.25747 -0.7487,-0.26309 -1.0917,-1.15679 z m -147.3883,12.69369 c 11.0185,-3.89558 13.2146,-5.04715 18.7648,-9.83985 2.475,-2.13718 5.85,-4.73632 7.5,-5.77585 1.65,-1.03954 5.475,-4.0302 8.5,-6.64592 21.7588,-18.81482 26.168,-22.30129 31.5,-24.90811 7.5691,-3.70047 16.8332,-5.16377 26.2599,-4.14785 8.3714,0.90218 8.2161,-0.19828 -0.3677,-2.60535 -9.1842,-2.57545 -30.5583,-2.22803 -40.8922,0.66467 -4.4,1.23166 -9.9607,3.10481 -12.3573,4.16254 -5.0033,2.20828 -15.7116,12.89401 -23.7968,23.74662 -12.8635,17.26654 -24.2367,25.90064 -35.549,26.98761 -2.6383,0.25351 -4.7969,0.9171 -4.7969,1.47465 0,2.09324 16.1412,0.10196 25.2352,-3.11316 z m 135.5898,-0.49346 c 0.6104,-5.3325 -5.5135,-8.9807 -7.825,-4.66157 -0.9226,1.72381 -0.7548,2.00971 1.2148,2.07029 2.1058,0.0648 2.1317,0.13033 0.3296,0.83522 -1.9409,0.75915 -1.9409,0.77351 0,1.8993 1.7978,1.04282 1.8096,1.13683 0.1466,1.16478 -1.0111,0.017 -1.5211,0.49636 -1.1562,1.08677 0.3591,0.581 2.0732,0.9185 3.809,0.75 2.6345,-0.25572 3.2099,-0.77552 3.4812,-3.14479 z m -6.0125,-5.34468 c 0.7219,-0.28887 1.5844,-0.25335 1.9167,0.0789 0.3323,0.3323 -0.2584,0.56864 -1.3125,0.52522 -1.165,-0.048 -1.4019,-0.28494 -0.6042,-0.60416 z m 83.1875,7.75569 c 0,-1.08176 -4.8501,-5.07258 -6.1648,-5.07258 -0.4923,0 0.103,1.35 1.3229,3 2.1203,2.86784 4.8419,4.03283 4.8419,2.07258 z m 1.5,-3.07258 c -0.9955,-1.1 -2.26,-2 -2.81,-2 -0.55,0 -0.1855,0.9 0.81,2 0.9955,1.1 2.26,2 2.81,2 0.55,0 0.1855,-0.9 -0.81,-2 z m -428.2564,-1.49365 c 0.5422,-2.83669 -1.4435,-5.02735 -3.7535,-4.14091 -3.6811,1.41259 -3.0027,6.63456 0.862,6.63456 1.78,0 2.5401,-0.65549 2.8915,-2.49365 z m 38.5798,0.82652 c -0.4866,-2.50877 -2.8234,-2.85325 -2.8234,-0.4162 0,1.22833 0.6457,2.08333 1.5734,2.08333 0.9312,0 1.4413,-0.68037 1.25,-1.66713 z m 146.3586,-0.83287 c 0.6265,-1.375 1.5327,-2.5 2.0137,-2.5 0.4811,0 0.393,0.9 -0.1957,2 -1.7354,3.24274 0.4014,2.28352 2.3819,-1.06923 2.1207,-3.5901 1.5865,-4.72247 -1.2804,-2.71437 -2.8289,1.98141 -6.4764,6.7836 -5.1526,6.7836 0.6017,0 1.6066,-1.125 2.2331,-2.5 z m 134.318,0.5 c 0.3399,-0.55 -0.196,-1 -1.191,-1 -1.3433,0 -1.809,-0.77224 -1.809,-3 0,-1.65 0.3375,-3 0.75,-3 0.4125,0 0.75,-0.43588 0.75,-0.96862 0,-1.20094 -2.9196,-0.22527 -5.2129,1.74203 -1.5503,1.32996 -1.5716,1.7426 -0.2243,4.348 1.5073,2.91488 5.6101,4.02591 6.9372,1.87859 z m 19.3125,-0.9375 c 0.25,-0.75 -0.125,-1.125 -0.875,-0.875 -0.7219,0.24062 -1.5094,1.02813 -1.75,1.75 -0.25,0.75 0.125,1.125 0.875,0.875 0.7219,-0.24062 1.5094,-1.02813 1.75,-1.75 z m -144.8347,-4.75348 c 0.012,-0.65504 0.5204,-1.49884 1.1292,-1.87511 0.7736,-0.47812 0.892,0.29459 0.393,2.56609 -1.1146,5.07494 1.2921,2.71155 2.6236,-2.57635 0.6173,-2.45171 1.5458,-4.71929 2.0632,-5.03908 0.8637,-0.53381 0.6855,1.72189 -0.7597,9.61543 -0.434,2.37006 -0.3811,2.40203 1.0166,0.61497 1.337,-1.7095 1.7735,-3.68409 2.8987,-13.11497 0.1969,-1.65 0.457,0.375 0.5781,4.5 0.2901,9.88401 1.8752,6.50174 2.1089,-4.5 0.1847,-8.68939 1.6018,-7.25111 1.9706,2 0.3221,8.07731 1.7629,1.62567 2.0099,-9 0.1954,-8.404 0.2717,-8.702 1.1526,-4.5 0.5188,2.475 0.7204,6.9266 0.448,9.89245 -0.3312,3.60572 -0.163,5.06012 0.5076,4.38945 0.5517,-0.55165 1.3625,-6.9275 1.8019,-14.16854 0.4394,-7.24104 1.122,-13.48861 1.5168,-13.88349 0.3949,-0.39488 0.4702,3.77936 0.1673,9.27608 -0.6876,12.47917 0.8892,16.25004 1.8262,4.36704 0.7252,-9.19733 2.3074,-17.54358 3.7673,-19.87299 0.6647,-1.06061 0.7484,-0.76768 0.2857,1 -1.1146,4.2582 -1.6072,19.75383 -0.5563,17.5 0.5128,-1.1 0.9641,-3.4767 1.0027,-5.28154 0.073,-3.39576 3.6235,-15.09205 5.0214,-16.54072 0.4364,-0.45224 0.1759,1.55833 -0.5788,4.46793 -0.7547,2.9096 -1.3365,7.32962 -1.2928,9.82226 l 0.08,4.53207 1.3293,-6.11038 c 0.731,-3.36071 2.511,-8.53571 3.9554,-11.5 1.4444,-2.96429 2.3517,-4.26462 2.0161,-2.88962 -1.876,7.68773 -3.2765,14.51661 -3.028,14.76507 0.1563,0.1563 1.7011,-3.46999 3.4328,-8.05842 1.7318,-4.58843 3.8232,-9.21201 4.6474,-10.27462 1.0158,-1.30945 0.8696,-0.41445 -0.4537,2.77742 -1.0738,2.59019 -2.2137,6.41519 -2.533,8.5 -0.4873,3.18095 0.048,2.50398 3.3271,-4.20945 2.1493,-4.4 4.6511,-8.9 5.5595,-10 1.5373,-1.86135 1.5388,-1.72269 0.023,2 -4.816,11.82498 -4.3983,13.40713 1.0709,4.05538 2.087,-3.56874 4.8853,-7.51324 6.2183,-8.76556 1.988,-1.86764 1.7813,-1.21012 -1.15,3.65779 -3.9437,6.54927 -4.7728,9.76728 -1.3017,5.05239 3.6529,-4.96183 9.9846,-11.57672 10.5448,-11.01651 0.2884,0.28842 -0.3928,1.53512 -1.5138,2.77045 -1.1211,1.23533 -2.8723,3.59606 -3.8917,5.24606 -1.6886,2.7332 -1.4481,2.63363 2.7039,-1.11965 2.5065,-2.26581 5.756,-4.90506 7.221,-5.86501 4.0246,-2.63698 3.2496,-3.51661 -3.0862,-3.50292 -6.3794,0.0138 -20.6602,3.62574 -26.8791,6.79836 -7.528,3.84052 -16.1277,10.08718 -19.8161,14.39407 -3.8351,4.47837 -11.5548,18.89105 -11.5548,21.57309 0,2.19935 -4.7787,10.2188 -8.0407,13.49366 -1.7251,1.7319 -2.5777,3.47142 -2.2729,4.63714 0.2683,1.02605 -10e-4,2.16789 -0.5992,2.53742 -0.598,0.36953 -1.0771,1.20782 -1.0649,1.86286 0.028,1.52093 3.9257,-3.40554 3.9555,-5 z m 140.0222,2.19098 c 0.9932,-1.19672 0.9932,-1.80328 0,-3 -0.7175,-0.86459 -0.8147,-1.5 -0.2294,-1.5 0.5585,0 1.2992,0.73941 1.6459,1.64313 0.3468,0.90372 0.9059,1.36776 1.2425,1.03121 0.3366,-0.33656 -0.1517,-1.77741 -1.0851,-3.2019 -2.2811,-3.48138 -7.8942,-3.24093 -8.4043,0.36003 -0.3472,2.45198 2.2811,6.16753 4.3629,6.16753 0.6725,0 1.7828,-0.675 2.4675,-1.5 z m -361.2,-0.7 c 0.66,-0.66 1.2,-1.65 1.2,-2.2 0,-0.55556 -0.5333,-0.46667 -1.2,0.2 -0.66,0.66 -2.3475,1.19337 -3.75,1.18526 l -2.55,-0.0147 2.4912,-1.26038 c 2.7983,-1.4158 4.225,-5.11405 1.5815,-4.09964 -1.1125,0.4269 -1.5727,0.008 -1.5727,-1.43019 0,-1.11851 0.5625,-2.23357 1.25,-2.4779 0.6875,-0.24433 -0.1,-0.27127 -1.75,-0.0599 -1.65,0.21142 -3.5825,1.16583 -4.2945,2.12092 -1.3462,1.80564 -0.853,5.75131 0.9974,7.98094 1.3237,1.59505 6.0233,1.62944 7.5971,0.0556 z m 56.7,0.2 c -0.3399,-0.55 -1.3789,-0.99311 -2.309,-0.98469 -1.4572,0.0132 -1.4836,0.14929 -0.191,0.98469 1.9584,1.2656 3.2822,1.2656 2.5,0 z m 22.2954,-2.57901 c 0.1625,-1.12864 -0.1393,-3.19541 -0.6706,-4.59281 -1.1979,-3.15065 -7.0564,-4.45185 -10.9228,-2.42601 -2.1468,1.12483 -2.9423,1.08164 -5.3502,-0.29045 -2.5333,-1.44354 -3.1063,-1.4552 -5.4913,-0.11172 -4.1486,2.33688 -5.2912,4.85113 -2.8605,6.29401 2.6106,1.54961 5.7377,1.74514 5.1516,0.32212 -1.895,-4.60105 -1.6833,-4.861 1.3159,-1.61613 2.8613,3.09568 3.0408,3.1723 1.5539,0.66324 -0.9247,-1.56022 -1.464,-3.05388 -1.1987,-3.31924 0.2654,-0.26536 1.2862,0.87815 2.2686,2.54113 l 1.786,3.02359 1.7967,-2.95436 c 0.9882,-1.6249 2.2533,-2.95436 2.8113,-2.95436 1.3057,0 1.3157,1.69597 0.015,2.5 -0.55,0.33992 -1,1.11122 -1,1.714 0,0.60279 0.9,0.28149 2,-0.714 1.1,-0.99549 2,-1.31679 2,-0.714 0,0.60278 -0.45,1.37408 -1,1.714 -0.55,0.33992 -1,1.05185 -1,1.58207 0,0.53022 1.2375,0.18899 2.75,-0.75829 l 2.75,-1.72232 -2.2812,2.54692 -2.2811,2.54692 3.7811,-0.61111 c 2.7999,-0.45252 3.8579,-1.14369 4.0766,-2.6632 z m 474.7735,0.66489 c 3.3379,-1.18095 10.9879,-5.07596 17,-8.65558 6.0121,-3.57962 11.9436,-6.76461 13.1811,-7.07775 1.2375,-0.31315 2.25,-1.02307 2.25,-1.57759 0,-0.55452 -0.9195,-0.76776 -2.0434,-0.47385 -1.1239,0.2939 -3.3679,0.15454 -4.9865,-0.3097 -3.2007,-0.91792 -5.2406,0.58978 -2.8482,2.10508 1.0458,0.66242 0.8838,0.87658 -0.6719,0.8882 -1.1275,0.008 -2.5447,-0.47939 -3.1493,-1.08403 -1.3647,-1.36463 -5.582,-0.16489 -4.6607,1.32584 0.3897,0.63063 0.2044,0.79534 -0.4441,0.39458 -0.6122,-0.37836 -4.1692,0.85028 -7.9045,2.73031 -12.2977,6.18967 -30.6333,10.29826 -42.2186,9.46026 -6.4602,-0.46729 -7.8431,0.51514 -3.3228,2.36052 8.4562,3.45217 29.9493,3.4056 39.8189,-0.0863 z m 6.3807,-8.65843 -2.4496,-1.35658 3.191,-0.0354 c 3.3316,-0.037 5.2394,1.39358 3.0029,2.2518 -0.7121,0.27324 -2.397,-0.11366 -3.7443,-0.85978 z m 6.8004,-3.08973 c 0.6875,-0.27741 1.8125,-0.27741 2.5,0 0.6875,0.27741 0.125,0.50439 -1.25,0.50439 -1.375,0 -1.9375,-0.22698 -1.25,-0.50439 z m 3,-2 c 0.6875,-0.27741 1.8125,-0.27741 2.5,0 0.6875,0.27741 0.125,0.50439 -1.25,0.50439 -1.375,0 -1.9375,-0.22698 -1.25,-0.50439 z m -357.3399,14.26431 c 1.8402,-0.76888 3.6961,-1.96476 4.1242,-2.65752 0.867,-1.4028 0.3805,-1.29018 -8.5343,1.97545 -5.0308,1.84287 -5.22,2.01753 -2.2178,2.04739 1.8051,0.018 4.7877,-0.59643 6.6279,-1.36532 z m 157.5899,-4.46248 c 0,-3.86036 -3.3868,-10.18316 -6.8784,-12.84142 -3.1143,-2.37096 -3.2489,-1.27613 -0.1624,1.32099 4.3996,3.70199 6.3533,7.90145 5.584,12.00236 -0.3916,2.08754 -0.2344,3.37852 0.4115,3.37852 0.5749,0 1.0453,-1.7372 1.0453,-3.86045 z m 82.3948,2.88351 c 9.6791,-1.58507 17.0223,-4.00598 15.8145,-5.21373 -0.5815,-0.58151 -7.1573,-2.0873 -14.6129,-3.34619 -17.2359,-2.91029 -21.4102,-4.29918 -36.0964,-12.01007 -10.8803,-5.71263 -23.0895,-10.08989 -25.7083,-9.21697 -0.5607,0.1869 0.2693,1.88652 1.8444,3.77695 l 2.8639,3.43715 -3.0888,-2.17842 c -1.6989,-1.19813 -3.6665,-2.87443 -4.3725,-3.7251 -1.5301,-1.84366 -3.4899,-2.08731 -2.3864,-0.29668 0.4237,0.6875 -0.5194,0.4065 -2.0957,-0.62444 -2.4557,-1.60604 -2.7768,-1.64184 -2.2427,-0.25 0.7341,1.91317 0.2744,2.00965 -2.5003,0.52467 -1.5539,-0.83159 -1.8769,-0.81175 -1.325,0.0814 0.4722,0.76392 0.073,1.11172 -1.1293,0.98462 -4.6134,-0.48765 -11.3593,0.12628 -11.3593,1.03377 0,0.55 1.7386,1 3.8635,1 10.8382,0 19.6673,3.48709 30.8987,12.20351 6.8637,5.32674 18.3572,11.0983 24.2378,12.17124 1.925,0.35122 5.3,1.03383 7.5,1.51692 5.5611,1.22112 12.9428,1.26987 19.8948,0.13139 z m -12.4694,-3.28339 c -2.5057,-2.1743 -7.3221,-7.73967 -6.6981,-7.73967 1.1497,0 9.2608,7.84522 8.6955,8.41051 -0.3128,0.31285 -1.2117,0.011 -1.9974,-0.67084 z m -7.0059,-2.48967 c -5.7736,-6.46835 -7.3253,-8.49166 -5.8654,-7.64805 2.2754,1.31489 10.3647,10.39805 9.2604,10.39805 -0.5172,0 -2.0449,-1.2375 -3.395,-2.75 z m 10.0805,0.25 c -1.608,-1.71164 -1.8995,-2.49009 -0.9243,-2.46858 1.5123,0.0334 5.6297,4.96858 4.1453,4.96858 -0.4798,0 -1.9293,-1.125 -3.221,-2.5 z m 5.655,0.67126 c -0.9103,-1.00581 -1.655,-2.05287 -1.655,-2.32681 0,-0.8271 6.408,0.33348 7.75,1.40363 2.5097,2.00133 1.1623,2.75793 -2,1.12307 -2.9907,-1.54613 -3.1405,-1.54818 -1.8776,-0.0257 1.8786,2.26469 -0.1548,2.10494 -2.2174,-0.17421 z m -25.0262,-5.91435 c -3.0118,-3.7087 -5.2826,-6.93646 -5.0462,-7.17281 0.5067,-0.50672 7.111,6.97871 9.7656,11.06847 3.2191,4.95944 0.9518,3.08791 -4.7194,-3.89566 z m -4.7827,-0.0151 c -2.5596,-3.158 -6.0868,-7.43777 -7.8383,-9.5106 -2.8292,-3.3484 -2.9236,-3.64328 -0.8461,-2.64363 2.2749,1.09467 15.4824,17.92057 14.054,17.90423 -0.3936,-0.005 -2.8099,-2.592 -5.3696,-5.75 z m -7.553,-2.49562 c -2.3138,-2.88541 -5.8595,-7.15869 -7.8795,-9.49619 -4.3094,-4.98694 -2.601,-5.79485 1.9683,-0.93084 3.8096,4.0552 11.854,15.6823 10.8466,15.67703 -0.4007,-0.002 -2.6216,-2.3646 -4.9354,-5.25 z m -9.2452,-6.00849 -2.3099,-3.2377 2.8279,2.7197 c 1.5554,1.49583 2.5949,2.95279 2.31,3.2377 -0.2849,0.2849 -1.5575,-0.93897 -2.828,-2.7197 z m -5.5479,-1.7377 c -0.3399,-0.55 -0.1415,-1 0.441,-1 0.5824,0 1.059,0.45 1.059,1 0,0.55 -0.1984,1 -0.441,1 -0.2425,0 -0.7191,-0.45 -1.059,-1 z m 0.047,-4.9508 c -2.2839,-2.3839 -2.4474,-2.8359 -0.8775,-2.42535 1.8611,0.48669 4.8791,4.16079 4.0768,4.9631 -0.2157,0.2157 -1.6554,-0.92628 -3.1993,-2.53775 z m -364.6881,23.91913 c 3.0605,-2.54975 2.2407,-6.34836 -1.8237,-8.45014 -3.9864,-2.06146 -5.9883,-1.91084 -8.7207,0.65612 -2.3728,2.22915 -3.1557,7.18775 -1.3145,8.32569 0.5672,0.35052 1,-0.48962 1,-1.94098 0,-1.40746 0.4766,-2.55902 1.0591,-2.55902 0.5824,0 0.806,0.40939 0.4967,0.90976 -0.3092,0.50036 -0.2674,1.67814 0.093,2.61728 0.5406,1.40873 0.8769,1.20579 1.922,-1.15976 1.1508,-2.60458 1.2743,-2.66114 1.348,-0.61728 0.088,2.43271 1.5592,3.02391 2.4887,1 0.3158,-0.6875 0.3229,-0.2375 0.016,1 -0.6811,2.74564 0.3251,2.80958 3.4354,0.21833 z m 100.2453,-6.67281 c -1.7259,-3.18754 -2.343,-4.67075 -1.3711,-3.29603 0.9718,1.37473 3.2715,4.07473 5.1105,6 l 3.3435,3.50051 -3.1743,-6 c -3.0403,-5.74658 -2.529,-5.446 3.0614,1.79956 3.1606,4.09632 3.347,2.70585 0.3549,-2.64749 -2.0594,-3.68469 -2.2844,-4.65207 -1.0819,-4.65207 0.8349,0 1.7849,0.84065 2.111,1.86812 0.3261,1.02746 1.5369,2.71496 2.6907,3.75 2.9296,2.62799 -8.2044,-19.5362 -13.3714,-26.61812 -8.9794,-12.30738 -19.1663,-19.59879 -34.2695,-24.52898 -12.7917,-4.17564 -20.3006,-4.82869 -33.258,-2.89243 -6.1875,0.92462 -11.25,2.00762 -11.25,2.40666 0,0.39905 2.8496,0.99164 6.3324,1.31687 3.4828,0.32523 9.3329,1.34502 13.0001,2.2662 6.7291,1.69028 21.8708,9.71671 27.2821,14.46188 3.8505,3.37643 13.1713,14.21337 17.8211,20.7198 2.0636,2.8875 4.1128,5.25 4.5539,5.25 0.4411,0 2.204,2.18491 3.9176,4.85535 1.7136,2.67045 4.0721,5.70795 5.2411,6.75 l 2.1254,1.89465 -1.733,-3.5 -1.733,-3.5 3.2114,3.80145 c 1.7663,2.0908 3.439,3.57378 3.7173,3.29552 0.2783,-0.27826 -0.9062,-3.11392 -2.6322,-6.30145 z m 234.1514,3.14749 c 0.7324,-3.83106 -3.1243,-7.8134 -9.5129,-9.82287 -4.7446,-1.49233 -6.0497,-1.52503 -11.9025,-0.29817 -3.6155,0.75787 -7.6338,2.12046 -8.9294,3.02799 l -2.3558,1.65004 h 3.6754 c 4.5634,0 8.5538,1.7447 9.2891,4.06145 0.3069,0.96687 1.224,2.31068 2.038,2.98626 1.1879,0.98588 1.8373,0.90502 3.29,-0.4097 2.4321,-2.201 7.3963,-2.0709 10.2867,0.26959 2.7783,2.24968 3.4576,2.00828 4.1214,-1.46459 z m 152.8277,0.47366 c 2.3129,-2.31291 3.9323,-1.84536 1.9368,0.55916 -1.045,1.25904 -0.9828,1.52417 0.3575,1.52417 0.8923,0 1.6224,-0.43417 1.6224,-0.96482 0,-0.53065 1.0125,-1.50432 2.25,-2.16372 2.0402,-1.08712 2.122,-1.04378 0.8776,0.46482 -0.9352,1.13366 -1.0043,1.66372 -0.2167,1.66372 1.3727,0 8.0891,-6.52591 8.0891,-7.85968 0,-0.50949 0.6889,-1.1907 1.5309,-1.5138 0.842,-0.3231 -0.087,1.53155 -2.0646,4.12146 -4.9335,6.46117 -2.8323,6.48909 3.5604,0.0473 4.4175,-4.45144 4.8223,-4.69297 2.5406,-1.51569 -3.5634,4.96206 -2.7814,7.09454 0.9987,2.72336 1.6137,-1.86606 4.3478,-4.84636 6.0757,-6.62289 1.7279,-1.77654 3.3254,-3.78132 3.55,-4.45507 0.2246,-0.67375 0.9764,-1.03562 1.6708,-0.80416 0.8179,0.27262 0.096,1.64611 -2.05,3.9 -1.8219,1.91354 -4.3796,4.69131 -5.6839,6.17281 l -2.3714,2.69365 3.7498,-1.15084 c 2.0624,-0.63296 3.2972,-1.30173 2.7439,-1.48615 -0.931,-0.31035 10.2352,-12.25031 11.4565,-12.25031 0.301,0 -1.31,2.01495 -3.58,4.47766 -3.7249,4.04096 -5.0837,6.52234 -3.5718,6.52234 0.3055,0 3.4555,-2.9 7,-6.44444 3.5444,-3.54445 6.4444,-6.08919 6.4444,-5.65499 0,0.4342 -0.9417,1.64166 -2.0926,2.68325 -1.151,1.04159 -2.5459,2.74064 -3.0998,3.77567 -1.1554,2.15886 -0.3441,1.81008 4.8444,-2.08259 2.101,-1.57625 3.2851,-1.96556 3.5511,-1.16749 0.2924,0.87697 1.0544,0.78272 2.848,-0.35223 1.7868,-1.13059 4.8147,-1.51002 11.199,-1.40336 4.8126,0.0804 8.7501,0.0397 8.75,-0.0904 0,-0.13012 -1.6301,-0.91762 -3.6222,-1.75 -4.3181,-1.80421 -21.5111,-2.07314 -27.7619,-0.43425 -2.2638,0.59355 -5.916,1.55369 -8.116,2.13365 -6.9924,1.84334 -14.2692,4.64581 -21.4406,8.25727 -9.7156,4.89267 -14.7632,6.49605 -20.5594,6.53067 -6.6502,0.0397 -9.7895,1.91851 -3.5,2.09462 2.475,0.0693 5.5631,0.0374 6.8623,-0.071 1.4802,-0.12342 2.1117,0.20866 1.691,0.88931 -1.1669,1.88809 1.3581,1.17493 3.53,-0.99704 z m -480.1502,-6.3578 -0.067,-4.05887 -1.418,4.5 c -1.8946,6.01286 -1.8628,8.1321 0.084,5.55887 0.8075,-1.06762 1.4381,-3.76762 1.4013,-6 z m 85.5189,4.3482 c -0.8797,-1.70111 -1.8522,-2.84016 -2.1611,-2.53121 -0.5751,0.575 2.3498,5.62414 3.2579,5.62414 0.2764,0 -0.2171,-1.39182 -1.0968,-3.09293 z m 68.798,0.3872 c -3.0946,-0.59605 -2.8212,-1.33672 1.7381,-4.70929 2.1673,-1.60327 4.6317,-4.37128 5.4763,-6.15113 2.2108,-4.65884 1.9538,-11.31738 -0.5764,-14.93385 -1.1544,-1.65 -1.7666,-2.1 -1.3604,-1 1.7948,4.86015 2.7001,10.45675 2.0868,12.90024 -0.9437,3.75994 -7.7972,10.25777 -11.7625,11.15201 l -3.3519,0.75589 3,1.30083 c 1.65,0.71545 3.9,1.25984 5,1.20974 1.7032,-0.0776 1.6661,-0.1554 -0.25,-0.52444 z m 25.75,-0.67183 c 0,-2.16747 -2.7533,-3.94504 -4.7372,-3.05838 -1.5397,0.68812 -1.4683,0.8389 0.5637,1.19145 1.5154,0.26291 2.1364,0.89883 1.7814,1.82406 -0.3185,0.82988 0.065,1.42043 0.9235,1.42043 0.8078,0 1.4686,-0.6199 1.4686,-1.37756 z m -157,-2.56886 c 0,-0.52054 -1.5328,-3.56183 -3.4063,-6.75843 -4.8916,-8.34622 -14.0427,-16.67185 -22.7987,-20.74216 -9.7978,-4.55456 -13.9433,-5.48484 -5.7597,-1.29253 13.2503,6.78798 21.9624,14.59903 27.723,24.85591 2.5665,4.56961 4.2417,6.12458 4.2417,3.93721 z m 140.3049,-0.97407 c 4.8333,-2.21263 10.5546,-9.26463 13.1434,-16.20024 1.9791,-5.3023 1.7564,-9.56028 -0.472,-9.02401 -5.2945,1.27414 -7.8,-0.29414 -8.9763,-5.61863 -0.4767,-2.15797 -0.6346,-2.09397 -3.392,1.37457 -2.7372,3.44318 -2.8103,3.77848 -1.3654,6.26337 4.0711,7.00168 2.9522,15.2935 -2.8681,21.25399 -4.3538,4.45869 -3.0074,5.12701 3.9304,1.95095 z m 255.8046,-1.16263 c -5.1913,-2.07689 -9.6834,-4.3145 -11.16,-5.559 -1.2398,-1.04495 -2.342,-1.06767 -5.5,-0.11342 l -3.9495,1.1934 5,0.57805 c 4.3473,0.50259 4.6084,0.65026 2,1.13124 -2.333,0.4302 -1.8884,0.5899 2,0.71833 3.4285,0.11324 4.5492,0.4504 3.5657,1.07273 -1.4285,0.90399 1.5367,1.59103 7.9343,1.83837 l 2.5,0.0966 z m -439.1095,-2.41688 c 1.4705,-1.77181 0.6603,-1.9237 -2.1731,-0.40736 -1.3129,0.70268 -2.3863,0.74793 -3.0074,0.12678 -0.6212,-0.62114 -0.087,-1.18647 1.497,-1.584 2.3885,-0.59948 4.6033,-3.63542 2.6522,-3.63542 -0.5328,0 -0.9687,0.45 -0.9687,1 0,1.62965 -3.0099,1.13776 -3.6771,-0.60093 -0.7321,-1.90787 1.4721,-3.59406 3.9285,-3.00533 0.9633,0.23086 1.5244,0.0524 1.2469,-0.3966 -0.2775,-0.44898 -2.5506,-0.7854 -5.0514,-0.7476 -4.6182,0.0698 -6.4469,1.54045 -6.4469,5.18472 0,4.4948 9.0884,7.57405 12,4.06574 z m 494.7371,-3.24729 c 2.5381,-1.66305 2.6343,-1.66305 1.9962,0 -1.1375,2.96415 0.1195,1.94066 2.7667,-2.25271 1.3888,-2.2 3.0212,-4 3.6276,-4 0.6506,0 0.4077,1.06023 -0.5925,2.58676 -0.9322,1.42272 -1.448,2.83367 -1.1462,3.13545 0.3017,0.30177 1.3502,-0.92378 2.3299,-2.72345 0.9796,-1.79967 2.8018,-4.44812 4.0491,-5.88545 l 2.268,-2.61331 -0.6581,3 c -0.5851,2.66734 -0.2762,2.45283 2.7856,-1.9345 4.0618,-5.82036 6.8973,-7.51734 4.359,-2.60874 -2.7803,5.37643 -1.1388,5.55388 2.168,0.23436 1.7161,-2.76068 4.1599,-5.5758 5.4305,-6.25583 2.1798,-1.1666 2.1569,-1.05421 -0.4053,1.99088 -1.4936,1.775 -2.6973,3.75525 -2.675,4.40056 0.04,1.16263 5.9594,-5.17271 5.9594,-6.37844 0,-0.34499 1.1767,-1.1634 2.6149,-1.81869 l 2.6149,-1.19143 -2.6149,3.10764 c -4.1779,4.96512 -3.0209,5.76903 1.673,1.1624 4.9189,-4.82763 8.7259,-5.91961 4.2121,-1.20821 -1.5808,1.65 -2.4525,2.98782 -1.9371,2.97294 1.0703,-0.0309 8.4371,-6.68039 8.4371,-7.61556 0,-1.34074 -12.2223,0.87301 -18.1804,3.29289 -10.0316,4.07432 -13.4595,6.06776 -20.0959,11.68646 -3.423,2.89808 -8.0157,6.48289 -10.2058,7.96625 -2.1902,1.48336 -3.4119,2.69702 -2.7149,2.69702 0.6971,0 2.4674,-0.78628 3.9341,-1.74729 z m 77.2629,-0.04 c 0,-0.43301 -1.3825,-0.89263 -3.0722,-1.02139 -1.8851,-0.14363 -2.8283,0.16059 -2.441,0.78729 0.7369,1.19243 5.5132,1.39523 5.5132,0.2341 z m -529.5234,-8.26259 c -8.7494,-8.82982 -16.1114,-14.19589 -22.6973,-16.54372 -4.8527,-1.72996 -17.9399,-2.0116 -20.5545,-0.44233 -1.2453,0.74741 0.091,0.86408 4.8085,0.41967 13.7325,-1.29377 21.3624,2.16887 35.9667,16.32269 10.9478,10.61008 12.9431,10.80641 2.4766,0.24369 z m 381.1921,5.59842 c -1.2799,-0.97 -2.6347,-1.12842 -4.5,-0.52617 -1.4678,0.47392 -3.5687,1.06056 -4.6687,1.30365 -1.1,0.24309 0.925,0.47987 4.5,0.52618 5.7479,0.0745 6.2881,-0.0764 4.6687,-1.30366 z m -4.1844,-3.56587 c -4.6604,-5.14972 -23.8272,-12.85491 -33.9843,-13.66197 -4.4064,-0.35012 -5.6016,-0.19449 -4.5,0.58597 1.2477,0.88393 1.1314,1.06528 -0.691,1.07802 -1.205,0.008 -2.4691,0.46531 -2.809,1.01531 -0.7588,1.2277 1.0397,1.30274 3.3157,0.13834 0.9264,-0.47392 3.0343,-1.16048 4.6843,-1.52569 l 3,-0.66403 -2.5,2.0035 -2.5,2.00349 3.4934,-0.9778 c 1.9214,-0.53779 4.6214,-0.96019 6,-0.93866 2.3421,0.0366 2.2933,0.13185 -0.7434,1.45172 -4.1823,1.8178 -4.186,2.63798 -0.01,1.43933 1.7839,-0.51161 4.5964,-0.9099 6.25,-0.88509 l 3.0066,0.0451 -3,1.40903 c -2.8943,1.35941 -2.8098,1.38779 2.401,0.80603 3.9373,-0.43958 5.2086,-0.29164 4.691,0.54587 -0.3905,0.63187 -1.471,1.15575 -2.401,1.16417 -0.9301,0.008 -2.3008,0.40173 -3.0462,0.87401 -0.7999,0.50689 1.6583,0.71378 6,0.50499 l 7.3552,-0.35369 -4.5,1.38151 -4.5,1.38152 6.9167,0.0982 c 7.2143,0.1024 7.9852,0.78521 2.384,2.11173 -2.9599,0.701 -2.7426,0.79229 2.1043,0.88408 5.3593,0.1015 5.3895,0.0853 3.5793,-1.91497 z m -439.4843,-5.35685 c 0,-0.55 -1.35,0.29338 -3,1.87418 -1.65,1.5808 -3,3.32418 -3,3.87418 0,0.55 1.35,-0.29338 3,-1.87418 1.65,-1.5808 3,-3.32418 3,-3.87418 z m 191.6554,1.90299 c 2.6429,-1.8511 3.6204,-6.20902 1.5693,-6.99608 -0.8133,-0.31211 -2.0823,0.22785 -2.8199,1.1999 -1.5963,2.10362 -1.8353,0.94045 -0.3696,-1.79837 1.2909,-2.41198 0.1718,-2.53028 -1.743,-0.18426 -1.294,1.58528 -1.3693,1.47595 -0.8007,-1.16154 0.6144,-2.84961 0.5786,-2.87908 -1.6819,-1.38535 -1.2702,0.8394 -2.7316,2.70557 -3.2475,4.14703 -0.7708,2.1539 -0.5171,3.06885 1.4243,5.13536 2.6999,2.87387 4.6724,3.14222 7.669,1.04331 z m 308.0843,-2.77881 c 0.5415,-0.6875 1.2776,-2.47741 1.6358,-3.97758 0.5637,-2.36065 0.2923,-2.81769 -2.0177,-3.39746 -1.971,-0.4947 -3.0206,-0.18906 -4.0134,1.16871 -1.9033,2.60289 -1.6865,6.22029 0.4056,6.767 2.8746,0.75122 2.9665,0.73829 3.9897,-0.56067 z m 8.9226,-3 c -0.2774,-0.6875 -0.5044,-0.125 -0.5044,1.25 0,1.375 0.227,1.9375 0.5044,1.25 0.2774,-0.6875 0.2774,-1.8125 0,-2.5 z m -274.9639,-3.25124 c 1.1788,-0.82569 2.4587,-2.9372 2.8441,-4.69226 0.8892,-4.04837 -1.9812,-6.82761 -6.2156,-6.01816 -2.4751,0.47316 -2.5604,0.61198 -0.7989,1.3004 1.6897,0.66036 1.7215,0.78075 0.222,0.84097 -1.6005,0.0643 -2.2254,1.22544 -1.8371,3.41404 0.082,0.46406 -0.4269,0.64238 -1.1316,0.39626 -0.7047,-0.24613 -1.1628,-1.12828 -1.0181,-1.96035 0.3798,-2.18298 -2.5399,-4.40295 -3.944,-2.99882 -0.7948,0.79478 -0.2333,1.95883 2.0424,4.23454 1.7261,1.72616 3.1384,3.74135 3.1384,4.47821 0,2.57382 3.6721,3.12485 6.6984,1.00517 z m 102.3016,-0.11534 c 0,-0.21088 -1.125,-0.38342 -2.5,-0.38342 -1.375,0 -2.5,0.3876 -2.5,0.86133 0,0.47373 1.125,0.64627 2.5,0.38342 1.375,-0.26285 2.5,-0.65045 2.5,-0.86133 z m 59,-0.38342 c 1.2927,-0.8354 1.2663,-0.97149 -0.191,-0.98469 -0.93,-0.008 -1.9691,0.43469 -2.309,0.98469 -0.7822,1.2656 0.5416,1.2656 2.5,0 z m 173.1276,-0.75 c 1.2438,-1.58606 1.2085,-1.62143 -0.3776,-0.37756 -0.9625,0.75485 -1.75,1.54235 -1.75,1.75 0,0.82304 0.8212,0.29331 2.1276,-1.37244 z m -350.6121,-2.25 c 0.01,-0.825 -0.8914,-1.79264 -2,-2.15032 -1.785,-0.57596 -1.7296,-0.66426 0.4845,-0.77224 l 2.5,-0.12191 -2.5,-2.07085 c -1.4937,-1.23735 -1.825,-1.85606 -0.8231,-1.53721 0.9223,0.29351 2.2688,-0.17951 2.9922,-1.05116 1.1471,-1.38221 1.0394,-1.49725 -0.8427,-0.89988 -1.1869,0.37671 -2.4475,0.21662 -2.8012,-0.35575 -0.8398,-1.35883 -4.2217,-1.34075 -5.067,0.0271 -1.1922,1.92893 -0.8771,7.72256 0.511,9.39505 1.7177,2.06971 7.5239,1.71363 7.5463,-0.46282 z m 350.1133,-1.70456 c -0.8243,-0.82426 -3.6288,0.49605 -3.6288,1.70836 0,0.73956 0.6395,0.72434 2.0856,-0.0496 1.1472,-0.61391 1.8416,-1.36034 1.5432,-1.65872 z m 8.3712,1.70456 c 0,-0.55 -0.45,-1 -1,-1 -0.55,0 -1,0.45 -1,1 0,0.55 0.45,1 1,1 0.55,0 1,-0.45 1,-1 z m -381,-1.39301 c 0,-1.7618 -3.0247,-2.98222 -4.28,-1.7269 -0.5201,0.5201 -0.6433,1.43485 -0.2738,2.03278 0.974,1.57601 4.5538,1.33555 4.5538,-0.30588 z m -11.1275,-1.27071 c -1.2409,-1.50423 -1.1627,-1.55197 0.8155,-0.498 1.956,1.04208 2.1758,0.92686 2.0731,-1.08628 -0.063,-1.2386 -0.59,-2.927 -1.1707,-3.752 -0.5808,-0.825 -0.051,-0.64276 1.1769,0.40499 2.4655,2.10359 2.8532,1.05088 1.0613,-2.88191 -1.6704,-3.66612 -5.6625,-4.44636 -7.9973,-1.56305 -3.5312,4.36082 -1.4968,11.03997 3.3626,11.03997 1.7961,0 1.8805,-0.20677 0.6786,-1.66372 z m 19.1184,0.17468 c 2.0961,-2.52554 0.3833,-8.2661 -2.986,-10.00847 -1.5981,-0.82637 -3.3779,-1.50249 -3.9552,-1.50249 -1.279,0 -5.0497,3.65366 -5.0497,4.89301 0,1.54235 3.2975,2.2359 4.2356,0.89086 0.6031,-0.86473 0.709,-0.61285 0.3243,0.77153 -0.3621,1.30306 0.1773,2.8587 1.4735,4.25 2.3889,2.56421 4.2337,2.78269 5.9575,0.70556 z m -6.2575,-3.63505 c 0.6783,-0.68342 1.4852,-0.99067 1.7931,-0.68278 0.3079,0.30788 -0.2471,0.86705 -1.2333,1.24258 -1.4252,0.54268 -1.5401,0.42782 -0.5598,-0.5598 z m 97.034,-6.87591 c 1.7852,0 6.2326,-2.23286 6.2326,-3.12913 0,-0.44446 -0.675,-0.54908 -1.5,-0.2325 -0.825,0.31659 -1.5,0.0616 -1.5,-0.56657 0,-0.79179 -0.5368,-0.84368 -1.75,-0.16915 -2.7578,1.53336 -7.25,6.06407 -7.25,7.31213 0,0.62362 1.0415,0.15541 2.3145,-1.04047 1.2729,-1.19587 2.8268,-2.17431 3.4529,-2.17431 z m -73.7827,1.80902 c 0.01,0.71996 0.4727,1.02636 1.0317,0.6809 0.5589,-0.34547 0.7101,-1.1235 0.3359,-1.72896 -0.4378,-0.70838 -0.087,-0.87319 0.9837,-0.46228 1.0865,0.41694 1.664,0.12887 1.664,-0.83007 0,-0.80773 0.4586,-1.46861 1.0191,-1.46861 0.5874,0 0.7703,1.16492 0.4319,2.75 -0.5715,2.67618 -0.5431,2.69631 1.0542,0.75 3.13,-3.81378 3.4616,-5.1024 1.8906,-7.34539 -1.8609,-2.6568 -5.415,-2.76933 -8.5025,-0.26923 -1.9962,1.61636 -2.1372,2.11579 -0.9884,3.5 1.1398,1.37332 1.0976,1.61462 -0.2824,1.61462 -0.8924,0 -1.6225,0.6 -1.6225,1.33333 0,2.0226 1.262,2.85657 2.1664,1.4317 0.6395,-1.00738 0.8061,-0.99842 0.8183,0.044 z m -361.7593,95.0857 c -10.7222,-1.24666 -27.7828,-7.26394 -37.4518,-13.20925 -8.4307,-5.18395 -19.7508,-15.82482 -38.2736,-35.97732 l -9,-9.79186 -3.5443,1.03208 c -7.2152,2.10097 -12.3201,10.47911 -10.5886,17.37785 0.5737,2.28577 4.6329,4.54643 4.6329,2.58016 0,-0.49851 -0.5625,-0.9206 -1.25,-0.93798 -2.9526,-0.0747 4.5516,-4.9684 7.6187,-4.9684 4.8685,0 9.1051,4.77815 8.8955,10.03269 -0.1206,3.02537 0.4291,4.56963 2.2885,6.4291 2.9642,2.96416 3.1449,6.88193 0.5163,11.19278 -3.0571,5.01373 -11.069,5.53703 -11.069,0.72299 0,-1.98969 -1.3223,-1.69232 -2.7679,0.62244 -0.9024,1.44499 -2.332,2 -5.1516,2 -3.1303,0 -4.415,-0.60892 -6.4916,-3.07673 -1.4239,-1.69219 -2.5889,-4.19375 -2.5889,-5.55901 0,-1.40022 -0.4359,-2.21288 -1,-1.86426 -0.55,0.33992 -1,1.46596 -1,2.50231 0,2.58137 -3.8271,5.07917 -6.6838,4.36219 -2.0125,-0.50511 -2.3203,-0.20659 -2.348,2.27709 -0.036,3.25753 -1.4948,5.51334 -4.6524,7.19507 -3.7841,2.01543 -7.1471,1.34485 -11.0102,-2.19548 -3.5831,-3.28361 -3.6343,-3.4333 -2.2878,-6.68414 1.1732,-2.83225 1.1712,-3.39405 -0.013,-3.7889 -2.4445,-0.81485 -6.0044,-5.00981 -6.0044,-7.07563 0,-5.71266 6.437,-10.81436 12.0808,-9.57478 2.6228,0.57607 2.8819,0.33476 3.967,-3.69508 3.9798,-14.77992 16.0015,-24.81549 29.7398,-24.82639 l 4.7124,-0.004 -3.5,-2.16306 c -4.5311,-2.80032 -12.4398,-3.50818 -17.1601,-1.53591 -3.0364,1.26871 -3.5264,1.89513 -3.125,3.99504 0.7018,3.67109 -2.3153,7.71141 -5.7584,7.71141 -2.8328,0 -5.9565,-2.2164 -5.9565,-4.22642 0,-2.56608 -4.0624,2.89843 -5.6031,7.53686 -3.8889,11.70852 -15.8924,27.83546 -25.0083,33.59936 -11.3756,7.19261 -25.1275,11.0902 -39.1296,11.0902 -8.4905,0 -21.259,-1.88986 -21.259,-3.14655 0,-0.4694 0.7875,-0.85785 1.75,-0.86322 2.5557,-0.0143 12.25,-4.71839 12.25,-5.94423 0,-1.30454 -0.1818,-1.29305 -7.5,0.474 -12.3588,2.98415 -21.708,1.56989 -36.9294,-5.58629 -8.1607,-3.83667 -8.7684,-4.31586 -7.0589,-5.56591 1.0288,-0.75229 3.4169,-1.3678 5.3068,-1.3678 3.9072,0 14.6739,-4.91785 20.8041,-9.50259 3.8972,-2.91462 13.9547,-14.04907 15.9552,-17.66367 1.3968,-2.52371 14.5944,-16.99489 15.0677,-16.52167 0.2273,0.22739 -0.9641,1.88798 -2.6476,3.69021 -1.6835,1.80223 -6.5834,7.82649 -10.8885,13.38725 -8.4694,10.93957 -17.4073,19.93549 -20.912,21.04784 -1.2086,0.38357 -2.1974,1.0646 -2.1974,1.51339 0,0.44879 -1.0125,1.14848 -2.25,1.55486 -2.026,0.66533 -1.9015,0.80576 1.25,1.41065 3.3587,0.64463 3.2684,0.70311 -2.2342,1.44773 -5.8588,0.79283 -8.9114,2.636 -4.3656,2.636 4.8218,0 17.567,-2.24405 17.0938,-3.00972 -0.262,-0.42404 1.0512,-1.05756 2.9182,-1.40783 1.8671,-0.35027 3.6491,-1.29961 3.9599,-2.10965 0.3109,-0.81004 1.4793,-1.4728 2.5966,-1.4728 1.1172,0 2.0313,-0.48063 2.0313,-1.06807 0,-0.69082 -1.7857,-0.86922 -5.0558,-0.50509 -3.0334,0.33777 -4.8243,0.1883 -4.477,-0.37365 0.3183,-0.51514 3.7285,-1.24698 7.578,-1.6263 8.1959,-0.8076 10.1952,-2.37133 3.2639,-2.55279 -4.5997,-0.12042 -4.4917,-0.17883 2.483,-1.34207 10.1877,-1.69911 11.3532,-3.37356 2.0295,-2.91565 -7.7444,0.38035 -6.9325,-0.10203 4.475,-2.65892 6.9605,-1.56012 8.9441,-3.48271 2.58,-2.50067 -10.2371,1.57969 -11.3882,1.66526 -9.8766,0.73425 0.825,-0.50813 4.1326,-1.21821 7.3501,-1.57795 3.2176,-0.35975 7.0426,-1.34431 8.5,-2.18792 l 2.6499,-1.53383 -4,0.56415 c -10.7575,1.51723 -15.5,1.77261 -15.5,0.83467 0,-0.54711 4.8375,-1.58013 10.75,-2.2956 15.2148,-1.84114 17.0661,-3.1312 3.75,-2.61309 l -11,0.428 6.5,-1.35806 c 3.575,-0.74693 8.525,-1.41069 11,-1.47502 2.475,-0.0643 5.4,-0.54311 6.5,-1.06396 1.3899,-0.65811 -0.1354,-0.81335 -5,-0.50889 -7.8552,0.49165 -13.2931,-0.67029 -8,-1.7094 1.65,-0.32391 5.925,-0.89431 9.5,-1.26756 11.2006,-1.16939 10.3836,-1.9473 -1.7941,-1.70841 -13.2388,0.25971 -11.8962,-1.00762 2.3223,-2.192 13.7145,-1.14242 14.8844,-2.60367 1.7724,-2.2138 -6.1597,0.18315 -11.0172,0.0381 -10.7944,-0.32227 0.2227,-0.36039 5.7124,-1.2392 12.1994,-1.95291 17.7439,-1.95222 20.8466,-3.05829 7.3687,-2.6268 -14.6605,0.46936 -12.3133,-0.99944 4.0555,-2.53779 6.8037,-0.63941 12.748,-1.49759 13.2097,-1.90707 1.3789,-1.22287 -18.8128,-0.29252 -22.9853,1.05907 -2.1198,0.68664 -5.9767,2.312 -8.5709,3.61192 -5.299,2.65522 -5.7833,2.7706 -5.7833,1.37787 0,-2.09959 12.7627,-7.27659 24.7157,-10.02556 6.8776,-1.58171 12.7926,-3.18479 13.1445,-3.56239 0.3519,-0.3776 -4.3102,-0.45436 -10.3602,-0.17058 -20.0972,0.94269 -30.6248,6.07993 -49.5,24.15493 -23.3131,22.32492 -39.8114,35.1963 -52.8102,41.20066 -12.9344,5.97461 -21.7167,7.75058 -38.6898,7.82382 -13.9403,0.0602 -15.6005,-0.13702 -23.5,-2.79104 -10.572,-3.55192 -26.8308,-11.58625 -40.48,-20.0033 -6.8349,-4.21493 -12.3449,-5.97394 -15.9101,-5.07914 -3.5258,0.88492 -3.9191,3.03804 -1.0746,5.88259 3.3383,3.33826 3.2778,7.89756 -0.1467,11.07137 -3.3141,3.07135 -5.735,3.82944 -9.796,3.06758 -5.468,-1.02579 -9.8959,-9.24104 -7.4671,-13.85385 1.5673,-2.97652 2.2332,-3.34825 10.3745,-5.79094 13.3697,-4.0114 12.8688,-3.31474 5,-6.95375 -13.34,-6.16928 -17.0107,-5.2442 -29.8688,7.52732 -10.6036,10.53226 -17.0268,13.85412 -30.0879,15.56052 -7.0836,0.92547 -10.3868,0.90033 -15.7954,-0.1202 -3.7613,-0.7097 -7.0481,-1.62915 -7.304,-2.0432 -0.2559,-0.41406 2.0395,-1.89956 5.1009,-3.30111 5.8071,-2.65856 17.3977,-11.79396 15.6872,-12.36415 -0.5415,-0.18049 -3.5683,0.8145 -6.7263,2.2111 -9.959,4.40435 -22.53708,5.56923 -36.96481,3.42337 -8.58761,-1.27725 -9.75464,-2.93893 -3.79085,-5.39761 2.0625,-0.8503 4.2,-2.12168 4.75,-2.82529 0.55,-0.7036 4.35363,-3.82509 8.45251,-6.93664 16.13195,-12.2461 38.83295,-17.41523 60.37645,-13.74802 9.7143,1.6536 29.4521,7.89683 37.4233,11.83725 3.7646,1.86101 30.8769,17.73539 32.7477,19.17402 5.1854,3.98727 23.1748,11.96146 31.7884,14.09084 2.6335,0.65105 4.5989,1.37307 4.3675,1.60448 -0.2314,0.23141 -3.5111,-0.29159 -7.2883,-1.16222 -9.3594,-2.15732 -24.7895,-9.78562 -44.5036,-22.00149 -8.7018,-5.39213 -16.1292,-9.58497 -19.864,-11.21342 -5.804,-2.53071 -10.3522,-3.6793 -9.5723,-2.41736 0.3274,0.52973 2.0526,1.2664 3.8338,1.63705 4.7083,0.97975 17.6296,8.01481 31.2967,17.03966 23.3037,15.38823 36.4028,20.38425 55.5153,21.17368 19.3445,0.79901 33.1774,-2.73191 50.2022,-12.81432 10.2837,-6.09021 17.965,-12.13643 36.5738,-28.78864 23.0966,-20.66804 30.877,-26.26384 40.1505,-28.87693 12.1935,-3.43587 23.1401,-4.60578 36.441,-3.89463 32.6657,1.74652 58.0154,16.26746 78.572,45.00785 9.5833,13.39866 15.9656,20.15416 27.3229,28.92085 10.3697,8.00437 11.6344,8.67303 23.6641,12.51135 14.6308,4.66825 24.56,6.2011 40.1682,6.2011 23.1191,0 41.0333,-4.8078 56.688,-15.21382 8.9232,-5.93148 21.6056,-16.52046 25.4981,-21.28934 1.5698,-1.92326 3.4138,-3.49684 4.0977,-3.49684 0.684,0 3.819,-2.7 6.9666,-6 3.1477,-3.3 5.9162,-6 6.1523,-6 4.2206,0 -17.9877,22.63145 -27.7748,28.30394 -2.5871,1.49948 -5.2871,3.52732 -6,4.50631 -5.3778,7.38559 -26.7037,16.7067 -45.0197,19.67724 -9.9545,1.61444 -30.4786,1.81087 -42.551,0.40723 z m -119.0135,-10.96448 c 1.6304,-2.19414 1.731,-2.96153 0.6883,-5.25 -1.5737,-3.45379 -3.1378,-3.47518 -2.2734,-0.0311 0.468,1.86439 0.3255,2.43937 -0.4809,1.94099 -0.6302,-0.38949 -1.1459,-1.30846 -1.1459,-2.04216 0,-2.21396 -3.3048,-2.85152 -4.7236,-0.91127 -1.1489,1.57123 -1.2764,1.4709 -1.2764,-1.00459 0,-1.72571 -0.4049,-2.49987 -1.0871,-2.07827 -0.5979,0.36953 -0.865,1.52109 -0.5936,2.55902 0.2714,1.03793 0.086,1.88714 -0.4129,1.88714 -1.8668,0 -0.8441,4.93062 1.3436,6.47775 3.1667,2.23944 7.6674,1.54029 9.9619,-1.54751 z m -56.4153,-3.03403 c 12.2585,-3.15193 21.3324,-8.29176 29.1791,-16.52826 9.642,-10.12101 17.1696,-24.27221 18.2817,-34.36795 0.2726,-2.475 0.8527,-5.36132 1.2891,-6.41404 0.547,-1.31958 0.443,-1.69746 -0.3349,-1.21668 -0.6207,0.38356 -2.1074,3.38238 -3.304,6.66405 -1.1965,3.28167 -2.3982,5.96667 -2.6704,5.96667 -0.2721,0 -0.2085,-2.3625 0.1414,-5.25 0.8855,-7.30724 -1.0303,-3.90024 -2.7963,4.97274 l -1.3488,6.77726 -0.1321,-6.5 c -0.1716,-8.44829 -1.7215,-6.23314 -2.6621,3.80478 -0.7708,8.22567 -2.3515,8.03251 -2.4942,-0.30478 -0.1251,-7.30799 -1.7585,-2.75801 -1.9744,5.5 -0.2688,10.27852 -1.7469,12.99941 -1.9014,3.5 -0.1521,-9.35534 -1.5043,-8.35471 -2.3999,1.77588 -0.3294,3.72673 -1.0681,7.55173 -1.6415,8.5 -0.7682,1.27031 -0.8791,0.37233 -0.4216,-3.41156 0.3416,-2.82463 0.189,-5.90772 -0.339,-6.85133 -0.7333,-1.31031 -1.247,0.0211 -2.1741,5.63569 -0.6677,4.04322 -2.1022,8.92632 -3.1879,10.85132 -1.0857,1.925 -1.7502,2.6 -1.4768,1.5 2.5877,-10.4092 2.9929,-13.5 1.7699,-13.5 -0.4409,0 -1.6148,2.84315 -2.6085,6.31811 -0.9938,3.47497 -2.648,7.41247 -3.6762,8.75 l -1.8693,2.43189 0.9778,-3.4934 c 0.5378,-1.92137 0.9775,-4.62137 0.9771,-6 -6e-4,-1.81971 -0.8295,-0.75499 -3.0247,3.88538 -3.2907,6.95599 -4.5263,7.69015 -2.8746,1.70802 1.4771,-5.34962 0.4313,-5.56524 -2.1676,-0.44691 -2.0154,3.96913 -5.9324,9.70899 -5.9324,8.69321 0,-0.23288 0.8932,-2.17537 1.9849,-4.31664 1.8785,-3.68456 1.8604,-6.79139 -0.02,-3.43132 -0.4868,0.86992 -1.8268,2.66617 -2.9778,3.99167 l -2.0927,2.40999 0.6159,-2.5 c 0.5754,-2.33585 0.3943,-2.27019 -2.7581,1 -1.8557,1.925 -4.2465,4.16725 -5.313,4.98277 -1.8485,1.41344 -1.8644,1.39007 -0.3412,-0.5 1.9276,-2.39195 3.1595,-4.48277 2.6412,-4.48277 -0.2084,0 -1.891,1.35 -3.7391,3 -3.4839,3.11038 -5,3.71684 -5,2 0,-1.42507 -2.7474,-1.23945 -3.7003,0.25 -0.4399,0.6875 -2.4872,2.10836 -4.5497,3.15747 -6.944,3.53211 -4.3735,4.65589 9.0466,3.955 5.1131,-0.26705 12.7631,-1.37686 17,-2.46626 z m -16.2966,-1.89621 c 0.34,-0.55 1.379,-0.99311 2.3091,-0.98469 1.4572,0.0132 1.4836,0.14929 0.1909,0.98469 -1.9583,1.2656 -3.2821,1.2656 -2.5,0 z m 113.4275,-0.63486 c 3.7154,-4.72343 2.5217,-8.38484 -3.1775,-9.7463 -3.1914,-0.7624 -3.4387,-0.079 -1,2.76317 1.7382,2.02571 1.7319,2.02808 -0.931,0.35087 l -2.681,-1.68862 0.3851,4.20773 c 0.3457,3.77629 2.3695,6.74801 4.5955,6.74801 0.405,0 1.6689,-1.18569 2.8089,-2.63486 z m -6.3632,-3.07201 c -0.5426,-1.4252 -0.4278,-1.54006 0.5598,-0.5598 0.6835,0.67834 0.9907,1.48524 0.6828,1.79313 -0.3079,0.30789 -0.867,-0.24711 -1.2426,-1.23333 z m -6.5643,3.61543 c 1.1289,-0.79831 1.1907,-1.18633 0.25,-1.56802 -0.6875,-0.27897 -1.2855,-1.48221 -1.3289,-2.67387 -0.043,-1.19167 -0.3059,-1.60417 -0.5833,-0.91667 -0.8593,2.1296 -2.1828,1.37354 -1.5866,-0.90637 0.42,-1.60628 0.2292,-1.94952 -0.7481,-1.34549 -0.8863,0.54772 -1.0717,0.42198 -0.5715,-0.38744 0.4074,-0.65907 0.2131,-1.83389 -0.4316,-2.6107 -0.6447,-0.77681 -0.8818,-1.8821 -0.527,-2.4562 0.383,-0.61975 -0.3802,-1.0438 -1.8788,-1.0438 -2.9153,0 -4.5942,2.50151 -4.5942,6.84536 0,5.40488 7.829,10.013 12,7.0632 z m -17.4545,-4.36311 c 2.8602,-2.86022 3.0335,-4.27381 0.8978,-7.32294 -1.7391,-2.48301 -5.046,-2.83998 -7.6933,-0.83046 -2.3445,1.77977 -2.2169,2.96332 0.25,2.3182 1.1,-0.28766 2,-0.11514 2,0.38337 0,0.49851 -0.9481,0.90638 -2.1069,0.90638 -1.4621,0 -1.9308,0.45915 -1.5314,1.5 0.3166,0.825 0.1397,1.5 -0.393,1.5 -1.7735,0 -0.9992,1.67966 1.2813,2.77951 3.4133,1.64613 4.6193,1.44212 7.2955,-1.23406 z m -94.4427,-1.66021 c 7.8793,-2.72678 20.9221,-9.10812 27.3972,-13.40443 6.835,-4.53504 13.0014,-11.21632 20.7906,-22.52679 9.9592,-14.46135 14.4561,-18.46083 25.9233,-23.05591 l 7.2861,-2.91968 -7.5,0.58042 c -8.1025,0.62704 -19.2747,3.52036 -25.132,6.50853 -2.011,1.02591 -8.7007,6.04294 -14.8661,11.14896 -9.5636,7.92037 -23.0677,18.89877 -26.5019,21.54517 -0.55,0.42384 -3.25,2.60514 -6,4.84734 -11.1938,9.12684 -20.5913,12.53277 -35.0144,12.69022 -4.6671,0.0509 -8.4856,0.39336 -8.4856,0.76092 0,0.97916 7.8287,3.80488 15.1382,5.46407 8.0921,1.83682 18.8024,1.18589 26.9646,-1.63882 z m 72.8732,-0.8492 c 1.2052,-0.76218 1.0219,-1.11452 -1,-1.9213 l -2.476,-0.98797 2.9412,-0.0634 c 2.8353,-0.0611 2.8713,-0.12028 1,-1.64503 -1.817,-1.48048 -1.8221,-1.54371 -0.08,-0.98865 1.4234,0.45345 1.714,0.20901 1.2351,-1.03889 -0.487,-1.26909 -0.1653,-1.51134 1.4469,-1.08973 1.5543,0.40647 1.9925,0.12384 1.7512,-1.12948 -0.2349,-1.21947 -1.371,-1.67161 -4.2003,-1.67161 -3.0184,0 -4.3115,0.58007 -5.8314,2.61582 -1.8397,2.464 -1.8589,2.79771 -0.3323,5.75 1.678,3.24486 3.0172,3.76896 5.5454,2.17022 z m 9.024,-1.03604 c 0,-2.07031 -2.4125,-2.7596 -3.5,-1 -0.837,1.35436 0.2925,3 2.0591,3 0.7925,0 1.4409,-0.9 1.4409,-2 z m 32,-4.03138 c 0,-2.3586 -2.6445,-3.72407 -4.2,-2.16862 -1.5554,1.55545 -0.1899,4.2 2.1687,4.2 1.3751,0 2.0313,-0.65621 2.0313,-2.03138 z m -300.27,-3.96862 c 0.2102,-3.19918 0.1434,-3.29293 -0.7767,-1.09072 -0.5537,1.3251 -1.7821,3.02583 -2.73,3.7794 -1.5689,1.2474 -1.4993,1.34509 0.7767,1.09072 2.0843,-0.23294 2.5383,-0.8614 2.73,-3.7794 z m 286.6584,-3.53012 c -1.9538,-2.98184 -2.4102,-11.82158 -0.7623,-14.76609 0.6234,-1.11399 0.9073,0.23276 0.9073,4.30413 0,3.25898 0.4425,6.36791 0.9833,6.90875 0.6445,0.64444 0.9833,-1.40612 0.9833,-5.95 0,-6.65905 0.1461,-7.07938 3.6917,-10.62503 2.633,-2.63293 4.9273,-3.89239 8,-4.3915 l 4.3083,-0.69981 -4.2029,-0.12516 c -2.3116,-0.0688 -5.2366,0.27962 -6.5,0.77436 -1.2634,0.49475 -4.1174,1.3852 -6.3423,1.97879 -6.3305,1.68898 -11.8067,7.04076 -14.4576,14.12931 -2.7224,7.27972 -1.908,10.74237 2.5267,10.74237 1.5601,0 3.778,1.09731 5.3057,2.625 l 2.625,2.625 2.3766,-2.37662 c 2.3406,-2.34054 2.349,-2.41878 0.5572,-5.1535 z m 21.6116,7.13711 c 0,-0.21616 -0.675,-0.65203 -1.5,-0.96862 -0.825,-0.31658 -1.5,-0.13972 -1.5,0.39301 0,0.53274 0.675,0.96862 1.5,0.96862 0.825,0 1.5,-0.17686 1.5,-0.39301 z m -367.2976,-4.80316 c 1.8137,-1.75789 3.2976,-3.86198 3.2976,-4.67575 0,-1.47752 -7.9493,5.61423 -7.9831,7.12192 -0.033,1.47056 1.4355,0.7039 4.6855,-2.44617 z m 55.7262,1.62474 c 2.0238,-2.02376 1.9949,-4.30315 -0.084,-6.59983 -3.0057,-3.32128 -7.345,-1.66719 -7.345,2.79983 0,2.48494 2.4182,5.37143 4.5,5.37143 0.7465,0 2.0643,-0.70714 2.9286,-1.57143 z m 312.5677,-2.70425 c -0.01,-2.2851 -3.848,-7.54248 -6.0123,-8.22942 -3.8724,-1.22905 -9.2611,5.97972 -5.984,8.0051 0.55,0.33992 1,-0.15599 1,-1.10201 0,-1.1836 0.8577,-0.61352 2.75,1.8279 2.6406,3.40671 2.8595,3.49171 5.5,2.13535 1.5125,-0.77693 2.7484,-1.96354 2.7463,-2.63692 z m -378.857,1.30895 c 3.1066,-2.58808 1.4198,-2.61815 -1.8664,-0.0333 -1.3984,1.1 -2.0817,2 -1.5185,2 0.5632,0 2.0864,-0.88503 3.3849,-1.96673 z m 15.9425,0.96673 c 0.505,0 0.8257,-0.3375 0.7126,-0.75 -0.113,-0.4125 0.5951,-2.25432 1.5738,-4.09293 2.6214,-4.92509 1.4167,-4.8209 -2.7269,0.23583 -3.976,4.85218 -4.4868,6.14556 -2.0595,5.21409 0.87,-0.33385 1.995,-0.60699 2.5,-0.60699 z m 41.4182,-3 c 0,-4.27079 -0.8571,-5.09259 -2.3466,-2.25 -0.9497,1.81228 0.1611,6.25 1.5644,6.25 0.4302,0 0.7822,-1.8 0.7822,-4 z m -50,0 c 2.1246,-2.34764 0.3786,-2.73566 -1.9285,-0.42857 -1.7672,1.76722 -1.9651,2.42857 -0.7264,2.42857 0.4647,0 1.6595,-0.9 2.6549,-2 z m 14.4947,0.75 c 0.5905,-0.6875 1.7699,-2.15 2.6211,-3.25 1.2629,-1.63223 1.4463,-1.6782 0.9973,-0.25 -0.8599,2.73481 0.5103,2.1095 6.1083,-2.7875 3.3467,-2.92753 4.9845,-5.06548 4.6161,-6.02553 -0.4395,-1.14535 -0.8896,-1.22366 -1.9542,-0.34005 -0.7608,0.63138 -1.3833,1.71277 -1.3833,2.40308 0,0.69031 -0.6868,1.82514 -1.5263,2.52183 -1.1602,0.96296 -1.034,0.11839 0.5263,-3.52183 1.6428,-3.83229 1.7347,-4.52467 0.4604,-3.46711 -0.8757,0.72679 -2.2707,2.63354 -3.1,4.23721 -1.8175,3.51455 -2.8192,3.06694 -1.4131,-0.63141 0.5518,-1.45128 0.7989,-2.63869 0.5492,-2.63869 -0.5713,0 -9.4965,13.4987 -9.4965,14.36283 0,1.08418 1.8651,0.70253 2.9947,-0.61283 z m 321.5593,-14.82782 c 5.6901,-8.21089 12.998,-12.89843 20.137,-12.9166 1.2051,-0.003 2.4995,-0.50476 2.8766,-1.11486 0.9951,-1.61015 -6.9388,-0.15648 -12.8552,2.35536 -5.1791,2.19881 -12.0909,9.17208 -14.3442,14.4718 -0.7525,1.76984 -1.3184,5.14484 -1.2576,7.5 l 0.1106,4.28212 1.2953,-5.31042 c 0.7124,-2.92073 2.5293,-7.09106 4.0375,-9.2674 z m -343.1604,1.95815 c 5.4415,-2.15047 12.4772,-5.47941 15.635,-7.39765 3.1577,-1.91824 8.6056,-4.58958 12.1064,-5.93632 3.5008,-1.34673 5.5775,-2.4706 4.615,-2.49748 -0.9625,-0.0269 -1.75,-0.51044 -1.75,-1.07456 0,-0.58793 -1.2591,-0.37453 -2.9503,0.5 -3.4337,1.77564 -4.4117,1.92047 -3.5497,0.52568 0.9302,-1.50503 -0.7656,-1.20264 -3.3305,0.59388 -1.2516,0.87664 -3.373,1.71434 -4.7142,1.86157 -1.3412,0.14723 -4.3548,1.5315 -6.6969,3.07616 -2.3421,1.54466 -3.6408,2.05696 -2.8859,1.13843 1.9907,-2.42237 0.1484,-2.04828 -4.0873,0.82996 -2.0235,1.375 -4.5558,2.5 -5.6274,2.5 -1.0716,0 -5.033,1.31043 -8.8031,2.91206 -7.73096,3.28434 -15.03962,5.00525 -13.98074,3.29194 0.36468,-0.59006 3.11834,-1.7866 6.11924,-2.65899 3.0009,-0.87239 8.2801,-2.86772 11.7315,-4.43408 3.4514,-1.56635 10.3501,-4.6995 15.3305,-6.96255 5.892,-2.67732 11.481,-4.42565 16,-5.00501 6.3541,-0.81464 6.5621,-0.91116 2.4448,-1.13475 -2.475,-0.1344 -6.075,-0.34271 -8,-0.46291 -5.7757,-0.36064 -17.0828,1.35142 -24,3.63396 -9.6455,3.18286 -17.65622,7.87056 -24.76912,14.49443 -1.50196,1.3987 -3.63084,3.18191 -4.73084,3.96269 -3.80437,2.70033 0.0641,3.50392 13.5,2.80433 11.37336,-0.59219 13.39166,-1.00325 22.39356,-4.56079 z m 41.6064,-4.12522 c 0,-0.55783 -0.6632,-0.44954 -1.5,0.24489 -0.825,0.68469 -1.5,1.69489 -1.5,2.24489 0,0.55783 0.6633,0.44954 1.5,-0.24489 0.825,-0.68469 1.5,-1.69489 1.5,-2.24489 z m -3,-0.75511 c 0,-0.55 -0.1984,-1 -0.4409,-1 -0.2426,0 -0.7191,0.45 -1.0591,1 -0.3399,0.55 -0.1414,1 0.441,1 0.5825,0 1.059,-0.45 1.059,-1 z m 305,-8.95031 c 0,-2.33116 -2.5625,-3.97685 -5.142,-3.3023 -1.8093,0.47314 -2.5299,3.24731 -1.1913,4.58594 0.3667,0.36667 1.9417,0.66667 3.5,0.66667 2.1426,0 2.8333,-0.47546 2.8333,-1.95031 z m -6.4687,-10.85178 c -0.2535,-0.25348 0.01,-1.34025 0.5849,-2.41504 0.5753,-1.07479 0.8335,-2.16653 0.574,-2.42609 -0.6687,-0.66863 -4.2814,4.65884 -5.1832,7.64322 l -0.7554,2.5 2.6203,-2.42061 c 1.4411,-1.33133 2.4129,-2.628 2.1594,-2.88148 z m 7.1006,1.59182 c 2.0603,-1.21565 3.3797,-1.61744 2.9319,-0.89287 -0.6343,1.02637 -0.2895,1.12805 1.561,0.46027 2.7844,-1.00478 13.2742,-1.02135 16.8752,-0.0267 1.5245,0.4211 1.1956,0.0852 -0.8429,-0.86074 -6.8552,-3.18118 -22.149,-2.65227 -24.3714,0.84284 -2.0207,3.17794 -0.9553,3.31012 3.8462,0.47716 z m -2.0412,-5.53237 c -0.6935,-0.69349 -2.5907,0.71555 -2.5907,1.9241 0,0.6631 0.5738,0.58723 1.5242,-0.20152 0.8383,-0.69572 1.3182,-1.47088 1.0665,-1.72258 z m -52.8615,-7.86153 c -0.3323,-0.33229 -1.1948,-0.36782 -1.9167,-0.0789 -0.7977,0.31923 -0.5607,0.55619 0.6042,0.60417 1.0542,0.0434 1.6448,-0.19293 1.3125,-0.52522 z m 12.6969,-2.3698 c -0.6023,-0.60229 -2.1097,-0.63509 -3.95,-0.0859 -2.9412,0.8776 -2.9297,0.88903 0.9739,0.97397 2.563,0.0558 3.608,-0.25606 2.9761,-0.88801 z m 161.0739,80.50854 c -18.3604,-3.23307 -28.8568,-7.26072 -42.3915,-16.26639 -11.8779,-7.90329 -19.6843,-16.1295 -38.1085,-40.15789 -5.1032,-6.65557 -11.5934,-12.52189 -21.4786,-19.41404 -22.4029,-15.61968 -58.7446,-20.10474 -87.2677,-10.77002 -7.9113,2.58915 -10.5536,3.0404 -9.0606,1.54739 1.1167,-1.11674 11.6858,-4.39493 19.8069,-6.14349 6.176,-1.32973 12.4647,-1.80891 23,-1.75251 17.0139,0.0911 25.8117,1.98225 41,8.81333 17.3055,7.78328 28.3382,17.06135 43.2435,36.36589 17.2423,22.33137 29.5794,32.19867 50.2565,40.19566 8.2242,3.18073 22.9206,6.1005 30,5.96017 3.8588,-0.0765 3.7912,-0.12983 -1.9139,-1.51004 -8.0849,-1.95595 -22.8278,-9.14166 -30.0861,-14.664 -8.0077,-6.09258 -12.2951,-11.99344 -20.0211,-27.55524 -3.5582,-7.16698 -7.5703,-13.89678 -8.9158,-14.95512 -1.7944,-1.41149 -4.7934,-2.09661 -11.2547,-2.57111 -7.4071,-0.54397 -9.9756,-1.23334 -16.1458,-4.33344 -7.7155,-3.87645 -10.7618,-6.98405 -14.0691,-14.35216 -2.6361,-5.87261 -0.9468,-6.4042 3.811,-1.19925 5.6719,6.20492 16.0404,7.95291 28.0955,4.73652 9.1594,-2.44378 21.5127,-2.88741 29.8991,-1.07375 4.0695,0.88007 7.5785,1.42071 7.7978,1.20143 0.779,-0.77905 -11.2811,-9.66128 -16.4581,-12.12125 -2.8937,-1.37502 -8.5187,-2.98949 -12.5,-3.58772 -7.9264,-1.19102 -11.7388,-2.41086 -11.7388,-3.75608 0,-1.12281 10.7694,-5.60689 18.5,-7.70292 9.5269,-2.58303 30.3461,-3.07995 40.0073,-0.95491 10.1786,2.23885 14.3301,4.2243 22.9927,10.99624 8.874,6.93715 12.8879,8.88813 15.4571,7.51309 1.0513,-0.56263 3.066,-1.02296 4.4772,-1.02296 2.8806,0 3.164,-1.32955 1.0657,-5 -0.786,-1.375 -1.445,-4.79679 -1.4645,-7.60398 -0.028,-4.06191 0.4652,-5.64421 2.4168,-7.75 1.3487,-1.45531 3.1833,-2.64602 4.0767,-2.64602 1.1327,0 0.7093,0.77008 -1.3988,2.54392 -3.8272,3.22042 -4.5704,5.59197 -3.125,9.97178 1.2988,3.93527 2.9865,4.62705 3.0113,1.2343 0.043,-5.90989 7.3035,-13.51359 13.0592,-13.67691 6.4954,-0.18431 10.1415,10.46132 5.7626,16.8253 -2.8096,4.08342 -8.1279,7.10161 -12.5136,7.10161 -3.9879,0 -4.9017,1.33806 -2.8826,4.22075 0.8569,1.22335 1.5579,4.09747 1.5579,6.38695 0,2.28947 0.6285,5.6574 1.3967,7.48428 0.9735,2.31534 1.1133,4.06665 0.4615,5.78097 -0.779,2.04896 -0.1578,3.80836 3.7222,10.54321 5.5649,9.65945 11.9941,18.28574 14.7128,19.74075 1.4405,0.77091 1.1385,0.0166 -1.1212,-2.80092 -5.6539,-7.04946 -8.3887,-19.13691 -6.1819,-27.32361 0.8526,-3.16327 0.8878,-4.57309 0.1205,-4.82887 -6.2146,-2.07152 -7.6,-9.99568 -2.6507,-15.16157 2.2493,-2.34783 3.7844,-3.04194 6.7272,-3.04194 2.5552,0 3.8129,-0.45031 3.8129,-1.36514 0,-0.75083 0.9327,-2.55083 2.0726,-4 3.045,-3.871 9.0084,-3.70775 13.0741,0.3579 1.8955,1.89555 2.7961,3.63701 2.4565,4.75 -0.3862,1.26567 0.3636,2.17685 2.6803,3.25724 2.0614,0.96133 3.9348,3.00838 5.2165,5.70028 2.2316,4.68652 4.4374,6.16303 5.7373,3.8403 0.9748,-1.74188 6.8612,-2.09343 9.6913,-0.5788 4.8164,2.57764 5.0599,12.32897 0.3994,15.99489 -3.5228,2.77104 -7.456,2.58081 -10.8046,-0.52257 -2.4344,-2.25617 -2.7079,-3.1046 -2.2656,-7.02881 0.4119,-3.65425 0.1641,-4.64431 -1.3674,-5.46397 -1.0287,-0.55057 -1.8216,-1.3251 -1.762,-1.72118 0.3758,-2.49467 -0.4346,-4.61728 -2.5829,-6.7656 -3.0017,-3.00165 -6.5318,-3.2228 -7.2557,-0.45454 -0.2877,1.1 -1.033,2.00689 -1.6564,2.01531 -0.6233,0.008 -0.4584,0.45153 0.3666,0.98469 0.825,0.53316 1.05,1.00789 0.5,1.05497 -0.55,0.0471 -0.1,0.47234 1,0.94503 1.8611,0.79971 1.8699,0.86431 0.1276,0.92971 -1.5493,0.0582 -1.6576,0.32917 -0.6276,1.57029 1.0037,1.2093 0.979,1.50297 -0.1275,1.51531 -1.078,0.012 -1.0506,0.2233 0.1275,0.98469 1.2518,0.80896 1.1792,0.97191 -0.4385,0.98469 -1.8498,0.0146 -1.8403,0.10687 0.2082,2.01531 2.7872,2.59674 5.0209,2.5276 8.0771,-0.25 1.3617,-1.2375 2.1097,-1.575 1.6624,-0.75 -1.7939,3.30832 -3.9445,4.99104 -7.1465,5.59173 -1.8494,0.34697 -3.3627,1.21897 -3.3627,1.93777 0,0.71881 -0.2299,1.90623 -0.511,2.63871 -0.3779,0.98487 0.6367,1.33179 3.895,1.33179 10.0422,0 13.6837,10.71299 5.0422,14.83381 -1.9217,0.9164 -4.1537,1.66619 -4.9601,1.66619 -0.8063,0 -1.4661,0.64286 -1.4661,1.42857 0,1.72944 2.6902,4.57287 4.3215,4.56769 3.481,-0.011 12.8636,-8.21546 23.4396,-20.49626 4.1344,-4.80082 5.1743,-5.57047 5.203,-3.85088 0.02,1.18201 -1.6841,4.70787 -3.7863,7.83523 -4.9296,7.33348 -23.1663,25.73403 -24.8605,25.0839 -0.7113,-0.27295 -1.1862,0.0134 -1.0553,0.63627 0.5685,2.70516 -24.1656,18.0648 -33.762,20.96589 -15.8783,4.8002 -39.4848,6.74402 -53,4.36416 z m 47.5,-6.89706 6.5,-2.10813 -13,-0.59614 c -14.3844,-0.65964 -21.4917,-2.6661 -32.0781,-9.05606 -5.6227,-3.39383 -20.537,-17.97275 -23.9835,-23.44417 -1.0161,-1.61316 -3.5973,-5.07051 -5.736,-7.68301 -2.4188,-2.95459 -3.3505,-4.75 -2.465,-4.75 0.783,0 2.7974,1.9125 4.4764,4.25 1.6791,2.3375 8.2037,9.43392 14.4991,15.76982 12.1739,12.25217 17.8326,16.01126 29.7871,19.78764 11.9695,3.78111 19.6962,4.51694 28.9659,2.7585 4.5403,-0.86128 8.5429,-1.60954 8.8946,-1.66282 0.3518,-0.0533 -3.19,-0.69419 -7.8705,-1.42427 -15.5487,-2.42531 -18.3371,-3.99782 -34.2693,-19.3263 -21.8795,-21.05036 -32.7207,-30.56585 -32.7207,-28.71947 0,0.31311 2.5875,3.03429 5.75,6.04707 3.1625,3.01278 5.2448,5.48724 4.6273,5.49881 -0.6175,0.0116 -3.9319,-2.56648 -7.3653,-5.72898 -8.1742,-7.52911 -10.2798,-8.64728 -5.9836,-3.17753 l 3.4716,4.41988 -5.0643,-4.24618 c -6.0631,-5.08354 -7.3738,-5.38797 -4.2891,-0.99617 l 2.2828,3.25 -3.8197,-3.31165 c -4.923,-4.26823 -6.0073,-3.24668 -1.5413,1.45206 2.1148,2.22499 2.6599,3.21412 1.4205,2.57764 -1.1062,-0.56804 -2.9012,-2.01616 -3.9889,-3.21805 -1.0876,-1.20189 -2.8042,-2.62763 -3.8145,-3.16832 -1.5968,-0.8546 -1.7034,-0.73373 -0.8157,0.92487 0.5616,1.04937 1.7206,2.48853 2.5756,3.19814 0.8551,0.70961 1.5546,1.71972 1.5546,2.24468 0,0.52496 -1.3904,-0.43593 -3.0898,-2.13532 -3.3132,-3.31323 -6.9102,-5.60192 -6.9102,-4.39684 0,0.40567 1.4383,2.2215 3.1962,4.03518 1.7579,1.81369 2.7421,3.29761 2.1871,3.29761 -0.555,0 -2.2635,-1.30935 -3.7967,-2.90966 -1.5332,-1.60031 -3.6309,-3.13017 -4.6615,-3.39968 -1.5882,-0.41533 -1.4586,0.0662 0.8506,3.15966 l 2.7243,3.64968 -3.7848,-3.25 c -4.6267,-3.97298 -6.3521,-4.18719 -4.0275,-0.5 l 1.7338,2.75 -2.2168,-1.91054 c -2.693,-2.32083 -4.1874,-1.33284 -1.8652,1.23315 0.9133,1.00918 1.6605,2.17654 1.6605,2.59413 0,0.41759 1.6135,4.42888 3.5855,8.91397 7.1183,16.18997 16.6141,26.48763 31.4145,34.06743 9.7678,5.00239 15.2946,6.48623 28.2465,7.58374 11.8841,1.00703 20.6151,0.29516 28.7535,-2.34437 z m -56.5,-12.1014 c -1.65,-0.75552 -2.325,-1.39427 -1.5,-1.41946 0.825,-0.0252 2.625,0.59733 4,1.38335 3.1833,1.81974 1.45,1.84478 -2.5,0.0361 z m 92.5823,-4.19244 c 1.0059,-1.25267 0.4737,-1.10351 -1.8323,0.51349 -1.7875,1.25347 -3.25,2.48922 -3.25,2.74612 0,0.86428 3.6512,-1.47746 5.0823,-3.25961 z m -29.3531,-0.94784 c -0.3323,-0.33229 -1.1948,-0.36781 -1.9167,-0.0789 -0.7977,0.31922 -0.5607,0.55618 0.6042,0.60416 1.0542,0.0434 1.6448,-0.19292 1.3125,-0.52522 z m 11,-1 c -0.3323,-0.33229 -1.1948,-0.36781 -1.9167,-0.0789 -0.7977,0.31922 -0.5607,0.55618 0.6042,0.60416 1.0542,0.0434 1.6448,-0.19292 1.3125,-0.52522 z m -4.7292,-1.39583 c -0.825,-0.53316 -2.175,-0.94464 -3,-0.9144 -0.989,0.0362 -0.8187,0.34772 0.5,0.9144 2.7491,1.18132 4.328,1.18132 2.5,0 z m -21.5,-2 c -1.1,-0.47269 -2.675,-0.85943 -3.5,-0.85943 -0.9454,0 -0.7606,0.31771 0.5,0.85943 1.1,0.47269 2.675,0.85943 3.5,0.85943 0.9455,0 0.7607,-0.31771 -0.5,-0.85943 z m 6.2292,0.39583 c -0.3323,-0.33229 -1.1948,-0.36781 -1.9167,-0.0789 -0.7977,0.31922 -0.5607,0.55618 0.6042,0.60416 1.0542,0.0434 1.6448,-0.19292 1.3125,-0.52522 z m 28.2708,-1.39583 c -0.825,-0.53316 -2.0913,-0.97627 -2.814,-0.98469 -0.7228,-0.008 -3.8,-1.15236 -6.8382,-2.54208 -6.6086,-3.02282 -15.3675,-10.99316 -20.0263,-18.22323 -3.505,-5.43939 -5.9676,-6.98126 -4.7916,-3 2.4765,8.38399 14.7088,20.18786 24.6126,23.75056 5.7468,2.06731 12.5824,2.76036 9.8575,0.99944 z m 5.9937,-5.0089 c -1.1784,-1.6549 -2.0613,-4.2424 -1.9621,-5.75 0.099,-1.50761 0.1327,-5.3286 0.074,-8.4911 -0.091,-4.93769 -0.3734,-5.75 -1.999,-5.75 -2.3684,0 -3.113,1.89024 -3.085,7.83179 0.034,7.23617 4.2827,14.98862 8.2961,15.1378 0.45,0.0167 -0.146,-1.3236 -1.3244,-2.97849 z m -43.9937,0.95786 c -2.475,-0.44039 -5.625,-0.78921 -7,-0.77516 l -2.5,0.0256 2.5,0.8006 c 1.375,0.44035 4.525,0.78917 7,0.77515 l 4.5,-0.0255 -4.5,-0.80071 z m 46.576,-3.46529 c -0.8267,-1.59345 -1.2371,-4.15187 -0.9462,-5.89878 0.4892,-2.93749 0.4386,-2.99214 -1.058,-1.14376 -2.1235,2.62256 -1.9773,4.77361 0.5422,7.97667 2.6211,3.33215 3.4128,2.82624 1.462,-0.93413 z m -38.576,2.2125 c 0,-0.16711 -1.6875,-1.85461 -3.75,-3.75 l -3.75,-3.44617 3.4462,3.75 c 3.2076,3.49042 4.0538,4.20979 4.0538,3.44617 z m -7.5,-3.14128 c -3.1529,-1.34734 -14.2093,-2.93095 -13.1639,-1.88547 0.5282,0.52814 12.4019,2.9665 15.1639,3.11402 0.55,0.0294 -0.35,-0.52347 -2,-1.22855 z m 33.5811,-1.4035 c -0.5946,-1.11095 -1.0494,-3.06199 -1.0108,-4.33565 0.066,-2.18528 0.1187,-2.20307 0.9297,-0.31574 0.5936,1.3813 0.8508,-0.0108 0.8316,-4.5 l -0.028,-6.5 -1.3528,4.5 -1.3528,4.5 0.5533,-4.67519 c 0.4828,-4.07954 0.1928,-5.1269 -2.2757,-8.22066 -2.3163,-2.90285 -2.9846,-3.26743 -3.6875,-2.01148 -1.8952,3.38659 1.2333,15.65978 5.5353,21.71491 2.2153,3.11802 3.5498,3.00581 1.8575,-0.15619 z m -45.1007,-5.08926 c -1.3858,-0.42128 -4.7608,-1.03553 -7.5,-1.365 l -4.9804,-0.59904 4.5,1.35278 c 2.475,0.74403 5.85,1.35828 7.5,1.365 2.9114,0.0119 2.9256,-0.0104 0.4804,-0.75374 z m 66.8196,-1.26213 c 1.5245,-1.52446 1.5493,-4.46611 0.045,-5.39549 -0.64,-0.39557 -0.8856,-0.27852 -0.5511,0.26268 0.3318,0.53692 -0.022,2.18145 -0.7862,3.65451 -1.4466,2.7882 -0.7804,3.55052 1.2919,1.4783 z m -59.7701,-2.74431 c -0.5724,-1.06936 -1.6007,-2.28075 -2.2852,-2.69195 -0.8356,-0.50195 -0.7936,-0.19162 0.1278,0.9443 1.1955,1.4738 1.131,1.70481 -0.5,1.79164 -1.4057,0.0748 -1.2493,0.29925 0.6275,0.90032 1.375,0.44035 2.6284,0.8455 2.7852,0.90032 0.1569,0.0548 -0.1831,-0.77526 -0.7553,-1.84463 z m -6.0299,-0.95608 c -1.6751,-0.93758 -17.7704,-2.53671 -16.9142,-1.68048 0.7261,0.72602 10.5262,2.32512 14.9142,2.43356 2.3796,0.0588 3.0199,-0.18227 2,-0.75308 z m 60.1806,-1.00298 c 1.5828,0.84711 2.2639,0.80224 2.8768,-0.1895 1.013,-1.63899 -0.6703,-4.90713 -2.5274,-4.90713 -2.9878,0 -6.5293,2.02516 -6.5146,3.72525 0.013,1.51159 0.159,1.55233 0.9846,0.27475 0.77,-1.19138 0.9788,-0.98563 1.0151,1 0.04,2.18837 0.1733,2.28103 1.0687,0.74339 0.8297,-1.42466 1.4149,-1.54688 3.0968,-0.64676 z m -70.4306,-5.8251 c -2.0625,-0.21574 -5.4375,-0.21574 -7.5,0 -2.0625,0.21575 -0.375,0.39226 3.75,0.39226 4.125,0 5.8125,-0.17651 3.75,-0.39226 z m 64.1057,-3.64285 c 1.1558,-2.42276 1.1569,-3.00695 0.01,-3.7395 -0.7495,-0.47749 -1.9253,-0.66202 -2.6128,-0.41006 -0.6875,0.25196 -1.2785,-0.31527 -1.3133,-1.26051 -0.044,-1.19012 -0.39,-0.94983 -1.1254,0.78139 l -1.0619,2.5 -0.9155,-3.29703 c -0.9611,-3.46148 -3.3044,-5.13246 -4.9249,-3.51192 -0.5261,0.52613 -1.0214,2.68058 -1.1006,4.78765 -0.1863,4.95322 2.9189,7.75743 8.1072,7.32137 2.7983,-0.23519 3.8664,-0.92086 4.94,-3.17139 z m 27.5625,0.76433 c 2.5094,-0.96291 1.8358,-2.16422 -0.9182,-1.63776 -1.375,0.26285 -2.5,0.87545 -2.5,1.36133 0,1.03182 1.1974,1.12865 3.4182,0.27643 z m -62.7326,-2.56732 c 2.5166,-2.36423 3.0899,-6.97406 1.0644,-8.55881 -1.4472,-1.13235 -5.75,-2.31732 -5.75,-1.58355 0,0.27284 1.0125,1.34074 2.25,2.37311 1.2375,1.03236 1.7141,1.89199 1.0591,1.91029 -0.6551,0.0183 -1.4691,-0.41673 -1.8091,-0.96673 -0.3399,-0.55 -1.3449,-1 -2.2333,-1 -1.2904,0 -1.1277,0.55165 0.809,2.74285 2.1977,2.48638 2.2134,2.56487 0.1682,0.83946 -1.2409,-1.04686 -2.3659,-1.71864 -2.5,-1.49285 -2.4731,4.16323 -2.5508,4.67507 -0.9524,6.27342 2.2478,2.24779 5.139,2.05104 7.8941,-0.53719 z m -41.4356,0.51203 c -0.6875,-0.27741 -1.8125,-0.27741 -2.5,0 -0.6875,0.27741 -0.125,0.50439 1.25,0.50439 1.375,0 1.9375,-0.22698 1.25,-0.50439 z m 13,0 c -0.6875,-0.27741 -1.8125,-0.27741 -2.5,0 -0.6875,0.27741 -0.125,0.50439 1.25,0.50439 1.375,0 1.9375,-0.22698 1.25,-0.50439 z m 15.75,-1.33772 c 1.1,-1.1 2,-2.54 2,-3.2 0,-0.93333 -0.2666,-0.93333 -1.2,0 -1.7484,1.74848 -2.8314,1.46772 -2.1214,-0.55 0.5027,-1.42856 0.3684,-1.5204 -0.7314,-0.5 -0.7409,0.6875 -2.2697,1.22148 -3.3972,1.18661 -2.0233,-0.0626 -2.0225,-0.0745 0.062,-0.91656 1.1614,-0.46924 2.3628,-1.8139 2.6699,-2.98813 0.5186,-1.98333 0.2266,-2.11354 -4.1116,-1.83344 -4.0644,0.26243 -4.7138,0.61255 -5.0089,2.70076 -0.9352,6.61636 7.1547,10.78513 11.839,6.10076 z m 67.6065,-2.00228 c 0.1014,-2.85524 -0.9026,-3.94565 -1.9992,-2.17126 -0.6277,1.01557 0.3852,5.17441 1.2594,5.17126 0.3483,-0.001 0.6813,-1.35125 0.7398,-3 z m 9.4679,-0.2829 c 0.041,-0.66815 0.272,-2.28627 0.5137,-3.59583 0.5835,-3.16203 -1.1947,-5.11899 -4.6515,-5.11899 -2.9457,0 -4.83,1.53552 -2.7394,2.23237 0.7,0.23335 1.1626,2.05871 1.0982,4.33323 -0.061,2.16151 0.3854,4.23711 0.9927,4.61244 1.387,0.85722 4.687,-0.84111 4.7863,-2.46322 z m -28.891,-1.93149 c -0.7176,-0.71756 -1.1834,-0.7766 -1.1834,-0.15 0,1.33478 1.1826,2.51739 1.85,1.85 0.2842,-0.28416 -0.016,-1.04916 -0.6666,-1.7 z m -126.2981,-1.41678 c 14.4318,-3.01278 21.7541,-3.26841 27.9858,-0.97704 3.7246,1.36951 4.1887,1.3874 3.1376,0.12093 -2.0073,-2.41867 -7.4548,-5.43868 -12.6523,-7.01421 -8.8623,-2.68648 -15.9461,-2.72746 -30.5616,-0.17678 -15.3362,2.67643 -22.7263,2.28962 -28,-1.46556 -4.257,-3.03131 -4.7062,-1.37388 -0.7289,2.68975 4.2329,4.32481 7.3734,6.07768 14.1643,7.90596 7.6612,2.06258 12.5357,1.86452 26.6551,-1.08305 z m 60.1147,1.63345 c -1.375,-0.44035 -4.525,-0.7748 -7,-0.74322 l -4.5,0.0574 5,0.6858 c 7.2644,0.99637 9.6112,0.99637 6.5,0 z m 53.5,-4 c 0.3408,-0.55135 -0.4179,-1.02844 -1.6909,-1.06339 -2.3053,-0.0633 -2.305,-0.0652 0.1909,-1.15465 l 2.5,-1.09127 -3,-0.72703 -3,-0.72703 2.691,-0.11831 c 3.4779,-0.15292 4.6213,-2.05124 2.2707,-3.77002 -1.7301,-1.26509 -1.7344,-1.3483 -0.069,-1.3483 2.5163,0 1.4299,-2.32838 -1.5834,-3.39365 -4.2221,-1.4926 -7.7619,0.0372 -9.4533,4.08539 -1.4046,3.36162 -1.3744,3.80608 0.4216,6.21441 2.3518,3.15361 9.4248,5.19435 10.7229,3.09385 z m -32,-2.01369 c 0,-0.81747 -1.0125,-1.63011 -2.25,-1.80586 -2.1888,-0.31086 -3.1234,1.61274 -1.5487,3.18745 1.165,1.16504 3.7987,0.20715 3.7987,-1.38159 z m 43.3041,-1.86406 c -0.2142,-1.84749 -0.8909,-2.62225 -2.2904,-2.62225 -2.3116,0 -3.213,2.95238 -1.5231,4.9886 1.7783,2.14269 4.1647,0.66188 3.8135,-2.36635 z m -73.3041,1.34975 c -2.2,-0.72506 -6.475,-1.29596 -9.5,-1.26865 l -5.5,0.0496 7,0.8855 c 3.85,0.48702 7.45,1.06957 8,1.29455 0.55,0.22499 1.675,0.3974 2.5,0.38315 0.825,-0.0143 -0.3,-0.61914 -2.5,-1.3442 z m 20.3608,-2.47745 -2.3608,-2.00546 2.8151,1.00546 c 4.0875,1.45988 4.5065,1.21252 1.6849,-0.99455 -2.9612,-2.31633 -1.4387,-2.69604 1.7775,-0.4433 2.612,1.82949 3.037,0.78202 0.4725,-1.16465 -1.0687,-0.8113 -1.2633,-1.34082 -0.5,-1.36025 3.3611,-0.0855 -0.2606,-5.0318 -3.6842,-5.0318 -2.0625,0 -5.0658,4.03145 -5.0658,6.8 0,3.43691 1.6312,5.2 4.8108,5.2 h 2.4108 z m 19.1017,-0.90382 c 1.8105,-4.3711 -0.6381,-8.14117 -6.1401,-9.45374 -1.8669,-0.44537 -3.2079,-0.10864 -4.4286,1.11211 -1.6555,1.65546 -1.6566,1.76908 -0.019,2.08445 1.3731,0.26448 1.4883,0.62686 0.5561,1.75 -1.4177,1.70827 0.1769,1.90891 1.8527,0.23312 0.6508,-0.65084 1.5153,-0.85137 1.921,-0.44563 0.4058,0.40574 0.076,1.15635 -0.7333,1.66802 -1.2007,0.75935 -1.1127,0.93313 0.479,0.94563 1.5166,0.0119 1.6833,0.28198 0.75,1.21531 -1.6638,1.66375 -1.5034,3.13039 0.2679,2.45066 0.8074,-0.30982 1.734,-0.13296 2.0591,0.39301 1.0432,1.68801 2.1995,1.03067 3.4354,-1.95294 z m -35.4097,-1.34073 c -1.6983,-2.55882 -8.901,-8.82179 -15.5528,-13.52364 -4.4269,-3.12919 -14.7844,-7.27795 -17.9065,-7.17258 -0.8764,0.0296 0.9726,0.87424 4.1088,1.87702 3.1363,1.00279 7.7352,3.01456 10.2197,4.4706 5.0394,2.95328 15.8588,12.09236 16.478,13.91882 0.4364,1.28749 2.1489,2.64022 3.3731,2.66447 0.4252,0.008 0.101,-0.99719 -0.7203,-2.23469 z m -3.6361,-0.16179 c -0.8915,-0.88104 -10.9167,-2.26962 -10.9167,-1.51206 0,0.70493 2.2778,1.12962 9.4167,1.75575 1.0542,0.0925 1.7292,-0.0172 1.5,-0.24369 z m -13.5805,-1.65208 c -0.7243,-0.72424 -2.1449,-0.75303 -4.45,-0.0902 l -3.3862,0.97368 4.45,0.0902 c 3.1448,0.0637 4.138,-0.22185 3.3862,-0.97368 z m 91.632,-7.03114 c 0.067,-5.43325 -7.6726,-8.29238 -11.9552,-4.41667 -2.583,2.33753 -2.5895,6.13275 -0.013,7.51168 1.1,0.5887 2,0.8137 2,0.5 0,-0.3137 0.9288,-0.0733 2.064,0.53421 1.5443,0.8265 2.4396,0.79274 3.5564,-0.13409 0.8209,-0.68127 1.4138,-0.82499 1.3176,-0.31939 -0.4362,2.29383 0.1828,2.64189 1.5302,0.8604 0.8075,-1.06762 1.4825,-3.10889 1.5,-4.53614 z m -88.4682,3.09501 c -1.1,-0.47269 -4.925,-0.81159 -8.5,-0.75313 l -6.5,0.1063 7,0.64683 c 10.1756,0.94026 10.1881,0.94026 8,0 z m -4,-4.99673 c -3.9626,-1.01263 -18.5028,-1.2118 -18.4896,-0.25327 0.01,0.4125 4.8432,0.81073 10.75,0.88495 6.6634,0.0837 9.601,-0.15602 7.7396,-0.63168 z m 63.5,-3.09262 c 2.1349,-1.74618 2.181,-1.889 0.3158,-0.97777 -1.2014,0.58692 -2.7764,1.06049 -3.5,1.05238 -0.7237,-0.008 -0.1996,-0.57948 1.1645,-1.26971 1.3642,-0.69023 3.0451,-2.3711 3.7353,-3.73526 1.4919,-2.94849 1.6454,-8.8744 0.2844,-10.98029 -0.728,-1.12655 -0.9741,-0.62861 -0.9884,2 -0.021,3.82835 -2.9676,9.50495 -6.3552,12.24264 -1.8495,1.49469 -1.9429,1.8838 -0.6564,2.73469 2.1504,1.42219 3.1813,1.23892 6,-1.06668 z m -38,-1.00128 c -4.7034,-3.84963 -11.3905,-7.9094 -12.9457,-7.85953 -0.8549,0.0274 0.2765,0.93887 2.514,2.02546 2.2375,1.08659 5.6125,3.29587 7.5,4.90951 1.8875,1.61365 3.8817,2.94219 4.4317,2.95231 0.55,0.0101 -0.125,-0.90236 -1.5,-2.02775 z m -41.25,-0.5987 c -0.9625,-0.25152 -2.5375,-0.25152 -3.5,0 -0.9625,0.25153 -0.175,0.45733 1.75,0.45733 1.925,0 2.7125,-0.2058 1.75,-0.45733 z m 7.5,0.0271 c -0.6875,-0.27741 -1.8125,-0.27741 -2.5,0 -0.6875,0.27742 -0.125,0.50439 1.25,0.50439 1.375,0 1.9375,-0.22697 1.25,-0.50439 z m 67.8488,-3.44347 c 2.1575,-2.30955 2.9012,-4.08898 2.9012,-6.94099 0,-2.10937 -0.518,-4.1554 -1.1512,-4.54672 -1.9973,-1.23442 -7.5603,7.95771 -7.7727,12.84346 -0.1186,2.72844 2.8269,2.06539 6.0227,-1.35575 z m -49.5508,-4.8166 c -0.7217,-1.16773 -13.5188,-4.11331 -17.2454,-3.96946 -1.5414,0.0595 0.3474,0.7139 4.1974,1.45421 3.85,0.74031 8.35,1.77795 10,2.30586 1.65,0.52791 3.1391,0.99852 3.3091,1.04579 0.1699,0.0473 0.053,-0.3291 -0.2611,-0.8364 z m -317.4356,81.3418 c -7.7222,-2.07676 -15.3371,-6.41182 -25.8674,-14.72604 -7.4528,-5.8844 -10.7788,-7.78726 -17.4749,-9.99769 -4.5485,-1.50151 -10.2951,-2.72845 -12.7701,-2.72653 -5.2828,0.004 -9,-0.85041 -9,-2.06897 0,-1.96147 10.2416,-5.74845 21.3939,-7.9107 9.8953,-1.91856 11.6145,-2.51024 10.2317,-3.52137 -0.9141,-0.66843 -3.9277,-1.51588 -6.6969,-1.88322 -5.2536,-0.69692 -11.9287,-3.36621 -11.9287,-4.77014 0,-0.44814 2.5461,-0.81479 5.6579,-0.81479 3.1118,0 10.5613,-0.93812 16.5543,-2.08472 8.1109,-1.55177 13.7586,-1.99915 22.0922,-1.75 10.162,0.30382 11.8224,0.6316 17.984,3.55013 10.3048,4.88103 15.2298,8.89798 23.4759,19.14767 8.1256,10.10003 11.2742,12.16401 18.4536,12.09688 l 4.2821,-0.04 -3,-1.57657 c -4.196,-2.20516 -9.5445,-7.46231 -8.8065,-8.65631 0.3385,-0.54783 0.1186,-0.68892 -0.4888,-0.31354 -1.3893,0.85859 -3.2047,-2.42694 -3.2047,-5.79993 0,-1.97576 -0.8534,-2.95898 -3.75,-4.32039 -2.9431,-1.38332 -3.9483,-2.56433 -4.6718,-5.48927 -0.7576,-3.06301 -0.5964,-4.08627 0.905,-5.74535 1.0048,-1.11023 2.6467,-2.0186 3.6488,-2.0186 1.0021,0 2.6136,-1.2375 3.5812,-2.75 2.4528,-3.83401 4.3639,-5.18125 7.402,-5.2182 5.7671,-0.0701 10.1566,6.83789 6.3515,9.99585 -1.3594,1.12825 -1.283,1.53896 0.6743,3.62244 2.6675,2.83939 4.0008,2.95376 5.5483,0.47595 1.7074,-2.73397 6.0381,-3.53469 8.9166,-1.64862 3.4887,2.28587 3.1169,6.07919 -0.9692,9.88771 -4.1989,3.91371 -3.7074,5.63487 1.6091,5.63487 4.4721,0 11.1534,-3.61552 18.3308,-9.9195 2.2422,-1.96927 -0.5455,0.95279 -6.1947,6.49348 -16.0355,15.72739 -36.2186,29.03253 -52.1003,34.34567 -7.4736,2.50024 -21.8455,2.73833 -30.1692,0.4998 z m 28.8876,-3.21255 7.5,-1.63222 -7.6023,-0.72697 c -8.4662,-0.80957 -18.1973,-3.76692 -24.4473,-7.4297 -2.2694,-1.3299 -4.6286,-2.41801 -5.2428,-2.41801 -0.6141,0 -2.1496,-1.03282 -3.4121,-2.29516 -4.2995,-4.29897 -19.8282,-9.64228 -31.6209,-10.88051 -5.871,-0.61646 -11.3496,-1.51855 -12.1746,-2.00465 -1.7848,-1.05163 15.0997,0.0617 19.3283,1.27448 2.3611,0.67712 2.7493,0.55026 2.2553,-0.73698 -0.427,-1.11267 0.7074,-0.79069 3.9884,1.13212 5.3463,3.13311 6.7914,2.62982 3.3486,-1.16626 l -2.4206,-2.66907 3.5,2.52548 c 5.8659,4.23261 6.3767,4.40608 4.9797,1.69123 -0.8171,-1.58809 0.3053,-0.89897 3.4003,2.08753 5.3015,5.11578 6.2446,3.59271 1.5358,-2.48037 -1.8213,-2.34905 -0.7977,-1.55712 2.5,1.93405 5.5509,5.87663 6.8173,6.36903 4.0842,1.58811 -2.6621,-4.657 -1.5191,-4.42172 1.478,0.30422 2.9919,4.71768 4.8023,6.20722 3.5804,2.94578 -0.3606,-0.9625 1.4118,0.5 3.9387,3.25 2.5269,2.75 4.1238,4.01708 3.5486,2.81574 -1.775,-3.70766 -1.1791,-3.83742 2.2701,-0.49432 1.8237,1.76756 3.6209,2.90859 3.9939,2.53563 0.3729,-0.37297 1.4683,6.7e-4 2.4342,0.83031 3.3496,2.87714 4.6611,3.3104 3.883,1.28275 -0.6608,-1.72206 -0.5818,-1.74063 1.0801,-0.25385 1.4243,1.27425 9.293,2.3916 9.293,1.3196 0,-0.14528 -2.1375,-1.06716 -4.75,-2.04863 -2.6125,-0.98147 -9.8878,-5.62533 -16.1673,-10.3197 -6.2796,-4.69437 -14.0657,-9.60493 -17.3026,-10.91235 -12.1748,-4.91763 -24.8417,-5.46966 -39.4206,-1.71796 -12.9337,3.32833 -13.3595,3.46733 -13.3595,4.36169 0,0.70415 6.5621,2.70167 11.6494,3.54611 4.044,0.67126 15.4615,6.70869 20.6581,10.92374 5.986,4.85533 15.7332,10.91317 21.3298,13.25634 4.2787,1.7914 15.9345,3.21309 21.3627,2.60567 1.925,-0.2154 6.875,-1.12615 11,-2.02387 z m 6.9516,-18.65485 c -2.2623,-2.99637 -4.2039,-6.03387 -4.3146,-6.75 -0.8267,-5.34492 -11.103,-13.89146 -21.4139,-17.80929 -6.7768,-2.57498 -8.0587,-2.51472 -5.4722,0.25724 2.3112,2.47681 7.2032,11.75303 7.3281,13.89523 0.043,0.74512 0.2733,0.89009 0.5109,0.32214 0.2375,-0.56795 -0.6676,-3.83822 -2.0114,-7.26728 -3.4774,-8.87307 -1.1003,-6.53414 3.4776,3.42189 2.1188,4.60791 4.0574,8.37802 4.308,8.37802 0.9248,0 -2.139,-11.00763 -3.7469,-13.46151 -0.9148,-1.39617 -1.2355,-2.53849 -0.7126,-2.53849 0.9082,0 6.0881,10.12428 7.5004,14.65969 0.3699,1.18784 1.3576,2.7283 2.195,3.42326 1.3044,1.08257 1.2853,0.67069 -0.1335,-2.87527 -0.9109,-2.27636 -1.442,-4.71683 -1.1805,-5.42326 0.2713,-0.73257 0.986,0.005 1.6634,1.71558 1.43,3.61198 6.3185,11.49571 7.1298,11.49821 0.3185,9.9e-4 -0.6839,-2.58571 -2.2276,-5.74821 -3.4313,-7.02958 -3.7219,-9.34763 -0.8454,-6.74445 1.1033,0.99854 1.7963,2.02533 1.5399,2.28177 -0.8533,0.85326 2.6267,6.66299 6.2671,10.46268 1.976,2.0625 3.741,3.75 3.9222,3.75 0.1812,0 -1.5215,-2.45158 -3.7838,-5.44795 z m 32.7266,-2.5406 c 6.6653,-3.82275 7.3641,-5.01145 2.946,-5.01145 -1.9217,0 -4.6007,-0.42079 -5.9534,-0.93509 -2.379,-0.90449 -5.6708,-5.96544 -5.6708,-8.71855 0,-0.7405 -0.5128,-1.34636 -1.1397,-1.34636 -0.6269,0 -1.6868,-0.74812 -2.3554,-1.66248 -1.2896,-1.76359 -5.1243,-1.14875 -4.0163,0.64396 0.3552,0.57476 -0.041,0.74387 -0.9366,0.40008 -0.8536,-0.32755 -1.552,-0.11152 -1.552,0.48007 0,0.61254 -0.7534,0.78762 -1.75,0.40669 -1.6287,-0.62258 -1.6401,-0.50299 -0.1646,1.72624 2.8013,4.23217 4.5324,4.71316 7.3697,2.04766 2.7152,-2.55079 3.6209,-1.26102 0.9735,1.38635 -2.1983,2.19828 -6.6531,1.95795 -8.733,-0.47112 -0.9618,-1.1234 -2.2577,-1.72804 -2.8797,-1.34363 -0.7655,0.47306 -0.9438,-0.0164 -0.5521,-1.51455 0.3776,-1.44393 0.1716,-2.07948 -0.5924,-1.82805 -1.931,0.63541 -1.9209,4.47274 0.017,6.51067 0.9963,1.04769 2.5605,3.29491 3.4761,4.99382 2.0167,3.74218 8.0688,7.1233 12.8353,7.17071 2.1042,0.0209 5.5651,-1.14957 8.6782,-2.93497 z m -62.2406,-14.24078 c -0.8562,-2.51267 -2.4299,-5.35873 -3.4971,-6.32457 -1.0673,-0.96584 -1.9405,-2.32558 -1.9405,-3.02163 0,-1.60533 -5.8706,-2.95385 -7.176,-1.6484 -0.6379,0.63787 0.1389,2.251 2.2319,4.63475 3.6356,4.14079 5.3029,4.13196 2.0441,-0.0108 -1.1704,-1.48793 -1.8528,-2.97412 -1.5164,-3.30266 0.9123,-0.89108 6.0746,5.644 8.4495,10.69635 2.6275,5.58984 3.4528,4.98867 1.4045,-1.02302 z m 59.5226,-1.22263 c 1.8829,-2.26881 0.8562,-5.04804 -1.8649,-5.04804 -3.1544,0 -4.9413,2.77569 -3.1648,4.91618 1.638,1.97373 3.4614,2.02153 5.0297,0.13186 z m -70.6185,-2.82556 c -2.2288,-3.78028 -6.4162,-7.72248 -8.2027,-7.72248 -1.5574,0 -0.8669,1.07159 3.1749,4.92719 4.9972,4.76699 6.7721,5.75381 5.0278,2.79529 z m 47.2246,1.17039 c 0.468,-0.75736 -0.066,-0.88265 -1.691,-0.39658 -2.3202,0.6941 -2.3289,0.67414 -0.3753,-0.86106 1.5144,-1.19003 1.6358,-1.58306 0.5,-1.61874 -1.3333,-0.0419 -1.3333,-0.15482 0,-1.01649 1,-0.64625 1.0834,-0.97448 0.25,-0.98469 -0.6875,-0.008 -1.25,-0.45119 -1.25,-0.98393 0,-0.53273 0.675,-0.70959 1.5,-0.39301 0.825,0.31659 1.5,0.29132 1.5,-0.0561 0,-1.12739 -4.7296,-2.46571 -6.8002,-1.92423 -1.1082,0.2898 -2.2523,1.43491 -2.5425,2.5447 -1.0312,3.94339 6.8697,8.98973 8.909,5.69016 z m -57.6363,-1.47726 c -2.3642,-2.84871 -9.7875,-7.45508 -10.4047,-6.45643 -0.3296,0.53329 1.6355,2.10208 4.367,3.4862 2.7314,1.38413 5.2496,2.97515 5.596,3.5356 0.3464,0.56046 0.8833,1.01902 1.1932,1.01902 0.3099,0 -0.028,-0.71298 -0.7515,-1.58439 z m -10.93,0.0334 c 0,-0.74866 -6.6199,-3.46724 -8.2178,-3.37481 -0.7052,0.0408 0.5178,0.90742 2.7178,1.92584 4.315,1.99745 5.5,2.30966 5.5,1.44897 z m 5.4912,-0.46326 c -0.9861,-1.59557 -8.6121,-5.20404 -9.3381,-4.41857 -0.3592,0.38867 -0.2031,0.8708 0.3469,1.07141 0.55,0.20061 2.575,1.20885 4.5,2.24055 4.1036,2.19929 5.3575,2.50824 4.4912,1.10661 z m 7.2755,-2.68571 c -2.035,-2.035 -4.0496,-3.35038 -4.4769,-2.92306 -0.8054,0.80541 5.458,6.54868 7.1936,6.59616 0.5408,0.0148 -0.6817,-1.6381 -2.7167,-3.6731 z m 62.2333,0.7 c 0,-1.33333 -0.6666,-2 -2,-2 -1.9271,0 -2.7099,1.95677 -1.3333,3.33333 1.3766,1.37657 3.3333,0.59386 3.3333,-1.33333 z m 4.7624,-5.25 c 0.6094,-0.75622 0.6684,-2.14455 0.1493,-3.51454 -1.9194,-5.06601 -11.9095,-5.04416 -10.3522,0.0226 0.3789,1.23305 0.7456,2.25997 0.8148,2.28204 0.069,0.0221 1.4757,0.5367 3.1257,1.14362 4.1012,1.50853 5.0918,1.51901 6.2624,0.0662 z m 647.9205,49.59952 c -0.3578,-0.35776 -2.7953,-1.25912 -5.4167,-2.00302 -3.7653,-1.06854 -4.0312,-1.26233 -1.2662,-0.92289 1.925,0.23631 5.75,1.1073 8.5,1.93553 4.3309,1.30436 4.5874,1.5149 1.9167,1.57337 -1.6958,0.0371 -3.376,-0.22523 -3.7338,-0.58299 z m 9.0671,-1.0118 c 0.6875,-0.27741 1.8125,-0.27741 2.5,0 0.6875,0.27741 0.125,0.50439 -1.25,0.50439 -1.375,0 -1.9375,-0.22698 -1.25,-0.50439 z m -8.4282,-1.6638 c -3.2975,-1.21797 -5.3345,-2.67452 -3.7384,-2.67311 0.5041,4.5e-4 3.1666,0.8794 5.9166,1.95323 5.2818,2.06243 3.2629,2.72963 -2.1782,0.71988 z m 22.8178,-0.0683 c 10.0972,-3.95196 19.5609,-10.72383 30.3604,-21.72496 6.05,-6.16292 14.15,-13.55873 18,-16.43514 7.1017,-5.30585 19.2897,-11.98921 20.2013,-11.07757 1.0039,1.00384 -0.7825,2.41543 -7.2604,5.73731 -8.3071,4.25988 -15.9331,10.33592 -31.042,24.73271 -9.6623,9.20689 -13.4026,12.06198 -19.8989,15.18969 -4.4,2.11843 -9.35,4.11061 -11,4.42706 -2.6338,0.50515 -2.5558,0.40152 0.6396,-0.8491 z m -12.6396,-0.29752 c -7.164,-1.64737 -9.489,-2.5168 -8.9711,-3.35477 0.8143,-1.31754 4.827,-1.19748 6.2103,0.1858 0.6265,0.62653 3.304,1.72116 5.95,2.43251 3.727,1.00199 4.135,1.28244 1.8108,1.24487 -1.65,-0.0267 -3.9,-0.25547 -5,-0.50841 z m 5.964,-2.29758 c -6.5133,-0.957 -9.464,-1.91664 -9.464,-3.07791 0,-1.34857 2.2395,-1.14834 6.3458,0.56739 1.9745,0.825 4.7029,1.5 6.0631,1.5 1.3602,0 2.7512,0.45 3.0911,1 0.34,0.55 0.254,0.94386 -0.1909,0.87524 -0.445,-0.0686 -3.0753,-0.45774 -5.8451,-0.86472 z m -631.7023,-2.71778 c 1.2439,-0.23919 3.0439,-0.23011 4,0.0202 0.9561,0.25029 -0.062,0.446 -2.2617,0.4349 -2.2,-0.0111 -2.9822,-0.21589 -1.7383,-0.45508 z m 632.8517,-0.34701 c -5.5811,-0.93541 -7.902,-2.51402 -5.2131,-3.54582 0.9541,-0.36612 2.7919,-0.0999 4.084,0.59167 1.2922,0.69153 4.7493,1.83806 7.6826,2.54783 4.5803,1.10833 4.8391,1.2859 1.8331,1.25793 -1.925,-0.0179 -5.6989,-0.40114 -8.3866,-0.85161 z m 13.3866,-2.94573 c 0,-0.55 0.7016,-1 1.5591,-1 0.8574,0 1.2809,0.45 0.9409,1 -0.3399,0.55 -1.0414,1 -1.559,1 -0.5175,0 -0.941,-0.45 -0.941,-1 z m -13.271,-1.09187 c -2.3825,-1.38706 -1.1159,-3.17501 1.6052,-2.26581 1.1912,0.39802 4.1908,1.28595 6.6658,1.97318 l 4.5,1.24951 -5.5,0.0371 c -3.025,0.0204 -6.2969,-0.42689 -7.271,-0.99397 z m 6.271,-2.56631 c -0.825,-0.27515 -2.1377,-0.70438 -2.9172,-0.95383 -0.9767,-0.31259 -1.0955,-0.77523 -0.3822,-1.48854 0.7133,-0.71332 3.3391,-0.55907 8.4486,0.49633 4.0775,0.84223 8.4824,1.25184 9.7886,0.91025 1.658,-0.43359 2.159,-0.27165 1.6596,0.53645 -0.7109,1.15032 -13.4925,1.53486 -16.5974,0.49934 z m 1.5444,-4.24733 c -1.9139,-0.7486 -1.915,-0.78768 -0.053,-1.82992 1.2804,-0.71658 2.7381,-0.74442 4.4556,-0.0851 1.404,0.53894 5.2527,1.33697 8.5527,1.77341 l 6,0.79351 -8.5,0.0565 c -4.675,0.0311 -9.3801,-0.2877 -10.4557,-0.70842 z m 6.2056,-2.81074 c -1.5125,-0.22913 -2.75,-0.78856 -2.75,-1.24318 0,-1.49756 2.6964,-1.89883 6.6287,-0.98648 2.1292,0.49401 6.1213,0.96526 8.8713,1.04722 l 5,0.14902 -4.5,0.80071 c -4.7611,0.84717 -8.7332,0.91693 -13.25,0.23271 z m -305.7277,-1.89889 c 0.029,-1.16619 3.9267,-6.13467 3.9555,-5.04259 0.012,0.46325 -0.8778,1.98644 -1.9778,3.38486 -1.1,1.39842 -1.9899,2.1444 -1.9777,1.65773 z m 307.5585,-2.25413 c -0.8908,-1.44143 -0.9033,-1.43962 10.6166,-1.54338 5.5059,-0.0496 9.3219,0.28914 8.8289,0.7837 -1.4031,1.4075 -18.6292,2.08048 -19.4455,0.75968 z m 4.2017,-4.23584 c 0.8979,-0.95203 4.1377,-1.37775 10.8051,-1.41978 11.4847,-0.0724 9.1478,1.37089 -3.5876,2.21569 -7.1422,0.47378 -8.2951,0.34664 -7.2175,-0.79591 z m 3.7175,-3.89489 c 0.34,-0.55 2.954,-1.03285 5.8091,-1.073 2.855,-0.0402 7.5534,-0.40948 10.4409,-0.82072 7.4556,-1.06184 6.5333,0.46493 -1.0819,1.79107 -8.0036,1.39376 -15.9994,1.44787 -15.1681,0.10265 z m 4,-3.76214 c 0.55,-0.54065 5.725,-1.20744 11.5,-1.48176 11.1788,-0.53101 8.1484,0.53887 -5,1.76523 -4.9172,0.45864 -7.1556,0.36102 -6.5,-0.28347 z m 3.9148,-3.37577 c -0.7575,-1.22572 6.3379,-2.62994 16.0852,-3.18335 l 9,-0.51098 -5,1.41351 c -6.3742,1.802 -19.4625,3.28828 -20.0852,2.28082 z m 5.0284,-4.77009 c 0.3776,-0.61107 3.585,-1.092 7.2825,-1.092 8.2412,0 7.8411,0.53845 -1.0915,1.46886 -4.869,0.50715 -6.6696,0.39754 -6.191,-0.37686 z m -653.0841,-6.86401 c 0.7913,-1.28022 6.6409,-5.60943 6.6409,-4.91477 0,0.24717 -1.652,1.70946 -3.6711,3.24952 -2.0191,1.54007 -3.3555,2.28943 -2.9698,1.66525 z"
       id="path6299" />
  </g>
</svg>
